<svg xmlns="http://www.w3.org/2000/svg" xmlns:xlink="http://www.w3.org/1999/xlink" viewBox="0 0 128 128"><defs><style>.cls-1{fill:url(#linear-gradient);}.cls-2{fill:url(#linear-gradient-2);}.cls-3{fill:#c7cdd8;}.cls-4{fill:url(#linear-gradient-3);}.cls-5{fill:url(#linear-gradient-4);}.cls-6{fill:#8288a1;}.cls-7{fill:url(#linear-gradient-5);}.cls-8{fill:#f6b756;}.cls-9{fill:#47566a;}</style><linearGradient id="linear-gradient" x1="65.98" y1="107" x2="65.98" y2="21" gradientUnits="userSpaceOnUse"><stop offset="0" stop-color="#d4d8e1"/><stop offset="1" stop-color="#f3f4f5"/></linearGradient><linearGradient id="linear-gradient-2" x1="65.98" y1="88" x2="65.98" y2="40" xlink:href="#linear-gradient"/><linearGradient id="linear-gradient-3" x1="120.48" y1="109" x2="120.48" y2="15" gradientUnits="userSpaceOnUse"><stop offset="0" stop-color="#949aaf"/><stop offset="1" stop-color="#c6ccda"/></linearGradient><linearGradient id="linear-gradient-4" x1="11.98" x2="11.98" xlink:href="#linear-gradient-3"/><linearGradient id="linear-gradient-5" x1="65.98" y1="76" x2="65.98" y2="52" gradientUnits="userSpaceOnUse"><stop offset="0" stop-color="#fbcc88"/><stop offset="1" stop-color="#ffe5c3"/></linearGradient></defs><title>Calories</title><g id="Calories"><circle class="cls-1" cx="65.98" cy="64" r="43"/><circle class="cls-2" cx="65.98" cy="64" r="24"/><path class="cls-3" d="M89.89,66a24,24,0,0,0-47.82,0,24,24,0,1,1,47.82,0Z"/><path class="cls-3" d="M66,107A43,43,0,0,1,23,62a43,43,0,0,0,85.9,0A43,43,0,0,1,66,107Z"/><path class="cls-4" d="M114,38.26V61l5,3v41a4,4,0,0,0,8,0V15A27.32,27.32,0,0,0,114,38.26Z"/><path class="cls-5" d="M21.16,15A2,2,0,0,0,19,17V34.34A2.61,2.61,0,0,1,16.33,37,2.5,2.5,0,0,1,14,34.5V17.11A2.08,2.08,0,0,0,12.16,15,2,2,0,0,0,10,17V34.34A2.61,2.61,0,0,1,7.33,37,2.5,2.5,0,0,1,5,34.5V17.11A2.08,2.08,0,0,0,3.16,15,2,2,0,0,0,1,17V37a10,10,0,0,0,7,9.52V105a4,4,0,0,0,8,0V46.52A10,10,0,0,0,23,37V17.11A2.08,2.08,0,0,0,21.16,15Z"/><path class="cls-6" d="M127,101c0,3.71.34,5.31-1.17,6.83A4,4,0,0,1,119,105v-4a4,4,0,0,0,8,0Z"/><path class="cls-6" d="M16,101v4a4,4,0,0,1-8,0v-4a4,4,0,0,0,8,0Z"/><rect class="cls-7" x="34.98" y="52" width="62" height="24"/><rect class="cls-8" x="34.98" y="73" width="62" height="3"/><path class="cls-9" d="M127.49,14.13a1,1,0,0,0-1,0A28.47,28.47,0,0,0,113,38.26V61a1,1,0,0,0,.49.86L118,64.57V105a5,5,0,0,0,10,0V15A1,1,0,0,0,127.49,14.13ZM126,105a3,3,0,0,1-6,0V64a1,1,0,0,0-.49-.86L115,60.43V38.26a26.5,26.5,0,0,1,11-21.39Z"/><path class="cls-9" d="M24,17.11A3.07,3.07,0,0,0,21.26,14h0A3,3,0,0,0,18,17V34.34a1.77,1.77,0,0,1-.54,1.26,1.42,1.42,0,0,1-1.05.4,1.48,1.48,0,0,1-1-.44A1.5,1.5,0,0,1,15,34.5V17.11A3.07,3.07,0,0,0,12.26,14,3,3,0,0,0,9,17V34.34a1.77,1.77,0,0,1-.54,1.26,1.43,1.43,0,0,1-1.05.4,1.48,1.48,0,0,1-1-.44A1.5,1.5,0,0,1,6,34.5V17.11A3.07,3.07,0,0,0,3.26,14a3,3,0,0,0-2.37.86A3,3,0,0,0,0,17V37A10.91,10.91,0,0,0,7,47.23V105a5,5,0,0,0,10,0V47.23A10.91,10.91,0,0,0,24,37ZM22,37a8.92,8.92,0,0,1-6.3,8.56,1,1,0,0,0-.7,1V105a3,3,0,0,1-6,0V46.52a1,1,0,0,0-.7-1A8.92,8.92,0,0,1,2,37V17a1,1,0,0,1,.31-.71A.93.93,0,0,1,3,16h.09A1.09,1.09,0,0,1,4,17.11V34.5A3.48,3.48,0,0,0,5,37a3.52,3.52,0,0,0,2.27,1,3.37,3.37,0,0,0,2.54-.94A3.75,3.75,0,0,0,11,34.34V17a1,1,0,0,1,.31-.71.94.94,0,0,1,.78-.29A1.09,1.09,0,0,1,13,17.11V34.5A3.48,3.48,0,0,0,14,37a3.52,3.52,0,0,0,2.27,1,3.36,3.36,0,0,0,2.54-.94A3.75,3.75,0,0,0,20,34.34V17a1,1,0,0,1,.31-.71.94.94,0,0,1,.78-.29A1.09,1.09,0,0,1,22,17.11Z"/><path class="cls-9" d="M66,39A25,25,0,0,0,44.68,51H35a1,1,0,0,0-1,1V76a1,1,0,0,0,1,1h9.68a24.94,24.94,0,0,0,42.64,0H97a1,1,0,0,0,1-1V52a1,1,0,0,0-1-1H87.32A25,25,0,0,0,66,39Zm0,2A23,23,0,0,1,85,51H47.05A23,23,0,0,1,66,41Zm0,46a23,23,0,0,1-19-10H85A23,23,0,0,1,66,87ZM96,75H36V53H96Z"/><path class="cls-9" d="M66,20a44,44,0,1,0,44,44A44.05,44.05,0,0,0,66,20Zm0,86a42,42,0,1,1,42-42A42,42,0,0,1,66,106Z"/><path class="cls-9" d="M54,56a1,1,0,0,0-1,1v1a5,5,0,0,1-4,4.9V57a1,1,0,0,0-2,0V71a1,1,0,0,0,2,0V65.1A5,5,0,0,1,53,70v1a1,1,0,0,0,2,0V70a7,7,0,0,0-3.41-6A7,7,0,0,0,55,58V57A1,1,0,0,0,54,56Z"/><path class="cls-9" d="M66.12,64.88a1,1,0,1,0,1.42-1.42,5,5,0,1,0,0,7.08,1,1,0,0,0-1.42-1.42,3.08,3.08,0,0,1-4.24,0,3,3,0,0,1,0-4.24A3.08,3.08,0,0,1,66.12,64.88Z"/><path class="cls-9" d="M79,62a1,1,0,0,0-1,1v0a4.92,4.92,0,0,0-3-1,5,5,0,0,0,0,10,4.92,4.92,0,0,0,3-1v0a1,1,0,0,0,2,0V63A1,1,0,0,0,79,62Zm-4,8a3,3,0,1,1,3-3A3,3,0,0,1,75,70Z"/><path class="cls-9" d="M84,56a1,1,0,0,0-1,1V71a1,1,0,0,0,2,0V57A1,1,0,0,0,84,56Z"/></g></svg>