<svg xmlns="http://www.w3.org/2000/svg" xmlns:xlink="http://www.w3.org/1999/xlink" viewBox="0 0 128 128"><defs><style>.cls-1{fill:url(#linear-gradient);}.cls-2{fill:url(#linear-gradient-2);}.cls-3{fill:url(#linear-gradient-3);}.cls-4{fill:#f6b756;}.cls-5{fill:url(#linear-gradient-4);}.cls-6{fill:url(#linear-gradient-5);}.cls-7{fill:url(#linear-gradient-6);}.cls-8{fill:url(#linear-gradient-7);}.cls-9{fill:url(#linear-gradient-8);}.cls-10{fill:#cba07a;}.cls-11{fill:url(#linear-gradient-9);}.cls-12{fill:url(#linear-gradient-10);}.cls-13{fill:url(#linear-gradient-11);}.cls-14{fill:url(#linear-gradient-12);}.cls-15{fill:#c7cdd8;}.cls-16{fill:url(#linear-gradient-13);}.cls-17{fill:url(#linear-gradient-14);}.cls-18{fill:url(#linear-gradient-15);}.cls-19{fill:url(#linear-gradient-16);}.cls-20{fill:#47566a;}</style><linearGradient id="linear-gradient" x1="46.5" y1="127" x2="46.5" y2="29" gradientUnits="userSpaceOnUse"><stop offset="0" stop-color="#d1a788"/><stop offset="1" stop-color="#f2d3b8"/></linearGradient><linearGradient id="linear-gradient-2" x1="46.5" y1="96" x2="46.5" y2="36" gradientUnits="userSpaceOnUse"><stop offset="0" stop-color="#d4d8e1"/><stop offset="1" stop-color="#f3f4f5"/></linearGradient><linearGradient id="linear-gradient-3" x1="46.5" y1="63.7" x2="46.5" y2="42" gradientUnits="userSpaceOnUse"><stop offset="0" stop-color="#fbcc88"/><stop offset="1" stop-color="#ffe5c3"/></linearGradient><linearGradient id="linear-gradient-4" x1="53.5" y1="72" x2="53.5" y2="53.98" xlink:href="#linear-gradient-3"/><linearGradient id="linear-gradient-5" x1="39.5" y1="72" x2="39.5" y2="53.98" xlink:href="#linear-gradient-3"/><linearGradient id="linear-gradient-6" x1="53.5" y1="80" x2="53.5" y2="62" xlink:href="#linear-gradient-3"/><linearGradient id="linear-gradient-7" x1="39.5" y1="80" x2="39.5" y2="61.98" xlink:href="#linear-gradient-3"/><linearGradient id="linear-gradient-8" x1="53.5" y1="88" x2="53.5" y2="70" xlink:href="#linear-gradient-3"/><linearGradient id="linear-gradient-9" x1="95.5" y1="123" x2="95.5" y2="94.96" xlink:href="#linear-gradient-3"/><linearGradient id="linear-gradient-10" x1="95.5" y1="127" x2="95.5" y2="121.15" xlink:href="#linear-gradient-3"/><linearGradient id="linear-gradient-11" x1="95.5" y1="95" x2="95.5" y2="81" xlink:href="#linear-gradient-2"/><linearGradient id="linear-gradient-12" y1="21" x2="46.5" y2="1" xlink:href="#linear-gradient-2"/><linearGradient id="linear-gradient-13" y1="29" x2="46.5" y2="21" xlink:href="#linear-gradient"/><linearGradient id="linear-gradient-14" x1="39.5" y1="88" x2="39.5" y2="69.98" xlink:href="#linear-gradient-3"/><linearGradient id="linear-gradient-15" x1="53.5" y1="88" x2="53.5" y2="78" xlink:href="#linear-gradient-3"/><linearGradient id="linear-gradient-16" x1="39.5" y1="88" x2="39.5" y2="78" xlink:href="#linear-gradient-3"/></defs><title>Carbs</title><g id="Carbs"><path class="cls-1" d="M91.5,79c0,3.55-1.7,27.22-3,48H4.5a3,3,0,0,1-3-3c0-3,5-4.18,5-7,0-15.58-12.33-24.54,2-88h76S91.5,60,91.5,79Z"/><path class="cls-2" d="M76.5,66a30,30,0,0,1-29,30c-.33,0-.66,0-1,0s-.67,0-1,0a30,30,0,1,1,31-30Z"/><path class="cls-3" d="M51.5,52a10.63,10.63,0,0,1-.76,3.84l-.23.16h0a10.06,10.06,0,0,0-2.27,2.38h0A10,10,0,0,0,46.5,63.7a10,10,0,0,0-4.24-7.86A10.75,10.75,0,0,1,41.5,52c0-3.73,2.5-7.77,5-10C46.5,42,51.5,46.48,51.5,52Z"/><path class="cls-4" d="M51.5,52a10.75,10.75,0,0,1-.76,3.83,10.05,10.05,0,0,0-4.23,7.84,10.06,10.06,0,0,0-1.73-5.29A13,13,0,0,1,51.5,52Z"/><path class="cls-5" d="M60.5,54a10,10,0,0,1-4,8c-.1,0,.15-.15-10,10V64a10,10,0,0,1,4-8h0C53.71,53.6,56.46,54,60.5,54Z"/><path class="cls-4" d="M46.5,63.7a10,10,0,0,0-4.24-7.86A10.75,10.75,0,0,1,41.5,52a12.52,12.52,0,0,1,5,3.7,12.72,12.72,0,0,1,1.74,2.68A10,10,0,0,0,46.5,63.7Z"/><path class="cls-6" d="M46.49,63.71c0,.15,0-.47,0,8.29l-10-10a10.07,10.07,0,0,1-4-8c4.06,0,6.81-.38,10,2a10.06,10.06,0,0,1,4,7.68S46.51,63.69,46.49,63.71Z"/><path class="cls-4" d="M59.16,59a9.92,9.92,0,0,1-2.66,3c-.1,0,.09-.09-10,10l-2.72-2.72A13,13,0,0,1,56.5,59Z"/><path class="cls-4" d="M49.22,69.28,46.5,72c-10.28-10.28-9.9-10-10-10a9.92,9.92,0,0,1-2.66-3H36.5A13,13,0,0,1,49.22,69.28Z"/><path class="cls-7" d="M60.5,62a10,10,0,0,1-4,8c-.1,0,.15-.15-10,10V72a10,10,0,0,1,10-10Z"/><path class="cls-8" d="M46.5,72v8c-10.28-10.28-9.9-10-10-10a10,10,0,0,1-4-8c4.1,0,6.84-.38,10,2C42.94,64,46.5,67.31,46.5,72Z"/><path class="cls-4" d="M59.16,67a9.92,9.92,0,0,1-2.66,3c-.1,0,.09-.09-10,10l-2.72-2.72A13,13,0,0,1,56.5,67Z"/><path class="cls-4" d="M49.22,77.28,46.5,80c-10.28-10.28-9.9-10-10-10a9.92,9.92,0,0,1-2.66-3H36.5A13,13,0,0,1,49.22,77.28Z"/><path class="cls-9" d="M60.5,70a10,10,0,0,1-4,8c-.1,0,.15-.15-10,10V80a10,10,0,0,1,10-10Z"/><path class="cls-10" d="M90.39,98l-1.81,27.72A28,28,0,0,1,64.5,98Z"/><path class="cls-10" d="M88.5,127H4.5a3,3,0,0,1-2.21-5,3,3,0,0,0,2.21,1h84Z"/><path class="cls-11" d="M98.5,123h-6a28,28,0,0,1-28-28c0-.1-1.6,0,62,0A28,28,0,0,1,98.5,123Z"/><polyline class="cls-12" points="108.5 121.15 108.5 127 82.5 127 82.5 121.15"/><path class="cls-4" d="M125.53,102.32A28,28,0,0,1,98.5,123h-6a28,28,0,0,1-27-20.68A28,28,0,0,0,91.5,120h8A28,28,0,0,0,125.53,102.32Z"/><path class="cls-13" d="M123.5,95h-56S80,81,95.5,81,123.5,95,123.5,95Z"/><path class="cls-14" d="M82.5,21h-72S26.62,1,46.5,1,82.5,21,82.5,21Z"/><path class="cls-15" d="M123.5,95h-56a41.05,41.05,0,0,1,3.1-3h49.8A41.05,41.05,0,0,1,123.5,95Z"/><path class="cls-15" d="M82.5,21h-72s1-1.2,2.71-3H79.79C81.54,19.8,82.5,21,82.5,21Z"/><path class="cls-16" d="M85.5,29H7.5a4,4,0,0,1,0-8h78a4,4,0,0,1,0,8Z"/><path class="cls-10" d="M85.5,29H7.5a4,4,0,0,1-3.7-5.5A4,4,0,0,0,7.5,26h78a4,4,0,0,0,3.7-2.5A4,4,0,0,1,85.5,29Z"/><path class="cls-17" d="M46.5,80v8c-10.28-10.28-9.9-10-10-10a10,10,0,0,1-4-8c4.1,0,6.84-.38,10,2C42.94,72,46.5,75.31,46.5,80Z"/><path class="cls-4" d="M59.16,75a9.92,9.92,0,0,1-2.66,3c-.1,0,.09-.09-10,10l-2.72-2.72A13,13,0,0,1,56.5,75Z"/><path class="cls-18" d="M46.5,88h4a10,10,0,0,0,10-10h-4A10,10,0,0,0,46.5,88Z"/><path class="cls-4" d="M49.22,85.28,46.5,88c-10.28-10.28-9.9-10-10-10a9.92,9.92,0,0,1-2.66-3H36.5A13,13,0,0,1,49.22,85.28Z"/><path class="cls-19" d="M46.5,88h-4a10,10,0,0,1-10-10h4A10,10,0,0,1,46.5,88Z"/><path class="cls-4" d="M60.5,78a10,10,0,0,1-10,10h-4A9.91,9.91,0,0,1,47,85H50.5A10,10,0,0,0,60,78Z"/><path class="cls-4" d="M46.5,88h-4a10,10,0,0,1-10-10H33a10,10,0,0,0,9.54,7H46A9.91,9.91,0,0,1,46.5,88Z"/><path class="cls-20" d="M127,95a1,1,0,0,0-1-1h-2.56C121.38,91.81,109.59,80,95,80a27.37,27.37,0,0,0-3,.17c0-.39,0-.78,0-1.17,0-16.8-5.49-43.16-6.76-49A5,5,0,0,0,85,20H82.47C80.07,17.15,64.86,0,46,0S11.93,17.15,9.53,20H7a5,5,0,0,0-.24,10C5.49,35.84,0,62.2,0,79a119.71,119.71,0,0,0,3.31,27.07C4.25,110.48,5,114,5,117c0,.93-1,1.75-2.13,2.67C1.59,120.71,0,122,0,124a4,4,0,0,0,4,4H108a1,1,0,0,0,1-1v-5.17A29.05,29.05,0,0,0,127,95Zm-6.41-1H69.41C73.25,90.36,83.35,82,95,82S116.75,90.36,120.59,94ZM46,2C61.86,2,75.47,15.3,79.79,20H12.21C16.53,15.3,30.14,2,46,2ZM4,25a3,3,0,0,1,3-3H85a3,3,0,0,1,0,6H7A3,3,0,0,1,4,25ZM2,124c0-1,.88-1.77,2.18-2.83S7,118.88,7,117a57.31,57.31,0,0,0-1.74-11.35A118.61,118.61,0,0,1,2,79C2,62,7.74,34.89,8.8,30H83.2C84.26,34.89,90,62,90,79c0,.49,0,1,0,1.46C77.77,82.66,68.38,92.07,66.56,94H64a1,1,0,0,0-1,1,29.05,29.05,0,0,0,18,26.83V126H4A2,2,0,0,1,2,124Zm105,2H83v-3.44A28.85,28.85,0,0,0,92,124h6a28.85,28.85,0,0,0,9-1.44Zm-9-4H92A27,27,0,0,1,65,96h60A27,27,0,0,1,98,122Z"/><circle class="cls-20" cx="82" cy="88" r="1"/><circle class="cls-20" cx="84" cy="92" r="1"/><circle class="cls-20" cx="78" cy="91" r="1"/><circle class="cls-20" cx="89" cy="85" r="1"/><circle class="cls-20" cx="87" cy="89" r="1"/><circle class="cls-20" cx="91" cy="91" r="1"/><circle class="cls-20" cx="25" cy="13" r="1"/><circle class="cls-20" cx="27" cy="17" r="1"/><circle class="cls-20" cx="21" cy="16" r="1"/><circle class="cls-20" cx="32" cy="10" r="1"/><circle class="cls-20" cx="30" cy="14" r="1"/><circle class="cls-20" cx="34" cy="16" r="1"/><path class="cls-20" d="M77,66A31,31,0,1,0,46,97,31,31,0,0,0,77,66ZM36,79a9,9,0,0,1,8.94,8H42a9,9,0,0,1-8.94-8Zm6.7.3,0,0A10.85,10.85,0,0,0,36.38,77a9,9,0,0,1-3.33-6h3a8.84,8.84,0,0,1,5.38,1.8l.08.06A8.91,8.91,0,0,1,45,80v1.7A10.92,10.92,0,0,0,42.7,79.3ZM56,79h2.94A9,9,0,0,1,50,87H47.06A9,9,0,0,1,56,79Zm-.38-2a10.85,10.85,0,0,0-6.21,2.2.6.6,0,0,0-.13.09A11.25,11.25,0,0,0,47,81.7V80a8.91,8.91,0,0,1,3.53-7.14l.08-.06A8.85,8.85,0,0,1,56,71h3A8.91,8.91,0,0,1,55.62,77Zm0-8a10.9,10.9,0,0,0-6.14,2.13l-.09.06A11.1,11.1,0,0,0,47,73.69V72a8.91,8.91,0,0,1,3.53-7.14l.08-.06A8.85,8.85,0,0,1,56,63h3A8.93,8.93,0,0,1,55.63,69Zm0-8a10.9,10.9,0,0,0-6.14,2.13l-.09.06A11.1,11.1,0,0,0,47,65.69V64a9,9,0,0,1,3.46-7.07.94.94,0,0,0,.54-.4A9,9,0,0,1,56,55h3A8.93,8.93,0,0,1,55.63,61Zm-6.24-5.78A10.9,10.9,0,0,0,46,59.47a10.9,10.9,0,0,0-3.39-4.24A9.58,9.58,0,0,1,42,52c0-3.83,2.71-7.2,4-8.58,1.29,1.38,4,4.74,4,8.58A9.58,9.58,0,0,1,49.39,55.23ZM41,56.55a1,1,0,0,0,.49.36A9,9,0,0,1,45,64v1.69a11.1,11.1,0,0,0-2.4-2.49l-.09-.06A10.84,10.84,0,0,0,36.38,61a8.91,8.91,0,0,1-3.33-6h3A8.93,8.93,0,0,1,41,56.55ZM36,63h0a8.84,8.84,0,0,1,5.38,1.8l.08.06A8.91,8.91,0,0,1,45,72v1.69a11.1,11.1,0,0,0-2.4-2.49l-.09-.06A10.84,10.84,0,0,0,36.38,69a8.91,8.91,0,0,1-3.33-6ZM47,95V89h3A11,11,0,0,0,61,78a1,1,0,0,0-1-1H58.49A11,11,0,0,0,61,70a1,1,0,0,0-1-1H58.49A11,11,0,0,0,61,62a1,1,0,0,0-1-1H58.49A11,11,0,0,0,61,54a1,1,0,0,0-1-1H56a10.92,10.92,0,0,0-4.17.82A11.31,11.31,0,0,0,52,52c0-5.9-5.12-10.55-5.33-10.75a1,1,0,0,0-1.34,0C45.12,41.45,40,46.1,40,52a11.31,11.31,0,0,0,.17,1.82A10.92,10.92,0,0,0,36,53H32a1,1,0,0,0-1,1,11,11,0,0,0,2.51,7H32a1,1,0,0,0-1,1,11,11,0,0,0,2.51,7H32a1,1,0,0,0-1,1,11,11,0,0,0,2.51,7H32a1,1,0,0,0-1,1A11,11,0,0,0,42,89h3v6a29,29,0,1,1,2,0Z"/></g></svg>