<svg xmlns="http://www.w3.org/2000/svg" xmlns:xlink="http://www.w3.org/1999/xlink" viewBox="0 0 128 128"><defs><style>.cls-1{fill:url(#linear-gradient);}.cls-2{fill:#c7cdd8;}.cls-3{fill:url(#linear-gradient-2);}.cls-4{fill:#ffe5c3;}.cls-5{fill:#ffd39f;}.cls-6{fill:url(#linear-gradient-3);}.cls-7{fill:url(#linear-gradient-4);}.cls-8{fill:url(#linear-gradient-5);}.cls-9{fill:#7ece67;}.cls-10{fill:url(#linear-gradient-6);}.cls-11{fill:url(#linear-gradient-7);}.cls-12{fill:#f6b756;}.cls-13{fill:#47566a;}</style><linearGradient id="linear-gradient" x1="74.43" y1="17.02" x2="74.43" y2="0.97" gradientUnits="userSpaceOnUse"><stop offset="0" stop-color="#d4d8e1"/><stop offset="1" stop-color="#f3f4f5"/></linearGradient><linearGradient id="linear-gradient-2" x1="92" y1="126.99" x2="92" y2="119.8" xlink:href="#linear-gradient"/><linearGradient id="linear-gradient-3" x1="92.96" y1="88.99" x2="92.96" y2="16.97" gradientUnits="userSpaceOnUse"><stop offset="0" stop-color="#fbcc88"/><stop offset="1" stop-color="#ffe5c3"/></linearGradient><linearGradient id="linear-gradient-4" x1="42.43" y1="17.04" x2="42.43" y2="0.99" xlink:href="#linear-gradient-3"/><linearGradient id="linear-gradient-5" x1="47.96" y1="96.04" x2="47.96" y2="35.99" gradientUnits="userSpaceOnUse"><stop offset="0" stop-color="#8cdd79"/><stop offset="1" stop-color="#d4e6b6"/></linearGradient><linearGradient id="linear-gradient-6" x1="91.98" y1="120.99" x2="91.98" y2="88.96" xlink:href="#linear-gradient"/><linearGradient id="linear-gradient-7" x1="112.51" y1="88.98" x2="112.51" y2="63.87" gradientUnits="userSpaceOnUse"><stop offset="0" stop-color="#949aaf"/><stop offset="1" stop-color="#c6ccda"/></linearGradient></defs><title>Cereal</title><g id="Cereal"><path class="cls-1" d="M35.93,17l66-.05,11-16-64,0"/><polygon class="cls-2" points="112.92 0.97 101.93 16.98 35.93 17.02 39.18 13.02 101.93 12.97 110.17 0.97 112.92 0.97"/><rect class="cls-3" x="77" y="119.81" width="30" height="7.17"/><rect class="cls-2" x="77" y="123.98" width="30" height="3"/><path class="cls-4" d="M84,115,12,115l-.07-98,72-.05Z"/><path class="cls-5" d="M84,115,12,115v-5L84,110Z"/><path class="cls-6" d="M84,89l0-72,18,0,0,72"/><polygon class="cls-7" points="83.93 16.99 11.93 17.04 0.92 1.04 72.92 0.99 83.93 16.99"/><polygon class="cls-8" points="83.96 65.99 11.98 96.04 11.96 66.04 83.94 35.99 83.96 65.99"/><polygon class="cls-9" points="83.96 59.99 83.96 65.99 11.98 96.04 11.98 90.04 83.96 59.99"/><path class="cls-10" d="M57,89h70a0,0,0,0,1,0,0v4a28,28,0,0,1-28,28H85A28,28,0,0,1,57,93V89A0,0,0,0,1,57,89Z"/><path class="cls-2" d="M125.52,101.89A28,28,0,0,1,99,121H85a28,28,0,0,1-26.54-19.06A28.8,28.8,0,0,0,83.79,117h16.42A28.81,28.81,0,0,0,125.52,101.89Z"/><path class="cls-11" d="M98,89c26.14-26.18,24.56-25.13,26.3-25.09A2.83,2.83,0,0,1,127,66.64c0,1.75.87.38-21,22.33"/><polygon class="cls-12" points="83.93 16.99 11.93 17.04 9.18 13.04 81.18 12.99 83.93 16.99"/><path class="cls-13" d="M127,88H108.41L127,69.46a3.9,3.9,0,0,0,1.11-2.81,3.85,3.85,0,0,0-3.72-3.72A3.9,3.9,0,0,0,121.54,64L103,82.59V17.31L113.82,1.57A1,1,0,0,0,113,0H1A1,1,0,0,0,.11.53a1,1,0,0,0,.07,1L11,17.31V115a1,1,0,0,0,1,1H67.37A28.79,28.79,0,0,0,76,120.56V127a1,1,0,0,0,1,1h30a1,1,0,0,0,1-1v-6.44A29,29,0,0,0,128,93V89A1,1,0,0,0,127,88Zm-4-22.54a1.77,1.77,0,0,1,1.33-.53,1.83,1.83,0,0,1,1.78,1.82,1.81,1.81,0,0,1-.53,1.29l-20,20h-5.18l2.3-2.29h0ZM97.59,88H85V18h16V84.59ZM13,18H83V35.33L13,64.5Zm0,48.67L83,37.5V65.33L13,94.5ZM101.47,16H84.53L74.9,2h36.2ZM49,2H72.47L82.1,16H12.53L2.9,2ZM13,114V96.67L83,67.5V88H57a1,1,0,0,0-1,1v4a28.9,28.9,0,0,0,9,21Zm93,12H78v-4.86a28.86,28.86,0,0,0,7,.86H99a28.86,28.86,0,0,0,7-.86Zm20-33a27,27,0,0,1-27,27H85A27,27,0,0,1,58,93V90h68Z"/></g></svg>