<svg xmlns="http://www.w3.org/2000/svg" xmlns:xlink="http://www.w3.org/1999/xlink" viewBox="0 0 128 128"><defs><style>.cls-1{fill:url(#linear-gradient);}.cls-2{fill:#f6b756;}.cls-3{fill:url(#linear-gradient-2);}.cls-4{fill:#7ece67;}.cls-5{fill:url(#linear-gradient-3);}.cls-6{fill:#dd4e6a;}.cls-7{fill:url(#linear-gradient-4);}.cls-8{fill:#47566a;}</style><linearGradient id="linear-gradient" x1="83.6" y1="87.73" x2="83.6" y2="0.96" gradientUnits="userSpaceOnUse"><stop offset="0" stop-color="#fbcc88"/><stop offset="1" stop-color="#ffe5c3"/></linearGradient><linearGradient id="linear-gradient-2" x1="53.28" y1="126.99" x2="53.28" y2="81.96" gradientUnits="userSpaceOnUse"><stop offset="0" stop-color="#8cdd79"/><stop offset="1" stop-color="#d4e6b6"/></linearGradient><linearGradient id="linear-gradient-3" x1="97" y1="122" x2="97" y2="62" gradientUnits="userSpaceOnUse"><stop offset="0" stop-color="#da5466"/><stop offset="1" stop-color="#e87092"/></linearGradient><linearGradient id="linear-gradient-4" x1="23.51" y1="117.38" x2="23.51" y2="32.06" xlink:href="#linear-gradient-2"/></defs><title>Corn Free</title><g id="Corn_Free" data-name="Corn Free"><path class="cls-1" d="M127,12.28C127.74,31,101,66,87.89,79.1c-2,2.12-6.81,7.2-8,8.26-.61.65,3.5.75-36.9-2.36-.38-4.92.11,1.53-2.75-35.65-.07-1-.31-.58,1.08-2a262.66,262.66,0,0,1,29.45-25.5C82,13.56,107.48-3,120.55,1.84a10.52,10.52,0,0,1,2.14,1.09A8.79,8.79,0,0,1,125,5.24C125.75,6,127,9,127,12.28Z"/><path class="cls-2" d="M127,12.28C127.74,31,101,66,87.89,79.1c-2,2.12-6.81,7.2-8,8.26-.61.65,3.5.75-36.9-2.36l-.29-3.71,32.74,2.52c13.34-12.46,35-39.12,42.75-57.19,2.67-5.67,6-15.55,4.41-21.61-.53-2.64-1.55-3.06-.41-2.39C124.75,4,127,7.38,127,12.28Z"/><path class="cls-3" d="M43.74,84.26a43.67,43.67,0,0,1,24.56-1c7.44,2.61,8,2.63,11.15,4.56,7.44,4.43,10,8.78,13.72,13.67a40.6,40.6,0,0,1,2.77,5.4,65,65,0,0,0-9.17,1c-18.56,6-9.12,2.4-29.1,13.1-16.08,8.62-34.92,8.43-47-3.65l-.05,0"/><path class="cls-4" d="M95.94,106.88c-8.85.39-9.38,1.07-21.42,5-5.11,2.39-10.09,5.51-16.85,9.13-17.38,9.32-35.68,7.58-46.95-3.6-.14-.14-.52.33,3.68-3.86,11.33,8.28,27.67,8.83,43.27.46,20-10.7,10.53-7.08,29.1-13.1,1.68-.31,3.46-.56,5.39-.74A26.58,26.58,0,0,1,95.94,106.88Z"/><path class="cls-2" d="M86.5,80.58c-.46.51-1.29,1.38-1.39,1.48a52.49,52.49,0,0,1-5.46-3.49A1,1,0,0,1,80.81,77C85.13,80,86.22,80.3,86.5,80.58Z"/><path class="cls-5" d="M97,62a30,30,0,1,0,30,30A30,30,0,0,0,97,62ZM75,92c0-17.89,20.12-28,34.48-18.13L78.87,104.48A21.91,21.91,0,0,1,75,92Zm22,22a21.91,21.91,0,0,1-12.48-3.87l30.61-30.61C125,93.83,114.93,114,97,114Z"/><path class="cls-6" d="M127,90.54a30,30,0,0,1-59.92,0C66,107.13,79.55,122,97,122S128,107.17,127,90.54Z"/><path class="cls-7" d="M10.72,117.38c-11.27-11.27-13-29.62-3.7-47,7.86-14.67,13.35-21,14.1-38.27,12.36,5.21,25.45,18.15,24.89,40S25.8,113.42,10.72,117.38Z"/><path class="cls-4" d="M46,72.06c-.57,21.72-20.21,41.36-35.29,45.32-7.16-7.16-10.49-17.17-9.56-28,1.23,13.78,17.55,19.46,27.32,10.53,9-8.19,16.38-20.05,17.42-32.79C46,68.73,46.05,70.37,46,72.06Z"/><path class="cls-8" d="M103.91,61.79c2.87-3.72,5.55-7.41,8-11,1.69-2.52,3.29-5,4.75-7.47l0,0v0c1.3-2.18,2.5-4.32,3.58-6.35a.35.35,0,0,1,.05-.08v0c1.32-2.5,2.49-5,3.51-7.33a0,0,0,0,1,0,0h0c5.18-12.2,5.56-21.13,1.13-25.89a2,2,0,0,0-.19-.22l0,0,0,0-.22-.19c-4.76-4.43-13.69-4-25.89,1.13h0c-2.37,1-4.83,2.19-7.34,3.51h0l0,0,0,0c-2,1.07-4.18,2.28-6.36,3.58-2.46,1.47-5,3.08-7.53,4.79-4.22,2.84-8.59,6-13,9.49-2,1.58-4,3.22-6,4.87C54.12,34,50,37.65,46,41.45c-1.82,1.73-3.67,3.52-5.48,5.33l-.11.12a43,43,0,0,0-18.9-15.76,1,1,0,0,0-1.38.88c-.62,14-4.37,20.65-10,30.71C8.83,65,7.54,67.25,6.14,69.86-3.27,87.4-1.75,106.33,10,118.09h0A35,35,0,0,0,35.1,128a49,49,0,0,0,23-6.13c2.62-1.4,4.93-2.7,7.16-4,3.26-1.84,6.11-3.44,9-4.83a31,31,0,1,0,29.62-51.28Zm-4-.65a56.87,56.87,0,0,1-5.29-3.52c1.29-1.48,2.6-3,4-4.63a41.31,41.31,0,0,0,6.55,3.84q-1.66,2.25-3.43,4.53C101.13,61.27,100.53,61.2,99.93,61.14ZM52.21,38.43a69.53,69.53,0,0,0,4.85,7q-2.13,2-4.26,4.08a64.34,64.34,0,0,1-4.86-7.16Q50.06,40.38,52.21,38.43Zm6.34-5.56A49.94,49.94,0,0,0,63,39.93c-1.6,1.47-3.08,2.84-4.47,4.15a62.74,62.74,0,0,1-4.79-7Q56.13,34.93,58.55,32.87Zm6-4.91a54.11,54.11,0,0,0,4.35,6.73c-1.43,1.25-2.9,2.55-4.39,3.89a44.38,44.38,0,0,1-4.35-7C61.58,30.33,63,29.13,64.52,28Zm6.65-5.12A40.59,40.59,0,0,0,75,29.4c-1.62,1.36-3.15,2.67-4.63,4a51.75,51.75,0,0,1-4.27-6.67Q68.65,24.71,71.17,22.84Zm6.2-4.4a47.38,47.38,0,0,0,3.71,6c-1.45,1.16-2.94,2.38-4.53,3.7a35.73,35.73,0,0,1-3.72-6.48C74.36,20.53,75.87,19.46,77.37,18.44Zm7.31-4.72a28.75,28.75,0,0,0,2.91,5.64c-1.67,1.26-3.33,2.54-4.94,3.81A43.33,43.33,0,0,1,79,17.32C80.93,16.05,82.82,14.85,84.68,13.72ZM91.11,10a37.68,37.68,0,0,0,2.77,4.74c-1.48,1-3,2.16-4.69,3.39a25.62,25.62,0,0,1-2.77-5.49C88,11.73,89.59,10.84,91.11,10Zm7.32-3.6a33,33,0,0,0,2.17,3.86c-1.64,1-3.34,2.15-5.07,3.34a37.08,37.08,0,0,1-2.66-4.54Q95.72,7.63,98.43,6.43Zm7.17-2.71c.5.82,1.07,1.69,1.75,2.63-1.63.87-3.32,1.84-5,2.89a31.51,31.51,0,0,1-2-3.59C102.13,4.89,103.91,4.24,105.6,3.72ZM124.85,20.4c-.71-.44-1.47-1-2.28-1.54a37.73,37.73,0,0,0,3.25-8.53A26,26,0,0,1,124.85,20.4Zm-2.5,7.33a31.51,31.51,0,0,1-3.59-2c1.06-1.73,2-3.42,2.89-5.05.94.67,1.81,1.25,2.63,1.75C123.76,24.09,123.11,25.87,122.35,27.73Zm-3.44,7.4a37.08,37.08,0,0,1-4.54-2.66c1.19-1.73,2.31-3.43,3.34-5.07a33,33,0,0,0,3.86,2.17C120.77,31.38,119.88,33.24,118.91,35.13Zm-3.58,6.45a25.62,25.62,0,0,1-5.49-2.77c1.23-1.66,2.35-3.21,3.39-4.69A38.2,38.2,0,0,0,118,36.89C117.16,38.41,116.27,40,115.33,41.58ZM110.68,49a43.33,43.33,0,0,1-5.85-3.62c1.27-1.62,2.55-3.27,3.81-4.94a28.75,28.75,0,0,0,5.64,2.91C113.15,45.18,111.94,47.07,110.68,49Zm-4.31,6.2a35.73,35.73,0,0,1-6.48-3.72c1.32-1.59,2.54-3.08,3.7-4.53a47.38,47.38,0,0,0,6,3.71Q108,52.88,106.37,55.17ZM93,56.41C91,54.85,89,53.13,87,51.29Q89,49.1,91,47c2.06,1.82,4,3.44,5.94,4.85C95.63,53.42,94.33,54.94,93,56.41Zm-18.59,5c-1.29-1.2-2.62-2.47-4-3.84s-2.65-2.7-3.85-4l4.25-4.14c1.34,1.44,2.59,2.73,3.79,3.92s2.49,2.45,3.93,3.8ZM68.88,67c-1.3-1.21-2.65-2.5-4-3.89s-2.67-2.72-3.89-4c1.43-1.42,2.84-2.8,4.23-4.17,1.21,1.3,2.49,2.63,3.86,4s2.71,2.64,4,3.85Q71,64.9,68.88,67Zm-5.61,5.63c-1.36-1.29-2.72-2.59-4-3.91s-2.62-2.67-3.91-4l1.57-1.57,2.64-2.63c1.22,1.31,2.51,2.65,3.89,4s2.73,2.67,4,3.89L64.84,71.1Zm-5.61,5.61c-1.33-1.26-2.68-2.56-4-3.91s-2.65-2.7-3.91-4l4.2-4.2c1.28,1.37,2.59,2.72,3.9,4s2.68,2.62,4,3.9ZM58.3,47c1.68,2.1,3.53,4.26,5.53,6.45l-4.22,4.17c-2.06-2.27-3.93-4.45-5.57-6.52C55.46,49.74,56.89,48.38,58.3,47Zm5.9-5.5c1.62,2.11,3.4,4.25,5.33,6.4l-4.27,4.15c-2-2.19-3.84-4.34-5.5-6.43C61.14,44.35,62.61,43,64.2,41.53Zm5.89-5.25c1.58,2,3.31,4.09,5.17,6.15-1.42,1.36-2.85,2.72-4.29,4.11-1.91-2.13-3.68-4.26-5.28-6.35Q67.93,38.17,70.09,36.28ZM76.19,31c1.41,1.89,3,3.88,4.85,5.94-1.43,1.34-2.87,2.71-4.33,4.09C74.87,39,73.15,37,71.59,35,73.06,33.67,74.58,32.37,76.19,31Zm6.08-5c1.38,1.83,2.92,3.68,4.58,5.55q-2.14,2-4.35,4c-1.79-2-3.39-4-4.77-5.87C79.32,28.41,80.82,27.19,82.27,26Zm6.44-5c1.17,1.67,2.53,3.4,4.05,5.17-1.46,1.31-2.93,2.65-4.44,4-1.63-1.83-3.13-3.65-4.48-5.44C85.43,23.52,87.06,22.26,88.71,21ZM95,16.41c1.1,1.48,2.32,3,3.63,4.53-1.43,1.26-2.91,2.56-4.42,3.91q-2.22-2.59-3.93-5C92,18.58,93.54,17.45,95,16.41Zm6.7-4.46c.9,1.25,1.89,2.52,3,3.79-1,.85-2,1.73-3.15,2.69l-1.38,1.2c-1.27-1.48-2.44-2.94-3.49-4.36C98.41,14.08,100.1,13,101.73,12Zm10.43.26c.55.59,1.12,1.2,1.78,1.85s1.26,1.23,1.85,1.78c-1.12,1.41-2.37,2.95-3.75,4.6-.82-.75-1.6-1.48-2.3-2.18s-1.43-1.48-2.18-2.3C109.21,14.58,110.75,13.33,112.16,12.21ZM121,17.62c-.8-.64-1.61-1.31-2.42-2a63.33,63.33,0,0,0,5.64-8.18C124.19,9.38,123.45,12.55,121,17.62Zm-3.84,7c-1.18-.85-2.37-1.79-3.57-2.8,1.41-1.69,2.66-3.21,3.75-4.59.91.79,1.82,1.55,2.74,2.26C119.16,21.09,118.18,22.8,117.11,24.57Zm-4.38,6.75c-1.43-1.06-2.89-2.23-4.35-3.49l1.19-1.38c1-1.11,1.84-2.15,2.69-3.15,1.27,1.08,2.54,2.07,3.79,3C115,27.9,113.92,29.59,112.73,31.32Zm-4.55,6.37q-2.43-1.71-5-3.93c1.35-1.51,2.65-3,3.91-4.42,1.53,1.31,3,2.53,4.53,3.63C110.55,34.46,109.42,36,108.18,37.69Zm-5,6.47c-1.78-1.35-3.6-2.85-5.44-4.48l4-4.43c1.77,1.51,3.5,2.87,5.17,4C105.74,40.94,104.48,42.57,103.22,44.16Zm-12.3,0c-1.2-1.11-2.42-2.26-3.62-3.47s-2.37-2.42-3.46-3.62q2.22-2.09,4.34-4c1.09,1.19,2.2,2.36,3.31,3.47s2.28,2.21,3.47,3.31Q93,41.93,90.92,44.17ZM85.47,50c-1.35-1.24-2.6-2.44-3.78-3.64s-2.4-2.43-3.64-3.78l4.32-4.09q1.68,1.83,3.51,3.68t3.68,3.51Zm7.44-14.86c-1.09-1.09-2.18-2.23-3.25-3.4,1.51-1.39,3-2.72,4.41-4q1.4,1.56,3,3.21c1.1,1.09,2.17,2.11,3.21,3-1.28,1.42-2.62,2.89-4,4.4C95.14,37.27,94,36.18,92.91,35.09ZM100,22.43c.94,1,1.85,2,2.73,2.85s1.82,1.78,2.85,2.73q-1.86,2.13-3.92,4.43c-1-.91-2.06-1.88-3.13-3s-2-2.11-3-3.13Q97.86,24.3,100,22.43Zm17-8.17c-.54-.5-1.09-1-1.68-1.61s-1.11-1.14-1.61-1.68c4.89-3.8,8.1-5.86,9.41-6.12C122.89,6.16,120.83,9.37,117,14.26Zm-8.7,5.41c.74.75,1.54,1.51,2.42,2.31q-1.8,2.14-3.86,4.52c-1-.91-1.91-1.78-2.76-2.63s-1.72-1.77-2.63-2.76L106,17.24Q107.22,18.56,108.33,19.67ZM76.07,51.92c-1.18-1.18-2.42-2.47-3.76-3.9,1.45-1.4,2.89-2.78,4.29-4.11,1.26,1.36,2.47,2.62,3.67,3.82s2.46,2.41,3.82,3.67c-1.33,1.4-2.71,2.84-4.11,4.29C78.55,54.36,77.26,53.11,76.07,51.92Zm9.5.82c2.06,1.86,4.13,3.6,6.15,5.18-1.17,1.34-2.46,2.79-3.91,4.39-2.09-1.6-4.22-3.37-6.35-5.28Q83.54,54.87,85.57,52.74ZM92.4,45.5q2.07-2.2,4-4.35c1.87,1.67,3.73,3.2,5.55,4.58-1.17,1.45-2.39,3-3.71,4.54C96.4,48.89,94.44,47.29,92.4,45.5ZM120.59,3.83a62.54,62.54,0,0,0-8.19,5.64c-.71-.81-1.38-1.62-2-2.42C115.46,4.55,118.62,3.81,120.59,3.83Zm-9.77,6.88c-1.38,1.1-2.9,2.34-4.59,3.75-1-1.2-2-2.39-2.8-3.57,1.77-1.07,3.48-2.05,5.13-2.92C109.27,8.89,110,9.8,110.82,10.71ZM52.6,52.54q2.49,3.1,5.59,6.52l-2.7,2.69L54,63.27c-1.9-2.06-3.77-4.19-5.67-6.47l1.12-1.12C50.48,54.61,51.54,53.57,52.6,52.54Zm-.05,12.14-4.19,4.2-1.44-1.57a46.3,46.3,0,0,0-1.19-7.93l1.15-1.15C48.78,60.5,50.65,62.63,52.55,64.68Zm-7.42-7.53c-.19-.63-.4-1.25-.61-1.86l1.09,1.38Zm1.82,16,1.36-1.36q1.88,2,3.9,4t4,3.9L54.9,81a41.74,41.74,0,0,0-9.61,1.68A41.24,41.24,0,0,0,47,73.11Zm13.76,8c-.52-.47-1.05-1-1.58-1.46l4.19-4.2C65,77,66.67,78.48,68.43,80c-.29.69-.55,1.39-.79,2.1A45.53,45.53,0,0,0,60.71,81.1Zm8.6-3c-1.57-1.36-3.1-2.71-4.57-4.07l1.51-1.52,2.69-2.69C70.22,71,71.41,72,72.54,73A30.8,30.8,0,0,0,69.31,78.1Zm4.51-6.65c-1.09-.93-2.23-1.94-3.47-3.06q2.1-2.11,4.17-4.23,1.78,1.64,3.66,3.23A31,31,0,0,0,73.82,71.45Zm6-5.26c-1.34-1.13-2.65-2.29-3.93-3.46l4.15-4.26c1.86,1.67,3.73,3.24,5.58,4.69A31.33,31.33,0,0,0,79.85,66.19Zm13.47-7.06c.91.68,1.8,1.32,2.66,1.9a30.39,30.39,0,0,0-4.8.53ZM117.67,2.18a37.73,37.73,0,0,0-8.53,3.25c-.58-.81-1.1-1.57-1.54-2.28A26,26,0,0,1,117.67,2.18ZM46.45,43.8A70.58,70.58,0,0,0,51.36,51Q49.7,52.58,48,54.26l-1,1c-2-2.56-3.76-4.91-5.12-7l0,0C43.43,46.71,44.94,45.24,46.45,43.8ZM7.9,70.8c1.39-2.59,2.68-4.88,3.93-7.09,5.62-10,9.39-16.65,10.22-30.14a40.71,40.71,0,0,1,17.2,15.27.91.91,0,0,0,.26.44h0a38.25,38.25,0,0,1,4.11,9.94.69.69,0,0,0,.08.28,45.52,45.52,0,0,1,1.23,8.16v0c.08,1.4.11,2.84.07,4.34a40.52,40.52,0,0,1-2.12,11.73.92.92,0,0,0-.13.36C37.17,100.34,22.33,113,11,116.26.27,105.11-1,87.34,7.9,70.8Zm56.42,45.36c-2.23,1.25-4.52,2.55-7.12,3.94-16.06,8.61-33.3,7.68-44.53-2.27C24.22,114,38.78,101.25,44.53,85.07a39.61,39.61,0,0,1,10.9-2A4.5,4.5,0,0,1,56,83c1.43,0,2.82,0,4.25.08a44,44,0,0,1,6.83.93,30.95,30.95,0,0,0,5.88,27.51C70.17,112.87,67.43,114.4,64.32,116.16ZM97,121a29,29,0,1,1,29-29A29,29,0,0,1,97,121Z"/><path class="cls-8" d="M110.48,73.78a1,1,0,0,0-.43-.73,23,23,0,0,0-30.55,4,.6.6,0,0,0-.08.08s0,0,0,0a22.93,22.93,0,0,0-4.17,7.37.43.43,0,0,0,0,0,23,23,0,0,0,2.83,20.41,1,1,0,0,0,.73.43h.09a1,1,0,0,0,.71-.29l30.61-30.61A1,1,0,0,0,110.48,73.78ZM93.54,71.31c-2.52,2.9-5.16,5.83-7.91,8.74-1.17-.65-2.47-1.47-3.88-2.45A21,21,0,0,1,93.54,71.31ZM79.8,86.06l0,0c-.75-.48-1.54-1-2.37-1.6a20.79,20.79,0,0,1,3-5.36c1.35.93,2.62,1.75,3.76,2.42C82.77,83.06,81.29,84.57,79.8,86.06ZM79,102.9a20.83,20.83,0,0,1-2.5-15.55c.81.42,1.62.85,2.4,1.32a37.92,37.92,0,0,1,8,6.36Zm9.28-9.28a40.17,40.17,0,0,0-7.28-6l.18-.17c1.8-1.81,3.59-3.65,5.32-5.47h0c3.47-3.65,6.79-7.34,9.88-11,.19,0,.38,0,.58,0a20.93,20.93,0,0,1,10.9,3Z"/><path class="cls-8" d="M116,79a1,1,0,0,0-.73-.43,1,1,0,0,0-.8.29L83.81,109.42a1,1,0,0,0-.29.8A1,1,0,0,0,84,111a23,23,0,0,0,32-32ZM93,103.11c.53.93,1,1.87,1.49,2.85-1.68.1-3.27.26-4.79.46ZM97,113a20.93,20.93,0,0,1-10.9-3l1.15-1.15a65.49,65.49,0,0,1,8.73-.93,1,1,0,0,0,.81-.47,1,1,0,0,0,.07-.92,40.65,40.65,0,0,0-2.45-4.84L115,81.1A21,21,0,0,1,97,113Z"/></g></svg>