<svg xmlns="http://www.w3.org/2000/svg" xmlns:xlink="http://www.w3.org/1999/xlink" viewBox="0 0 128 128"><defs><style>.cls-1{fill:url(#linear-gradient);}.cls-2{fill:#5b8dc9;}.cls-3{fill:url(#linear-gradient-2);}.cls-4{fill:url(#linear-gradient-3);}.cls-5{fill:url(#linear-gradient-4);}.cls-6{fill:#86b8e0;}.cls-7{fill:url(#linear-gradient-5);}.cls-8{fill:url(#linear-gradient-6);}.cls-9{fill:url(#linear-gradient-7);}.cls-10{fill:#c7cdd8;}.cls-11{fill:url(#linear-gradient-8);}.cls-12{fill:url(#linear-gradient-9);}.cls-13{fill:url(#linear-gradient-10);}.cls-14{fill:#dd4e6a;}.cls-15{fill:#47566a;}</style><linearGradient id="linear-gradient" x1="30.99" y1="127" x2="30.99" y2="35" gradientUnits="userSpaceOnUse"><stop offset="0" stop-color="#7aa8d7"/><stop offset="1" stop-color="#96c8ea"/></linearGradient><linearGradient id="linear-gradient-2" x1="72.99" y1="127" x2="72.99" y2="35" xlink:href="#linear-gradient"/><linearGradient id="linear-gradient-3" x1="72.99" y1="35" x2="72.99" y2="8" xlink:href="#linear-gradient"/><linearGradient id="linear-gradient-4" x1="36.99" y1="35" x2="36.99" y2="8" xlink:href="#linear-gradient"/><linearGradient id="linear-gradient-5" x1="30.99" y1="119" x2="30.99" y2="43" gradientUnits="userSpaceOnUse"><stop offset="0" stop-color="#d4d8e1"/><stop offset="1" stop-color="#f3f4f5"/></linearGradient><linearGradient id="linear-gradient-6" x1="30.99" y1="98" x2="30.99" y2="64" xlink:href="#linear-gradient"/><linearGradient id="linear-gradient-7" x1="21.99" y1="82" x2="21.99" y2="76" xlink:href="#linear-gradient-5"/><linearGradient id="linear-gradient-8" x1="39.99" y1="82" x2="39.99" y2="76" xlink:href="#linear-gradient-5"/><linearGradient id="linear-gradient-9" x1="30.99" y1="91" x2="30.99" y2="76" xlink:href="#linear-gradient-5"/><linearGradient id="linear-gradient-10" x1="96.99" y1="127" x2="96.99" y2="67" gradientUnits="userSpaceOnUse"><stop offset="0" stop-color="#da5466"/><stop offset="1" stop-color="#e87092"/></linearGradient></defs><title>Dairy Free</title><g id="Dairy_Free" data-name="Dairy Free"><rect class="cls-1" x="0.99" y="35" width="60" height="92"/><rect class="cls-2" x="0.99" y="121" width="60" height="6"/><path class="cls-3" d="M85,35H61v92H85Z"/><path class="cls-2" d="M85,121H61v6H85Z"/><path class="cls-4" d="M85,35H61L73,8C84.42,33.7,82,28.34,85,35Z"/><path class="cls-5" d="M73,8,61,35H1c2.88-6.47.58-1.3,12-27Z"/><path class="cls-6" d="M15,1H71a2,2,0,0,1,2,2V8a0,0,0,0,1,0,0H13a0,0,0,0,1,0,0V3a2,2,0,0,1,2-2Z"/><path class="cls-7" d="M61,95c-30,0-30,24-60,24V67c28,0,30-24,60-24Z"/><circle class="cls-8" cx="30.99" cy="81" r="17"/><path class="cls-9" d="M19,80v2h2a4,4,0,0,0,4-4V76H23A4,4,0,0,0,19,80Z"/><path class="cls-10" d="M61,90v5c-30,0-30,24-60,24v-5C31,114,31,90,61,90Z"/><path class="cls-11" d="M37,76v2a4,4,0,0,0,4,4h2V80a4,4,0,0,0-4-4Z"/><path class="cls-12" d="M25,76v6c0,3,2.07,4,2.07,6,0,4,7.86,4,7.86,0,0-2,2.07-3,2.07-6V76Z"/><path class="cls-13" d="M97,67a30,30,0,1,0,30,30A30,30,0,0,0,97,67ZM75,97c0-17.89,20.12-28,34.48-18.13L78.86,109.48A21.91,21.91,0,0,1,75,97Zm22,22a21.91,21.91,0,0,1-12.48-3.87l30.61-30.61C125,98.83,114.92,119,97,119Z"/><path class="cls-14" d="M127,95.54a30,30,0,0,1-59.92,0C66,112.13,79.54,127,97,127S128,112.17,127,95.54Z"/><polygon class="cls-2" points="84.99 35 60.99 35 63.21 30 82.77 30 84.99 35"/><polygon class="cls-2" points="63.21 30 60.99 35 0.99 35 3.21 30 63.21 30"/><path class="cls-15" d="M85.71,104.06l24.48-24.48a1,1,0,0,0,.29-.8,1,1,0,0,0-.43-.73,23,23,0,0,0-32,32,1,1,0,0,0,.73.43h.09a1,1,0,0,0,.71-.29l6.13-6.13ZM107.9,79,86,100.94V79.15A20.92,20.92,0,0,1,107.9,79ZM79,107.9a21,21,0,0,1,5-27.36v22.4Z"/><path class="cls-15" d="M35.93,88a3.68,3.68,0,0,1,.74-1.85A7.51,7.51,0,0,0,38,82v0a4.92,4.92,0,0,0,3,1h2a1,1,0,0,0,1-1V80a5,5,0,0,0-3.65-4.79A4.37,4.37,0,0,0,41,73a1,1,0,0,0-1-1,1,1,0,0,0-1,1,1.89,1.89,0,0,1-2,2H25a1.89,1.89,0,0,1-2-2,1,1,0,0,0-2,0,4.37,4.37,0,0,0,.65,2.21A5,5,0,0,0,18,80v2a1,1,0,0,0,1,1h2a4.92,4.92,0,0,0,3-1v0a7.51,7.51,0,0,0,1.33,4.15A3.68,3.68,0,0,1,26.07,88c0,2.63,2.48,4,4.93,4S35.93,90.63,35.93,88ZM42,80v1H41a3,3,0,0,1-3-3V77h1A3,3,0,0,1,42,80ZM21,81H20V80a3,3,0,0,1,3-3h1v1A3,3,0,0,1,21,81Zm7.07,7a5.42,5.42,0,0,0-1-2.88A5.56,5.56,0,0,1,26,82V77H36v5a5.56,5.56,0,0,1-1,3.12,5.42,5.42,0,0,0-1,2.88c0,1.58-1.92,2-2.93,2S28.07,89.58,28.07,88Z"/><path class="cls-15" d="M49,81A18,18,0,1,0,31,99,18,18,0,0,0,49,81ZM15,81A16,16,0,1,1,31,97,16,16,0,0,1,15,81Z"/><path class="cls-15" d="M97,66a30.91,30.91,0,0,0-11,2V35s0,0,0,0a.87.87,0,0,0-.06-.32.06.06,0,0,1,0,0h0L74,7.79V3a3,3,0,0,0-3-3H15a3,3,0,0,0-3,3V7.79L.09,34.59h0a.06.06,0,0,1,0,0A.87.87,0,0,0,0,35s0,0,0,0v92a1,1,0,0,0,1,1H85a1,1,0,0,0,1-1v-1A31,31,0,1,0,97,66ZM60,42c-14.94.27-23,6.47-30.76,12.49C21.81,60.27,14.77,65.7,2,66V36H60ZM2,68c13.46-.28,21.09-6.16,28.46-11.87S45.74,44.3,60,44V94c-14.68.26-22.28,6.32-29.62,12.19S16,117.72,2,118ZM73,10.46,83.46,34H62.54ZM14,3a1,1,0,0,1,1-1H71a1,1,0,0,1,1,1V7H14Zm-.35,6H71.46L60.35,34H2.54ZM2,120c14.68-.26,22.28-6.32,29.62-12.19S46,96.28,60,96v30H2Zm82,6H62V36H84V68.87a31,31,0,0,0,0,56.26Zm13,0a29,29,0,1,1,29-29A29,29,0,0,1,97,126Z"/><path class="cls-15" d="M116,84a1,1,0,0,0-.73-.43,1,1,0,0,0-.8.29L84.29,113.94h0l-.48.48a1,1,0,0,0-.29.8A1,1,0,0,0,84,116c.21.15.43.28.65.41h0A23,23,0,0,0,116,84ZM97,118a20.93,20.93,0,0,1-10.9-3L115,86.1A21,21,0,0,1,97,118Z"/></g></svg>