<svg xmlns="http://www.w3.org/2000/svg" xmlns:xlink="http://www.w3.org/1999/xlink" viewBox="0 0 128 128"><defs><style>.cls-1{fill:url(#linear-gradient);}.cls-2{fill:#7ece67;}.cls-3{fill:url(#linear-gradient-2);}.cls-4{fill:#4da67f;}.cls-5{fill:url(#linear-gradient-3);}.cls-6{fill:#f6b756;}.cls-7{fill:url(#linear-gradient-4);}.cls-8{fill:#8a6762;}.cls-9{fill:url(#linear-gradient-5);}.cls-10{fill:#47566a;}</style><linearGradient id="linear-gradient" x1="71.64" y1="127" x2="71.64" y2="27.65" gradientUnits="userSpaceOnUse"><stop offset="0" stop-color="#8cdd79"/><stop offset="1" stop-color="#d4e6b6"/></linearGradient><linearGradient id="linear-gradient-2" x1="92.72" y1="31.55" x2="92.72" y2="4.82" gradientUnits="userSpaceOnUse"><stop offset="0" stop-color="#6ab891"/><stop offset="1" stop-color="#85cba9"/></linearGradient><linearGradient id="linear-gradient-3" x1="52.49" y1="109" x2="52.49" y2="72" gradientUnits="userSpaceOnUse"><stop offset="0" stop-color="#fbcc88"/><stop offset="1" stop-color="#ffe5c3"/></linearGradient><linearGradient id="linear-gradient-4" x1="64.99" y1="31.55" x2="64.99" y2="1" gradientUnits="userSpaceOnUse"><stop offset="0" stop-color="#9b756d"/><stop offset="1" stop-color="#bc9388"/></linearGradient><linearGradient id="linear-gradient-5" x1="9.82" y1="82.97" x2="9.82" y2="61.19" gradientUnits="userSpaceOnUse"><stop offset="0" stop-color="#949aaf"/><stop offset="1" stop-color="#c6ccda"/></linearGradient></defs><title>Diet</title><g id="Diet"><path class="cls-1" d="M125.78,78.36a86,86,0,0,1-18.49,36.28c-5,5.68-12.8,12.36-20.39,12.36-11.44,0-9.56-1.91-15.27-1.91S67.78,127,56.35,127c-17,0-34.87-29.71-38.88-48.64C14.2,63.07,17.39,41.8,30,32.51c14-10.34,33.33-1,41.64-1,0,0,3.72-.52,5.53-.77,5.27-1.16,16.19-4,25-2.79C123.36,30.94,130.07,58.34,125.78,78.36Z"/><path class="cls-2" d="M125.78,78.36a86,86,0,0,1-18.49,36.28c-5,5.68-12.8,12.36-20.39,12.36-11.44,0-9.56-1.91-15.27-1.91S67.78,127,56.35,127c-15.72,0-34.28-27.22-38.88-48.64a58.21,58.21,0,0,1-1.12-14.79C17.53,87.66,39,121,56.35,121c11.43,0,9.58-1.91,15.28-1.91S75.46,121,86.9,121c17,0,38.83-32.88,40-57.6A58.09,58.09,0,0,1,125.78,78.36Z"/><path class="cls-3" d="M111.81,4.82A26.73,26.73,0,0,1,85.08,31.55H73.63A26.71,26.71,0,0,1,100.35,4.82Z"/><path class="cls-4" d="M111.81,4.82A26.73,26.73,0,0,1,85.08,31.55H73.63a26.34,26.34,0,0,1,.3-4H85.08A26.74,26.74,0,0,0,111.51,4.82Z"/><path class="cls-5" d="M104,83v26H20C9.5,109,1,104.08,1,98V72C1,78.08,9.5,83,20,83Z"/><path class="cls-6" d="M104,104v5H20C9.5,109,1,104.08,1,98V93c0,6.08,8.51,11,19,11Z"/><path class="cls-7" d="M69.63,31.42V18.27A13.29,13.29,0,0,0,56.35,5V1A17.3,17.3,0,0,1,73.63,18.27V31.55h-2"/><rect class="cls-8" x="69.63" y="27.55" width="4" height="4"/><path class="cls-9" d="M18.65,83C11.65,83,1,79,1,72c0-5.39,6.69-9.87,15.52-10.81A57.46,57.46,0,0,0,18.65,83Z"/><path class="cls-10" d="M101.78,26.94a27.68,27.68,0,0,0,11-22.12,1,1,0,0,0-1-1H100.36a27.77,27.77,0,0,0-25.72,17.4V18.27A18.3,18.3,0,0,0,56.36,0a1,1,0,0,0-1,1V5a1,1,0,0,0,1,1A12.29,12.29,0,0,1,68.64,18.27v12c-1.41-.24-3-.6-4.69-1a77.71,77.71,0,0,0-19-2.53c-16,0-27.15,12.84-29.26,33.56C6.54,61.5,0,66.33,0,72V98c0,6.73,8.79,12,20,12H31c8.38,11.44,17.61,18,25.39,18,6.86,0,9.1-.69,10.89-1.24a12.24,12.24,0,0,1,4.39-.67,12.18,12.18,0,0,1,4.38.67c1.79.55,4,1.24,10.89,1.24C104.58,128,128,93.69,128,67.82,128,44.54,117.81,28.87,101.78,26.94ZM100.36,5.82H110.8A25.77,25.77,0,0,1,85.09,30.55H75.64C79,26.48,91.62,12,104,12a1,1,0,0,0,0-2C91.43,10,79.18,23.17,74.84,28.35A25.76,25.76,0,0,1,100.36,5.82ZM57.36,4V2A16.3,16.3,0,0,1,72.64,18.27V30.55h-1c-.31,0-.65,0-1,0V18.27A14.3,14.3,0,0,0,57.36,4ZM15.48,62.33c-.13,1.8-.21,3.64-.21,5.49a54.73,54.73,0,0,0,2,14.06C8.62,81.15,2,77,2,72,2,67.51,7.72,63.48,15.48,62.33ZM2,98V77.29a15.21,15.21,0,0,0,5,3.88V89a1,1,0,0,0,2,0V82.06a27.86,27.86,0,0,0,6,1.56V88a1,1,0,0,0,2,0V83.86c.53,0,1.05.09,1.59.11s.93,0,1.41,0h3v7a1,1,0,0,0,2,0V84h6v4a1,1,0,0,0,2,0V84h6v7a1,1,0,0,0,2,0V84h6v4a1,1,0,0,0,2,0V84h6v7a1,1,0,0,0,2,0V84h6v4a1,1,0,0,0,2,0V84h6v7a1,1,0,0,0,2,0V84h6v4a1,1,0,0,0,2,0V84h6v7a1,1,0,0,0,2,0V84h6v4a1,1,0,0,0,2,0V84h6v24H20C10.07,108,2,103.51,2,98Zm84.91,28c-6.56,0-8.64-.64-10.3-1.15a16.66,16.66,0,0,0-10,0c-1.66.51-3.74,1.15-10.3,1.15-6.76,0-15.23-6-22.89-16H104a1,1,0,0,0,1-1V83a1,1,0,0,0-1-1H19.41a52.92,52.92,0,0,1-2.14-14.17c0-2.22.1-4.42.29-6.55,1.8-20.07,12.28-32.54,27.35-32.54A75.91,75.91,0,0,1,63.5,31.21a60.71,60.71,0,0,0,6,1.2,19.08,19.08,0,0,0,2.12.14H85.09a27.54,27.54,0,0,0,14-3.8C115.44,29.16,126,44.46,126,67.82,126,92.29,103.35,126,86.91,126Z"/><path class="cls-10" d="M98.36,38.18a1,1,0,0,0,0,2c11.93,0,16.19,14.28,16.19,27.64a1,1,0,0,0,2,0C116.55,53.49,111.77,38.18,98.36,38.18Z"/></g></svg>