<svg xmlns="http://www.w3.org/2000/svg" xmlns:xlink="http://www.w3.org/1999/xlink" viewBox="0 0 128 128"><defs><style>.cls-1{fill:url(#linear-gradient);}.cls-2{fill:#5b8dc9;}.cls-3{fill:url(#linear-gradient-2);}.cls-4{fill:#c7cdd8;}.cls-5{fill:url(#linear-gradient-3);}.cls-6{fill:#7ece67;}.cls-7{fill:url(#linear-gradient-4);}.cls-8{fill:#4da67f;}.cls-9{fill:#47566a;}</style><linearGradient id="linear-gradient" x1="57" y1="113.02" x2="57" y2="1" gradientUnits="userSpaceOnUse"><stop offset="0" stop-color="#7aa8d7"/><stop offset="1" stop-color="#96c8ea"/></linearGradient><linearGradient id="linear-gradient-2" x1="56.99" y1="103" x2="56.99" y2="11" gradientUnits="userSpaceOnUse"><stop offset="0" stop-color="#d4d8e1"/><stop offset="1" stop-color="#f3f4f5"/></linearGradient><linearGradient id="linear-gradient-3" x1="98" y1="127" x2="98" y2="75" gradientUnits="userSpaceOnUse"><stop offset="0" stop-color="#8cdd79"/><stop offset="1" stop-color="#d4e6b6"/></linearGradient><linearGradient id="linear-gradient-4" x1="108" y1="77" x2="108" y2="63" gradientUnits="userSpaceOnUse"><stop offset="0" stop-color="#6ab891"/><stop offset="1" stop-color="#85cba9"/></linearGradient></defs><title>Eating Time</title><g id="Eating_Time" data-name="Eating Time"><path class="cls-1" d="M57,1A56,56,0,0,0,1.32,63h0A56,56,0,1,0,57,1Z"/><path class="cls-2" d="M70.94,111.25C34.86,120.49-.38,92.43,1,55c1.06,35.46,35.15,61.2,69.9,52.3A56.06,56.06,0,0,0,113,55,56,56,0,0,1,70.94,111.25Z"/><path class="cls-3" d="M102.23,65.36a46,46,0,1,0-90.05,2h0l0,0c6.48,28,32.09,33.68,32.23,33.83A46,46,0,0,0,101.8,67.42l0,0C101.82,67.3,102,66.86,102.23,65.36Z"/><path class="cls-4" d="M102.83,60.9a46,46,0,0,0-91.85-4,46,46,0,1,1,91.85,4Z"/><path class="cls-5" d="M111.19,75C122.29,74.6,127,84.86,127,96c0,13-12,31-21,31-6,0-5-1-8-1s-2,1-8,1c-9,0-21-18-21-31s6-21,15-21c7,0,11,2,14,2"/><path class="cls-6" d="M106,127c-6,0-5-1-8-1s-2,1-8,1c-8.46,0-22.27-18-20.89-33.87C70.28,105.88,81.48,122,90,122c6,0,5-1,8-1s2,1,8,1c8.52,0,19.72-16.12,20.89-28.87C128.26,108.92,114.57,127,106,127Z"/><path class="cls-7" d="M98,77h6a14,14,0,0,0,14-14h-6A14,14,0,0,0,98,77Z"/><path class="cls-8" d="M118,63a14,14,0,0,1-14,14H98a14.14,14.14,0,0,1,.32-3H104a14,14,0,0,0,13.68-11Z"/><path class="cls-9" d="M114,74.14A15,15,0,0,0,119,63a1,1,0,0,0-1-1h-4.24c.15-1.67.24-3.34.24-5a57,57,0,1,0-41.67,54.9C76.83,120.73,84,128,90,128a17,17,0,0,0,5.84-.67,7.23,7.23,0,0,1,4.32,0A17,17,0,0,0,106,128c9.46,0,22-18.24,22-32C128,83.58,122.57,75.26,114,74.14ZM104,76H99a13,13,0,0,1,13-12h5A13,13,0,0,1,104,76ZM90,62a7,7,0,0,1,7,7v6.92a27.06,27.06,0,0,1-2.93-.59A41.4,41.4,0,0,0,84,74c-9.72,0-16,8.64-16,22a27.2,27.2,0,0,0,.41,4.51A45,45,0,1,1,102,57a45.66,45.66,0,0,1-1.11,10A15.08,15.08,0,0,0,99,69.55V69a9,9,0,0,0-9-9,1,1,0,0,0,0,2ZM57,112a55,55,0,1,1,55-55c0,1.66-.09,3.34-.24,5a14.92,14.92,0,0,0-8.41,2.75,47.11,47.11,0,1,0-34.54,37.71,41.56,41.56,0,0,0,2.64,7.6A54.94,54.94,0,0,1,57,112Zm49,14a15.27,15.27,0,0,1-5.25-.58,9.21,9.21,0,0,0-5.5,0A15.27,15.27,0,0,1,90,126c-5.38,0-12-7.11-16.17-15.54v0a.84.84,0,0,0-.15-.28A40,40,0,0,1,70.53,101v0A25.46,25.46,0,0,1,70,96c0-12.15,5.5-20,14-20a39.53,39.53,0,0,1,9.62,1.28A20,20,0,0,0,98,78h6a14.88,14.88,0,0,0,7.44-2H112c8.5,0,14,7.85,14,20C126,108.62,114.41,126,106,126Z"/><path class="cls-9" d="M112,80a1,1,0,0,0,0,2c5.9,0,8,7.23,8,14a1,1,0,0,0,2,0C122,88.26,119.37,80,112,80Z"/><path class="cls-9" d="M57,20a1,1,0,0,0,1-1V15a1,1,0,0,0-2,0v4A1,1,0,0,0,57,20Z"/><path class="cls-9" d="M57,94a1,1,0,0,0-1,1v4a1,1,0,0,0,2,0V95A1,1,0,0,0,57,94Z"/><path class="cls-9" d="M94,57a1,1,0,0,0,1,1h4a1,1,0,0,0,0-2H95A1,1,0,0,0,94,57Z"/><path class="cls-9" d="M20,57a1,1,0,0,0-1-1H15a1,1,0,0,0,0,2h4A1,1,0,0,0,20,57Z"/><path class="cls-9" d="M21.13,35.13a1,1,0,0,0-1,1.74,1,1,0,0,0,1-1.74Z"/><path class="cls-9" d="M93.87,36.87a1,1,0,1,0-1.36-.37A1,1,0,0,0,93.87,36.87Z"/><path class="cls-9" d="M20.13,77.13a1,1,0,1,0,1.36.37A1,1,0,0,0,20.13,77.13Z"/><path class="cls-9" d="M78.5,19.76a1,1,0,1,0,.37,1.37A1,1,0,0,0,78.5,19.76Z"/><path class="cls-9" d="M36.5,92.51a1,1,0,0,0-1.37.36,1,1,0,0,0,1.74,1A1,1,0,0,0,36.5,92.51Z"/><path class="cls-9" d="M36.5,21.49a1,1,0,1,0-1-1.73,1,1,0,0,0-.37,1.37A1,1,0,0,0,36.5,21.49Z"/><path class="cls-9" d="M58,55.28V27a1,1,0,0,0-2,0V55.28A2,2,0,0,0,55,57v0L34.49,69.14a1,1,0,0,0-.35,1.37A1,1,0,0,0,35,71a1,1,0,0,0,.51-.14L56,58.74a2,2,0,0,0,2-3.46Z"/></g></svg>