<svg xmlns="http://www.w3.org/2000/svg" xmlns:xlink="http://www.w3.org/1999/xlink" viewBox="0 0 128 128"><defs><style>.cls-1{fill:url(#linear-gradient);}.cls-2{fill:#c7cdd8;}.cls-3{fill:url(#linear-gradient-2);}.cls-4{fill:#f6b756;}.cls-5{fill:url(#linear-gradient-3);}.cls-6{fill:#dd4e6a;}.cls-7{fill:#47566a;}</style><linearGradient id="linear-gradient" x1="51.02" y1="127" x2="51.02" y2="0.97" gradientUnits="userSpaceOnUse"><stop offset="0" stop-color="#d4d8e1"/><stop offset="1" stop-color="#f3f4f5"/></linearGradient><linearGradient id="linear-gradient-2" x1="50.98" y1="111.03" x2="50.98" y2="43" gradientUnits="userSpaceOnUse"><stop offset="0" stop-color="#fbcc88"/><stop offset="1" stop-color="#ffe5c3"/></linearGradient><linearGradient id="linear-gradient-3" x1="96.99" y1="127" x2="96.99" y2="67" gradientUnits="userSpaceOnUse"><stop offset="0" stop-color="#da5466"/><stop offset="1" stop-color="#e87092"/></linearGradient></defs><title>Egg Free</title><g id="Egg_Free" data-name="Egg Free"><path class="cls-1" d="M99.71,88.24c6.27-27.3-10-74.12-37.33-85C41.25-5.15,22.66,11,12.15,31.23,2.48,49.83-.56,72,1.71,85.4a50,50,0,0,0,98,2.84Z"/><path class="cls-2" d="M101,77a50,50,0,0,1-52.91,49.91c-26.66-1.67-48.32-23.62-47-53.32,0,.13.17,2.62.38,4A49.93,49.93,0,0,0,55.8,120.76c22.72-1.75,43.34-20.33,45.11-46.95C100.91,72.77,101,75.44,101,77Z"/><path class="cls-3" d="M68.43,106.19C46.06,119.61,17,103.58,17,77a34,34,0,0,1,67.24-7.15L85,78.58a33.85,33.85,0,0,1-9.65,22.17"/><path class="cls-4" d="M85,78.58a33.85,33.85,0,0,1-9.65,22.17l-6.88,5.44c-23.71,14.23-54.18-4.69-51.26-32.67,2.56,24.87,30.22,38.3,51.26,25.67l6.88-5.44C86.73,82.1,84.08,68,85,78.58Z"/><path class="cls-5" d="M97,67a30,30,0,1,0,30,30A30,30,0,0,0,97,67ZM75,97c0-17.89,20.12-28,34.48-18.13L78.86,109.48A21.91,21.91,0,0,1,75,97Zm22,22a21.91,21.91,0,0,1-12.48-3.87l30.61-30.61C125,98.83,114.92,119,97,119Z"/><path class="cls-6" d="M127,95.54a30,30,0,0,1-59.92,0C66,112.13,79.54,127,97,127S128,112.17,127,95.54Z"/><path class="cls-7" d="M101.39,66.32C97.83,34.27,77.7,0,51,0,21.81,0,0,40.65,0,77a51,51,0,0,0,77.14,43.78,31,31,0,1,0,24.25-54.46ZM51,126A49.05,49.05,0,0,1,2,77C2,59,7.28,40.29,16.49,25.66,26.1,10.4,38.35,2,51,2,76.48,2,95.75,35,99.35,66.1,98.57,66,97.79,66,97,66a30.9,30.9,0,0,0-12.07,2.44,35,35,0,1,0-17.05,39.2,31.17,31.17,0,0,0,7.7,11.74A48.83,48.83,0,0,1,51,126Zm16.25-20.29a33,33,0,1,1,15.84-36.4,31,31,0,0,0-15.84,36.4ZM97,126a29,29,0,1,1,29-29A29,29,0,0,1,97,126Z"/><path class="cls-7" d="M110.48,78.78a1,1,0,0,0-.43-.73,23,23,0,0,0-25.71-.24l0,0a23,23,0,0,0-6.24,32.21,1,1,0,0,0,.73.43h.09a1,1,0,0,0,.71-.29l30.61-30.61A1,1,0,0,0,110.48,78.78ZM83.79,80.7a32.84,32.84,0,0,1-7.74,17.76c0-.48,0-1,0-1.46A20.93,20.93,0,0,1,83.79,80.7ZM79,107.9a20.6,20.6,0,0,1-2.64-6.84,34.89,34.89,0,0,0,9.53-21.87A20.82,20.82,0,0,1,97,76a21.15,21.15,0,0,1,3,.21c0,.27,0,.53,0,.79a48.65,48.65,0,0,1-1.31,11.24Zm22.21-22.22A51.29,51.29,0,0,0,102,77v-.39A20.66,20.66,0,0,1,107.9,79Z"/><path class="cls-7" d="M116,84a1,1,0,0,0-.73-.43,1,1,0,0,0-.8.29L83.81,114.42a1,1,0,0,0-.29.8A1,1,0,0,0,84,116a23,23,0,0,0,32-32ZM97,118a20.93,20.93,0,0,1-10.9-3L115,86.1A21,21,0,0,1,97,118Z"/></g></svg>