<svg xmlns="http://www.w3.org/2000/svg" xmlns:xlink="http://www.w3.org/1999/xlink" viewBox="0 0 128 128"><defs><style>.cls-1{fill:url(#linear-gradient);}.cls-2{fill:url(#linear-gradient-2);}.cls-3{fill:#cba07a;}.cls-4{fill:url(#linear-gradient-3);}.cls-5{fill:url(#linear-gradient-4);}.cls-6{fill:url(#linear-gradient-5);}.cls-7{fill:url(#linear-gradient-6);}.cls-8{fill:#c7cdd8;}.cls-9{fill:#47566a;}</style><linearGradient id="linear-gradient" x1="64" y1="82" x2="64" y2="74" gradientUnits="userSpaceOnUse"><stop offset="0" stop-color="#d1a788"/><stop offset="1" stop-color="#f2d3b8"/></linearGradient><linearGradient id="linear-gradient-2" x1="64" y1="112" x2="64" y2="82" xlink:href="#linear-gradient"/><linearGradient id="linear-gradient-3" x1="64" y1="74" x2="64" y2="16" xlink:href="#linear-gradient"/><linearGradient id="linear-gradient-4" x1="64" y1="74" x2="64" y2="50" gradientUnits="userSpaceOnUse"><stop offset="0" stop-color="#d4d8e1"/><stop offset="1" stop-color="#f3f4f5"/></linearGradient><linearGradient id="linear-gradient-5" x1="104" x2="104" xlink:href="#linear-gradient-4"/><linearGradient id="linear-gradient-6" x1="24" x2="24" xlink:href="#linear-gradient-4"/></defs><title>Eggs</title><g id="Eggs"><rect class="cls-1" x="1" y="74" width="126" height="8"/><path class="cls-2" d="M124,82c-2.58,8.6-4.52,15.08-7.29,24.3a8,8,0,0,1-7.66,5.7H95a8,8,0,0,1-7.66-5.7l-1.2-4a3.23,3.23,0,0,0-6.18,0l-1.2,4a8,8,0,0,1-7.66,5.7H57a8,8,0,0,1-7.66-5.7l-1.2-4a3.23,3.23,0,0,0-6.18,0l-1.2,4a8,8,0,0,1-7.66,5.7H19a8,8,0,0,1-7.66-5.7C8.55,97.17,6.63,90.75,4,82Z"/><path class="cls-3" d="M124,82l-7.29,24.3a8,8,0,0,1-7.66,5.7H95a8,8,0,0,1-7.66-5.7c-1.14-3.82-1.22-4.82-2.37-5.66a3.22,3.22,0,0,0-5,1.66l-1.2,4a8,8,0,0,1-7.66,5.7H57a8,8,0,0,1-7.66-5.7c-1.14-3.82-1.22-4.82-2.37-5.66a3.22,3.22,0,0,0-5,1.66l-1.2,4a8,8,0,0,1-7.66,5.7H19a8,8,0,0,1-7.66-5.7L4,82H5.5l5.79,19.3A8,8,0,0,0,19,107h14.1a8,8,0,0,0,7.66-5.7l1.2-4a3.23,3.23,0,0,1,6.18,0l1.2,4A8,8,0,0,0,57,107h14.1a8,8,0,0,0,7.66-5.7l1.2-4a3.23,3.23,0,0,1,6.18,0l1.2,4A8,8,0,0,0,95,107h14.1a8,8,0,0,0,7.66-5.7L122.5,82Z"/><path class="cls-4" d="M12,16H116a10,10,0,0,1,10,10V74a0,0,0,0,1,0,0H2a0,0,0,0,1,0,0V26A10,10,0,0,1,12,16Z"/><rect class="cls-3" x="121" y="70" width="5" height="4"/><rect class="cls-3" x="2" y="70" width="5" height="4"/><path class="cls-3" d="M8,73.47V26a4,4,0,0,1,4-4H116a4,4,0,0,1,4,4V73.47"/><path class="cls-5" d="M82,74H46c0-9.94,8.06-24,18-24S82,64.07,82,74Z"/><path class="cls-6" d="M122,74H86c0-9.94,8.06-24,18-24S122,64.07,122,74Z"/><path class="cls-7" d="M42,74H6c0-9.94,8.06-24,18-24S42,64.07,42,74Z"/><polygon class="cls-3" points="124 82 122.8 86 5.2 86 4 82 124 82"/><path class="cls-8" d="M41.61,70A21.65,21.65,0,0,1,42,74H6a21.65,21.65,0,0,1,.39-4Z"/><path class="cls-8" d="M81.61,70A21.65,21.65,0,0,1,82,74H46a21.65,21.65,0,0,1,.39-4Z"/><path class="cls-8" d="M122,74H86a21.65,21.65,0,0,1,.39-4h35.22A21.65,21.65,0,0,1,122,74Z"/><path class="cls-9" d="M127,73V26a11,11,0,0,0-11-11H12A11,11,0,0,0,1,26V73a1,1,0,0,0-1,1v8a1,1,0,0,0,1,1H3.26l7.07,23.59A9,9,0,0,0,19,113h14.1a9,9,0,0,0,8.62-6.41l1.2-4a2.22,2.22,0,0,1,4.26,0l1.2,4A9,9,0,0,0,57,113h14.1a9,9,0,0,0,8.62-6.41l1.2-4a2.22,2.22,0,0,1,4.26,0l1.2,4A9,9,0,0,0,95,113h14.1a9,9,0,0,0,8.62-6.41L124.74,83H127a1,1,0,0,0,1-1V74A1,1,0,0,0,127,73ZM3,26a9,9,0,0,1,9-9H116a9,9,0,0,1,9,9V73h-2a28.31,28.31,0,0,0-2-8.58V26a5,5,0,0,0-5-5H12a5,5,0,0,0-5,5V64.42A28.31,28.31,0,0,0,5,73H3ZM83,73c-.52-9.83-8.49-24-19-24S45.55,63.17,45,73H43c-.52-9.83-8.49-24-19-24-6.24,0-11.58,5-15,11.16V26a3,3,0,0,1,3-3H116a3,3,0,0,1,3,3V60.16C115.58,54,110.24,49,104,49,93.52,49,85.55,63.17,85,73Zm-2,0H47c.52-9.07,7.92-22,17-22S80.45,63.93,81,73ZM24,51c9,0,16.45,12.93,17,22H7C7.55,63.93,15,51,24,51Zm80,0c9,0,16.45,12.93,17,22H87C87.55,63.93,95,51,104,51Zm11.75,55a7,7,0,0,1-6.7,5H95a7,7,0,0,1-6.7-5l-1.2-4a4.23,4.23,0,0,0-8.1,0l-1.2,4a7,7,0,0,1-6.7,5H57a7,7,0,0,1-6.7-5l-1.2-4a4.23,4.23,0,0,0-8.1,0l-1.2,4a7,7,0,0,1-6.7,5H19a7,7,0,0,1-6.7-5L5.34,83H122.66ZM126,81H2V75H126Z"/><path class="cls-9" d="M70.17,55.49a1,1,0,0,0-1.26,1.56,23.92,23.92,0,0,1,6.82,10.28,1,1,0,0,0,.94.67,1,1,0,0,0,.33-.06,1,1,0,0,0,.61-1.27A25.94,25.94,0,0,0,70.17,55.49Z"/><path class="cls-9" d="M117.61,66.67a25.94,25.94,0,0,0-7.44-11.18,1,1,0,1,0-1.26,1.56,23.92,23.92,0,0,1,6.82,10.28,1,1,0,0,0,.94.67,1,1,0,0,0,.33-.06A1,1,0,0,0,117.61,66.67Z"/><path class="cls-9" d="M37.61,66.67a25.94,25.94,0,0,0-7.44-11.18,1,1,0,0,0-1.26,1.56,23.92,23.92,0,0,1,6.82,10.28,1,1,0,0,0,.94.67,1,1,0,0,0,.33-.06A1,1,0,0,0,37.61,66.67Z"/></g></svg>