<svg xmlns="http://www.w3.org/2000/svg" xmlns:xlink="http://www.w3.org/1999/xlink" viewBox="0 0 128 128"><defs><style>.cls-1{fill:url(#linear-gradient);}.cls-2{fill:#8288a1;}.cls-3{fill:url(#linear-gradient-2);}.cls-4{fill:url(#linear-gradient-3);}.cls-5{fill:url(#linear-gradient-4);}.cls-6{fill:url(#linear-gradient-5);}.cls-7{fill:url(#linear-gradient-6);}.cls-8{fill:#c7cdd8;}.cls-9{fill:#5b8dc9;}.cls-10{fill:url(#linear-gradient-7);}.cls-11{fill:#47566a;}</style><linearGradient id="linear-gradient" x1="64" y1="50" x2="64" y2="38" gradientUnits="userSpaceOnUse"><stop offset="0" stop-color="#949aaf"/><stop offset="1" stop-color="#c6ccda"/></linearGradient><linearGradient id="linear-gradient-2" x1="64" y1="127" x2="64" y2="50" gradientUnits="userSpaceOnUse"><stop offset="0" stop-color="#7aa8d7"/><stop offset="1" stop-color="#96c8ea"/></linearGradient><linearGradient id="linear-gradient-3" x1="64" y1="38" x2="64" y2="22" xlink:href="#linear-gradient"/><linearGradient id="linear-gradient-4" x1="51" y1="22" x2="51" y2="11" xlink:href="#linear-gradient"/><linearGradient id="linear-gradient-5" x1="51" y1="11" x2="51" y2="1" xlink:href="#linear-gradient"/><linearGradient id="linear-gradient-6" x1="64" y1="110" x2="64" y2="68" gradientUnits="userSpaceOnUse"><stop offset="0" stop-color="#d4d8e1"/><stop offset="1" stop-color="#f3f4f5"/></linearGradient><linearGradient id="linear-gradient-7" x1="64" y1="104" x2="64" y2="74" gradientUnits="userSpaceOnUse"><stop offset="0" stop-color="#fbcc88"/><stop offset="1" stop-color="#ffe5c3"/></linearGradient></defs><title>Energy Drink</title><g id="Energy_Drink" data-name="Energy Drink"><rect class="cls-1" x="27" y="38" width="74" height="12"/><rect class="cls-2" x="27" y="46" width="74" height="4"/><path class="cls-3" d="M98,50c-.46,6-5.23,67.18-6,77H36c-.74-9.42-5.5-70.53-6-77Z"/><polygon class="cls-4" points="98 38 30 38 38 22 90 22 98 38"/><rect class="cls-5" x="46" y="11" width="10" height="11"/><rect class="cls-2" x="46" y="18" width="10" height="4"/><rect class="cls-6" x="44" y="1" width="14" height="10" rx="2"/><path class="cls-2" d="M58,6V9a2,2,0,0,1-2,2H46a2,2,0,0,1-2-2V6a2,2,0,0,0,2,2H56A2,2,0,0,0,58,6Z"/><rect class="cls-2" x="78" y="18" width="6" height="4"/><path class="cls-7" d="M96.68,68c-3.23,41.42-2.64,33.82-3.28,42H34.6c-.65-8.36-.08-1-3.28-42Z"/><polygon class="cls-8" points="93.87 104 93.4 110 34.6 110 34.13 104 93.87 104"/><polygon class="cls-9" points="92.47 121 92 127 36 127 35.53 121 92.47 121"/><polygon class="cls-10" points="58 74 70 74 66 85 72 85 60 104 62 91 56 91 58 74"/><polygon class="cls-9" points="98 50 97.69 54 30.31 54 30 50 98 50"/><polygon class="cls-2" points="98 38 30 38 32 34 96 34 98 38"/><path class="cls-11" d="M101,37H98.62L90.89,21.55A1,1,0,0,0,90,21H85V18a1,1,0,0,0-1-1H82A13,13,0,0,0,69,5H59V3a3,3,0,0,0-3-3H46a3,3,0,0,0-3,3V9a3,3,0,0,0,2,2.82V21H38a1,1,0,0,0-.89.55L29.38,37H27a1,1,0,0,0-1,1V50a1,1,0,0,0,1,1h2.07l1.31,16.72a.88.88,0,0,0-.06.28,1.06,1.06,0,0,0,.11.44l3.22,41.3a1.19,1.19,0,0,0,0,.26.89.89,0,0,0,.11.43L35,127.08a1,1,0,0,0,1,.92H92a1,1,0,0,0,1-.92l1.29-16.65a.89.89,0,0,0,.11-.43,1.09,1.09,0,0,0-.05-.26l3.22-41.3a1.06,1.06,0,0,0,.11-.44.88.88,0,0,0-.06-.28L98.93,51H101a1,1,0,0,0,1-1V38A1,1,0,0,0,101,37ZM83,21H79V19h4ZM69,7A11,11,0,0,1,80,17H78a1,1,0,0,0-1,1v3H57V11.82A3,3,0,0,0,59,9V7ZM45,3a1,1,0,0,1,1-1H56a1,1,0,0,1,1,1V9a1,1,0,0,1-1,1H46a1,1,0,0,1-1-1Zm2,9h8v9H47ZM38.62,23H89.38l7,14H31.62ZM92.4,109H35.6L32.48,69h63Zm-1.32,17H36.93l-1.17-15H92.24Zm4.59-59H32.33L31.08,51H96.92ZM100,49H28V39h72Z"/><path class="cls-11" d="M72.88,84.52A1,1,0,0,0,72,84H67.43l3.51-9.66a1,1,0,0,0-.12-.91A1,1,0,0,0,70,73H58a1,1,0,0,0-1,.88l-2,17a1,1,0,0,0,.24.78A1,1,0,0,0,56,92h4.83L59,103.85a1,1,0,0,0,.64,1.09A1,1,0,0,0,60,105a1,1,0,0,0,.85-.47l12-19A1,1,0,0,0,72.88,84.52ZM61.72,99.41,63,91.15A1,1,0,0,0,62,90H57.12l1.77-15h9.68l-3.51,9.66a1,1,0,0,0,.12.91A1,1,0,0,0,66,86h4.19Z"/></g></svg>