<svg id="Fat_To_Slim" data-name="Fat To Slim" xmlns="http://www.w3.org/2000/svg" xmlns:xlink="http://www.w3.org/1999/xlink" viewBox="0 0 128 128"><defs><style>.cls-1{fill:url(#linear-gradient);}.cls-2{fill:#eab39b;}.cls-3{fill:url(#linear-gradient-2);}.cls-4{fill:url(#linear-gradient-3);}.cls-5{fill:url(#linear-gradient-4);}.cls-6{fill:url(#linear-gradient-5);}.cls-7{fill:#7ece67;}.cls-8{fill:#47566a;}</style><linearGradient id="linear-gradient" x1="107.01" y1="35" x2="107.01" y2="7" gradientUnits="userSpaceOnUse"><stop offset="0" stop-color="#f2c4b0"/><stop offset="1" stop-color="#ffe3d7"/></linearGradient><linearGradient id="linear-gradient-2" x1="107.01" y1="121" x2="107.01" y2="35" xlink:href="#linear-gradient"/><linearGradient id="linear-gradient-3" x1="31.01" y1="35" x2="31.01" y2="7" xlink:href="#linear-gradient"/><linearGradient id="linear-gradient-4" x1="31.01" y1="120.96" x2="31.01" y2="35" xlink:href="#linear-gradient"/><linearGradient id="linear-gradient-5" x1="74.01" y1="71" x2="74.01" y2="57" gradientUnits="userSpaceOnUse"><stop offset="0" stop-color="#8cdd79"/><stop offset="1" stop-color="#d4e6b6"/></linearGradient></defs><title>Fat To Slim</title><path class="cls-1" d="M107,35A11,11,0,0,1,96,24V18a11,11,0,0,1,22,0v6A11,11,0,0,1,107,35Z"/><path class="cls-2" d="M118,20v4a11,11,0,0,1-22,0V20a11,11,0,0,0,22,0Z"/><path class="cls-3" d="M108.08,79l2.65,38.16a4.15,4.15,0,0,0,8.28-.31V77a4,4,0,0,0,4.39,4A4.12,4.12,0,0,0,127,76.83V51a16,16,0,0,0-16-16h-8A16,16,0,0,0,87,51V76.83A4.11,4.11,0,0,0,90.61,81,4,4,0,0,0,95,77v39.85a4.15,4.15,0,0,0,8.28.31L105.93,79A1.08,1.08,0,0,1,108.08,79Z"/><path class="cls-2" d="M95,77a4,4,0,0,1-4.39,4A4.12,4.12,0,0,1,87,76.83v-3A4.12,4.12,0,0,0,90.62,78,4,4,0,0,0,95,74Z"/><path class="cls-2" d="M117.79,116.78a4.08,4.08,0,0,0,1.22-2.93v3a4.15,4.15,0,0,1-8.28.31L108.08,79a1.07,1.07,0,0,0-2.14,0l-2.65,38.16a4.15,4.15,0,0,1-8.28-.31v-3a4.15,4.15,0,0,0,8.28.31L105.94,76a1.07,1.07,0,0,1,2.14,0l2.65,38.16A4.14,4.14,0,0,0,117.79,116.78Z"/><path class="cls-2" d="M127,73.83v3A4.12,4.12,0,0,1,123.4,81,4,4,0,0,1,119,77V74a4,4,0,0,0,4.39,4A4.12,4.12,0,0,0,127,73.83Z"/><path class="cls-4" d="M31,35A11,11,0,0,1,20,24V18a11,11,0,1,1,22,0v6A11,11,0,0,1,31,35Z"/><path class="cls-5" d="M61,71c0,7-1,12-4,12s-3-6-3-6a95.44,95.44,0,0,1-3.34,23.26c-3,11.49-9.43,20.7-12.16,20.7a3.79,3.79,0,0,1-3.82-3.45L31,77l-3.68,40.51A3.8,3.8,0,0,1,23.51,121c-2.73,0-9.13-9.21-12.16-20.7A95.44,95.44,0,0,1,8,77s0,6-3,6S1,78,1,71a49.35,49.35,0,0,1,9-28c3-4,6-8,21-8s18,4,21,8A49.35,49.35,0,0,1,61,71Z"/><path class="cls-2" d="M57,83c-3,0-3-6-3-6a95.44,95.44,0,0,1-3.34,23.26c-3,11.49-9.43,20.7-12.16,20.7a3.79,3.79,0,0,1-3.82-3.45L31,77l-3.68,40.51A3.8,3.8,0,0,1,23.51,121c-2.73,0-9.13-9.21-12.16-20.7A95.44,95.44,0,0,1,8,77s0,6-3,6C.86,83,.85,72.89,1.07,68.73,1.31,74.29,2.41,78,5,78c3,0,3-6,3-6A95.44,95.44,0,0,0,11.35,95.3c3,11.49,9.43,20.7,12.16,20.7a3.8,3.8,0,0,0,3.82-3.45L31,72l3.68,40.51A3.79,3.79,0,0,0,38.51,116c2.73,0,9.13-9.21,12.16-20.7A95.44,95.44,0,0,0,54,72s0,6,3,6c2.6,0,3.7-3.75,3.94-9.31C61.17,72.89,61.15,83,57,83Z"/><path class="cls-2" d="M93,77V46a1,1,0,0,1,2,0V77A1,1,0,0,1,93,77Z"/><path class="cls-2" d="M119,77V46a1,1,0,0,1,2,0V77A1,1,0,0,1,119,77Z"/><path class="cls-2" d="M6,77c0-19,6.84-31,7.13-31.5a1,1,0,0,1,1.73,1C14.8,46.62,8,58.52,8,77A1,1,0,0,1,6,77Z"/><path class="cls-2" d="M54,77c0-18.48-6.8-30.38-6.87-30.5a1,1,0,0,1,1.73-1C49.16,46,56,58,56,77A1,1,0,0,1,54,77Z"/><polygon class="cls-6" points="83.01 64 75.01 57 75.01 61 65.01 61 65.01 67 75.01 67 75.01 71 83.01 64"/><rect class="cls-7" x="65.01" y="64" width="10" height="3"/><polygon class="cls-7" points="83.01 64 75.01 71 75.01 68 83.01 64"/><path class="cls-2" d="M42,20v4a11,11,0,1,1-22,0V20a11,11,0,1,0,22,0Z"/><path class="cls-8" d="M113.33,34.18A12,12,0,0,0,119,24V18a12,12,0,0,0-24,0v6a12,12,0,0,0,5.67,10.18A17,17,0,0,0,86,51V76.83A5.14,5.14,0,0,0,90.51,82,5,5,0,0,0,94,81v35.85a5.15,5.15,0,0,0,10.28.38l2.64-38.16a.08.08,0,0,1,.16,0l2.64,38.16a5.15,5.15,0,0,0,10.28-.38V81a5,5,0,0,0,3.49,1A5.14,5.14,0,0,0,128,76.83V51A17,17,0,0,0,113.33,34.18ZM97,24V18a10,10,0,0,1,20,0v6a10,10,0,0,1-20,0Zm29,52.83A3.13,3.13,0,0,1,123.3,80a3,3,0,0,1-3.3-3V46a1,1,0,0,0-2,0v70.85a3.14,3.14,0,0,1-6.28.24l-2.65-38.16h0a2.08,2.08,0,0,0-4.14,0l-2.65,38.15a3.14,3.14,0,0,1-6.28-.23V46a1,1,0,0,0-2,0V77a3,3,0,0,1-3.3,3A3.13,3.13,0,0,1,88,76.83V51a15,15,0,0,1,15-15h8a15,15,0,0,1,15,15Z"/><path class="cls-8" d="M37.17,34.27A12,12,0,0,0,43,24V18a12,12,0,0,0-24,0v6a12,12,0,0,0,5.83,10.27c-10.28,1-13,4.62-15.63,8.13A50.83,50.83,0,0,0,0,71c0,5.58.52,13,5,13a3,3,0,0,0,2.28-1,104.1,104.1,0,0,0,3.1,17.53C13.23,111.34,19.73,122,23.49,122h0a4.81,4.81,0,0,0,4.78-4.36L31,88.05l2.69,29.55A4.81,4.81,0,0,0,38.46,122h0c3.77,0,10.27-10.62,13.12-21.44A104.1,104.1,0,0,0,54.72,83,3,3,0,0,0,57,84c4.48,0,5-7.42,5-13a50.83,50.83,0,0,0-9.2-28.6C50.17,38.89,47.45,35.28,37.17,34.27ZM21,24V18a10,10,0,0,1,20,0v6a10,10,0,0,1-20,0ZM57,82c-1.5,0-2-3.37-2-5h0c0-19-6.84-31-7.14-31.5a1,1,0,0,0-1.72,1c.06.12,6.86,12,6.86,30.5a94.18,94.18,0,0,1-3.31,23C46.53,112,40.21,120,38.49,120h0a2.81,2.81,0,0,1-2.79-2.54L32,76.91s0-.07,0-.11a.61.61,0,0,0-.05-.18,1,1,0,0,0-.1-.18.64.64,0,0,0-.1-.13l-.17-.14-.14-.07L31.18,76a.32.32,0,0,1-.09,0h-.18l-.09,0-.23.07-.12.07a.86.86,0,0,0-.18.14.64.64,0,0,0-.1.13,1,1,0,0,0-.1.18.61.61,0,0,0-.05.18s0,.07,0,.11l-3.68,40.51a2.81,2.81,0,0,1-2.8,2.54h0c-1.71,0-8-7.95-11.19-19.95A94.18,94.18,0,0,1,9,77c0-18.48,6.8-30.38,6.86-30.5a1,1,0,1,0-1.72-1C13.84,46,7,58,7,77H7c0,1.63-.5,5-2,5-1.12,0-3-1.43-3-11a48.65,48.65,0,0,1,8.8-27.4C13.73,39.69,16.5,36,31,36s17.27,3.69,20.2,7.6A48.65,48.65,0,0,1,60,71C60,80.57,58.12,82,57,82Z"/><path class="cls-8" d="M75.66,56.25A1,1,0,0,0,74,57v3H65a1,1,0,0,0-1,1v6a1,1,0,0,0,1,1h9v3a1,1,0,0,0,.59.91,1,1,0,0,0,1.07-.16l8-7a1,1,0,0,0,0-1.5ZM76,68.8V67a1,1,0,0,0-1-1H66V62h9a1,1,0,0,0,1-1V59.2L81.48,64Z"/></svg>