<svg xmlns="http://www.w3.org/2000/svg" xmlns:xlink="http://www.w3.org/1999/xlink" viewBox="0 0 128 128"><defs><style>.cls-1{fill:url(#linear-gradient);}.cls-2{fill:#d861b0;}.cls-3{fill:url(#linear-gradient-2);}.cls-4{fill:#eab39b;}.cls-5{fill:url(#linear-gradient-3);}.cls-6{fill:#dd4e6a;}.cls-7{fill:url(#linear-gradient-4);}.cls-8{fill:#f6b756;}.cls-9{fill:#fff2e3;}.cls-10{fill:#47566a;}</style><linearGradient id="linear-gradient" x1="63.99" y1="127" x2="63.99" y2="1" gradientUnits="userSpaceOnUse"><stop offset="0" stop-color="#d96bb0"/><stop offset="1" stop-color="#d88bc2"/></linearGradient><linearGradient id="linear-gradient-2" x1="63.99" y1="117.52" x2="63.99" y2="10.48" gradientUnits="userSpaceOnUse"><stop offset="0" stop-color="#f2c4b0"/><stop offset="1" stop-color="#ffe3d7"/></linearGradient><linearGradient id="linear-gradient-3" x1="96.99" y1="127" x2="96.99" y2="67" gradientUnits="userSpaceOnUse"><stop offset="0" stop-color="#da5466"/><stop offset="1" stop-color="#e87092"/></linearGradient><linearGradient id="linear-gradient-4" x1="31.99" y1="70" x2="31.99" y2="8" gradientUnits="userSpaceOnUse"><stop offset="0" stop-color="#fbcc88"/><stop offset="1" stop-color="#ffe5c3"/></linearGradient></defs><title>Fat</title><g id="Fat"><path class="cls-1" d="M67.79,90.16a29.61,29.61,0,0,0-5.52,4.49c-8.08,8.08-5.09,11.08-13.17,19.17S38,118.91,29.92,127L1,98.07C9.08,90,12.08,93,20.16,84.89c6.54-6.54,5.84-9.75,9.61-15C53.93,51.67,51.42,53.64,52.52,52.54c8.09-8.09,5.09-11.09,13.18-19.18s11.09-5.09,19.18-13.18S90,9.09,98.06,1L127,29.93C118.9,38,121.9,41,113.81,49.11S102.72,54.2,94.63,62.29a30.66,30.66,0,0,0-4.48,5.51Z"/><path class="cls-2" d="M127,29.93C118.9,38,121.9,41,113.81,49.11S102.72,54.2,94.63,62.29a30.66,30.66,0,0,0-4.48,5.51L67.79,90.16a29.61,29.61,0,0,0-5.52,4.49c-8.08,8.08-5.09,11.08-13.17,19.17S38,118.91,29.92,127l-4-4C34,114.91,37,117.91,45.1,109.82s5.09-11.09,13.17-19.17a29.61,29.61,0,0,1,5.52-4.49L86.15,63.8a30.66,30.66,0,0,1,4.48-5.51c8.09-8.09,11.09-5.09,19.18-13.18S114.9,34,123,25.93Z"/><path class="cls-3" d="M104.33,39.63c-9.17,9.17-12.88,6.88-19.18,13.18S81.13,62.83,72,72,59.09,78.87,52.8,85.16s-4,10-13.18,19.18-12.88,6.88-19.18,13.18l-10-10c9.17-9.17,12.88-6.88,19.18-13.18s4-10,13.18-19.17S55.71,68.31,62,62s4-10,13.18-19.18S88.06,36,94.36,29.66s4-10,13.18-19.18l10,10C111.24,26.72,113.49,30.47,104.33,39.63Z"/><path class="cls-4" d="M117.51,20.45c-6.22,6.22-4.07,10.07-13.18,19.18s-13,6.95-19.18,13.18S81.08,62.88,72,72c-9.44,9.42-12.67,6.66-19.18,13.17-6.19,6.19-4,10-13.18,19.18s-12.92,6.93-19.17,13.18l-4-4c6.18-6.18,10.12-4.11,19.17-13.18C45,91,42.38,87.57,48.79,81.16,55,75,58.81,77.13,68,68s7-12.95,13.18-19.18,10.07-4.07,19.18-13.18,7-13,13.18-19.18Z"/><path class="cls-5" d="M97,67a30,30,0,1,0,30,30A30,30,0,0,0,97,67ZM75,97c0-17.89,20.12-28,34.48-18.13L78.86,109.48A21.91,21.91,0,0,1,75,97Zm22,22a21.91,21.91,0,0,1-12.48-3.87l30.61-30.61C125,98.83,114.92,119,97,119Z"/><path class="cls-6" d="M127,95.54a30,30,0,0,1-59.92,0C66,112.13,79.54,127,97,127S128,112.17,127,95.54Z"/><path class="cls-7" d="M52,49.94a20,20,0,1,1-40,0C12,33.53,32,8,32,8S52,33.53,52,49.94Z"/><path class="cls-8" d="M32,70a20,20,0,0,1-19.9-22,20,20,0,0,0,39.8,0A20,20,0,0,1,32,70Z"/><path class="cls-9" d="M32,65a1,1,0,0,1,0-2A13,13,0,0,0,45,49.94a1,1,0,0,1,2,0A15.05,15.05,0,0,1,32,65Z"/><path class="cls-10" d="M97,66a31.73,31.73,0,0,0-4.6.34A34.34,34.34,0,0,1,95.35,63a27.26,27.26,0,0,1,9.3-6.39,29.51,29.51,0,0,0,9.88-6.79,29.41,29.41,0,0,0,6.79-9.88,27.26,27.26,0,0,1,6.39-9.3,1,1,0,0,0,0-1.42L98.78.29a1,1,0,0,0-1.42,0,29.41,29.41,0,0,0-6.79,9.88,27.26,27.26,0,0,1-6.39,9.3,27.26,27.26,0,0,1-9.3,6.39A29.41,29.41,0,0,0,65,32.65a29.41,29.41,0,0,0-6.79,9.88A26.65,26.65,0,0,1,53,50.64c0-.23,0-.46,0-.7C53,33.37,33.61,8.44,32.79,7.38a1,1,0,0,0-1.58,0C30.39,8.44,11,33.37,11,49.94A21.07,21.07,0,0,0,28.08,70.62a36,36,0,0,0-2.22,4.27,27.35,27.35,0,0,1-6.4,9.29,27.14,27.14,0,0,1-9.29,6.39A29.31,29.31,0,0,0,.29,97.36a1,1,0,0,0,0,1.42l28.93,28.93a1,1,0,0,0,1.42,0,27.26,27.26,0,0,1,9.3-6.39,29.41,29.41,0,0,0,9.88-6.79,29.4,29.4,0,0,0,6.78-9.88A27.14,27.14,0,0,1,63,95.36a33.29,33.29,0,0,1,3.35-3A31.86,31.86,0,0,0,66,97,31,31,0,1,0,97,66ZM11.9,107.56a35.72,35.72,0,0,1,11.17-7.49,20.54,20.54,0,0,0,7.29-5,20.63,20.63,0,0,0,5-7.29A36.22,36.22,0,0,1,43.54,75.9a36.22,36.22,0,0,1,11.89-8.19,20.63,20.63,0,0,0,7.29-5,20.81,20.81,0,0,0,5-7.29A35.89,35.89,0,0,1,75.9,43.55a36.12,36.12,0,0,1,11.89-8.19,21,21,0,0,0,7.29-5,20.92,20.92,0,0,0,5-7.3,35.72,35.72,0,0,1,7.49-11.17l8.55,8.56A20.38,20.38,0,0,0,111.82,27a36.12,36.12,0,0,1-8.19,11.89,36.12,36.12,0,0,1-11.89,8.19,20.9,20.9,0,0,0-7.29,5,20.9,20.9,0,0,0-5,7.29,36.06,36.06,0,0,1-8.19,11.89,36.21,36.21,0,0,1-11.88,8.19,20.54,20.54,0,0,0-7.29,5,20.54,20.54,0,0,0-5,7.29,36.21,36.21,0,0,1-8.19,11.88A36.06,36.06,0,0,1,27,111.82a20.27,20.27,0,0,0-6.57,4.29ZM13,49.94c0-14,15.32-35.36,19-40.29,3.68,4.93,19,26.25,19,40.29a19,19,0,1,1-38,0ZM11,92.39a29.31,29.31,0,0,0,9.88-6.79,29.39,29.39,0,0,0,6.79-9.87,31.33,31.33,0,0,1,2.61-4.82c.57,0,1.14.09,1.72.09A21,21,0,0,0,52.62,53.85l.62-.6A29.41,29.41,0,0,0,60,43.37a27.16,27.16,0,0,1,6.39-9.3,27.16,27.16,0,0,1,9.3-6.39,29.41,29.41,0,0,0,9.88-6.79A29.41,29.41,0,0,0,92.39,11a26.83,26.83,0,0,1,5.69-8.59l8.07,8.07a37.54,37.54,0,0,0-7.9,11.75A18.61,18.61,0,0,1,93.66,29,18.74,18.74,0,0,1,87,33.54a37.92,37.92,0,0,0-12.47,8.59A37.76,37.76,0,0,0,65.89,54.6a18.48,18.48,0,0,1-4.59,6.71,18.74,18.74,0,0,1-6.71,4.59,37.75,37.75,0,0,0-12.46,8.59A37.79,37.79,0,0,0,33.53,87,18.62,18.62,0,0,1,29,93.66a18.56,18.56,0,0,1-6.71,4.59,37.65,37.65,0,0,0-11.75,7.9L2.42,98.08A26.92,26.92,0,0,1,11,92.39Zm50.57,1.55a29.25,29.25,0,0,0-6.78,9.88,27.38,27.38,0,0,1-6.39,9.29,27.26,27.26,0,0,1-9.3,6.39,29,29,0,0,0-9.16,6.09l-8.06-8.06a18.25,18.25,0,0,1,6-3.89,37.91,37.91,0,0,0,12.46-8.59,37.76,37.76,0,0,0,8.59-12.47,18.74,18.74,0,0,1,4.59-6.71,18.74,18.74,0,0,1,6.71-4.59,37.76,37.76,0,0,0,12.47-8.59,38,38,0,0,0,8.59-12.46,18.48,18.48,0,0,1,4.59-6.71,18.48,18.48,0,0,1,6.71-4.59A37.88,37.88,0,0,0,105,40.33a37.88,37.88,0,0,0,8.6-12.46,18.25,18.25,0,0,1,3.89-6l8.06,8.06a29,29,0,0,0-6.09,9.16,27.26,27.26,0,0,1-6.39,9.3,27.26,27.26,0,0,1-9.3,6.39,29.41,29.41,0,0,0-9.88,6.79,32.69,32.69,0,0,0-4.38,5.33A31.09,31.09,0,0,0,66.91,89.55,31.61,31.61,0,0,0,61.57,93.94ZM97,126A29,29,0,0,1,68.76,90.41v0a29.12,29.12,0,0,1,21.6-21.6h.06A29,29,0,1,1,97,126Z"/><path class="cls-10" d="M110.48,78.78a1,1,0,0,0-.43-.73,23,23,0,0,0-32,32,1,1,0,0,0,.73.43h.09a1,1,0,0,0,.71-.29l30.61-30.61A1,1,0,0,0,110.48,78.78ZM79,107.9A21,21,0,0,1,107.9,79Z"/><path class="cls-10" d="M115.22,83.52a1,1,0,0,0-.8.29L83.81,114.42a1,1,0,0,0-.29.8A1,1,0,0,0,84,116a23,23,0,0,0,32-32A1,1,0,0,0,115.22,83.52ZM97,118a20.93,20.93,0,0,1-10.9-3L115,86.1A21,21,0,0,1,97,118Z"/><path class="cls-10" d="M47,49.94a1,1,0,0,0-2,0A13,13,0,0,1,32,63a1,1,0,0,0,0,2A15.05,15.05,0,0,0,47,49.94Z"/></g></svg>