<svg xmlns="http://www.w3.org/2000/svg" xmlns:xlink="http://www.w3.org/1999/xlink" viewBox="0 0 128 128"><defs><style>.cls-1{fill:url(#linear-gradient);}.cls-2{fill:#8288a1;}.cls-3{fill:url(#linear-gradient-2);}.cls-4{fill:#f6b756;}.cls-5{fill:url(#linear-gradient-3);}.cls-6{fill:#77cacb;}.cls-7{fill:url(#linear-gradient-4);}.cls-8{fill:#7ece67;}.cls-9{fill:url(#linear-gradient-5);}.cls-10{fill:#4da67f;}.cls-11{fill:url(#linear-gradient-6);}.cls-12{fill:url(#linear-gradient-7);}.cls-13{fill:url(#linear-gradient-8);}.cls-14{fill:url(#linear-gradient-9);}.cls-15{fill:#c7cdd8;}.cls-16{fill:url(#linear-gradient-10);}.cls-17{fill:url(#linear-gradient-11);}.cls-18{fill:url(#linear-gradient-12);}.cls-19{fill:url(#linear-gradient-13);}.cls-20{fill:url(#linear-gradient-14);}.cls-21{fill:url(#linear-gradient-15);}.cls-22{fill:url(#linear-gradient-16);}.cls-23{fill:url(#linear-gradient-17);}.cls-24{fill:url(#linear-gradient-18);}.cls-25{fill:url(#linear-gradient-19);}.cls-26{fill:#47566a;}</style><linearGradient id="linear-gradient" x1="42" y1="111" x2="42" y2="1" gradientUnits="userSpaceOnUse"><stop offset="0" stop-color="#949aaf"/><stop offset="1" stop-color="#c6ccda"/></linearGradient><linearGradient id="linear-gradient-2" x1="69" y1="102" x2="69" y2="72" gradientUnits="userSpaceOnUse"><stop offset="0" stop-color="#fbcc88"/><stop offset="1" stop-color="#ffe5c3"/></linearGradient><linearGradient id="linear-gradient-3" x1="42" y1="34" x2="42" y2="10" gradientUnits="userSpaceOnUse"><stop offset="0" stop-color="#9dd5df"/><stop offset="1" stop-color="#c3e1f5"/></linearGradient><linearGradient id="linear-gradient-4" x1="98" y1="127" x2="98" y2="75" gradientUnits="userSpaceOnUse"><stop offset="0" stop-color="#8cdd79"/><stop offset="1" stop-color="#d4e6b6"/></linearGradient><linearGradient id="linear-gradient-5" x1="108" y1="77" x2="108" y2="63" gradientUnits="userSpaceOnUse"><stop offset="0" stop-color="#6ab891"/><stop offset="1" stop-color="#85cba9"/></linearGradient><linearGradient id="linear-gradient-6" x1="15" y1="48" x2="15" y2="42" gradientUnits="userSpaceOnUse"><stop offset="0" stop-color="#d4d8e1"/><stop offset="1" stop-color="#f3f4f5"/></linearGradient><linearGradient id="linear-gradient-7" x1="33" x2="33" xlink:href="#linear-gradient-6"/><linearGradient id="linear-gradient-8" x1="51" x2="51" xlink:href="#linear-gradient-6"/><linearGradient id="linear-gradient-9" x1="69" x2="69" xlink:href="#linear-gradient-6"/><linearGradient id="linear-gradient-10" y1="66" y2="54" xlink:href="#linear-gradient-6"/><linearGradient id="linear-gradient-11" x1="33" y1="66" x2="33" y2="54" xlink:href="#linear-gradient-6"/><linearGradient id="linear-gradient-12" x1="51" y1="66" x2="51" y2="54" xlink:href="#linear-gradient-6"/><linearGradient id="linear-gradient-13" x1="69" y1="66" x2="69" y2="54" xlink:href="#linear-gradient-6"/><linearGradient id="linear-gradient-14" y1="84" y2="72" xlink:href="#linear-gradient-6"/><linearGradient id="linear-gradient-15" x1="33" y1="84" x2="33" y2="72" xlink:href="#linear-gradient-6"/><linearGradient id="linear-gradient-16" x1="51" y1="84" x2="51" y2="72" xlink:href="#linear-gradient-6"/><linearGradient id="linear-gradient-17" y1="102" y2="90" xlink:href="#linear-gradient-6"/><linearGradient id="linear-gradient-18" x1="33" y1="102" x2="33" y2="90" xlink:href="#linear-gradient-6"/><linearGradient id="linear-gradient-19" x1="51" y1="102" x2="51" y2="90" xlink:href="#linear-gradient-6"/></defs><title>Food Calculation</title><g id="Food_Calculation" data-name="Food Calculation"><path class="cls-1" d="M83,111H5a4,4,0,0,1-4-4V5A4,4,0,0,1,5,1H79a4,4,0,0,1,4,4Z"/><path class="cls-2" d="M75,101v3H65a2,2,0,0,1-2-2V99a2,2,0,0,0,2,2Z"/><path class="cls-2" d="M21,63v3a2,2,0,0,1-2,2H11a2,2,0,0,1-2-2V63a2,2,0,0,0,2,2h8A2,2,0,0,0,21,63Z"/><path class="cls-2" d="M39,63v3a2,2,0,0,1-2,2H29a2,2,0,0,1-2-2V63a2,2,0,0,0,2,2h8A2,2,0,0,0,39,63Z"/><path class="cls-2" d="M57,63v3a2,2,0,0,1-2,2H47a2,2,0,0,1-2-2V63a2,2,0,0,0,2,2h8A2,2,0,0,0,57,63Z"/><path class="cls-2" d="M75,63v3a2,2,0,0,1-2,2H65a2,2,0,0,1-2-2V63a2,2,0,0,0,2,2h8A2,2,0,0,0,75,63Z"/><path class="cls-2" d="M21,45v3a2,2,0,0,1-2,2H11a2,2,0,0,1-2-2V45a2,2,0,0,0,2,2h8A2,2,0,0,0,21,45Z"/><path class="cls-2" d="M39,45v3a2,2,0,0,1-2,2H29a2,2,0,0,1-2-2V45a2,2,0,0,0,2,2h8A2,2,0,0,0,39,45Z"/><path class="cls-2" d="M57,45v3a2,2,0,0,1-2,2H47a2,2,0,0,1-2-2V45a2,2,0,0,0,2,2h8A2,2,0,0,0,57,45Z"/><path class="cls-2" d="M75,45v3a2,2,0,0,1-2,2H65a2,2,0,0,1-2-2V45a2,2,0,0,0,2,2h8A2,2,0,0,0,75,45Z"/><path class="cls-2" d="M21,81v3a2,2,0,0,1-2,2H11a2,2,0,0,1-2-2V81a2,2,0,0,0,2,2h8A2,2,0,0,0,21,81Z"/><path class="cls-2" d="M39,81v3a2,2,0,0,1-2,2H29a2,2,0,0,1-2-2V81a2,2,0,0,0,2,2h8A2,2,0,0,0,39,81Z"/><path class="cls-2" d="M57,81v3a2,2,0,0,1-2,2H47a2,2,0,0,1-2-2V81a2,2,0,0,0,2,2h8A2,2,0,0,0,57,81Z"/><path class="cls-2" d="M21,99v3a2,2,0,0,1-2,2H11a2,2,0,0,1-2-2V99a2,2,0,0,0,2,2h8A2,2,0,0,0,21,99Z"/><path class="cls-2" d="M39,99v3a2,2,0,0,1-2,2H29a2,2,0,0,1-2-2V99a2,2,0,0,0,2,2h8A2,2,0,0,0,39,99Z"/><path class="cls-2" d="M57,99v3a2,2,0,0,1-2,2H47a2,2,0,0,1-2-2V99a2,2,0,0,0,2,2h8A2,2,0,0,0,57,99Z"/><path class="cls-3" d="M75,102H65a2,2,0,0,1-2-2V74a2,2,0,0,1,2-2h8a2,2,0,0,1,2,2Z"/><path class="cls-4" d="M75,99v3H65a2,2,0,0,1-2-2V97a2,2,0,0,0,2,2Z"/><path class="cls-2" d="M83,107v4H5a4,4,0,0,1-4-4v-4a4,4,0,0,0,4,4Z"/><rect class="cls-5" x="9" y="10" width="66" height="24"/><rect class="cls-6" x="9" y="30" width="66" height="4"/><path class="cls-7" d="M111.19,75C122.29,74.6,127,84.86,127,96c0,13-12,31-21,31-6,0-5-1-8-1s-2,1-8,1c-9,0-21-18-21-31s6-21,15-21c7,0,11,2,14,2"/><path class="cls-8" d="M106,127c-6,0-5-1-8-1s-2,1-8,1c-8.46,0-22.27-18-20.89-33.87C70.28,105.88,81.48,122,90,122c6,0,5-1,8-1s2,1,8,1c8.52,0,19.72-16.12,20.89-28.87C128.26,108.92,114.57,127,106,127Z"/><path class="cls-9" d="M98,77h6a14,14,0,0,0,14-14h-6A14,14,0,0,0,98,77Z"/><path class="cls-10" d="M118,63a14,14,0,0,1-14,14H98a14.14,14.14,0,0,1,.32-3H104a14,14,0,0,0,13.68-11Z"/><rect class="cls-11" x="9" y="42" width="12" height="6" rx="2"/><rect class="cls-12" x="27" y="42" width="12" height="6" rx="2"/><rect class="cls-13" x="45" y="42" width="12" height="6" rx="2"/><rect class="cls-14" x="63" y="42" width="12" height="6" rx="2"/><path class="cls-15" d="M21,44v2a2,2,0,0,1-2,2H11a2,2,0,0,1-2-2V44a2,2,0,0,0,2,2h8A2,2,0,0,0,21,44Z"/><path class="cls-15" d="M39,44v2a2,2,0,0,1-2,2H29a2,2,0,0,1-2-2V44a2,2,0,0,0,2,2h8A2,2,0,0,0,39,44Z"/><path class="cls-15" d="M57,44v2a2,2,0,0,1-2,2H47a2,2,0,0,1-2-2V44a2,2,0,0,0,2,2h8A2,2,0,0,0,57,44Z"/><path class="cls-15" d="M75,44v2a2,2,0,0,1-2,2H65a2,2,0,0,1-2-2V44a2,2,0,0,0,2,2h8A2,2,0,0,0,75,44Z"/><rect class="cls-16" x="9" y="54" width="12" height="12" rx="2"/><rect class="cls-17" x="27" y="54" width="12" height="12" rx="2"/><rect class="cls-18" x="45" y="54" width="12" height="12" rx="2"/><rect class="cls-19" x="63" y="54" width="12" height="12" rx="2"/><rect class="cls-20" x="9" y="72" width="12" height="12" rx="2"/><rect class="cls-21" x="27" y="72" width="12" height="12" rx="2"/><rect class="cls-22" x="45" y="72" width="12" height="12" rx="2"/><rect class="cls-23" x="9" y="90" width="12" height="12" rx="2"/><rect class="cls-24" x="27" y="90" width="12" height="12" rx="2"/><rect class="cls-25" x="45" y="90" width="12" height="12" rx="2"/><path class="cls-15" d="M21,61v3a2,2,0,0,1-2,2H11a2,2,0,0,1-2-2V61a2,2,0,0,0,2,2h8A2,2,0,0,0,21,61Z"/><path class="cls-15" d="M39,61v3a2,2,0,0,1-2,2H29a2,2,0,0,1-2-2V61a2,2,0,0,0,2,2h8A2,2,0,0,0,39,61Z"/><path class="cls-15" d="M57,61v3a2,2,0,0,1-2,2H47a2,2,0,0,1-2-2V61a2,2,0,0,0,2,2h8A2,2,0,0,0,57,61Z"/><path class="cls-15" d="M75,61v3a2,2,0,0,1-2,2H65a2,2,0,0,1-2-2V61a2,2,0,0,0,2,2h8A2,2,0,0,0,75,61Z"/><path class="cls-15" d="M21,79v3a2,2,0,0,1-2,2H11a2,2,0,0,1-2-2V79a2,2,0,0,0,2,2h8A2,2,0,0,0,21,79Z"/><path class="cls-15" d="M39,79v3a2,2,0,0,1-2,2H29a2,2,0,0,1-2-2V79a2,2,0,0,0,2,2h8A2,2,0,0,0,39,79Z"/><path class="cls-15" d="M57,79v3a2,2,0,0,1-2,2H47a2,2,0,0,1-2-2V79a2,2,0,0,0,2,2h8A2,2,0,0,0,57,79Z"/><path class="cls-15" d="M21,97v3a2,2,0,0,1-2,2H11a2,2,0,0,1-2-2V97a2,2,0,0,0,2,2h8A2,2,0,0,0,21,97Z"/><path class="cls-15" d="M39,97v3a2,2,0,0,1-2,2H29a2,2,0,0,1-2-2V97a2,2,0,0,0,2,2h8A2,2,0,0,0,39,97Z"/><path class="cls-15" d="M57,97v3a2,2,0,0,1-2,2H47a2,2,0,0,1-2-2V97a2,2,0,0,0,2,2h8A2,2,0,0,0,57,97Z"/><path class="cls-26" d="M9,35H75a1,1,0,0,0,1-1V10a1,1,0,0,0-1-1H9a1,1,0,0,0-1,1V34A1,1,0,0,0,9,35Zm1-24H74V33H10Z"/><path class="cls-26" d="M30,14a1,1,0,0,0-1,1v1a5,5,0,0,1-4,4.9V15a1,1,0,0,0-2,0V29a1,1,0,0,0,2,0V23.1A5,5,0,0,1,29,28v1a1,1,0,0,0,2,0V28a7,7,0,0,0-3.41-6A7,7,0,0,0,31,16V15A1,1,0,0,0,30,14Z"/><path class="cls-26" d="M42.12,22.88a1,1,0,1,0,1.42-1.42,5,5,0,1,0,0,7.08,1,1,0,1,0-1.42-1.42,3.08,3.08,0,0,1-4.24,0,3,3,0,0,1,0-4.24A3.08,3.08,0,0,1,42.12,22.88Z"/><path class="cls-26" d="M55,20a1,1,0,0,0-1,1v0a4.92,4.92,0,0,0-3-1,5,5,0,0,0,0,10,4.92,4.92,0,0,0,3-1v0a1,1,0,0,0,2,0V21A1,1,0,0,0,55,20Zm-4,8a3,3,0,1,1,3-3A3,3,0,0,1,51,28Z"/><path class="cls-26" d="M60,14a1,1,0,0,0-1,1V29a1,1,0,0,0,2,0V15A1,1,0,0,0,60,14Z"/><path class="cls-26" d="M114,74.14A15,15,0,0,0,119,63a1,1,0,0,0-1-1h-6a15,15,0,0,0-13,7.55V69a9,9,0,0,0-9-9,1,1,0,0,0,0,2,7,7,0,0,1,7,7v6.92a27.06,27.06,0,0,1-2.93-.59A41.4,41.4,0,0,0,84,74V5a5,5,0,0,0-5-5H5A5,5,0,0,0,0,5V107a5,5,0,0,0,5,5H72.38c4.5,8.78,11.67,16,17.62,16a17,17,0,0,0,5.84-.67,7.23,7.23,0,0,1,4.32,0A17,17,0,0,0,106,128c9.46,0,22-18.24,22-32C128,83.58,122.57,75.26,114,74.14ZM112,64h5a13,13,0,0,1-13,12H99A13,13,0,0,1,112,64ZM5,110a3,3,0,0,1-3-3V5A3,3,0,0,1,5,2H79a3,3,0,0,1,3,3V74.14a13.58,13.58,0,0,0-6,2.26V74a3,3,0,0,0-3-3H65a3,3,0,0,0-3,3v26a3,3,0,0,0,3,3h3.94a41.46,41.46,0,0,0,2.48,7Zm63.5-9H65a1,1,0,0,1-1-1V74a1,1,0,0,1,1-1h8a1,1,0,0,1,1,1v4.09c-3.8,3.79-6,10-6,17.91A27.16,27.16,0,0,0,68.5,101ZM106,126a15.27,15.27,0,0,1-5.25-.58,9.21,9.21,0,0,0-5.5,0A15.27,15.27,0,0,1,90,126c-5.33,0-11.92-7-16-15.29a1.15,1.15,0,0,0-.12-.25A34.39,34.39,0,0,1,70,96c0-12.15,5.5-20,14-20a39.53,39.53,0,0,1,9.62,1.28A20,20,0,0,0,98,78h6a14.88,14.88,0,0,0,7.44-2H112c8.5,0,14,7.85,14,20C126,108.62,114.41,126,106,126Z"/><path class="cls-26" d="M112,80a1,1,0,0,0,0,2c5.9,0,8,7.23,8,14a1,1,0,0,0,2,0C122,88.26,119.37,80,112,80Z"/><path class="cls-26" d="M19,41H11a3,3,0,0,0-3,3v2a3,3,0,0,0,3,3h8a3,3,0,0,0,3-3V44A3,3,0,0,0,19,41Zm1,5a1,1,0,0,1-1,1H11a1,1,0,0,1-1-1V44a1,1,0,0,1,1-1h8a1,1,0,0,1,1,1Z"/><path class="cls-26" d="M37,41H29a3,3,0,0,0-3,3v2a3,3,0,0,0,3,3h8a3,3,0,0,0,3-3V44A3,3,0,0,0,37,41Zm1,5a1,1,0,0,1-1,1H29a1,1,0,0,1-1-1V44a1,1,0,0,1,1-1h8a1,1,0,0,1,1,1Z"/><path class="cls-26" d="M55,41H47a3,3,0,0,0-3,3v2a3,3,0,0,0,3,3h8a3,3,0,0,0,3-3V44A3,3,0,0,0,55,41Zm1,5a1,1,0,0,1-1,1H47a1,1,0,0,1-1-1V44a1,1,0,0,1,1-1h8a1,1,0,0,1,1,1Z"/><path class="cls-26" d="M73,41H65a3,3,0,0,0-3,3v2a3,3,0,0,0,3,3h8a3,3,0,0,0,3-3V44A3,3,0,0,0,73,41Zm1,5a1,1,0,0,1-1,1H65a1,1,0,0,1-1-1V44a1,1,0,0,1,1-1h8a1,1,0,0,1,1,1Z"/><path class="cls-26" d="M19,53H11a3,3,0,0,0-3,3v8a3,3,0,0,0,3,3h8a3,3,0,0,0,3-3V56A3,3,0,0,0,19,53Zm1,11a1,1,0,0,1-1,1H11a1,1,0,0,1-1-1V56a1,1,0,0,1,1-1h8a1,1,0,0,1,1,1Z"/><path class="cls-26" d="M37,53H29a3,3,0,0,0-3,3v8a3,3,0,0,0,3,3h8a3,3,0,0,0,3-3V56A3,3,0,0,0,37,53Zm1,11a1,1,0,0,1-1,1H29a1,1,0,0,1-1-1V56a1,1,0,0,1,1-1h8a1,1,0,0,1,1,1Z"/><path class="cls-26" d="M55,53H47a3,3,0,0,0-3,3v8a3,3,0,0,0,3,3h8a3,3,0,0,0,3-3V56A3,3,0,0,0,55,53Zm1,11a1,1,0,0,1-1,1H47a1,1,0,0,1-1-1V56a1,1,0,0,1,1-1h8a1,1,0,0,1,1,1Z"/><path class="cls-26" d="M73,53H65a3,3,0,0,0-3,3v8a3,3,0,0,0,3,3h8a3,3,0,0,0,3-3V56A3,3,0,0,0,73,53Zm1,11a1,1,0,0,1-1,1H65a1,1,0,0,1-1-1V56a1,1,0,0,1,1-1h8a1,1,0,0,1,1,1Z"/><path class="cls-26" d="M19,71H11a3,3,0,0,0-3,3v8a3,3,0,0,0,3,3h8a3,3,0,0,0,3-3V74A3,3,0,0,0,19,71Zm1,11a1,1,0,0,1-1,1H11a1,1,0,0,1-1-1V74a1,1,0,0,1,1-1h8a1,1,0,0,1,1,1Z"/><path class="cls-26" d="M37,71H29a3,3,0,0,0-3,3v8a3,3,0,0,0,3,3h8a3,3,0,0,0,3-3V74A3,3,0,0,0,37,71Zm1,11a1,1,0,0,1-1,1H29a1,1,0,0,1-1-1V74a1,1,0,0,1,1-1h8a1,1,0,0,1,1,1Z"/><path class="cls-26" d="M55,71H47a3,3,0,0,0-3,3v8a3,3,0,0,0,3,3h8a3,3,0,0,0,3-3V74A3,3,0,0,0,55,71Zm1,11a1,1,0,0,1-1,1H47a1,1,0,0,1-1-1V74a1,1,0,0,1,1-1h8a1,1,0,0,1,1,1Z"/><path class="cls-26" d="M19,89H11a3,3,0,0,0-3,3v8a3,3,0,0,0,3,3h8a3,3,0,0,0,3-3V92A3,3,0,0,0,19,89Zm1,11a1,1,0,0,1-1,1H11a1,1,0,0,1-1-1V92a1,1,0,0,1,1-1h8a1,1,0,0,1,1,1Z"/><path class="cls-26" d="M37,89H29a3,3,0,0,0-3,3v8a3,3,0,0,0,3,3h8a3,3,0,0,0,3-3V92A3,3,0,0,0,37,89Zm1,11a1,1,0,0,1-1,1H29a1,1,0,0,1-1-1V92a1,1,0,0,1,1-1h8a1,1,0,0,1,1,1Z"/><path class="cls-26" d="M55,89H47a3,3,0,0,0-3,3v8a3,3,0,0,0,3,3h8a3,3,0,0,0,3-3V92A3,3,0,0,0,55,89Zm1,11a1,1,0,0,1-1,1H47a1,1,0,0,1-1-1V92a1,1,0,0,1,1-1h8a1,1,0,0,1,1,1Z"/></g></svg>