<svg xmlns="http://www.w3.org/2000/svg" xmlns:xlink="http://www.w3.org/1999/xlink" viewBox="0 0 128 128"><defs><style>.cls-1{fill:url(#linear-gradient);}.cls-2{fill:#cba07a;}.cls-3{fill:url(#linear-gradient-2);}.cls-4{fill:#c7cdd8;}.cls-5{fill:#edf0f4;}.cls-6{fill:url(#linear-gradient-3);}.cls-7{fill:url(#linear-gradient-4);}.cls-8{fill:url(#linear-gradient-5);}.cls-9{fill:url(#linear-gradient-6);}.cls-10{fill:url(#linear-gradient-7);}.cls-11{fill:url(#linear-gradient-8);}.cls-12{fill:#7ece67;}.cls-13{fill:url(#linear-gradient-9);}.cls-14{fill:#4da67f;}.cls-15{fill:url(#linear-gradient-10);}.cls-16{fill:#8288a1;}.cls-17{fill:#d7dbe2;}.cls-18{fill:#47566a;}</style><linearGradient id="linear-gradient" x1="42" y1="115" x2="42" y2="5" gradientUnits="userSpaceOnUse"><stop offset="0" stop-color="#d1a788"/><stop offset="1" stop-color="#f2d3b8"/></linearGradient><linearGradient id="linear-gradient-2" x1="42.5" y1="106" x2="42.5" y2="11" gradientUnits="userSpaceOnUse"><stop offset="0" stop-color="#d4d8e1"/><stop offset="1" stop-color="#f3f4f5"/></linearGradient><linearGradient id="linear-gradient-3" x1="20" y1="32" x2="20" y2="24" gradientUnits="userSpaceOnUse"><stop offset="0" stop-color="#9dd5df"/><stop offset="1" stop-color="#c3e1f5"/></linearGradient><linearGradient id="linear-gradient-4" y1="48" y2="40" xlink:href="#linear-gradient-3"/><linearGradient id="linear-gradient-5" y1="64" y2="56" xlink:href="#linear-gradient-3"/><linearGradient id="linear-gradient-6" y1="80" y2="72" xlink:href="#linear-gradient-3"/><linearGradient id="linear-gradient-7" y1="96" y2="88" xlink:href="#linear-gradient-3"/><linearGradient id="linear-gradient-8" x1="98" y1="127" x2="98" y2="75" gradientUnits="userSpaceOnUse"><stop offset="0" stop-color="#8cdd79"/><stop offset="1" stop-color="#d4e6b6"/></linearGradient><linearGradient id="linear-gradient-9" x1="108" y1="77" x2="108" y2="63" gradientUnits="userSpaceOnUse"><stop offset="0" stop-color="#6ab891"/><stop offset="1" stop-color="#85cba9"/></linearGradient><linearGradient id="linear-gradient-10" x1="42" y1="13" x2="42" y2="1" gradientUnits="userSpaceOnUse"><stop offset="0" stop-color="#949aaf"/><stop offset="1" stop-color="#c6ccda"/></linearGradient></defs><title>Food List</title><g id="Food_List" data-name="Food List"><path class="cls-1" d="M83,9a4,4,0,0,0-4-4H5A4,4,0,0,0,1,9V111a4,4,0,0,0,4,4H83Z"/><path class="cls-2" d="M83,111v4H5a4,4,0,0,1-4-4v-4a4,4,0,0,0,4,4Z"/><path class="cls-3" d="M68,11l9,9v86H8V11Z"/><rect class="cls-4" x="8" y="101" width="69" height="5"/><polygon class="cls-5" points="77 20 68 20 68 11 77 20"/><rect class="cls-6" x="16" y="24" width="8" height="8"/><rect class="cls-7" x="16" y="40" width="8" height="8"/><rect class="cls-8" x="16" y="56" width="8" height="8"/><rect class="cls-9" x="16" y="72" width="8" height="8"/><rect class="cls-10" x="16" y="88" width="8" height="8"/><path class="cls-11" d="M111.19,75C122.29,74.6,127,84.86,127,96c0,13-12,31-21,31-6,0-5-1-8-1s-2,1-8,1c-9,0-21-18-21-31s6-21,15-21c7,0,11,2,14,2"/><path class="cls-12" d="M106,127c-6,0-5-1-8-1s-2,1-8,1c-8.46,0-22.27-18-20.89-33.87C70.28,105.88,81.48,122,90,122c6,0,5-1,8-1s2,1,8,1c8.52,0,19.72-16.12,20.89-28.87C128.26,108.92,114.57,127,106,127Z"/><path class="cls-13" d="M98,77h6a14,14,0,0,0,14-14h-6A14,14,0,0,0,98,77Z"/><path class="cls-14" d="M118,63a14,14,0,0,1-14,14H98a14.14,14.14,0,0,1,.32-3H104a14,14,0,0,0,13.68-11Z"/><rect class="cls-15" x="27" y="1" width="30" height="12" rx="2"/><path class="cls-16" d="M57,8v3a2,2,0,0,1-2,2H29a2,2,0,0,1-2-2V8a2,2,0,0,0,2,2H55A2,2,0,0,0,57,8Z"/><circle class="cls-17" cx="34" cy="7" r="2"/><circle class="cls-17" cx="50" cy="7" r="2"/><path class="cls-18" d="M114,74.14A15,15,0,0,0,119,63a1,1,0,0,0-1-1h-6a15,15,0,0,0-13,7.55V69a9,9,0,0,0-9-9,1,1,0,0,0,0,2,7,7,0,0,1,7,7v6.92a27.06,27.06,0,0,1-2.93-.59A41.4,41.4,0,0,0,84,74V9a5,5,0,0,0-5-5H58V3a3,3,0,0,0-3-3H29a3,3,0,0,0-3,3V4H5A5,5,0,0,0,0,9V111a5,5,0,0,0,5,5H74.68C79.1,122.87,85,128,90,128a17,17,0,0,0,5.84-.67,7.23,7.23,0,0,1,4.32,0A17,17,0,0,0,106,128c9.46,0,22-18.24,22-32C128,83.58,122.57,75.26,114,74.14ZM112,64h5a13,13,0,0,1-13,12H99A13,13,0,0,1,112,64ZM79,6a3,3,0,0,1,3,3V74.14a13.59,13.59,0,0,0-4,1.15V20s0,0,0-.06a2,2,0,0,0,0-.26.36.36,0,0,0,0-.09,1.17,1.17,0,0,0-.19-.3l-9-9a1.17,1.17,0,0,0-.3-.19l-.09,0a1.09,1.09,0,0,0-.26-.05H58V6ZM26.18,12A3,3,0,0,0,29,14H55a3,3,0,0,0,2.82-2H67v8a1,1,0,0,0,1,1h8V76.4c-5,3.44-8,10.4-8,19.6a30.48,30.48,0,0,0,1.51,9H9V12ZM69,13.41,74.59,19H69ZM28,3a1,1,0,0,1,1-1H55a1,1,0,0,1,1,1v8a1,1,0,0,1-1,1H29a1,1,0,0,1-1-1ZM5,114a3,3,0,0,1-3-3V9A3,3,0,0,1,5,6H26v4H8a1,1,0,0,0-1,1v95a1,1,0,0,0,1,1H70.18a47,47,0,0,0,3.29,7Zm101,12a15.27,15.27,0,0,1-5.25-.58,9.21,9.21,0,0,0-5.5,0A15.27,15.27,0,0,1,90,126c-4.45,0-9.79-4.87-13.84-11.33a.93.93,0,0,0-.23-.38,44.8,44.8,0,0,1-4.06-8.5,1.06,1.06,0,0,0-.09-.25A29.87,29.87,0,0,1,70,96c0-12.15,5.5-20,14-20a39.53,39.53,0,0,1,9.62,1.28A20,20,0,0,0,98,78h6a14.88,14.88,0,0,0,7.44-2H112c8.5,0,14,7.85,14,20C126,108.62,114.41,126,106,126Z"/><path class="cls-18" d="M112,80a1,1,0,0,0,0,2c5.9,0,8,7.23,8,14a1,1,0,0,0,2,0C122,88.26,119.37,80,112,80Z"/><path class="cls-18" d="M34,10a3,3,0,1,0-3-3A3,3,0,0,0,34,10Zm0-4a1,1,0,1,1-1,1A1,1,0,0,1,34,6Z"/><path class="cls-18" d="M50,10a3,3,0,1,0-3-3A3,3,0,0,0,50,10Zm0-4a1,1,0,1,1-1,1A1,1,0,0,1,50,6Z"/><path class="cls-18" d="M16,33h8a1,1,0,0,0,1-1V24a1,1,0,0,0-1-1H16a1,1,0,0,0-1,1v8A1,1,0,0,0,16,33Zm1-8h6v6H17Z"/><path class="cls-18" d="M30,26H65a1,1,0,0,0,0-2H30a1,1,0,0,0,0,2Z"/><path class="cls-18" d="M30,32H56a1,1,0,0,0,0-2H30a1,1,0,0,0,0,2Z"/><path class="cls-18" d="M16,49h8a1,1,0,0,0,1-1V40a1,1,0,0,0-1-1H16a1,1,0,0,0-1,1v8A1,1,0,0,0,16,49Zm1-8h6v6H17Z"/><path class="cls-18" d="M30,42H65a1,1,0,0,0,0-2H30a1,1,0,0,0,0,2Z"/><path class="cls-18" d="M30,48H56a1,1,0,0,0,0-2H30a1,1,0,0,0,0,2Z"/><path class="cls-18" d="M16,65h8a1,1,0,0,0,1-1V56a1,1,0,0,0-1-1H16a1,1,0,0,0-1,1v8A1,1,0,0,0,16,65Zm1-8h6v6H17Z"/><path class="cls-18" d="M30,58H65a1,1,0,0,0,0-2H30a1,1,0,0,0,0,2Z"/><path class="cls-18" d="M30,64H56a1,1,0,0,0,0-2H30a1,1,0,0,0,0,2Z"/><path class="cls-18" d="M16,81h8a1,1,0,0,0,1-1V72a1,1,0,0,0-1-1H16a1,1,0,0,0-1,1v8A1,1,0,0,0,16,81Zm1-8h6v6H17Z"/><path class="cls-18" d="M30,74H65a1,1,0,0,0,0-2H30a1,1,0,0,0,0,2Z"/><path class="cls-18" d="M30,80H56a1,1,0,0,0,0-2H30a1,1,0,0,0,0,2Z"/><path class="cls-18" d="M16,97h8a1,1,0,0,0,1-1V88a1,1,0,0,0-1-1H16a1,1,0,0,0-1,1v8A1,1,0,0,0,16,97Zm1-8h6v6H17Z"/><path class="cls-18" d="M30,90H65a1,1,0,0,0,0-2H30a1,1,0,0,0,0,2Z"/><path class="cls-18" d="M30,96H56a1,1,0,0,0,0-2H30a1,1,0,0,0,0,2Z"/></g></svg>