<svg xmlns="http://www.w3.org/2000/svg" xmlns:xlink="http://www.w3.org/1999/xlink" viewBox="0 0 128 128"><defs><style>.cls-1{fill:url(#linear-gradient);}.cls-2{fill:#7ece67;}.cls-3{fill:url(#linear-gradient-2);}.cls-4{fill:url(#linear-gradient-3);}.cls-5{fill:url(#linear-gradient-4);}.cls-6{fill:url(#linear-gradient-5);}.cls-7{fill:url(#linear-gradient-6);}.cls-8{fill:url(#linear-gradient-7);}.cls-9{fill:url(#linear-gradient-8);}.cls-10{fill:url(#linear-gradient-9);}.cls-11{fill:#dd4e6a;}.cls-12{fill:#4da67f;}.cls-13{fill:url(#linear-gradient-10);}.cls-14{fill:#47566a;}</style><linearGradient id="linear-gradient" x1="40.69" y1="127" x2="40.69" y2="90.4" gradientUnits="userSpaceOnUse"><stop offset="0" stop-color="#8cdd79"/><stop offset="1" stop-color="#d4e6b6"/></linearGradient><linearGradient id="linear-gradient-2" x1="47.88" y1="94.36" x2="47.88" y2="42.65" gradientUnits="userSpaceOnUse"><stop offset="0" stop-color="#6ab891"/><stop offset="1" stop-color="#85cba9"/></linearGradient><linearGradient id="linear-gradient-3" x1="87.61" y1="37.29" x2="87.61" y2="1" xlink:href="#linear-gradient-2"/><linearGradient id="linear-gradient-4" x1="24.46" y1="119.33" x2="24.46" y2="87.82" gradientUnits="userSpaceOnUse"><stop offset="0" stop-color="#fbcc88"/><stop offset="1" stop-color="#ffe5c3"/></linearGradient><linearGradient id="linear-gradient-5" x1="103.64" y1="39.87" x2="103.64" y2="8.93" xlink:href="#linear-gradient-4"/><linearGradient id="linear-gradient-6" x1="54.45" y1="87.85" x2="54.45" y2="59.05" xlink:href="#linear-gradient-4"/><linearGradient id="linear-gradient-7" x1="96.97" y1="127" x2="96.97" y2="66.98" gradientUnits="userSpaceOnUse"><stop offset="0" stop-color="#da5466"/><stop offset="1" stop-color="#e87092"/></linearGradient><linearGradient id="linear-gradient-8" x1="73.51" y1="68.73" x2="73.51" y2="39.8" xlink:href="#linear-gradient-4"/><linearGradient id="linear-gradient-9" x1="61.64" y1="77.35" x2="61.64" y2="45.84" xlink:href="#linear-gradient-4"/><linearGradient id="linear-gradient-10" x1="80.34" y1="85.04" x2="80.34" y2="33.27" xlink:href="#linear-gradient"/></defs><title>GMO Free</title><g id="GMO_Free" data-name="GMO Free"><path class="cls-1" d="M42.44,127H34.35c9.11-10,6.34-23.4,3.28-36.6L44.58,92C47.32,104.17,49.05,116.55,42.44,127Z"/><path class="cls-2" d="M44.58,92c.4,1.78.77,3.57,1.11,5.35-2.68-.58,0,0-6.87-1.54-.37-1.78-.77-3.59-1.19-5.4Z"/><path class="cls-3" d="M94.46,67.11l-2.29,8.43A33.53,33.53,0,0,1,75.6,91.85l-8.47,2.22C44.38,96.86,18,78.23,1,93.72V85.61c20.43-13,47.66,6,67.64,1.62l19-18.72c1.87-7.85-.42-18.07-2.22-25.86l7,1.6C94,51.65,95.41,59.72,94.46,67.11Z"/><path class="cls-4" d="M90.74,37.29l-7-1.59c-2.63-12-4.34-24.18,2-34.7h8C85.05,11.05,87.81,24.34,90.74,37.29Z"/><path class="cls-5" d="M40.21,114.47a25,25,0,0,1-1.2,4.86L8.7,89a25,25,0,0,1,4.86-1.21Z"/><path class="cls-6" d="M119.11,38.76a24.85,24.85,0,0,1-5,1.11l-26-26a24.87,24.87,0,0,1,1.12-5Z"/><path class="cls-7" d="M68.63,87.23a28.59,28.59,0,0,1-5,.62L40.18,64.42a29.78,29.78,0,0,1,.7-5.37C70.9,89.08,68.77,86.74,68.63,87.23Z"/><path class="cls-8" d="M127,95.54c-1.29-27-35-38.6-52.62-18.19C57.44,96.76,71.37,127,97,127,114.39,127,128,112.17,127,95.54ZM119,97c0,17.89-20.12,28-34.48,18.13l30.61-30.61A21.91,21.91,0,0,1,119,97ZM92.17,75.54a22,22,0,0,1,17.3,3.33L78.86,109.48A22,22,0,0,1,92.17,75.54Z"/><path class="cls-9" d="M88.23,64a26.13,26.13,0,0,1-.63,4.54l-.67.22L58.79,40.59a28.87,28.87,0,0,1,5.28-.79Z"/><path class="cls-10" d="M77.37,74.32a28.05,28.05,0,0,0-3,3L45.91,48.93a35.44,35.44,0,0,1,3-3.09Z"/><path class="cls-11" d="M127,95.54a30,30,0,0,1-59.92,0C66,112.13,79.54,127,97,127S128,112.17,127,95.54Z"/><path class="cls-12" d="M83.78,35.7c-.39-1.78-.76-3.57-1.08-5.35l6.86,1.55c.36,1.78.77,3.58,1.18,5.39Z"/><path class="cls-12" d="M93.43,49.6c-1.83-.4-3.8-.81-6.86-1.54-.37-1.78-.77-3.59-1.19-5.41l7,1.6C92.73,46,93.1,47.82,93.43,49.6Z"/><path class="cls-13" d="M127,34.29v7.93c-25.23,15.3-59.71-16-79.63,5.12C37.2,57.5,39.82,71,43,85c-1.24-.28-5.07-1.18-6.94-1.59C32.66,68,31.43,54.19,42.74,42.87,67,17.13,104.62,53.47,127,34.29Z"/><path class="cls-2" d="M36.05,83.45c-.39-1.78-.77-3.57-1.09-5.35,2,.41,4.88,1.08,6.85,1.54.36,1.78.77,3.59,1.18,5.4C41.75,84.76,37.92,83.86,36.05,83.45Z"/><path class="cls-14" d="M97,66c-.48,0-1,0-1.43,0,.63-6.72-.48-13.76-1.93-20.49,11,2.32,23.29,3.94,33.88-2.47a1,1,0,0,0,.33-1.38,1,1,0,0,0-1.37-.33C116,47.7,104,45.78,92.55,43.27h0l-3.75-.86-1.42-.33c-.57-.12-1.14-.26-1.74-.41h0c-7.88-1.79-15-3.25-21.54-2.86a30.34,30.34,0,0,0-5.46.82A23.68,23.68,0,0,0,48.23,45.1c-.54.48-1.07,1-1.57,1.53s-1,1.07-1.5,1.65a24,24,0,0,0-5.24,10.55,30.65,30.65,0,0,0-.73,5.55v0h0c-.26,6,1,12.56,2.49,19.29l-.2,0-2.33-.54q-1.12-.27-2.25-.51c-3-13.6-4.74-27.75,6.58-39.06,11.33-12,26-10,40.09-6.88L89,37.91c.52.13,1,.25,1.54.35,8.35,1.93,16.45,3.57,23.76,2.6a25.57,25.57,0,0,0,5.14-1.15,24.27,24.27,0,0,0,8.22-4.66,1,1,0,1,0-1.3-1.52,21.94,21.94,0,0,1-7,4.06L90.46,8.68a21.38,21.38,0,0,1,4.1-7A1,1,0,1,0,93.06.34a23.46,23.46,0,0,0-4.69,8.2v0l0,0a26.56,26.56,0,0,0-1.16,5.15c-.9,6.84.49,14.4,2.24,22.21l-4.79-1.09C82.2,23.6,80.46,11.79,86.69,1.52A1,1,0,0,0,86.36.15,1,1,0,0,0,85,.48c-6.43,10.6-4.81,23-2.49,33.91-14.17-3-28.83-4.55-40.45,7.77-11.75,11.75-10.24,26.13-7.29,40C23.13,79.65,11,78.07.46,84.77a1,1,0,1,0,1.08,1.68c10.37-6.58,22.63-4.61,34.31-2l2.85.65,2.33.53c.59.14,1.17.28,1.75.4,6.63,1.52,13.09,2.88,19.16,2.88.55,0,1.11,0,1.66,0h.06a31.55,31.55,0,0,0,3.53-.34,30.88,30.88,0,0,0-.94,4.63c-7,.71-14.44-.59-21.45-2.13h0l-4.17-1-1-.24c-.58-.12-1.15-.25-1.74-.39-9-2.07-17.07-3.69-24.44-2.6a25.39,25.39,0,0,0-5.05,1.26A23.76,23.76,0,0,0,.33,93a1,1,0,1,0,1.34,1.48,21.81,21.81,0,0,1,6.81-4.25l29.36,29.36a21.34,21.34,0,0,1-4.22,6.75,1,1,0,0,0,.06,1.42,1.05,1.05,0,0,0,.68.26,1,1,0,0,0,.74-.32,23.8,23.8,0,0,0,4.86-8,26.45,26.45,0,0,0,1.25-5c1-6.91-.35-14.48-2.24-22.89l.18,0,1,.23c1.19.28,2.4.56,3.6.82,2.51,11.47,4.3,23.46-2.14,33.65a1,1,0,0,0,.31,1.37.94.94,0,0,0,.53.16,1,1,0,0,0,.85-.47C50,117,48.39,104.89,45.9,93.29a79.33,79.33,0,0,0,16.29,2.07c1.3,0,2.59-.07,3.87-.19Q66,96.09,66,97A31,31,0,1,0,97,66ZM89.77,10.82l27.44,27.44a25.28,25.28,0,0,1-2.7.54L89.24,13.52A23.47,23.47,0,0,1,89.77,10.82ZM89,16.09l23,23c-6.28.39-13.21-1-20.37-2.61C90,29.3,88.58,22.36,89,16.09ZM38.56,117.46l-28-28a26.35,26.35,0,0,1,2.65-.59l25.92,25.92A26.05,26.05,0,0,1,38.56,117.46Zm.89-5.17-23.7-23.7c6.33-.5,13.33.89,21,2.65C38.57,99,40,106,39.45,112.29ZM88.31,44.36l3.19.72c1.52,7,2.76,14.27,2,21.12a29.48,29.48,0,0,0-4.64.88c.15-1,.26-2,.33-3V64h0c.36-6.16-.89-12.73-2.52-20l.19,0ZM77.44,73,50.37,45.9a21.63,21.63,0,0,1,8.14-4.19L85.15,68.36A31,31,0,0,0,77.44,73ZM63.7,40.84,87.21,64.35c-.08,1-.19,2-.35,2.88l-26-26A28.43,28.43,0,0,1,63.7,40.84Zm20.85,2.65c1.5,6.58,2.73,12.57,2.75,18.12L66.43,40.74C72,40.78,78,42,84.55,43.49ZM48.1,48c.25-.28.52-.54.78-.8L75.93,74.29q-.84.78-1.62,1.62l-27-27C47.55,48.59,47.81,48.31,48.1,48ZM64,86.83,41.23,64a27.38,27.38,0,0,1,.31-2.93l25.4,25.42C66,86.67,65,86.77,64,86.83Zm4.36-1.71L42,58.74a21.9,21.9,0,0,1,4-8.31l27,27A30.77,30.77,0,0,0,68.37,85.12ZM43.84,84.2c-1.37-6-2.58-12-2.68-17.39L61.23,86.88C55.76,86.78,49.88,85.58,43.84,84.2ZM97,126a29,29,0,1,1,29-29A29,29,0,0,1,97,126Z"/><path class="cls-14" d="M110.48,78.78a1,1,0,0,0-.43-.73,23,23,0,0,0-32,32,1,1,0,0,0,.73.43h.09a1,1,0,0,0,.71-.29l30.61-30.61A1,1,0,0,0,110.48,78.78ZM90.29,77.12a29.93,29.93,0,0,1-5.82,7.46A29.31,29.31,0,0,1,77.24,90,21,21,0,0,1,90.29,77.12ZM79,107.9a21,21,0,0,1-2.56-15.35A31.24,31.24,0,0,0,85.87,86a31.21,31.21,0,0,0,7-9.61A20.71,20.71,0,0,1,97,76a20.93,20.93,0,0,1,10.9,3Z"/><path class="cls-14" d="M116,84a1,1,0,0,0-.73-.43,1,1,0,0,0-.8.29L83.81,114.42a1,1,0,0,0-.29.8A1,1,0,0,0,84,116a23,23,0,0,0,32-32ZM97,118a20.93,20.93,0,0,1-10.9-3L115,86.1A21,21,0,0,1,97,118Z"/></g></svg>