<svg xmlns="http://www.w3.org/2000/svg" xmlns:xlink="http://www.w3.org/1999/xlink" viewBox="0 0 128 128"><defs><style>.cls-1{fill:url(#linear-gradient);}.cls-2{fill:#77cacb;}.cls-3{fill:url(#linear-gradient-2);}.cls-4{fill:#c7cdd8;}.cls-5{fill:url(#linear-gradient-3);}.cls-6{fill:url(#linear-gradient-4);}.cls-7{fill:url(#linear-gradient-5);}.cls-8{fill:url(#linear-gradient-6);}.cls-9{fill:url(#linear-gradient-7);}.cls-10{fill:url(#linear-gradient-8);}.cls-11{fill:url(#linear-gradient-9);}.cls-12{fill:url(#linear-gradient-10);}.cls-13{fill:url(#linear-gradient-11);}.cls-14{fill:url(#linear-gradient-12);}.cls-15{fill:url(#linear-gradient-13);}.cls-16{fill:url(#linear-gradient-14);}.cls-17{fill:url(#linear-gradient-15);}.cls-18{fill:#8288a1;}.cls-19{fill:url(#linear-gradient-16);}.cls-20{fill:#c3e1f5;}.cls-21{fill:#47566a;}</style><linearGradient id="linear-gradient" x1="119.5" y1="47" x2="119.5" y2="1" gradientUnits="userSpaceOnUse"><stop offset="0" stop-color="#9dd5df"/><stop offset="1" stop-color="#c3e1f5"/></linearGradient><linearGradient id="linear-gradient-2" x1="63.5" y1="113" x2="63.5" y2="47" gradientUnits="userSpaceOnUse"><stop offset="0" stop-color="#d4d8e1"/><stop offset="1" stop-color="#f3f4f5"/></linearGradient><linearGradient id="linear-gradient-3" x1="63.5" y1="109" x2="63.5" y2="71" xlink:href="#linear-gradient"/><linearGradient id="linear-gradient-4" x1="31.5" y1="127" x2="31.5" y2="113" gradientUnits="userSpaceOnUse"><stop offset="0" stop-color="#da5466"/><stop offset="1" stop-color="#e87092"/></linearGradient><linearGradient id="linear-gradient-5" x1="31.5" y1="127" x2="31.5" y2="119" gradientUnits="userSpaceOnUse"><stop offset="0" stop-color="#fbcc88"/><stop offset="1" stop-color="#ffe5c3"/></linearGradient><linearGradient id="linear-gradient-6" x1="47.5" x2="47.5" xlink:href="#linear-gradient-4"/><linearGradient id="linear-gradient-7" x1="47.5" x2="47.5" xlink:href="#linear-gradient-5"/><linearGradient id="linear-gradient-8" x1="63.5" x2="63.5" xlink:href="#linear-gradient-4"/><linearGradient id="linear-gradient-9" x1="63.5" x2="63.5" xlink:href="#linear-gradient-5"/><linearGradient id="linear-gradient-10" x1="79.5" x2="79.5" xlink:href="#linear-gradient-4"/><linearGradient id="linear-gradient-11" x1="79.5" x2="79.5" xlink:href="#linear-gradient-5"/><linearGradient id="linear-gradient-12" x1="95.5" x2="95.5" xlink:href="#linear-gradient-4"/><linearGradient id="linear-gradient-13" x1="95.5" x2="95.5" xlink:href="#linear-gradient-5"/><linearGradient id="linear-gradient-14" x1="117.5" y1="60" x2="117.5" y2="54" gradientUnits="userSpaceOnUse"><stop offset="0" stop-color="#949aaf"/><stop offset="1" stop-color="#c6ccda"/></linearGradient><linearGradient id="linear-gradient-15" x1="9.5" x2="9.5" xlink:href="#linear-gradient-14"/><linearGradient id="linear-gradient-16" x1="119.5" y1="41.99" x2="119.5" y2="18.02" xlink:href="#linear-gradient-4"/></defs><title>Good Cook</title><g id="Good_Cook" data-name="Good Cook"><path class="cls-1" d="M125.5,33.72V7a6,6,0,0,0-12,0V33.72a8,8,0,1,0,12,0Z"/><path class="cls-2" d="M118.59,47a8,8,0,0,1-6.94-9.45,8,8,0,0,0,15.71,0A8,8,0,0,1,118.59,47Z"/><path class="cls-3" d="M18.5,47h90a0,0,0,0,1,0,0v60a6,6,0,0,1-6,6h-78a6,6,0,0,1-6-6V47A0,0,0,0,1,18.5,47Z"/><path class="cls-4" d="M108.5,103v4a6,6,0,0,1-6,6h-78a6,6,0,0,1-6-6v-4a6,6,0,0,0,6,6h78A6,6,0,0,0,108.5,103Z"/><path class="cls-5" d="M24.5,109a2,2,0,0,1-2-2V75s17,9,41,0,41,0,41,0v32a2,2,0,0,1-2,2Z"/><path class="cls-2" d="M104.5,103v4a2,2,0,0,1-2,2h-78a2,2,0,0,1-2-2v-4a2,2,0,0,0,2,2h78A2,2,0,0,0,104.5,103Z"/><path class="cls-6" d="M36.5,122a5,5,0,0,1-10,0c0-4,5-9,5-9S36.5,118,36.5,122Z"/><path class="cls-7" d="M34.36,124.14a2.86,2.86,0,0,1-5.72,0c0-2.28,2.86-5.14,2.86-5.14S34.36,121.86,34.36,124.14Z"/><path class="cls-8" d="M52.5,122a5,5,0,0,1-10,0c0-4,5-9,5-9S52.5,118,52.5,122Z"/><path class="cls-9" d="M50.36,124.14a2.86,2.86,0,0,1-5.72,0c0-2.28,2.86-5.14,2.86-5.14S50.36,121.86,50.36,124.14Z"/><path class="cls-10" d="M68.5,122a5,5,0,0,1-10,0c0-4,5-9,5-9S68.5,118,68.5,122Z"/><path class="cls-11" d="M66.36,124.14a2.86,2.86,0,0,1-5.72,0c0-2.28,2.86-5.14,2.86-5.14S66.36,121.86,66.36,124.14Z"/><path class="cls-12" d="M84.5,122a5,5,0,0,1-10,0c0-4,5-9,5-9S84.5,118,84.5,122Z"/><path class="cls-13" d="M82.36,124.14a2.86,2.86,0,0,1-5.72,0c0-2.28,2.86-5.14,2.86-5.14S82.36,121.86,82.36,124.14Z"/><path class="cls-14" d="M100.5,122a5,5,0,0,1-10,0c0-4,5-9,5-9S100.5,118,100.5,122Z"/><path class="cls-15" d="M98.36,124.14a2.86,2.86,0,0,1-5.72,0c0-2.28,2.86-5.14,2.86-5.14S98.36,121.86,98.36,124.14Z"/><path class="cls-16" d="M123.5,60h-15V54h15a3,3,0,0,1,0,6Z"/><path class="cls-17" d="M18.5,60H3.5a3,3,0,0,1,0-6h15Z"/><path class="cls-18" d="M123.5,60h-15V57c16.15,0,16.39.49,17.6-1.5A3,3,0,0,1,123.5,60Z"/><path class="cls-18" d="M18.5,57v3H3.5A3,3,0,0,1,.9,55.5,3,3,0,0,0,3.5,57Z"/><path class="cls-19" d="M121.5,36.78V20a2,2,0,0,0-4,0V36.78a3,3,0,0,0-1,2.75,3,3,0,0,0,6-.53A3,3,0,0,0,121.5,36.78Z"/><circle class="cls-20" cx="90.5" cy="97" r="4"/><circle class="cls-20" cx="70.5" cy="84" r="3"/><circle class="cls-20" cx="36.5" cy="94" r="5"/><path class="cls-21" d="M105.47,74.12c-.71-.38-17.68-9.11-41.82-.06-23.26,8.73-40,.14-40.18.06a1,1,0,0,0-1,0A1,1,0,0,0,22,75v32a3,3,0,0,0,3,3h78a3,3,0,0,0,3-3V75A1,1,0,0,0,105.47,74.12ZM104,107a1,1,0,0,1-1,1H25a1,1,0,0,1-1-1V76.56c4.67,2,20,7,40.35-.62,21-7.86,36.62-1.68,39.65-.31Z"/><path class="cls-21" d="M124,53H110V47a1,1,0,0,0-1-1H19a1,1,0,0,0-1,1v6H4a4,4,0,0,0,0,8H18v46a7,7,0,0,0,7,7h4.77c-1.56,1.91-3.77,5.12-3.77,8a6,6,0,0,0,12,0c0-2.88-2.21-6.09-3.77-8H45.77c-1.56,1.91-3.77,5.12-3.77,8a6,6,0,0,0,12,0c0-2.88-2.21-6.09-3.77-8H61.77c-1.56,1.91-3.77,5.12-3.77,8a6,6,0,0,0,12,0c0-2.88-2.21-6.09-3.77-8H77.77c-1.56,1.91-3.77,5.12-3.77,8a6,6,0,0,0,12,0c0-2.88-2.21-6.09-3.77-8H93.77c-1.56,1.91-3.77,5.12-3.77,8a6,6,0,0,0,12,0c0-2.88-2.21-6.09-3.77-8H103a7,7,0,0,0,7-7V61h14a4,4,0,0,0,0-8ZM30.14,124.14c0-1.13,1.05-2.65,1.86-3.64.81,1,1.86,2.51,1.86,3.64A1.86,1.86,0,0,1,32.37,126c-.12,0-.24,0-.37,0s-.25,0-.37,0A1.86,1.86,0,0,1,30.14,124.14Zm5.62-.84c-.48-2.37-2.76-4.72-3-5a1,1,0,0,0-1.42,0c-.29.29-2.57,2.64-3.05,5A3.75,3.75,0,0,1,28,122c0-2.5,2.46-5.8,4-7.54,1.54,1.74,4,5,4,7.54A3.75,3.75,0,0,1,35.76,123.3Zm10.38.84c0-1.13,1-2.65,1.86-3.64.81,1,1.86,2.51,1.86,3.64A1.86,1.86,0,0,1,48.37,126c-.12,0-.24,0-.37,0s-.25,0-.37,0A1.86,1.86,0,0,1,46.14,124.14Zm5.62-.84c-.48-2.37-2.76-4.72-3-5a1,1,0,0,0-1.42,0c-.29.29-2.57,2.64-3,5A3.75,3.75,0,0,1,44,122c0-2.5,2.46-5.8,4-7.54,1.54,1.74,4,5,4,7.54A3.75,3.75,0,0,1,51.76,123.3Zm10.38.84c0-1.13,1-2.65,1.86-3.64.81,1,1.86,2.51,1.86,3.64A1.86,1.86,0,0,1,64.37,126c-.12,0-.24,0-.37,0s-.25,0-.37,0A1.86,1.86,0,0,1,62.14,124.14Zm5.62-.84c-.48-2.37-2.76-4.72-3.05-5a1,1,0,0,0-1.42,0c-.29.29-2.57,2.64-3,5A3.75,3.75,0,0,1,60,122c0-2.5,2.46-5.8,4-7.54,1.54,1.74,4,5,4,7.54A3.75,3.75,0,0,1,67.76,123.3Zm10.38.84c0-1.13,1-2.65,1.86-3.64.81,1,1.86,2.51,1.86,3.64A1.86,1.86,0,0,1,80.37,126c-.12,0-.24,0-.37,0s-.25,0-.37,0A1.86,1.86,0,0,1,78.14,124.14Zm5.62-.84c-.48-2.37-2.76-4.72-3.05-5a1,1,0,0,0-1.42,0c-.29.29-2.57,2.64-3.05,5A3.75,3.75,0,0,1,76,122c0-2.5,2.46-5.8,4-7.54,1.54,1.74,4,5,4,7.54A3.75,3.75,0,0,1,83.76,123.3Zm10.38.84c0-1.13,1-2.65,1.86-3.64.81,1,1.86,2.51,1.86,3.64A1.86,1.86,0,0,1,96.37,126c-.12,0-.24,0-.37,0s-.25,0-.37,0A1.86,1.86,0,0,1,94.14,124.14Zm5.62-.84c-.48-2.37-2.76-4.72-3.05-5a1,1,0,0,0-1.42,0c-.29.29-2.57,2.64-3.05,5A3.75,3.75,0,0,1,92,122c0-2.5,2.46-5.8,4-7.54,1.54,1.74,4,5,4,7.54A3.75,3.75,0,0,1,99.76,123.3ZM4,59a2,2,0,0,1,0-4H18v4Zm104,48a5,5,0,0,1-5,5H25a5,5,0,0,1-5-5V48h88v59Zm16-48H110V55h14a2,2,0,0,1,0,4Z"/><path class="cls-21" d="M119.29,42.94a4.23,4.23,0,0,0,.7.06,4,4,0,0,0,3-6.63V20a3,3,0,0,0-6,0V36.37a4,4,0,0,0-.94,3.34A4,4,0,0,0,119.29,42.94Zm-.62-5.42a1,1,0,0,0,.33-.74V20a1,1,0,0,1,2,0V36.78a1,1,0,0,0,.33.74,2,2,0,0,1,0,3A2,2,0,0,1,118,39.36,2,2,0,0,1,118.67,37.52Z"/><path class="cls-21" d="M119,47.94a8.39,8.39,0,0,0,1,.06,9,9,0,0,0,7-14.64V7a7,7,0,0,0-14,0V33.36a9,9,0,0,0,6,14.58Zm-4.23-13.56a1,1,0,0,0,.25-.66V7a5,5,0,0,1,10,0V33.72a1,1,0,0,0,.25.66,7,7,0,0,1-6,11.58,7.06,7.06,0,0,1-6.14-6A6.93,6.93,0,0,1,114.75,34.38Z"/><path class="cls-21" d="M63.4,30.2a1,1,0,0,0-.2,1.4,1,1,0,0,0,.8.4,1,1,0,0,0,.6-.2c.47-.35,4.46-3.79.35-16.12-3.62-10.84-.43-13.81-.33-13.89A1,1,0,0,0,63.4.2c-.47.35-4.46,3.79-.35,16.12C66.7,27.27,63.41,30.19,63.4,30.2Z"/><path class="cls-21" d="M39.4,38.2a1,1,0,0,0-.2,1.4,1,1,0,0,0,.8.4,1,1,0,0,0,.6-.2c.47-.35,4.46-3.79.35-16.12-3.62-10.84-.43-13.81-.33-13.89A1,1,0,0,0,39.4,8.2c-.47.35-4.46,3.79-.35,16.12C42.7,35.27,39.41,38.19,39.4,38.2Z"/><path class="cls-21" d="M86.4,39.2a1,1,0,0,0-.2,1.4,1,1,0,0,0,.8.4,1,1,0,0,0,.6-.2c.47-.35,4.46-3.79.35-16.12-3.62-10.84-.43-13.81-.33-13.89A1,1,0,0,0,86.4,9.2c-.47.35-4.46,3.79-.35,16.12C89.7,36.27,86.41,39.19,86.4,39.2Z"/><path class="cls-21" d="M91,102a5,5,0,1,0-5-5A5,5,0,0,0,91,102Zm0-8a3,3,0,1,1-3,3A3,3,0,0,1,91,94Z"/><path class="cls-21" d="M71,80a4,4,0,1,0,4,4A4,4,0,0,0,71,80Zm0,6a2,2,0,1,1,2-2A2,2,0,0,1,71,86Z"/><path class="cls-21" d="M37,88a6,6,0,1,0,6,6A6,6,0,0,0,37,88Zm0,10a4,4,0,1,1,4-4A4,4,0,0,1,37,98Z"/></g></svg>