<svg xmlns="http://www.w3.org/2000/svg" xmlns:xlink="http://www.w3.org/1999/xlink" viewBox="0 0 128 128"><defs><style>.cls-1{fill:url(#linear-gradient);}.cls-2{fill:#7ece67;}.cls-3{fill:url(#linear-gradient-2);}.cls-4{fill:#4da67f;}.cls-5{fill:url(#linear-gradient-3);}.cls-6{fill:url(#linear-gradient-4);}.cls-7{fill:#47566a;}</style><linearGradient id="linear-gradient" x1="79.01" y1="111" x2="79.01" y2="24.31" gradientUnits="userSpaceOnUse"><stop offset="0" stop-color="#8cdd79"/><stop offset="1" stop-color="#d4e6b6"/></linearGradient><linearGradient id="linear-gradient-2" x1="95.5" y1="28" x2="95.5" y2="5" gradientUnits="userSpaceOnUse"><stop offset="0" stop-color="#6ab891"/><stop offset="1" stop-color="#85cba9"/></linearGradient><linearGradient id="linear-gradient-3" x1="31" y1="127" x2="31" y2="67" xlink:href="#linear-gradient-2"/><linearGradient id="linear-gradient-4" x1="31" y1="110.93" x2="31" y2="83.07" gradientUnits="userSpaceOnUse"><stop offset="0" stop-color="#d4d8e1"/><stop offset="1" stop-color="#f3f4f5"/></linearGradient></defs><title>Healthy Fruit</title><g id="Healthy_Fruit" data-name="Healthy Fruit"><path class="cls-1" d="M127,57.51c.75,22.7-19.62,53.49-34.7,53.49-9.85,0-8.38-1.67-13.25-1.67S75.58,111,65.79,111C50.43,111,31,80.35,31,59.33c0-17.58,7.18-35,24.82-35C66.92,24.33,74.86,28,79,28c5.16-.26,12.25-3.65,22.59-3.65,16.89-.89,24.92,15.89,25.38,33.11Z"/><path class="cls-2" d="M92.27,111c-9.85,0-8.38-1.67-13.25-1.67S75.58,111,65.79,111c-14.56,0-36.34-30.57-34.68-55.38C32.36,76.5,51.09,105,65.76,105c9.81,0,8.37-1.67,13.26-1.67S82.32,105,92.24,105c15.78,0,33.52-30.16,34.68-49.38C128.55,80,107.1,111,92.27,111Z"/><path class="cls-3" d="M79,28H89A23,23,0,0,0,112,5H102A23,23,0,0,0,79,28Z"/><path class="cls-4" d="M112,5A23,23,0,0,1,89,28H79a22.79,22.79,0,0,1,.2-3H89A23,23,0,0,0,111.8,5Z"/><circle class="cls-5" cx="31" cy="97" r="30"/><path class="cls-4" d="M31,127A30,30,0,0,1,1.14,94a30,30,0,0,0,59.72,0A30,30,0,0,1,31,127Z"/><polygon class="cls-6" points="25.5 110.93 12.88 98.31 17.12 94.07 25.5 102.45 44.88 83.07 49.12 87.31 25.5 110.93"/><path class="cls-7" d="M104.35,23.43A24,24,0,0,0,113,5a1,1,0,0,0-1-1H102A24,24,0,0,0,80,18.42V14.33A14.3,14.3,0,0,0,65.76,0a1,1,0,0,0,0,2A12.3,12.3,0,0,1,78,14.33V26.9a45.42,45.42,0,0,1-5.42-1.14,64,64,0,0,0-16.75-2.43C40.14,23.33,30,37.46,30,59.33A42.84,42.84,0,0,0,30.57,66,31,31,0,1,0,59,110.31,15.82,15.82,0,0,0,65.76,112c6,0,7.92-.61,9.48-1.09a12.48,12.48,0,0,1,7.52,0c1.57.48,3.51,1.09,9.48,1.09C107.61,112,128,82,128,59.33,128,38.49,118.79,24.69,104.35,23.43ZM102,6h9A22,22,0,0,1,89,27H81.62c3.67-3.83,13.32-13,21.55-13a1,1,0,0,0,0-2c-9.09,0-19.19,9.6-23,13.62A22,22,0,0,1,102,6ZM31,126a29,29,0,0,1,0-58l.73,0h0A29,29,0,0,1,31,126Zm61.24-16c-5.66,0-7.45-.56-8.88-1a14.49,14.49,0,0,0-8.71,0c-1.44.44-3.22,1-8.89,1a13.88,13.88,0,0,1-6-1.52A31,31,0,0,0,32.59,66,42.43,42.43,0,0,1,32,59.33c0-20.65,9.35-34,23.83-34A62,62,0,0,1,72.09,27.7,34.51,34.51,0,0,0,78.91,29H89a23.9,23.9,0,0,0,12.72-3.66h.45c14.48,0,23.83,13.35,23.83,34C126,80.64,106.44,110,92.24,110Z"/><path class="cls-7" d="M102.17,33.33a1,1,0,0,0,0,2c10.25,0,13.9,12.4,13.9,24a1,1,0,0,0,2,0C118.07,46.76,113.89,33.33,102.17,33.33Z"/><path class="cls-7" d="M45.59,82.36a1,1,0,0,0-1.42,0L25.5,101l-7.67-7.67a1,1,0,0,0-1.42,0L12.17,97.6a1,1,0,0,0,0,1.42l12.62,12.62a1,1,0,0,0,1.42,0L49.83,88a1,1,0,0,0,0-1.42ZM25.5,109.52,14.29,98.31l2.83-2.83,7.67,7.67a1,1,0,0,0,1.42,0L44.88,84.48l2.83,2.83Z"/></g></svg>