<svg xmlns="http://www.w3.org/2000/svg" xmlns:xlink="http://www.w3.org/1999/xlink" viewBox="0 0 128 128"><defs><style>.cls-1{fill:url(#linear-gradient);}.cls-2{fill:url(#linear-gradient-2);}.cls-3{fill:url(#linear-gradient-3);}.cls-4{fill:#8288a1;}.cls-5{fill:url(#linear-gradient-4);}.cls-6{fill:url(#linear-gradient-5);}.cls-7{fill:url(#linear-gradient-6);}.cls-8{fill:#cba07a;}.cls-9{fill:url(#linear-gradient-7);}.cls-10{fill:url(#linear-gradient-8);}.cls-11{fill:url(#linear-gradient-9);}.cls-12{fill:#f6b756;}.cls-13{fill:url(#linear-gradient-10);}.cls-14{fill:url(#linear-gradient-11);}.cls-15{fill:url(#linear-gradient-12);}.cls-16{fill:url(#linear-gradient-13);}.cls-17{fill:url(#linear-gradient-14);}.cls-18{fill:#adb3c4;}.cls-19{fill:#454b60;}.cls-20{fill:url(#linear-gradient-15);}.cls-21{fill:#4da67f;}.cls-22{fill:url(#linear-gradient-16);}.cls-23{fill:#7ece67;}.cls-24{fill:#e7f4ce;}.cls-25{fill:url(#linear-gradient-17);}.cls-26{fill:#c7cdd8;}.cls-27{fill:#47566a;}</style><linearGradient id="linear-gradient" x1="32.5" y1="64" x2="32.5" y2="1" gradientUnits="userSpaceOnUse"><stop offset="0" stop-color="#6ab891"/><stop offset="1" stop-color="#85cba9"/></linearGradient><linearGradient id="linear-gradient-2" x1="95.5" y1="64" x2="95.5" y2="1" gradientUnits="userSpaceOnUse"><stop offset="0" stop-color="#fbcc88"/><stop offset="1" stop-color="#ffe5c3"/></linearGradient><linearGradient id="linear-gradient-3" x1="95.5" y1="127" x2="95.5" y2="64" gradientUnits="userSpaceOnUse"><stop offset="0" stop-color="#9dd5df"/><stop offset="1" stop-color="#c3e1f5"/></linearGradient><linearGradient id="linear-gradient-4" x1="32.5" y1="127" x2="32.5" y2="64" gradientUnits="userSpaceOnUse"><stop offset="0" stop-color="#8cdd79"/><stop offset="1" stop-color="#d4e6b6"/></linearGradient><linearGradient id="linear-gradient-5" x1="36.15" y1="118" x2="36.15" y2="92" xlink:href="#linear-gradient"/><linearGradient id="linear-gradient-6" x1="35" y1="25" x2="35" y2="19" gradientUnits="userSpaceOnUse"><stop offset="0" stop-color="#d1a788"/><stop offset="1" stop-color="#f2d3b8"/></linearGradient><linearGradient id="linear-gradient-7" x1="35" y1="59" x2="35" y2="25" xlink:href="#linear-gradient-6"/><linearGradient id="linear-gradient-8" x1="31.02" y1="46" x2="31.02" y2="34.99" xlink:href="#linear-gradient-2"/><linearGradient id="linear-gradient-9" x1="39" y1="46" x2="39" y2="35" xlink:href="#linear-gradient-2"/><linearGradient id="linear-gradient-10" x1="35" y1="41" x2="35" y2="29" xlink:href="#linear-gradient-2"/><linearGradient id="linear-gradient-11" x1="31" y1="46" x2="31" y2="39.99" xlink:href="#linear-gradient-2"/><linearGradient id="linear-gradient-12" x1="39" y1="46" x2="39" y2="39.99" xlink:href="#linear-gradient-2"/><linearGradient id="linear-gradient-13" x1="35" y1="19" x2="35" y2="9.02" gradientUnits="userSpaceOnUse"><stop offset="0" stop-color="#d4d8e1"/><stop offset="1" stop-color="#f3f4f5"/></linearGradient><linearGradient id="linear-gradient-14" x1="95" y1="106.46" x2="95" y2="80.63" gradientUnits="userSpaceOnUse"><stop offset="0" stop-color="#949aaf"/><stop offset="1" stop-color="#c6ccda"/></linearGradient><linearGradient id="linear-gradient-15" x1="35" y1="96" x2="35" y2="68.01" xlink:href="#linear-gradient"/><linearGradient id="linear-gradient-16" x1="93" y1="59" x2="93" y2="21.15" xlink:href="#linear-gradient-4"/><linearGradient id="linear-gradient-17" x1="100.21" y1="22.63" x2="100.21" y2="12.42" xlink:href="#linear-gradient"/></defs><title>Healty portion</title><g id="Healty_portion" data-name="Healty portion"><path class="cls-1" d="M64,1V64H1A63,63,0,0,1,64,1Z"/><path class="cls-2" d="M127,64H64V1A63,63,0,0,1,127,64Z"/><path class="cls-3" d="M127,64a63,63,0,0,1-63,63V64Z"/><path class="cls-4" d="M82.4,81.69,85,75.63a28,28,0,0,1,20,5c3.54,2.48,4,4.83,3,6.83Z"/><path class="cls-5" d="M64,64v63A63,63,0,0,1,1,64Z"/><path class="cls-6" d="M48.55,94.78A38.16,38.16,0,0,0,41,118H30c0-6.53-1.92-16.35-6.24-22.37l2.45-1.27C29.37,98.3,33,104,33,104V94.25L35,92l2.41,3.74L38,104c2.32-3.49,5.32-7.31,7.43-9.9Z"/><rect class="cls-7" x="14" y="19" width="42" height="6" rx="2"/><path class="cls-8" d="M56,23a2,2,0,0,1-2,2H16a2,2,0,0,1-2-2,10.77,10.77,0,0,1,.07-2.5A2,2,0,0,0,16,22H54a2,2,0,0,0,1.93-1.5A10.38,10.38,0,0,1,56,23Z"/><path class="cls-9" d="M54,25s2,9,2,14-2,10-2,13,2,3,2,5-2,2-4,2H18c-2,0-4,0-4-2s2-2,2-5-2-8-2-13,2-14,2-14Z"/><path class="cls-8" d="M54.86,54.7A3.49,3.49,0,0,1,56,57c0,2-2,2-4,2H18c-2,0-4,0-4-2a3.49,3.49,0,0,1,1.14-2.3c1,.41,1.07.3,19.86.3S53.82,55.11,54.86,54.7Z"/><path class="cls-10" d="M35,46a6,6,0,0,0-5.22-5.94A6.11,6.11,0,0,1,27,35c2.29,0,4.17-.21,6.09,1.62C35.51,38.86,35,41.4,35,46Z"/><path class="cls-11" d="M43,35a6,6,0,0,1-2.77,5h0A6,6,0,0,0,35,46V41a6,6,0,0,1,6-6Z"/><path class="cls-12" d="M35,44v2a6,6,0,0,0-5.22-5.94A6.11,6.11,0,0,1,27,35h.35a6,6,0,0,0,2.43,3.06A6,6,0,0,1,35,44Z"/><path class="cls-12" d="M43,35a6,6,0,0,1-2.77,5h0A6,6,0,0,0,35,46V44a6,6,0,0,1,5.22-5.94A6,6,0,0,0,42.65,35Z"/><path class="cls-13" d="M36.91,36.62A5.94,5.94,0,0,0,35,41a5.94,5.94,0,0,0-1.91-4.38,6,6,0,0,1,1.15-6.86L35,29l.76.76A6,6,0,0,1,36.91,36.62Z"/><path class="cls-12" d="M36.91,36.62A5.94,5.94,0,0,0,35,41a5.94,5.94,0,0,0-1.91-4.38A6,6,0,0,1,32.58,33c.3,2.17,1,1.58,1.88,3.53a.59.59,0,0,0,1.08,0c.9-2,1.57-1.35,1.88-3.53A6,6,0,0,1,36.91,36.62Z"/><path class="cls-14" d="M35,46H33a6,6,0,0,1-6-6,25.8,25.8,0,0,1,2.78.06A6,6,0,0,1,35,46Z"/><path class="cls-15" d="M43,40a6,6,0,0,1-6,6H35a6,6,0,0,1,5.22-5.94A25.8,25.8,0,0,1,43,40Z"/><path class="cls-12" d="M35,46H33a6,6,0,0,1-6-6h.35A6,6,0,0,0,33,44h1.65A5.76,5.76,0,0,1,35,46Z"/><path class="cls-12" d="M43,40a6,6,0,0,1-6,6H35a5.76,5.76,0,0,1,.35-2H37a6,6,0,0,0,5.65-4Z"/><path class="cls-16" d="M51,19H19a30.51,30.51,0,0,1,2.57-3c8.67-8.94,17.49-9.66,26.86,0A30.51,30.51,0,0,1,51,19Z"/><path class="cls-17" d="M119,93.63a4.39,4.39,0,0,1,3,4.16v7.84c-5,0-4-7-10-7-4.65,0-7.5,4.81-14.61,7L87,106.46c-11.06-1.17-19-9-19-12.83,0-4.28,9.42-13,22-13,13,0,16,8,22,8s5-7,10-7v7.84A4.39,4.39,0,0,1,119,93.63Z"/><path class="cls-4" d="M122,102.63v3c-5,0-4-7-10-7-4.65,0-7.5,4.81-14.61,7L87,106.46c-11.37-1.22-19-9.14-19-12.83a4.12,4.12,0,0,1,.33-1.5c1.57,4,8.68,10.26,18.68,11.33l10.38-.86c7.11-2.16,10-7,14.61-7C118,95.63,117,102.63,122,102.63Z"/><path class="cls-18" d="M91,102.63c4,0,9,4.79,9,6.71s-6.84,1.52-10,0c-2-1-4-3.83-4-5.75"/><path class="cls-4" d="M100,109.34c0,1.92-6.84,1.52-10,0-2-1-4-3.83-4-5.75l1-.19a7.85,7.85,0,0,0,3,2.94c2.43,1.17,7,1.67,9,1A3.83,3.83,0,0,1,100,109.34Z"/><path class="cls-19" d="M77,91.63a2,2,0,1,1,2-2A2,2,0,0,1,77,91.63Zm0-2h0Zm0,0h0Zm0,0h0Zm0,0h0Zm0,0h0Zm0,0h0Zm0,0h0Zm0,0h0Z"/><path class="cls-20" d="M13,87.48c0,7.7,9.28,11.46,14.41,5.79a4.66,4.66,0,0,0,6.82,0,5.87,5.87,0,0,0,9.83,0A8.33,8.33,0,0,0,57,86.26a8.54,8.54,0,0,0-4.84-7.73,3.57,3.57,0,0,0-5.11-4,7.66,7.66,0,0,0-11.63-3.93,3.52,3.52,0,0,0-6.79,0A6,6,0,0,0,21.84,79,8.39,8.39,0,0,0,13,87.48Z"/><path class="cls-21" d="M44.06,93.36a5.87,5.87,0,0,1-9.83,0,4.66,4.66,0,0,1-6.82,0c-5.89,6.51-16.61.5-14-8.29a8.24,8.24,0,0,0,14.05,3.29,4.65,4.65,0,0,0,6.82,0,5.87,5.87,0,0,0,9.83,0,8.29,8.29,0,0,0,12.58-4.58C58.92,91.62,50.39,97.67,44.06,93.36Z"/><path class="cls-22" d="M102.52,21.16c8-.31,11.46,7.14,11.48,15.25C114,45.86,105.35,59,98.83,59c-4.34,0-3.62-.72-5.79-.72s-1.45.73-5.79.74C80.73,59,72,45.94,72,36.48S76.32,21.2,82.84,21.19c5.06,0,8,1.44,10.14,1.44Z"/><path class="cls-23" d="M98.83,59c-4.34,0-3.62-.72-5.79-.72s-1.45.73-5.79.74C81.46,59,71.1,46.53,72.09,34.16,73,43.41,81.11,55,87.25,55c4.34,0,3.62-.73,5.79-.74s1.45.73,5.79.72C105,55,113,43.4,113.91,34.16,114.92,46.27,104.78,59,98.83,59Z"/><path class="cls-24" d="M108.65,36.42a16.22,16.22,0,0,0-1.36-7c-1.7-3.39-4.48-2.91-4.17-2.91a1,1,0,1,1,0-2c5.59,0,7.51,6.26,7.52,11.89A1,1,0,0,1,108.65,36.42Z"/><path class="cls-25" d="M93,22.63H97.3a10.16,10.16,0,0,0,10.14-10.2h-4.32A10.15,10.15,0,0,0,93,22.63Z"/><path class="cls-21" d="M107.44,12.42A10.16,10.16,0,0,1,97.3,22.62c-4.49,0-4.32.08-4.32,0a10.07,10.07,0,0,1,.44-3H97.3a10.16,10.16,0,0,0,9.7-7.2Z"/><path class="cls-26" d="M51,19H19a30.51,30.51,0,0,1,2.57-3H48.43A30.51,30.51,0,0,1,51,19Z"/><path class="cls-21" d="M41.43,112a41.91,41.91,0,0,0-.43,6H30a49.19,49.19,0,0,0-.48-6Z"/><path class="cls-27" d="M26,40a7,7,0,0,0,7,7h1v4a1,1,0,0,0,2,0V47h1a7,7,0,0,0,7-7,1,1,0,0,0-1-1h-.26A6.93,6.93,0,0,0,44,35a1,1,0,0,0-1-1H41a6.88,6.88,0,0,0-2.52.47,7,7,0,0,0-2-5.42l-.76-.76a1,1,0,0,0-1.42,0l-.76.76a7,7,0,0,0-2,5.42A6.88,6.88,0,0,0,29,34H27a1,1,0,0,0-1,1,6.93,6.93,0,0,0,1.26,4H27A1,1,0,0,0,26,40Zm7,5a5,5,0,0,1-4.9-4H29a5,5,0,0,1,4.9,4Zm4,0h-.9A5,5,0,0,1,41,41h.9A5,5,0,0,1,37,45Zm4.9-9a5,5,0,0,1-2.08,3.11,7,7,0,0,0-3.82,2V41a5,5,0,0,1,5-5ZM35,30.47l0-.06,0,.06a5,5,0,0,1,1,5.59A6.86,6.86,0,0,0,35,37.41a6.86,6.86,0,0,0-1.06-1.35A5,5,0,0,1,35,30.47ZM29,36a5,5,0,0,1,5,5v.11a7,7,0,0,0-3.82-2A5,5,0,0,1,28.1,36Z"/><path class="cls-27" d="M123,89.47v-.64A64,64,0,0,0,107.45,17a11.26,11.26,0,0,0,1-4.61,1,1,0,0,0-.29-.71,1,1,0,0,0-.71-.29h-4.33a10.76,10.76,0,0,0-2.28.24A64,64,0,0,0,32.59,8.23c-7.16,1.3-12.73,8-14.09,9.77H16a3,3,0,0,0-3,3v2a3,3,0,0,0,.52,1.68A64,64,0,0,0,29,117.58c0,.26,0,.41,0,.42a1,1,0,0,0,1,1h1.26a64,64,0,0,0,84.53-17.41c.31.41.6.86.9,1.32,1.11,1.74,2.38,3.72,5.31,3.72a1,1,0,0,0,1-1V97.79a5.39,5.39,0,0,0-2-4.16A5.37,5.37,0,0,0,123,89.47Zm-19.88-76h3.27a9.17,9.17,0,0,1-9.09,8.2H94A9.16,9.16,0,0,1,103.12,13.43Zm0,8.72a8.44,8.44,0,0,1,7.07,3.67C112,28.35,113,32,113,36.41,113,45.27,104.67,58,98.83,58a10.16,10.16,0,0,1-3.72-.41,6.13,6.13,0,0,0-2-.31h0a6.12,6.12,0,0,0-2.07.32,10.47,10.47,0,0,1-3.72.42h0C84.57,58,81,55.22,78,50.73s-5-10-5-14.25c0-8.67,3.85-14.28,9.84-14.29h0a28.62,28.62,0,0,1,6.86.91,15,15,0,0,0,3.23.53H97.3a11.21,11.21,0,0,0,5.49-1.46Zm-9.17-5.87A6.79,6.79,0,0,0,87.17,10h0a1,1,0,0,0,0,2h0a4.75,4.75,0,0,1,3.38,1.4A4.84,4.84,0,0,1,92,16.81v4.71c-.52-.08-1.11-.21-1.78-.37a30,30,0,0,0-7.31-1h0C75.63,20.2,71,26.6,71,36.48c0,4.65,2,10.4,5.36,15.37S83.86,60,87.24,60h0a12.2,12.2,0,0,0,4.31-.51A4,4,0,0,1,93,59.26h0a3.93,3.93,0,0,1,1.46.23,12.38,12.38,0,0,0,4.24.49h.07c7,0,16.19-13.45,16.17-23.57,0-4.82-1.12-8.89-3.2-11.77a10.36,10.36,0,0,0-6.64-4.28l0,0a12,12,0,0,0,1.26-1.51A62.1,62.1,0,0,1,126,63H65V2A61.51,61.51,0,0,1,98.46,12.46,11.18,11.18,0,0,0,93.94,16.28ZM55,39a36.25,36.25,0,0,1-1.17,7.88A25.87,25.87,0,0,0,53,52a5.19,5.19,0,0,0,1.38,3.69A1.88,1.88,0,0,1,55,57c0,.76-.41,1-3,1H18c-2.59,0-3-.24-3-1a1.88,1.88,0,0,1,.62-1.31A5.19,5.19,0,0,0,17,52a25.87,25.87,0,0,0-.83-5.12A36.25,36.25,0,0,1,15,39c0-4,1.33-10.72,1.81-13H53.19C53.67,28.28,55,35,55,39ZM14.21,47.31A24,24,0,0,1,15,52a3.26,3.26,0,0,1-.93,2.43A3.82,3.82,0,0,0,13,57c0,3,3,3,5,3H52c2,0,5,0,5-3a3.82,3.82,0,0,0-1.07-2.57A3.26,3.26,0,0,1,55,52a24,24,0,0,1,.79-4.69A38.42,38.42,0,0,0,57,39c0-4.13-1.3-10.76-1.82-13.25A3,3,0,0,0,57,23V21a3,3,0,0,0-3-3H51.5C50.11,16.2,44.36,9.29,37,8.16A61.92,61.92,0,0,1,63,2V63H2A61.18,61.18,0,0,1,14.67,26.47,76.57,76.57,0,0,0,13,39,38.42,38.42,0,0,0,14.21,47.31ZM35,10c6.13,0,11.52,5.28,13.9,8H21.1C23.48,15.28,28.87,10,35,10ZM15,21a1,1,0,0,1,1-1H54a1,1,0,0,1,1,1v2a1,1,0,0,1-1,1H16a1,1,0,0,1-1-1Zm7.76,57.59a5.2,5.2,0,0,1-.44-2.07,5,5,0,0,1,4.95-5.09,5.26,5.26,0,0,1,1.14.15,1,1,0,0,0,1.18-.69,2.52,2.52,0,0,1,4.87,0,1,1,0,0,0,.63.66,1,1,0,0,0,.9-.13,6.58,6.58,0,0,1,3.77-1.18,6.75,6.75,0,0,1,6.34,4.62,1,1,0,0,0,.59.61,1,1,0,0,0,.84-.06,2.35,2.35,0,0,1,1.15-.3,2.61,2.61,0,0,1,2.56,2.65,3.88,3.88,0,0,1-.06.61,1,1,0,0,0,.55,1.08A7.57,7.57,0,0,1,56,86.26a7.43,7.43,0,0,1-7.32,7.52,7.1,7.1,0,0,1-4-1.25,1,1,0,0,0-.76-.15,1,1,0,0,0-.64.42,4.87,4.87,0,0,1-8.17,0,1,1,0,0,0-.75-.44h-.08a1,1,0,0,0-.73.31,3.65,3.65,0,0,1-5.36,0,1,1,0,0,0-.74-.32,1,1,0,0,0-.73.33,8.07,8.07,0,0,1-1.06,1h0a0,0,0,0,1,0,0A7.1,7.1,0,0,1,21.32,95a7.52,7.52,0,0,1,0-15l.45,0a1,1,0,0,0,.88-.42A1,1,0,0,0,22.76,78.59Zm16,22.5L38.5,97q.33,0,.66,0a6.79,6.79,0,0,0,3.4-.91C41.34,97.64,40,99.36,38.8,101.09ZM32,95.63v5C30.89,99,29.41,96.89,27.94,95A5.78,5.78,0,0,0,32,95.63Zm-6,.07c2.94,3.8,6.12,8.78,6.16,8.84A1,1,0,0,0,33,105a.9.9,0,0,0,.28,0,1,1,0,0,0,.72-1V94.81l.09,0a6.89,6.89,0,0,0,2.37,1.68l.54,7.63s0,0,0,.06a1,1,0,0,0,0,.18.75.75,0,0,0,.07.18l.1.14.15.15s0,0,.06,0a.45.45,0,0,0,.12.06l.1,0A1.28,1.28,0,0,0,38,105h.11a1.35,1.35,0,0,0,.33-.09h0a1,1,0,0,0,.26-.21l.06-.06s0,0,0-.07c2.15-3.22,4.87-6.72,6.92-9.26a8.68,8.68,0,0,0,1,.27A39.24,39.24,0,0,0,40,117H31c-.13-3.22-.91-13.4-5.71-20.91A7.33,7.33,0,0,0,26,95.7ZM41,119a1,1,0,0,0,1-1,37.08,37.08,0,0,1,7.07-22.24A9.43,9.43,0,0,0,58,86.26,9.58,9.58,0,0,0,53.24,78v-.23a4.61,4.61,0,0,0-4.56-4.65,4.32,4.32,0,0,0-1.08.13,8.73,8.73,0,0,0-7.84-5,8.59,8.59,0,0,0-3.9.93,4.5,4.5,0,0,0-7.86.33,6.11,6.11,0,0,0-.73,0,7,7,0,0,0-6.95,7.09A7.37,7.37,0,0,0,20.48,78a9.53,9.53,0,0,0,.84,19,9.68,9.68,0,0,0,2-.23c4,5.91,5.16,14,5.52,18.31A61.77,61.77,0,0,1,2,65H63v61a61.92,61.92,0,0,1-27.63-7Zm24,7V65h61a61.83,61.83,0,0,1-3,18.07V81.63a1,1,0,0,0-1-1c-2.93,0-4.2,2-5.31,3.72s-2.1,3.28-4.69,3.28a6.47,6.47,0,0,1-2.75-.66c.54-1.92.12-4.5-3.68-7.16A28.83,28.83,0,0,0,84.8,74.65a1,1,0,0,0-.72.59l-2.42,5.63C72.84,83.55,67,89.92,67,93.63c0,3.35,4.54,8.49,11.38,11.52l.19.08a29,29,0,0,0,7.86,2.16,8.47,8.47,0,0,0,3.14,2.85,17.6,17.6,0,0,0,6.92,1.39,7.11,7.11,0,0,0,3.56-.7,1.84,1.84,0,0,0,1-1.59A5.86,5.86,0,0,0,99.23,106a31.84,31.84,0,0,0,6.66-3.69c2.23-1.51,4-2.7,6.11-2.7a4.46,4.46,0,0,1,2.33.58A62.11,62.11,0,0,1,65,126Zm40.89-41c-3.49-2.37-7.84-5.31-15.89-5.31a28.68,28.68,0,0,0-5.89.61l1.59-3.7a27.62,27.62,0,0,1,18.73,4.91c2.71,1.9,3.12,3.47,3,4.5C106.94,85.64,106.43,85.3,105.89,84.94ZM83.5,93.63a12,12,0,0,1-4.73,9.51c-6.14-2.85-9.77-7.4-9.77-9.51s3.63-6.63,9.78-9.5A12,12,0,0,1,83.5,93.63Zm35.18-.95a1,1,0,0,0,0,1.9A3.38,3.38,0,0,1,121,97.79v6.71c-1.09-.34-1.73-1.26-2.63-2.67a12.74,12.74,0,0,0-2-2.57.6.6,0,0,0-.08-.08h0A6.15,6.15,0,0,0,112,97.63c-2.73,0-4.81,1.41-7.23,3a28.12,28.12,0,0,1-7.16,3.8A11.27,11.27,0,0,0,91,101.63a1,1,0,0,0,0,2c3.64,0,7.78,4.34,8,5.62-.86.67-5.84.49-8.56-.81-1.63-.78-3.43-3.32-3.43-4.85a1,1,0,0,0-2,0,5.14,5.14,0,0,0,.31,1.61A25.88,25.88,0,0,1,80.88,104a14,14,0,0,0,0-20.76A26.42,26.42,0,0,1,90,81.63c7.43,0,11.5,2.75,14.77,5,1,.65,1.87,1.26,2.78,1.76,0,0,0,0,0,0h0A9,9,0,0,0,112,89.63c3.68,0,5.17-2.33,6.37-4.2.9-1.4,1.54-2.33,2.63-2.66v5.87h0v.83A3.37,3.37,0,0,1,118.68,92.68Z"/><circle class="cls-27" cx="77" cy="89.63" r="2"/><path class="cls-27" d="M103.12,26.52h0c1.79,0,3.19,1,4.16,2.91a16.22,16.22,0,0,1,1.36,7,1,1,0,0,0,1,1h0a1,1,0,0,0,1-1,18.13,18.13,0,0,0-1.57-7.87c-1.32-2.63-3.37-4-6-4a1,1,0,0,0-1,1A1,1,0,0,0,103.12,26.52Z"/></g></svg>