<svg xmlns="http://www.w3.org/2000/svg" xmlns:xlink="http://www.w3.org/1999/xlink" viewBox="0 0 128 128"><defs><style>.cls-1{fill:url(#linear-gradient);}.cls-2{fill:#7ece67;}.cls-3{fill:url(#linear-gradient-2);}.cls-4{fill:#77cacb;}.cls-5{fill:url(#linear-gradient-3);}.cls-6{fill:#f69163;}.cls-7{fill:#edf0f4;}.cls-8{fill:url(#linear-gradient-4);}.cls-9{fill:url(#linear-gradient-5);}.cls-10{fill:url(#linear-gradient-6);}.cls-11{fill:url(#linear-gradient-7);}.cls-12{fill:url(#linear-gradient-8);}.cls-13{fill:url(#linear-gradient-9);}.cls-14{fill:url(#linear-gradient-10);}.cls-15{fill:url(#linear-gradient-11);}.cls-16{fill:url(#linear-gradient-12);}.cls-17{fill:url(#linear-gradient-13);}.cls-18{fill:#47566a;}</style><linearGradient id="linear-gradient" x1="38" y1="69" x2="38" y2="54" gradientUnits="userSpaceOnUse"><stop offset="0" stop-color="#8cdd79"/><stop offset="1" stop-color="#d4e6b6"/></linearGradient><linearGradient id="linear-gradient-2" x1="90" y1="127" x2="90" y2="29" gradientUnits="userSpaceOnUse"><stop offset="0" stop-color="#9dd5df"/><stop offset="1" stop-color="#c3e1f5"/></linearGradient><linearGradient id="linear-gradient-3" x1="90" y1="123" x2="90" y2="53.78" gradientUnits="userSpaceOnUse"><stop offset="0" stop-color="#f8aa88"/><stop offset="1" stop-color="#fac2ab"/></linearGradient><linearGradient id="linear-gradient-4" x1="23.5" y1="127.01" x2="23.5" y2="70.99" xlink:href="#linear-gradient-3"/><linearGradient id="linear-gradient-5" x1="63" y1="127" x2="63" y2="71" gradientUnits="userSpaceOnUse"><stop offset="0" stop-color="#d4d8e1"/><stop offset="1" stop-color="#f3f4f5"/></linearGradient><linearGradient id="linear-gradient-6" x1="48.77" y1="97" x2="48.77" y2="84.53" xlink:href="#linear-gradient-3"/><linearGradient id="linear-gradient-7" x1="54.77" y1="94.17" x2="54.77" y2="75.36" xlink:href="#linear-gradient-3"/><linearGradient id="linear-gradient-8" x1="71.24" y1="94.17" x2="71.24" y2="75.36" xlink:href="#linear-gradient-3"/><linearGradient id="linear-gradient-9" x1="77.23" y1="97" x2="77.23" y2="84.53" xlink:href="#linear-gradient-3"/><linearGradient id="linear-gradient-10" x1="77.23" y1="113.47" x2="77.23" y2="101" xlink:href="#linear-gradient-3"/><linearGradient id="linear-gradient-11" x1="71.24" y1="122.64" x2="71.24" y2="103.83" xlink:href="#linear-gradient-3"/><linearGradient id="linear-gradient-12" x1="54.77" y1="122.64" x2="54.77" y2="103.83" xlink:href="#linear-gradient-3"/><linearGradient id="linear-gradient-13" x1="48.77" y1="113.47" x2="48.77" y2="101" xlink:href="#linear-gradient-3"/></defs><title>Healty Drink</title><g id="Healty_Drink" data-name="Healty Drink"><path class="cls-1" d="M43,54h4a0,0,0,0,1,0,0v1A14,14,0,0,1,33,69H29a0,0,0,0,1,0,0V68A14,14,0,0,1,43,54Z"/><path class="cls-2" d="M28,71c0-5.68,8.67-13,12.76-14A1,1,0,0,1,41.24,59C37.33,60,30,66.67,30,71A1,1,0,0,1,28,71Z"/><polyline class="cls-3" points="63 127 117 127 127 29 53 29 57.34 71.57"/><polygon class="cls-4" points="117.41 123 117 127 63 127 62.59 123 117.41 123"/><path class="cls-5" d="M77.42,123h36l6.83-67S109,51,91,56s-31.22,0-31.22,0l1.53,15.06"/><polygon class="cls-6" points="113.9 118 113.39 123 77.42 123 75.87 118 113.9 118"/><path class="cls-7" d="M99,119.87H95V15.94a5,5,0,0,1,3.23-4.67L125.29,1l1.42,3.74L99.65,15C98.66,15.38,99,8.94,99,119.87Z"/><path class="cls-8" d="M46,121.24c-18.27,14-45,1-45-22.24S27.75,62.8,46,76.76"/><path class="cls-6" d="M46,116.24v5C27,135.79-1,121.09,1.11,96.5,3.07,118.49,28.6,129.55,46,116.24Z"/><circle class="cls-9" cx="63" cy="99" r="28"/><path class="cls-10" d="M43.26,85.36a23.84,23.84,0,0,0-3.86,9.32,2,2,0,0,0,2,2.32h16.8L46.29,85.12A2,2,0,0,0,43.26,85.36Z"/><path class="cls-11" d="M61,94.17V77.37a2,2,0,0,0-2.32-2,23.75,23.75,0,0,0-9.32,3.86,2,2,0,0,0-.24,3Z"/><path class="cls-12" d="M65,77.37v16.8L76.88,82.29a2,2,0,0,0-.24-3,23.69,23.69,0,0,0-9.32-3.86A2,2,0,0,0,65,77.37Z"/><path class="cls-13" d="M86.61,94.68a23.86,23.86,0,0,0-3.87-9.32,2,2,0,0,0-3-.24L67.83,97h16.8A2,2,0,0,0,86.61,94.68Z"/><path class="cls-14" d="M82.74,112.64a23.86,23.86,0,0,0,3.87-9.32,2,2,0,0,0-2-2.32H67.83l11.88,11.88A2,2,0,0,0,82.74,112.64Z"/><path class="cls-15" d="M67.32,122.6a23.69,23.69,0,0,0,9.32-3.86,2,2,0,0,0,.24-3L65,103.83v16.8A2,2,0,0,0,67.32,122.6Z"/><path class="cls-16" d="M61,120.63v-16.8L49.12,115.71a2,2,0,0,0,.24,3,23.75,23.75,0,0,0,9.32,3.86A2,2,0,0,0,61,120.63Z"/><path class="cls-17" d="M39.4,103.32a23.84,23.84,0,0,0,3.86,9.32,2,2,0,0,0,3,.24L58.17,101H41.37A2,2,0,0,0,39.4,103.32Z"/><path class="cls-18" d="M127.74,28.33A1,1,0,0,0,127,28H100V15.94L127.06,5.67a1,1,0,0,0,.58-1.28L126.23.65a1,1,0,0,0-.53-.56,1,1,0,0,0-.76,0L97.87,10.33A6,6,0,0,0,94,15.94V28H53a1,1,0,0,0-.74.33,1,1,0,0,0-.25.77l4.25,41.7A29,29,0,0,0,46,75.53,28.7,28.7,0,0,0,30.11,70s0,0,0,0H33A15,15,0,0,0,48,55V54a1,1,0,0,0-1-1H43a15,15,0,0,0-13.17,7.82C28.49,52.06,19.2,51,19.1,51a1,1,0,0,0-1.09.9A1,1,0,0,0,18.9,53c.37,0,9.1,1,9.1,10v7A29,29,0,0,0,1.65,89.36a1,1,0,0,0-1.28.09l-.08.08a1,1,0,0,0,0,1.41,1,1,0,0,0,.71.29h.07A29,29,0,0,0,46,122.47,28.87,28.87,0,0,0,63,128h54a1,1,0,0,0,1-.9l10-98A1,1,0,0,0,127.74,28.33ZM96,15.94a4,4,0,0,1,2.58-3.74l26.13-9.91.71,1.87L99.29,14.07A2,2,0,0,0,98,15.94V28H96ZM36,99A27,27,0,0,1,61.39,72.05s0,0,0,0h0c.52,0,1,0,1.57,0A27,27,0,1,1,36,99Zm56,0A29,29,0,0,0,63,70l-.79,0-1.28-12.6c4,1.16,15.52,3.66,30.34-.46q1.4-.37,2.73-.69v63.6a1,1,0,0,0,1,1h4a1,1,0,0,0,1-1V55.22c10.19-1.26,17.06.71,19.15,1.44L112.49,122H80.63A29,29,0,0,0,92,99Zm6,19.87H96v-63c.68-.13,1.34-.24,2-.35ZM96,53.8V30h2V53.46C97.34,53.56,96.68,53.67,96,53.8ZM54.11,30H94V54.22c-1.06.23-2.15.51-3.27.82-17.44,4.84-30.47.07-30.6,0a1,1,0,0,0-1,.15,1,1,0,0,0-.39.89l1.43,14c-.67.06-1.33.15-2,.26ZM43,55h3A13,13,0,0,1,33,68H30.9c2.07-3.93,7.26-8.26,10.34-9A1,1,0,0,0,40.76,57c-2.76.69-7.59,4.22-10.45,8.19A13,13,0,0,1,43,55ZM29,126A27,27,0,1,1,44.35,76.82a28.94,28.94,0,0,0,0,44.36A26.78,26.78,0,0,1,29,126Zm87.1,0H73.56a28.9,28.9,0,0,0,4.11-2h35.72a1,1,0,0,0,1-.9l6.83-67a1,1,0,0,0-.58-1c-.39-.18-8-3.46-20.63-1.91V30h25.89Z"/><path class="cls-18" d="M41.37,98h16.8a1,1,0,0,0,.92-.62,1,1,0,0,0-.21-1.09L47,84.42a3,3,0,0,0-2.41-.88,2.94,2.94,0,0,0-2.15,1.25h0a24.6,24.6,0,0,0-4,9.71,3,3,0,0,0,.64,2.41A3,3,0,0,0,41.37,98Zm-1-3.14a22.59,22.59,0,0,1,3.7-8.93h0a.9.9,0,0,1,.69-.39h.09a1.06,1.06,0,0,1,.73.3L55.76,96H41.37a1,1,0,0,1-.78-.37A.92.92,0,0,1,40.38,94.86Z"/><path class="cls-18" d="M58.5,74.41a24.66,24.66,0,0,0-9.71,4,2.94,2.94,0,0,0-1.25,2.15A3,3,0,0,0,48.42,83L60.29,94.88a1,1,0,0,0,.71.29.84.84,0,0,0,.38-.08,1,1,0,0,0,.62-.92V77.37a3,3,0,0,0-1.09-2.32A3,3,0,0,0,58.5,74.41ZM60,91.76,49.83,81.59a1,1,0,0,1-.29-.82.89.89,0,0,1,.39-.69,22.59,22.59,0,0,1,8.93-3.7l.17,0a1,1,0,0,1,.6.23,1,1,0,0,1,.37.78Z"/><path class="cls-18" d="M64.62,95.09a.84.84,0,0,0,.38.08,1,1,0,0,0,.71-.29L77.58,83a3,3,0,0,0,.88-2.41,2.94,2.94,0,0,0-1.25-2.15,24.66,24.66,0,0,0-9.71-4,2.92,2.92,0,0,0-2.41.64A3,3,0,0,0,64,77.37v16.8A1,1,0,0,0,64.62,95.09ZM66,77.37a1,1,0,0,1,.37-.78,1,1,0,0,1,.6-.23l.17,0a22.59,22.59,0,0,1,8.93,3.7.89.89,0,0,1,.39.69,1,1,0,0,1-.29.82L66,91.76Z"/><path class="cls-18" d="M66.91,97.38a1,1,0,0,0,.92.62h16.8A3,3,0,0,0,87,96.91a3,3,0,0,0,.64-2.41,24.6,24.6,0,0,0-4-9.71,2.94,2.94,0,0,0-2.15-1.25,3,3,0,0,0-2.41.88L67.12,96.29A1,1,0,0,0,66.91,97.38Zm13.5-11.55a1,1,0,0,1,.82-.29.9.9,0,0,1,.69.39,22.59,22.59,0,0,1,3.7,8.93.92.92,0,0,1-.21.77,1,1,0,0,1-.78.37H70.24Z"/><path class="cls-18" d="M83.56,113.21h0a24.6,24.6,0,0,0,4-9.71,3,3,0,0,0-.64-2.41A3,3,0,0,0,84.63,100H67.83a1,1,0,0,0-.92.62,1,1,0,0,0,.21,1.09L79,113.58a3,3,0,0,0,2.13.89h.28A2.94,2.94,0,0,0,83.56,113.21Zm-1.64-1.14a.9.9,0,0,1-.69.39,1,1,0,0,1-.82-.29L70.24,102H84.63a1,1,0,0,1,.78.37.92.92,0,0,1,.21.77,22.59,22.59,0,0,1-3.7,8.93Z"/><path class="cls-18" d="M65.71,103.12a1,1,0,0,0-1.09-.21,1,1,0,0,0-.62.92v16.8A3,3,0,0,0,65.09,123a2.93,2.93,0,0,0,1.89.69,3.05,3.05,0,0,0,.52,0,24.66,24.66,0,0,0,9.71-4,2.94,2.94,0,0,0,1.25-2.15,3,3,0,0,0-.88-2.41Zm10.36,14.8a22.59,22.59,0,0,1-8.93,3.7h0a.92.92,0,0,1-.77-.21,1,1,0,0,1-.37-.78V106.24l10.17,10.17a1,1,0,0,1,.29.82A.89.89,0,0,1,76.07,117.92Z"/><path class="cls-18" d="M61.38,102.91a1,1,0,0,0-1.09.21L48.42,115a3,3,0,0,0-.88,2.41,2.94,2.94,0,0,0,1.25,2.15,24.66,24.66,0,0,0,9.71,4,3.05,3.05,0,0,0,.52,0,2.93,2.93,0,0,0,1.89-.69A3,3,0,0,0,62,120.63v-16.8A1,1,0,0,0,61.38,102.91ZM60,120.63a1,1,0,0,1-.37.78.92.92,0,0,1-.77.21,22.59,22.59,0,0,1-8.93-3.7.89.89,0,0,1-.39-.69,1,1,0,0,1,.29-.82L60,106.24Z"/><path class="cls-18" d="M59.09,100.62a1,1,0,0,0-.92-.62H41.37a3,3,0,0,0-2.32,1.09,3,3,0,0,0-.64,2.41,24.6,24.6,0,0,0,4,9.71,2.94,2.94,0,0,0,2.15,1.25h.28a3,3,0,0,0,2.13-.89l11.88-11.87A1,1,0,0,0,59.09,100.62Zm-13.5,11.55a1,1,0,0,1-.82.29.9.9,0,0,1-.69-.39,22.59,22.59,0,0,1-3.7-8.93.92.92,0,0,1,.21-.77,1,1,0,0,1,.78-.37H55.76Z"/></g></svg>