<svg xmlns="http://www.w3.org/2000/svg" xmlns:xlink="http://www.w3.org/1999/xlink" viewBox="0 0 128 128"><defs><style>.cls-1{fill:url(#linear-gradient);}.cls-2{fill:url(#linear-gradient-2);}.cls-3{fill:#8a6762;}.cls-4{fill:url(#linear-gradient-3);}.cls-5{fill:#f6b756;}.cls-6{fill:url(#linear-gradient-4);}.cls-7{fill:url(#linear-gradient-5);}.cls-8{fill:url(#linear-gradient-6);}.cls-9{fill:url(#linear-gradient-7);}.cls-10{fill:url(#linear-gradient-8);}.cls-11{fill:url(#linear-gradient-9);}.cls-12{fill:url(#linear-gradient-10);}.cls-13{fill:#ed9d56;}.cls-14{fill:url(#linear-gradient-11);}.cls-15{fill:#cba07a;}.cls-16{fill:#47566a;}</style><linearGradient id="linear-gradient" x1="43.03" y1="50" x2="43.03" y2="30" gradientUnits="userSpaceOnUse"><stop offset="0" stop-color="#fbcc88"/><stop offset="1" stop-color="#ffe5c3"/></linearGradient><linearGradient id="linear-gradient-2" x1="46.03" y1="61" x2="46.03" y2="53" gradientUnits="userSpaceOnUse"><stop offset="0" stop-color="#9b756d"/><stop offset="1" stop-color="#bc9388"/></linearGradient><linearGradient id="linear-gradient-3" x1="46.03" y1="127" x2="46.03" y2="61" xlink:href="#linear-gradient-2"/><linearGradient id="linear-gradient-4" x1="34.53" y1="101" x2="34.53" y2="87" xlink:href="#linear-gradient"/><linearGradient id="linear-gradient-5" x1="51.53" y1="91" x2="51.53" y2="77" xlink:href="#linear-gradient"/><linearGradient id="linear-gradient-6" x1="51.53" y1="111" x2="51.53" y2="97" xlink:href="#linear-gradient"/><linearGradient id="linear-gradient-7" x1="39.03" y1="33" x2="39.03" y2="1" gradientUnits="userSpaceOnUse"><stop offset="0" stop-color="#f2a961"/><stop offset="1" stop-color="#fbcc88"/></linearGradient><linearGradient id="linear-gradient-8" x1="47.03" x2="47.03" xlink:href="#linear-gradient-7"/><linearGradient id="linear-gradient-9" x1="31.03" y1="30" x2="31.03" y2="4" xlink:href="#linear-gradient-7"/><linearGradient id="linear-gradient-10" x1="55.03" y1="30" x2="55.03" y2="4" xlink:href="#linear-gradient-7"/><linearGradient id="linear-gradient-11" x1="93.03" y1="20" x2="93.03" y2="12" gradientUnits="userSpaceOnUse"><stop offset="0" stop-color="#d1a788"/><stop offset="1" stop-color="#f2d3b8"/></linearGradient></defs><title>Honey</title><g id="Honey"><path class="cls-1" d="M51,30c0,3-6,6-6,9s2,5,2,7a4,4,0,0,1-8,0c0-2,2-4,2-7s-6-6-6-9"/><path class="cls-2" d="M79,61H13a4,4,0,0,1,0-8H79a4,4,0,0,1,0,8Z"/><path class="cls-3" d="M79,61H13a4,4,0,0,1-3.7-5.5A4,4,0,0,0,13,58H79a4,4,0,0,0,3.7-2.5A4,4,0,0,1,79,61Z"/><path class="cls-4" d="M79,61s12,9.14,12,20.31C91,99.58,80,127,68,127H24C12,127,1,99.58,1,81.31,1,70.14,13,61,13,61"/><path class="cls-3" d="M68,127H24C10.33,127-.68,92.46,1.18,79.11,2.51,97.15,12.84,121,24,121H68c11.19,0,21.52-23.85,22.85-41.89C92.74,92.5,81.71,127,68,127Z"/><polygon class="cls-5" points="40.3 84 28.75 84 22.98 94 28.75 104 40.3 104 46.07 94 40.3 84"/><polygon class="cls-6" points="30.49 101 26.44 94 30.49 87 38.57 87 42.61 94 38.57 101 30.49 101"/><polygon class="cls-5" points="57.3 74 45.75 74 39.98 84 45.75 94 57.3 94 63.07 84 57.3 74"/><polygon class="cls-7" points="47.49 91 43.44 84 47.49 77 55.57 77 59.61 84 55.57 91 47.49 91"/><polygon class="cls-5" points="57.3 94 45.75 94 39.98 104 45.75 114 57.3 114 63.07 104 57.3 94"/><polygon class="cls-8" points="47.49 111 43.44 104 47.49 97 55.57 97 59.61 104 55.57 111 47.49 111"/><path class="cls-9" d="M39,33a4,4,0,0,1-4-4V5a4,4,0,0,1,8,0V29A4,4,0,0,1,39,33Z"/><path class="cls-10" d="M47,33a4,4,0,0,1-4-4V5a4,4,0,0,1,8,0V29A4,4,0,0,1,47,33Z"/><rect class="cls-11" x="27.03" y="4" width="8" height="26" rx="3.61"/><rect class="cls-12" x="51.03" y="4" width="8" height="26" rx="3.61"/><path class="cls-13" d="M43,25v4a4,4,0,0,1-8,0V25a4,4,0,0,0,8,0Z"/><path class="cls-13" d="M51,25v4a4,4,0,0,1-8,0V25a4,4,0,0,0,8,0Z"/><path class="cls-13" d="M35,22.39v4A3.6,3.6,0,0,1,31.42,30h-.78A3.6,3.6,0,0,1,27,26.39v-4A3.6,3.6,0,0,0,30.64,26h.78A3.6,3.6,0,0,0,35,22.39Z"/><path class="cls-13" d="M59,22.39v4A3.6,3.6,0,0,1,55.42,30h-.78A3.6,3.6,0,0,1,51,26.39v-4A3.6,3.6,0,0,0,54.64,26h.78A3.6,3.6,0,0,0,59,22.39Z"/><rect class="cls-14" x="59.03" y="12" width="68" height="8"/><rect class="cls-15" x="59.03" y="17" width="68" height="3"/><path class="cls-16" d="M81.15,61.49A5,5,0,0,0,79,52H13a5,5,0,0,0-2.15,9.49C7.52,64.45,0,72.13,0,81.31,0,99.32,11,128,24,128H68c13,0,24-28.68,24-46.69C92,72.13,84.48,64.45,81.15,61.49ZM13,54H79a3,3,0,0,1,0,6H13a3,3,0,0,1,0-6Zm55,72H24C13.09,126,2,100,2,81.31,2,71.65,11.66,63.38,13.35,62h65.3C80.34,63.38,90,71.65,90,81.31,90,100,78.91,126,68,126Z"/><path class="cls-16" d="M63.91,83.5l-5.77-10a1,1,0,0,0-.87-.5H45.73a1,1,0,0,0-.87.5L39.38,83H28.73a1,1,0,0,0-.87.5l-5.77,10a1,1,0,0,0,0,1l5.77,10a1,1,0,0,0,.87.5H39.38l5.48,9.5a1,1,0,0,0,.87.5H57.27a1,1,0,0,0,.87-.5l5.77-10a1,1,0,0,0,0-1L58.43,94l5.48-9.5A1,1,0,0,0,63.91,83.5ZM24.11,94l5.19-9H39.38l5.19,9-5.19,9H29.3ZM56.7,113H46.3l-5-8.72L46.62,95H56.7l5.19,9Zm0-20H46.62l-5.35-9.28,5-8.72H56.7l5.19,9Z"/><path class="cls-16" d="M127,11H60V7.61A4.62,4.62,0,0,0,55.39,3h-.78a4.58,4.58,0,0,0-2.74.92A5,5,0,0,0,43,2a5,5,0,0,0-8.87,1.89A4.58,4.58,0,0,0,31.39,3h-.78A4.62,4.62,0,0,0,26,7.61V26.39A4.62,4.62,0,0,0,30.61,31h.78A4.59,4.59,0,0,0,34,30.17c.09,1.84,1.7,3.47,3.27,5C38.62,36.54,40,37.91,40,39a9.11,9.11,0,0,1-1.06,3.8A7.94,7.94,0,0,0,38,46a5,5,0,0,0,10,0,7.94,7.94,0,0,0-.94-3.2A9.11,9.11,0,0,1,46,39c0-1.09,1.38-2.46,2.71-3.79,1.57-1.57,3.18-3.2,3.27-5a4.59,4.59,0,0,0,2.63.83h.78A4.62,4.62,0,0,0,60,26.39V21h67a1,1,0,0,0,1-1V12A1,1,0,0,0,127,11ZM47,2a3,3,0,0,1,3,3V29a3,3,0,0,1-6,0V5A3,3,0,0,1,47,2ZM36,5a3,3,0,0,1,6,0V29a3,3,0,0,1-6,0V5ZM31.39,29h-.78A2.61,2.61,0,0,1,28,26.39V7.61A2.61,2.61,0,0,1,30.61,5h.78A2.61,2.61,0,0,1,34,7.61V26.39A2.61,2.61,0,0,1,31.39,29ZM45.24,43.62A6.48,6.48,0,0,1,46,46a3,3,0,0,1-6,0,6.48,6.48,0,0,1,.76-2.38A10.82,10.82,0,0,0,42,39c0-1.84-1.54-3.45-3.1-5H39a5,5,0,0,0,4-2,5,5,0,0,0,4,2h.1c-1.56,1.56-3.1,3.17-3.1,5A10.82,10.82,0,0,0,45.24,43.62ZM58,26.39A2.61,2.61,0,0,1,55.39,29h-.78A2.61,2.61,0,0,1,52,26.39V7.61A2.61,2.61,0,0,1,54.61,5h.78A2.61,2.61,0,0,1,58,7.61V26.39ZM126,19H60V13h66Z"/></g></svg>