<svg xmlns="http://www.w3.org/2000/svg" xmlns:xlink="http://www.w3.org/1999/xlink" viewBox="0 0 128 128"><defs><style>.cls-1{fill:url(#linear-gradient);}.cls-2{fill:url(#linear-gradient-2);}.cls-3{fill:#77cacb;}.cls-4{fill:url(#linear-gradient-3);}.cls-5{fill:#8288a1;}.cls-6{fill:url(#linear-gradient-4);}.cls-7{fill:#c7cdd8;}.cls-8{fill:url(#linear-gradient-5);}.cls-9{fill:url(#linear-gradient-6);}.cls-10{fill:url(#linear-gradient-7);}.cls-11{fill:#dd4e6a;}.cls-12{fill:#f6b756;}.cls-13{fill:url(#linear-gradient-8);}.cls-14{fill:#7ece67;}.cls-15{fill:url(#linear-gradient-9);}.cls-16{fill:#4da67f;}.cls-17{fill:#47566a;}</style><linearGradient id="linear-gradient" x1="117.98" y1="64" x2="117.98" y2="20" gradientUnits="userSpaceOnUse"><stop offset="0" stop-color="#9dd5df"/><stop offset="1" stop-color="#c3e1f5"/></linearGradient><linearGradient id="linear-gradient-2" x1="76.98" y1="82" x2="76.98" y2="16" xlink:href="#linear-gradient"/><linearGradient id="linear-gradient-3" x1="81.99" y1="127" x2="81.99" y2="88" gradientUnits="userSpaceOnUse"><stop offset="0" stop-color="#949aaf"/><stop offset="1" stop-color="#c6ccda"/></linearGradient><linearGradient id="linear-gradient-4" x1="71.98" y1="114" x2="71.98" y2="94" gradientUnits="userSpaceOnUse"><stop offset="0" stop-color="#d4d8e1"/><stop offset="1" stop-color="#f3f4f5"/></linearGradient><linearGradient id="linear-gradient-5" x1="81.98" y1="16" x2="81.98" y2="6" xlink:href="#linear-gradient-3"/><linearGradient id="linear-gradient-6" x1="101.98" y1="102" x2="101.98" y2="96" gradientUnits="userSpaceOnUse"><stop offset="0" stop-color="#da5466"/><stop offset="1" stop-color="#e87092"/></linearGradient><linearGradient id="linear-gradient-7" x1="101.98" y1="114" x2="101.98" y2="108" gradientUnits="userSpaceOnUse"><stop offset="0" stop-color="#fbcc88"/><stop offset="1" stop-color="#ffe5c3"/></linearGradient><linearGradient id="linear-gradient-8" x1="29.98" y1="127" x2="29.98" y2="75" gradientUnits="userSpaceOnUse"><stop offset="0" stop-color="#8cdd79"/><stop offset="1" stop-color="#d4e6b6"/></linearGradient><linearGradient id="linear-gradient-9" x1="39.98" y1="77" x2="39.98" y2="63" gradientUnits="userSpaceOnUse"><stop offset="0" stop-color="#6ab891"/><stop offset="1" stop-color="#85cba9"/></linearGradient></defs><title>Juice</title><g id="Juice"><path class="cls-1" d="M109,20v8h6a4,4,0,0,1,4,4V60a4,4,0,1,0,8,0V32a12,12,0,0,0-12-12Z"/><path class="cls-2" d="M48,16a3,3,0,0,0-3,3l10,9V66.78A20.06,20.06,0,0,0,62,82h40a20.06,20.06,0,0,0,7-15.22V16Z"/><path class="cls-3" d="M119,32a4,4,0,0,0-4-4h-6V25h6a4,4,0,0,1,4,4Z"/><path class="cls-3" d="M127,54c0,5.85.39,7.25-1.17,8.83A4,4,0,0,1,119,60V54a4,4,0,1,0,8,0Z"/><path class="cls-3" d="M109,60.78v6A20.06,20.06,0,0,1,102,82H62a20.06,20.06,0,0,1-7-15.22v-6A20.06,20.06,0,0,0,62,76h40A20.06,20.06,0,0,0,109,60.78Z"/><path class="cls-4" d="M118,116.56V123a4,4,0,0,1-4,4H50a4,4,0,0,1-4-3.8L58.09,88H107a4,4,0,0,1,3.85,2.9C118.54,117.94,118,115.75,118,116.56Z"/><path class="cls-5" d="M118,117v6a4,4,0,0,1-4,4H50a4,4,0,0,1-4-3.8l1.16-3.37A4,4,0,0,0,50,121h64A4,4,0,0,0,118,117Z"/><circle class="cls-6" cx="71.98" cy="104" r="10"/><path class="cls-7" d="M72,114a10,10,0,0,1-9.88-11.48,10,10,0,0,0,19.76,0A10,10,0,0,1,72,114Z"/><path class="cls-5" d="M72,117a10,10,0,0,1-9.88-11.48,10,10,0,0,0,19.76,0A10,10,0,0,1,72,117Z"/><rect class="cls-5" x="61.98" y="82" width="40" height="6"/><path class="cls-8" d="M61,6h42a6,6,0,0,1,6,6v4a0,0,0,0,1,0,0H55a0,0,0,0,1,0,0V12A6,6,0,0,1,61,6Z"/><rect class="cls-5" x="54.98" y="12" width="54" height="4"/><rect class="cls-5" x="70.98" y="1" width="22" height="5"/><rect class="cls-9" x="96.98" y="96" width="10" height="6" rx="2"/><rect class="cls-10" x="96.98" y="108" width="10" height="6" rx="2"/><path class="cls-11" d="M107,100a2,2,0,0,1-2,2H99a2,2,0,0,1-2-2,10.77,10.77,0,0,1,.07-2.5A2,2,0,0,0,99,99h6a2,2,0,0,0,1.93-1.5A10.38,10.38,0,0,1,107,100Z"/><path class="cls-12" d="M107,112a2,2,0,0,1-2,2H99a2,2,0,0,1-2-2,10.77,10.77,0,0,1,.07-2.5A2,2,0,0,0,99,111h6a2,2,0,0,0,1.93-1.5A10.38,10.38,0,0,1,107,112Z"/><path class="cls-13" d="M43.17,75C54.26,74.6,59,84.86,59,96c0,13-12,31-21,31-6,0-5-1-8-1s-2,1-8,1c-9,0-21-18-21-31S7,75,16,75c7,0,11,2,14,2"/><path class="cls-14" d="M38,127c-6,0-5-1-8-1s-2,1-8,1C13.52,127-.29,109,1.09,93.13,2.26,105.88,13.46,122,22,122c6,0,5-1,8-1s2,1,8,1c8.52,0,19.72-16.12,20.89-28.87C60.24,108.92,46.55,127,38,127Z"/><path class="cls-15" d="M30,77h6A14,14,0,0,0,50,63H44A14,14,0,0,0,30,77Z"/><path class="cls-16" d="M50,63A14,14,0,0,1,36,77H30a14.14,14.14,0,0,1,.32-3H36A14,14,0,0,0,49.66,63Z"/><path class="cls-17" d="M52,96a1,1,0,0,0,2,0c0-7.74-2.63-16-10-16a1,1,0,0,0,0,2C49.9,82,52,89.23,52,96Z"/><path class="cls-17" d="M72,93a11,11,0,1,0,11,11A11,11,0,0,0,72,93Zm0,20a9,9,0,1,1,9-9A9,9,0,0,1,72,113Z"/><path class="cls-17" d="M72,97a1,1,0,0,0-1,1v6a1,1,0,0,0,2,0V98A1,1,0,0,0,72,97Z"/><path class="cls-17" d="M115,19h-5V12a7,7,0,0,0-7-7H94V1a1,1,0,0,0-1-1H71a1,1,0,0,0-1,1V5H61a7,7,0,0,0-7,7v3H48a4,4,0,0,0-4,4,1,1,0,0,0,.33.74L54,28.45V66.78a21,21,0,0,0,7,15.66V87H58.88c-2-7.35-6.59-12-12.87-12.86A15,15,0,0,0,51,63a1,1,0,0,0-1-1H44a15,15,0,0,0-13,7.55V69a9,9,0,0,0-9-9,1,1,0,0,0,0,2,7,7,0,0,1,7,7v6.92a27.06,27.06,0,0,1-2.93-.59A41.4,41.4,0,0,0,16,74C6.28,74,0,82.64,0,96c0,13.76,12.54,32,22,32a17,17,0,0,0,5.84-.67A6.06,6.06,0,0,1,30,127a6.06,6.06,0,0,1,2.16.33A17,17,0,0,0,38,128c2.36,0,4.91-1.14,7.41-3A5,5,0,0,0,50,128h64a5,5,0,0,0,5-5v-6.44a4.92,4.92,0,0,0-.19-1.37l-7-24.56A5,5,0,0,0,107,87h-4V82.44a21,21,0,0,0,7-15.66V29h5a3,3,0,0,1,3,3V60a5,5,0,0,0,10,0V32A13,13,0,0,0,115,19ZM72,2H92V5H72ZM56,12a5,5,0,0,1,5-5h42a5,5,0,0,1,5,5v3H56ZM44,64h5A13,13,0,0,1,36,76H31A13,13,0,0,1,44,64ZM32.75,125.42A7.84,7.84,0,0,0,30,125a7.84,7.84,0,0,0-2.75.42A15.27,15.27,0,0,1,22,126c-8.41,0-20-17.38-20-30C2,83.85,7.5,76,16,76a39.53,39.53,0,0,1,9.62,1.28A20,20,0,0,0,30,78h6a14.88,14.88,0,0,0,7.44-2H44c8.5,0,14,7.85,14,20,0,9-5.94,20.5-12.4,26.29a1.12,1.12,0,0,0-.4.35C42.76,124.73,40.27,126,38,126A15.27,15.27,0,0,1,32.75,125.42Zm77.12-34.25,7,24.56a3.32,3.32,0,0,1,.11.83V123a3,3,0,0,1-3,3H50a3,3,0,0,1-2.93-2.45C53.94,117.29,60,105.56,60,96a35.75,35.75,0,0,0-.65-7H107A3,3,0,0,1,109.87,91.17ZM63,87V83h38v4Zm45-20.22A19,19,0,0,1,101.62,81H62.38A19,19,0,0,1,56,66.78V28a1,1,0,0,0-.33-.74L46,18.59A2,2,0,0,1,48,17h60V66.78ZM126,60a3,3,0,0,1-6,0V32a5,5,0,0,0-5-5h-5V21h5a11,11,0,0,1,11,11Z"/><path class="cls-17" d="M105,23H99a1,1,0,0,0,0,2h6a1,1,0,0,0,0-2Z"/><path class="cls-17" d="M105,29h-3a1,1,0,0,0,0,2h3a1,1,0,0,0,0-2Z"/><path class="cls-17" d="M105,35H99a1,1,0,0,0,0,2h6a1,1,0,0,0,0-2Z"/><path class="cls-17" d="M105,41h-3a1,1,0,0,0,0,2h3a1,1,0,0,0,0-2Z"/><path class="cls-17" d="M105,47H99a1,1,0,0,0,0,2h6a1,1,0,0,0,0-2Z"/><path class="cls-17" d="M105,53h-3a1,1,0,0,0,0,2h3a1,1,0,0,0,0-2Z"/><path class="cls-17" d="M105,59H99a1,1,0,0,0,0,2h6a1,1,0,0,0,0-2Z"/><path class="cls-17" d="M105,65h-3a1,1,0,0,0,0,2h3a1,1,0,0,0,0-2Z"/><path class="cls-17" d="M105,71H99a1,1,0,0,0,0,2h6a1,1,0,0,0,0-2Z"/><path class="cls-17" d="M96,98v2a3,3,0,0,0,3,3h6a3,3,0,0,0,3-3V98a3,3,0,0,0-3-3H99A3,3,0,0,0,96,98Zm10,0v2a1,1,0,0,1-1,1H99a1,1,0,0,1-1-1V98a1,1,0,0,1,1-1h6A1,1,0,0,1,106,98Z"/><path class="cls-17" d="M105,107H99a3,3,0,0,0-3,3v2a3,3,0,0,0,3,3h6a3,3,0,0,0,3-3v-2A3,3,0,0,0,105,107Zm1,5a1,1,0,0,1-1,1H99a1,1,0,0,1-1-1v-2a1,1,0,0,1,1-1h6a1,1,0,0,1,1,1Z"/></g></svg>