<svg xmlns="http://www.w3.org/2000/svg" xmlns:xlink="http://www.w3.org/1999/xlink" viewBox="0 0 128 128"><defs><style>.cls-1{fill:url(#linear-gradient);}.cls-2{fill:url(#linear-gradient-2);}.cls-3{fill:#f6b756;}.cls-4{fill:url(#linear-gradient-3);}.cls-5{fill:url(#linear-gradient-4);}.cls-6{fill:url(#linear-gradient-5);}.cls-7{fill:url(#linear-gradient-6);}.cls-8{fill:url(#linear-gradient-7);}.cls-9{fill:url(#linear-gradient-8);}.cls-10{fill:url(#linear-gradient-9);}.cls-11{fill:url(#linear-gradient-10);}.cls-12{fill:url(#linear-gradient-11);}.cls-13{fill:url(#linear-gradient-12);}.cls-14{fill:url(#linear-gradient-13);}.cls-15{fill:#cba07a;}.cls-16{fill:#a5ea92;}.cls-17{fill:#47566a;}</style><linearGradient id="linear-gradient" x1="102.97" y1="127.13" x2="102.97" y2="80.12" gradientUnits="userSpaceOnUse"><stop offset="0" stop-color="#8cdd79"/><stop offset="1" stop-color="#d4e6b6"/></linearGradient><linearGradient id="linear-gradient-2" x1="102.68" y1="38.05" x2="102.68" y2="12.66" gradientUnits="userSpaceOnUse"><stop offset="0" stop-color="#fbcc88"/><stop offset="1" stop-color="#ffe5c3"/></linearGradient><linearGradient id="linear-gradient-3" x1="96.76" y1="57.64" x2="96.76" y2="36.9" xlink:href="#linear-gradient-2"/><linearGradient id="linear-gradient-4" x1="80.78" y1="50.83" x2="80.78" y2="11.79" xlink:href="#linear-gradient-2"/><linearGradient id="linear-gradient-5" x1="84.35" y1="70.07" x2="84.35" y2="49.33" xlink:href="#linear-gradient-2"/><linearGradient id="linear-gradient-6" x1="68.37" y1="63.26" x2="68.37" y2="24.22" xlink:href="#linear-gradient-2"/><linearGradient id="linear-gradient-7" x1="72.01" y1="82.43" x2="72.01" y2="61.68" xlink:href="#linear-gradient-2"/><linearGradient id="linear-gradient-8" x1="56.03" y1="75.61" x2="56.03" y2="36.58" xlink:href="#linear-gradient-2"/><linearGradient id="linear-gradient-9" x1="59.52" y1="94.94" x2="59.52" y2="74.19" xlink:href="#linear-gradient-2"/><linearGradient id="linear-gradient-10" x1="43.53" y1="88.12" x2="43.53" y2="49.09" xlink:href="#linear-gradient-2"/><linearGradient id="linear-gradient-11" x1="47.11" y1="107.37" x2="47.11" y2="86.63" gradientTransform="translate(148.98 132.35) rotate(135.04)" xlink:href="#linear-gradient-2"/><linearGradient id="linear-gradient-12" x1="31.12" y1="100.56" x2="31.12" y2="61.51" gradientTransform="translate(-4.22 160.32) rotate(-134.96)" xlink:href="#linear-gradient-2"/><linearGradient id="linear-gradient-13" x1="16.17" y1="127.2" x2="16.17" y2="96.78" gradientUnits="userSpaceOnUse"><stop offset="0" stop-color="#d1a788"/><stop offset="1" stop-color="#f2d3b8"/></linearGradient></defs><title>Low Carbs</title><g id="Low_Carbs" data-name="Low Carbs"><polygon class="cls-1" points="115.97 103.12 115.95 80.12 89.95 80.14 89.97 103.14 78.97 103.14 102.98 127.13 126.97 103.11 115.97 103.12"/><path class="cls-2" d="M115.37,12.66V18.1a22.92,22.92,0,0,1-11.58,19.95,22.07,22.07,0,0,0-13.66-.13A22,22,0,0,0,90,24.26a23,23,0,0,1,19.94-11.6Z"/><path class="cls-3" d="M106.8,36a24.23,24.23,0,0,1-3,2.06,22.07,22.07,0,0,0-13.66-.13,22.65,22.65,0,0,0,.78-3.33A25.12,25.12,0,0,1,106.8,36Z"/><path class="cls-4" d="M116.28,47.26c-4.06,4.08-6.41,6.94-11.66,8.94a22.1,22.1,0,0,1-23.48-5L77.3,47.34c-.1-.1-.49.38,3.84-4a22.09,22.09,0,0,1,31.24,0Z"/><path class="cls-3" d="M116.28,47.26l-3.9,3.91a22.11,22.11,0,0,1-31.24,0l-3.9-3.9,2-2,1.9,1.9a22.11,22.11,0,0,0,31.24,0l1.9-1.9Z"/><path class="cls-3" d="M93.46,37.14a22.65,22.65,0,0,0-3.33.78A22,22,0,0,0,90,24.26a22.23,22.23,0,0,1,2.06-3A25.1,25.1,0,0,1,93.46,37.14Z"/><path class="cls-5" d="M84.69,46.92c-4.33,4.34-3.86,3.95-4,3.85l-3.85-3.85a22.07,22.07,0,0,1-5-23.45c2-5.23,4.84-7.59,8.93-11.68l3.9,3.9A22.08,22.08,0,0,1,84.69,46.92Z"/><path class="cls-3" d="M84.69,46.93l-3.9,3.9-3.91-3.9A22,22,0,0,1,70.5,29.32c.82,9,6,13.24,10.29,17.51,4.52-4.53,9.47-8.65,10.27-17.53A22.07,22.07,0,0,1,84.69,46.93Z"/><path class="cls-3" d="M104.62,56.2a22.1,22.1,0,0,1-23.48-5L77.3,47.34a25,25,0,0,1,24.78,6.33Z"/><path class="cls-3" d="M80.73,50.77l-3.53.1-.32-3.95a22.07,22.07,0,0,1-5-23.45L74.38,26A25.07,25.07,0,0,1,80.73,50.77Z"/><path class="cls-6" d="M103.87,59.69c-4.06,4.07-6.41,6.94-11.66,8.93a22.08,22.08,0,0,1-23.48-5l-3.84-3.85c-.1-.1-.49.38,3.84-4a22.07,22.07,0,0,1,31.24,0Z"/><path class="cls-3" d="M103.87,59.69,100,63.6a22.11,22.11,0,0,1-31.24,0l-3.9-3.9,2-2,1.9,1.9a22.11,22.11,0,0,0,31.24,0l1.9-1.91Z"/><path class="cls-7" d="M72.28,59.35c-4.33,4.34-3.86,3.95-4,3.85l-3.85-3.85a22,22,0,0,1-5-23.45c2-5.23,4.83-7.59,8.92-11.68l3.91,3.9A22.08,22.08,0,0,1,72.28,59.35Z"/><path class="cls-3" d="M72.28,59.35l-3.9,3.91-3.91-3.9a22.06,22.06,0,0,1-6.39-17.62c.83,9,6,13.25,10.3,17.52,4.52-4.53,9.47-8.66,10.26-17.53A22,22,0,0,1,72.28,59.35Z"/><path class="cls-3" d="M92.21,68.62a22.08,22.08,0,0,1-23.48-5l-3.84-3.85A25,25,0,0,1,89.67,66.1Z"/><path class="cls-3" d="M68.32,63.2l-3.53.1-.32-3.95a22,22,0,0,1-5-23.45L62,38.42A25.08,25.08,0,0,1,68.32,63.2Z"/><path class="cls-8" d="M91.53,72C87.46,76.12,85.12,79,79.86,81a22.08,22.08,0,0,1-23.47-5l-3.84-3.85c-.1-.1-.5.37,3.83-4a22.07,22.07,0,0,1,31.24,0Z"/><path class="cls-3" d="M91.53,72.05,87.63,76a22.1,22.1,0,0,1-31.24,0l-3.9-3.9,2-2L56.39,72a22.1,22.1,0,0,0,31.24,0l1.89-1.9Z"/><path class="cls-9" d="M59.94,71.71c-4.33,4.34-3.86,4-4,3.85l-3.85-3.85a22.06,22.06,0,0,1-5-23.46C49,43,51.92,40.66,56,36.58l3.91,3.9A22.08,22.08,0,0,1,59.94,71.71Z"/><path class="cls-3" d="M59.94,71.71,56,75.62l-3.91-3.9A22.06,22.06,0,0,1,45.74,54.1c.83,9,6,13.25,10.3,17.52C60.56,67.09,65.5,63,66.3,54.09A22,22,0,0,1,59.94,71.71Z"/><path class="cls-3" d="M79.86,81a22.08,22.08,0,0,1-23.47-5l-3.84-3.85a25,25,0,0,1,24.78,6.32Z"/><path class="cls-3" d="M56,75.56l-3.53.1-.32-4a22.06,22.06,0,0,1-5-23.46l2.53,2.53A25.1,25.1,0,0,1,56,75.56Z"/><path class="cls-10" d="M79,84.55c-4.07,4.08-6.41,7-11.67,8.94a22.08,22.08,0,0,1-23.47-5l-3.84-3.85c-.1-.1-.5.37,3.83-4a22.07,22.07,0,0,1,31.24,0Z"/><path class="cls-3" d="M79,84.56l-3.89,3.9a22.09,22.09,0,0,1-31.24,0L40,84.59l2-2,1.9,1.89a22.09,22.09,0,0,0,31.24,0l1.9-1.9Z"/><path class="cls-11" d="M47.45,84.21c-4.33,4.35-3.86,4-4,3.86l-3.85-3.85a22.07,22.07,0,0,1-5-23.46c1.95-5.22,4.83-7.59,8.92-11.67L47.42,53A22.07,22.07,0,0,1,47.45,84.21Z"/><path class="cls-3" d="M47.44,84.22l-3.89,3.9-3.92-3.89a22.08,22.08,0,0,1-6.38-17.62c.83,9,6,13.25,10.29,17.51C48.07,79.59,53,75.47,53.81,66.6A22,22,0,0,1,47.44,84.22Z"/><path class="cls-3" d="M67.37,93.49a22.08,22.08,0,0,1-23.47-5l-3.84-3.85A25,25,0,0,1,64.84,91Z"/><path class="cls-3" d="M43.49,88.07l-3.53.1-.32-4a22.07,22.07,0,0,1-5-23.46l2.53,2.53A25.09,25.09,0,0,1,43.49,88.07Z"/><path class="cls-12" d="M55.39,83.2h5.52a0,0,0,0,1,0,0v5.52A22.09,22.09,0,0,1,38.82,110.8H33.3a0,0,0,0,1,0,0v-5.52A22.09,22.09,0,0,1,55.39,83.2Z" transform="translate(11.89 198.92) rotate(-135.04)"/><path class="cls-3" d="M66.62,97l-3.89,3.9a22.09,22.09,0,0,1-31.24,0L27.58,97l2-2,1.9,1.89a22.09,22.09,0,0,0,31.24,0l1.9-1.9Z"/><path class="cls-13" d="M39.4,67.23h5.52a0,0,0,0,1,0,0v5.52A22.09,22.09,0,0,1,22.84,94.84H17.32a0,0,0,0,1,0,0V89.32A22.09,22.09,0,0,1,39.4,67.23Z" transform="translate(110.45 116.27) rotate(134.96)"/><path class="cls-3" d="M35,96.65l-3.89,3.91-3.92-3.9A22.08,22.08,0,0,1,20.84,79c.83,9,6,13.25,10.29,17.52C35.66,92,40.6,87.9,41.4,79A22,22,0,0,1,35,96.65Z"/><path class="cls-14" d="M27.36,96.78l4,4L5.81,126.36a2.83,2.83,0,0,1-4.83-2C1,122.7-.35,124.53,27.36,96.78Z"/><path class="cls-15" d="M8.81,123.36c-2.88,2.89-3.43,3.83-5,3.83A2.83,2.83,0,0,1,1,124.37c0-1.52.79-2,3.83-5a2.83,2.83,0,0,0,4,4Z"/><rect class="cls-16" x="89.95" y="80.13" width="26" height="5"/><path class="cls-17" d="M79.38,84.94a1,1,0,0,0,0-1.41L78.1,82.25a23,23,0,0,0,9.8-5.82l3.9-3.91a1,1,0,0,0,.29-.7,1,1,0,0,0-.29-.71l-1.29-1.29A22.86,22.86,0,0,0,100.32,64l3.9-3.9a1,1,0,0,0,.3-.71,1,1,0,0,0-.3-.7l-1.29-1.3a22.92,22.92,0,0,0,9.81-5.81l3.91-3.9h0l9.76-9.75A1,1,0,0,0,125,36.5l-9,9-3.2-3.19a23.21,23.21,0,0,0-7.08-4.83,24,24,0,0,0,10.39-19.72v-5L127.29,1.53A1,1,0,1,0,125.88.12L114.64,11.36h-5A24,24,0,0,0,89.88,21.75a23.12,23.12,0,0,0-4.82-7.08l-3.2-3.19,9-9.06A1,1,0,0,0,89.5,1l-9.76,9.76-2.66,2.66-1.25,1.24A23,23,0,0,0,70,24.48l-1.29-1.29a1,1,0,0,0-1.41,0l-3.91,3.9a23,23,0,0,0-5.81,9.82l-1.29-1.3a1,1,0,0,0-1.42,0L51,39.52a22.82,22.82,0,0,0-5.81,9.81L43.88,48a1,1,0,0,0-1.41,0l-3.9,3.9a22.94,22.94,0,0,0-5.82,9.81l-1.29-1.29a1,1,0,0,0-1.41,0l-3.91,3.9a23.05,23.05,0,0,0-.55,32.05L.71,121.29a3.83,3.83,0,1,0,5.41,5.42L31,101.82a23,23,0,0,0,32-.55L67,97.37A1,1,0,0,0,67,96l-1.29-1.28a22.86,22.86,0,0,0,9.8-5.82ZM86.48,75a20.88,20.88,0,0,1-10,5.59l-1-1a23,23,0,0,0-16-6.75l.7-.7a23,23,0,0,0,5.52-8.89c.48-.14,1-.27,1.48-.38a22,22,0,0,1,2.29-.35,21,21,0,0,1,17,6.07l3.2,3.2ZM98.91,62.59a20.91,20.91,0,0,1-10,5.59l-1-1a23,23,0,0,0-16-6.76l.7-.71a22.87,22.87,0,0,0,5.5-8.86,21.65,21.65,0,0,1,3.8-.75,21,21,0,0,1,17,6.07l3.19,3.19ZM114.52,47l-2,2h0l-1.24,1.25a21,21,0,0,1-10,5.58l-1-1a23,23,0,0,0-16-6.75l.71-.71a23,23,0,0,0,5.51-8.88,21,21,0,0,1,12.62.27h0a21.17,21.17,0,0,1,8.13,5.05ZM109.6,13.36h3.59a1,1,0,0,0,.27.6,1,1,0,0,0,.59.27v3.58a22,22,0,0,1-10.71,18.84,23,23,0,0,0-12.13-.45,22.84,22.84,0,0,0-.45-12.12A22,22,0,0,1,109.6,13.36ZM77.25,16.09l1.24-1.25,2-1.95,3.19,3.2a21.08,21.08,0,0,1,0,29.82l-2.28,2.27a25.5,25.5,0,0,0-2.59.45,23.06,23.06,0,0,0-6.14-21.54l-1-1A20.84,20.84,0,0,1,77.25,16.09ZM64.83,28.51,68,25.31l3.2,3.2a21.11,21.11,0,0,1,0,29.82l-2.28,2.28a19.12,19.12,0,0,0-2.15.34l-.43.1a23,23,0,0,0-6.15-21.53l-1-1A20.9,20.9,0,0,1,64.83,28.51ZM52.4,40.93l3.2-3.2,3.2,3.2a21.1,21.1,0,0,1,0,29.82L56.53,73a21.25,21.25,0,0,0-2.14.35l-.47.11a23.08,23.08,0,0,0-6.13-21.54l-1-1A21,21,0,0,1,52.4,40.93ZM40,53.35l3.2-3.19,3.2,3.19a21.11,21.11,0,0,1,0,29.82l-2.27,2.27a23,23,0,0,0-2.59.45,23,23,0,0,0-6.15-21.53l-1-1A20.93,20.93,0,0,1,40,53.35ZM27.56,65.78l3.2-3.2L34,65.78A21.08,21.08,0,0,1,34,95.6l-3.19,3.19L27.91,96h0l-.35-.35a21.08,21.08,0,0,1,0-29.82ZM4.71,125.29a1.85,1.85,0,0,1-1.3.54,1.83,1.83,0,0,1-1.29-3.12L27,97.85l2.59,2.58ZM61.64,99.86a21.06,21.06,0,0,1-29.45.33L35.37,97a23,23,0,0,0,5.51-8.88,21,21,0,0,1,20.76,5.33l3.19,3.2ZM64,93l-1-1a23,23,0,0,0-16-6.76l.71-.7a22.94,22.94,0,0,0,5.5-8.88c.52-.15,1-.28,1.52-.38A20.77,20.77,0,0,1,74.07,81l3.19,3.19-3.2,3.21A20.86,20.86,0,0,1,64,93Z"/><path class="cls-17" d="M127.92,102.62A1,1,0,0,0,127,102H117V80a1,1,0,0,0-1-1H90a1,1,0,0,0-1,1v22H79a1,1,0,0,0-.92.62,1,1,0,0,0,.21,1.09l24,24a1,1,0,0,0,1.42,0l24-24A1,1,0,0,0,127.92,102.62Zm-24.92,23L81.41,104H90a1,1,0,0,0,1-1V81h24v22a1,1,0,0,0,1,1h8.59Z"/></g></svg>