<svg xmlns="http://www.w3.org/2000/svg" xmlns:xlink="http://www.w3.org/1999/xlink" viewBox="0 0 128 128"><defs><style>.cls-1{fill:url(#linear-gradient);}.cls-2{fill:#eab39b;}.cls-3{fill:url(#linear-gradient-2);}.cls-4{fill:url(#linear-gradient-3);}.cls-5{fill:url(#linear-gradient-4);}.cls-6{fill:url(#linear-gradient-5);}.cls-7{fill:url(#linear-gradient-6);}.cls-8{fill:#47566a;}</style><linearGradient id="linear-gradient" x1="64" y1="39" x2="64" y2="15" gradientUnits="userSpaceOnUse"><stop offset="0" stop-color="#f2c4b0"/><stop offset="1" stop-color="#ffe3d7"/></linearGradient><linearGradient id="linear-gradient-2" x1="64" y1="113" x2="64" y2="39" xlink:href="#linear-gradient"/><linearGradient id="linear-gradient-3" x1="64" y1="69" x2="64" y2="49" gradientUnits="userSpaceOnUse"><stop offset="0" stop-color="#da5466"/><stop offset="1" stop-color="#e87092"/></linearGradient><linearGradient id="linear-gradient-4" x1="64" y1="69" x2="64" y2="59" gradientUnits="userSpaceOnUse"><stop offset="0" stop-color="#fbcc88"/><stop offset="1" stop-color="#ffe5c3"/></linearGradient><linearGradient id="linear-gradient-5" x1="57.25" y1="84.91" x2="57.25" y2="1" gradientUnits="userSpaceOnUse"><stop offset="0" stop-color="#6ab891"/><stop offset="1" stop-color="#85cba9"/></linearGradient><linearGradient id="linear-gradient-6" x1="70.75" y1="127" x2="70.75" y2="41.8" xlink:href="#linear-gradient-5"/></defs><title>Metabolism</title><g id="Metabolism"><path class="cls-1" d="M64,39A10,10,0,0,1,54,29V25a10,10,0,0,1,20,0v4A10,10,0,0,1,64,39Z"/><path class="cls-2" d="M74,25v4a10,10,0,0,1-20,0V25a10,10,0,0,0,20,0Z"/><path class="cls-3" d="M103,39H25.17A4.12,4.12,0,0,0,21,42.61,4,4,0,0,0,25,47H52v61.84a4.16,4.16,0,0,0,8.31.33L62.92,77a1.08,1.08,0,0,1,2.16,0l2.61,32.17a4.16,4.16,0,0,0,8.31-.33V47h26.83A4.12,4.12,0,0,0,107,43.39,4,4,0,0,0,103,39Z"/><path class="cls-2" d="M52,47H25a4,4,0,0,1-3.71-5.48A4,4,0,0,0,25,44H49A3,3,0,0,1,52,47Z"/><path class="cls-2" d="M74.78,108.78A4.11,4.11,0,0,0,76,105.84v3a4.16,4.16,0,0,1-8.31.33L65.08,77a1.08,1.08,0,0,0-2.16,0l-2.61,32.17a4.16,4.16,0,0,1-8.31-.51v-2.82a4.16,4.16,0,0,0,8.31.33L62.92,74a1.08,1.08,0,0,1,2.16,0l2.61,32.17A4.16,4.16,0,0,0,74.78,108.78Z"/><path class="cls-2" d="M102.78,47H76a3,3,0,0,1,3-3h23.83a4.2,4.2,0,0,0,3.88-2.52A4.06,4.06,0,0,1,102.78,47Z"/><path class="cls-4" d="M71,62a7,7,0,0,1-13.94.93c-.4-3.25,1.38-8.26,3.24-10.45l1,1.27a1.5,1.5,0,0,0,2.66-1V49S71,56,71,62Z"/><path class="cls-5" d="M67,66a3,3,0,0,1-6,0c0-3,3-7,3-7S67,63,67,66Z"/><path class="cls-6" d="M4.56,84.91l5.63-2a57,57,0,0,1,94.12-59.17l-5,4.95H113.5V14.5l-5,4.95a63,63,0,0,0-104,65.46Z"/><path class="cls-7" d="M14.5,99.36V113.5l4.95-5A63,63,0,0,0,123,41.8l-5.64,2.06a57,57,0,0,1-93.65,60.45l4.95-5Z"/><path class="cls-8" d="M56.16,114a5.19,5.19,0,0,0,5.15-4.74l2.61-32.18c0-.09.16-.09.16,0l2.61,32.18A5.16,5.16,0,0,0,77,108.84V48h25.83A5.14,5.14,0,0,0,108,43.49,5,5,0,0,0,103,38H70.3A11,11,0,0,0,75,29V25a11,11,0,0,0-22,0v4a11,11,0,0,0,4.7,9H25.17A5.14,5.14,0,0,0,20,42.51,5,5,0,0,0,25,48H51v60.84A5.17,5.17,0,0,0,56.16,114ZM55,29V25a9,9,0,0,1,18,0v4a9,9,0,0,1-18,0ZM25,46a3,3,0,0,1-2.22-1A3,3,0,0,1,22,42.7,3.13,3.13,0,0,1,25.17,40H103a3,3,0,0,1,2.22,1A3,3,0,0,1,106,43.3a3.13,3.13,0,0,1-3.16,2.7H76a1,1,0,0,0-1,1v61.84a3.16,3.16,0,0,1-6.31.25L66.08,76.92a2.09,2.09,0,0,0-4.16,0l-2.61,32.17a3.16,3.16,0,0,1-6.31-.25V47a1,1,0,0,0-1-1Z"/><path class="cls-8" d="M63.15,70A8.38,8.38,0,0,0,64,70a7.88,7.88,0,0,0,5.35-2.06A8,8,0,0,0,72,62c0-6.34-7-13.41-7.29-13.71a1,1,0,0,0-1.09-.21A1,1,0,0,0,63,49v3.8a.48.48,0,0,1-.33.47.5.5,0,0,1-.56-.15l-1-1.27a1,1,0,0,0-.76-.37h0a1,1,0,0,0-.76.35c-2,2.36-3.91,7.66-3.48,11.22A8,8,0,0,0,63.15,70ZM64,68a2,2,0,0,1-2-2c0-1.61,1.11-3.78,2-5.21.89,1.43,2,3.6,2,5.21A2,2,0,0,1,64,68ZM60.35,54.12l.22.26A2.5,2.5,0,0,0,65,52.8V51.63C67,54,70,58.29,70,62a6,6,0,0,1-2,4.46l-.07.06A4.36,4.36,0,0,0,68,66c0-3.3-3.07-7.43-3.2-7.6a1,1,0,0,0-1.6,0c-.13.17-3.2,4.3-3.2,7.6a4,4,0,0,0,0,.5,5.87,5.87,0,0,1-2-3.69C57.74,60.27,59,56.41,60.35,54.12Z"/><path class="cls-8" d="M24.39,24.4a56.1,56.1,0,0,1,78.5-.7l-4.24,4.23a1,1,0,0,0,.71,1.71H113.5a1,1,0,0,0,1-1V14.5a1,1,0,0,0-1.71-.71L108.54,18A64,64,0,0,0,3.61,85.24a1,1,0,0,0,.52.57.91.91,0,0,0,.43.1,1,1,0,0,0,.34-.06l5.63-2a1,1,0,0,0,.6-1.27A56.4,56.4,0,0,1,24.39,24.4ZM5.17,83.62A62,62,0,0,1,64,2a61.79,61.79,0,0,1,43.84,18.13,1,1,0,0,0,1.41,0l3.25-3.25V27.64H101.77L105,24.4A1,1,0,0,0,105,23,58,58,0,0,0,8.93,82.26Z"/><path class="cls-8" d="M123.91,41.45a1,1,0,0,0-1.28-.59L117,42.92a1,1,0,0,0-.57.52,1,1,0,0,0,0,.77A56,56,0,0,1,25.11,104.3l4.23-4.23a1,1,0,0,0-.7-1.71H14.5a1,1,0,0,0-1,1V113.5a1,1,0,0,0,.62.92,1,1,0,0,0,1.09-.21L19.45,110A64,64,0,0,0,123.91,41.45Zm-16.07,66.39a62.09,62.09,0,0,1-87.69,0,1,1,0,0,0-.7-.29,1,1,0,0,0-.71.29l-3.24,3.24V100.36H26.22L23,103.6A1,1,0,0,0,23,105a58,58,0,0,0,95.64-60.56l3.76-1.38A62.19,62.19,0,0,1,107.84,107.84Z"/></g></svg>