<svg xmlns="http://www.w3.org/2000/svg" xmlns:xlink="http://www.w3.org/1999/xlink" viewBox="0 0 128 128"><defs><style>.cls-1{fill:url(#linear-gradient);}.cls-2{fill:#5b8dc9;}.cls-3{fill:url(#linear-gradient-2);}.cls-4{fill:url(#linear-gradient-3);}.cls-5{fill:url(#linear-gradient-4);}.cls-6{fill:#86b8e0;}.cls-7{fill:url(#linear-gradient-5);}.cls-8{fill:url(#linear-gradient-6);}.cls-9{fill:url(#linear-gradient-7);}.cls-10{fill:#c7cdd8;}.cls-11{fill:url(#linear-gradient-8);}.cls-12{fill:url(#linear-gradient-9);}.cls-13{fill:url(#linear-gradient-10);}.cls-14{fill:#77cacb;}.cls-15{fill:url(#linear-gradient-11);}.cls-16{fill:#47566a;}</style><linearGradient id="linear-gradient" x1="31" y1="127" x2="31" y2="35" gradientUnits="userSpaceOnUse"><stop offset="0" stop-color="#7aa8d7"/><stop offset="1" stop-color="#96c8ea"/></linearGradient><linearGradient id="linear-gradient-2" x1="73" y1="127" x2="73" y2="35" xlink:href="#linear-gradient"/><linearGradient id="linear-gradient-3" x1="73" y1="35" x2="73" y2="8" xlink:href="#linear-gradient"/><linearGradient id="linear-gradient-4" x1="37" y1="35" x2="37" y2="8" xlink:href="#linear-gradient"/><linearGradient id="linear-gradient-5" x1="31" y1="119" x2="31" y2="43" gradientUnits="userSpaceOnUse"><stop offset="0" stop-color="#d4d8e1"/><stop offset="1" stop-color="#f3f4f5"/></linearGradient><linearGradient id="linear-gradient-6" x1="31" y1="98" x2="31" y2="64" xlink:href="#linear-gradient"/><linearGradient id="linear-gradient-7" x1="22" y1="82" x2="22" y2="76" xlink:href="#linear-gradient-5"/><linearGradient id="linear-gradient-8" x1="40" y1="82" x2="40" y2="76" xlink:href="#linear-gradient-5"/><linearGradient id="linear-gradient-9" x1="31" y1="91" x2="31" y2="76" xlink:href="#linear-gradient-5"/><linearGradient id="linear-gradient-10" x1="104" y1="127" x2="104" y2="61" gradientUnits="userSpaceOnUse"><stop offset="0" stop-color="#9dd5df"/><stop offset="1" stop-color="#c3e1f5"/></linearGradient><linearGradient id="linear-gradient-11" x1="104" y1="123" x2="104" y2="77" xlink:href="#linear-gradient-5"/></defs><title>Milk</title><g id="Milk"><rect class="cls-1" x="1" y="35" width="60" height="92"/><rect class="cls-2" x="1" y="121" width="60" height="6"/><path class="cls-3" d="M85,35H61v92H85Z"/><path class="cls-2" d="M85,121H61v6H85Z"/><path class="cls-4" d="M85,35H61c2.87-6.47.57-1.3,12-27C84.43,33.7,82,28.34,85,35Z"/><path class="cls-5" d="M73,8C61.57,33.7,64,28.34,61,35H1c2.87-6.47.57-1.3,12-27Z"/><path class="cls-6" d="M15,1H71a2,2,0,0,1,2,2V8a0,0,0,0,1,0,0H13a0,0,0,0,1,0,0V3a2,2,0,0,1,2-2Z"/><path class="cls-7" d="M61,95c-30,0-30,24-60,24V67c28,0,30-24,60-24Z"/><circle class="cls-8" cx="31" cy="81" r="17"/><path class="cls-9" d="M19,80v2h2a4,4,0,0,0,4-4V76H23A4,4,0,0,0,19,80Z"/><path class="cls-10" d="M61,90v5c-30,0-30,24-60,24v-5C31,114,31,90,61,90Z"/><path class="cls-11" d="M37,76v2a4,4,0,0,0,4,4h2V80a4,4,0,0,0-4-4Z"/><path class="cls-12" d="M25,76v6c0,3,2.07,4,2.07,6,0,4,7.86,4,7.86,0,0-2,2.07-3,2.07-6V76Z"/><polygon class="cls-2" points="85 35 61 35 63.22 30 82.78 30 85 35"/><polygon class="cls-2" points="63.22 30 61 35 1 35 3.22 30 63.22 30"/><path class="cls-13" d="M121.12,127H86.88a2,2,0,0,1-2-1.88L81,61h46l-3.89,64.12A2,2,0,0,1,121.12,127Z"/><path class="cls-14" d="M123.3,122.07l-.19,3.05a2,2,0,0,1-2,1.88H86.88a2,2,0,0,1-2-1.88l-.19-3.05a2,2,0,0,0,1.68.93h35.24A2,2,0,0,0,123.3,122.07Z"/><path class="cls-15" d="M121.93,78.46c-2.77,45.65-2.29,37.69-2.7,44.54H88.77c-.43-7.2,0,.32-2.7-44.46.65.39,5.82,3.11,17.93,0S121.28,78.07,121.93,78.46Z"/><polygon class="cls-10" points="119.53 118 119.23 123 88.77 123 88.47 118 119.53 118"/><path class="cls-16" d="M35.93,88a3.68,3.68,0,0,1,.74-1.85A7.51,7.51,0,0,0,38,82v0a4.92,4.92,0,0,0,3,1h2a1,1,0,0,0,1-1V80a5,5,0,0,0-5-5H37.49A4.4,4.4,0,0,0,38,73a1,1,0,0,0-1-1h0a1,1,0,0,0-1,1,1.89,1.89,0,0,1-2,2H28a1.89,1.89,0,0,1-2-2,1,1,0,0,0-2,0,4.4,4.4,0,0,0,.51,2H23a5,5,0,0,0-5,5v2a1,1,0,0,0,1,1h2a4.92,4.92,0,0,0,3-1v0a7.51,7.51,0,0,0,1.33,4.15A3.68,3.68,0,0,1,26.07,88c0,2.63,2.48,4,4.93,4S35.93,90.63,35.93,88ZM42,80v1H41a3,3,0,0,1-3-3V77h1A3,3,0,0,1,42,80ZM21,81H20V80a3,3,0,0,1,3-3h1v1A3,3,0,0,1,21,81Zm7.07,7a5.42,5.42,0,0,0-1-2.88A5.54,5.54,0,0,1,26,82V77H36v5a5.54,5.54,0,0,1-1,3.12,5.42,5.42,0,0,0-1,2.88c0,1.58-1.92,2-2.93,2S28.07,89.58,28.07,88Z"/><path class="cls-16" d="M49,81A18,18,0,1,0,31,99,18,18,0,0,0,49,81ZM15,81A16,16,0,1,1,31,97,16,16,0,0,1,15,81Z"/><path class="cls-16" d="M127.73,60.31A1,1,0,0,0,127,60H86V35s0,0,0,0a.87.87,0,0,0-.06-.32.06.06,0,0,1,0,0h0L74,7.79V3a3,3,0,0,0-3-3H15a3,3,0,0,0-3,3V7.79L.09,34.59h0a.06.06,0,0,1,0,0A.87.87,0,0,0,0,35s0,0,0,0v92a1,1,0,0,0,1,1H85a1,1,0,0,0,.67-.27,2.9,2.9,0,0,0,1.21.27h34.24a3,3,0,0,0,3-2.82L128,61.06A1.05,1.05,0,0,0,127.73,60.31ZM60,42c-14.94.27-23,6.47-30.76,12.49C21.81,60.27,14.77,65.7,2,66V36H60ZM2,68c13.46-.28,21.09-6.16,28.46-11.87S45.74,44.3,60,44V94c-14.68.26-22.28,6.32-29.62,12.19S16,117.72,2,118ZM73,10.46,83.46,34H62.54ZM14,3a1,1,0,0,1,1-1H71a1,1,0,0,1,1,1V7H14Zm-.35,6H71.46L60.35,34H2.54ZM2,120c14.68-.26,22.28-6.32,29.62-12.19S46,96.28,60,96v30H2Zm60,6V36H84V60H81a1,1,0,0,0-.73.31,1.05,1.05,0,0,0-.27.75l3.89,64.12a2.6,2.6,0,0,0,.11.63V126Zm60.12-.94a1,1,0,0,1-1,.94H86.88a1,1,0,0,1-1-.94L82.06,62h43.88Z"/><path class="cls-16" d="M88.77,124h30.46a1,1,0,0,0,1-.94l2.7-44.54a1,1,0,0,0-.49-.92c-1-.57-6.36-3.28-18.69-.07-11.81,3.07-16.65.46-17.17.15a1,1,0,0,0-1.51.92l2.7,44.46A1,1,0,0,0,88.77,124Zm15.48-44.53c10-2.62,15.06-1.11,16.64-.42l-2.6,43H89.71L87.17,80.11C89.68,81,95,81.87,104.25,79.47Z"/></g></svg>