<svg xmlns="http://www.w3.org/2000/svg" xmlns:xlink="http://www.w3.org/1999/xlink" viewBox="0 0 128 128"><defs><style>.cls-1{fill:url(#linear-gradient);}.cls-2{fill:#cba07a;}.cls-3{fill:url(#linear-gradient-2);}.cls-4{fill:url(#linear-gradient-3);}.cls-5{fill:#8a6762;}.cls-6{fill:url(#linear-gradient-4);}.cls-7{fill:#dd4e6a;}.cls-8{fill:url(#linear-gradient-5);}.cls-9{fill:#7ece67;}.cls-10{fill:url(#linear-gradient-6);}.cls-11{fill:#e8c4a6;}.cls-12{fill:url(#linear-gradient-7);}.cls-13{fill:#47566a;}</style><linearGradient id="linear-gradient" x1="63.99" y1="74" x2="63.99" y2="24.95" gradientUnits="userSpaceOnUse"><stop offset="0" stop-color="#d1a788"/><stop offset="1" stop-color="#f2d3b8"/></linearGradient><linearGradient id="linear-gradient-2" x1="63.99" y1="127" x2="63.99" y2="100" xlink:href="#linear-gradient"/><linearGradient id="linear-gradient-3" x1="64.49" y1="89" x2="64.49" y2="74" gradientUnits="userSpaceOnUse"><stop offset="0" stop-color="#9b756d"/><stop offset="1" stop-color="#bc9388"/></linearGradient><linearGradient id="linear-gradient-4" x1="63.49" y1="96" x2="63.49" y2="89" gradientUnits="userSpaceOnUse"><stop offset="0" stop-color="#da5466"/><stop offset="1" stop-color="#e87092"/></linearGradient><linearGradient id="linear-gradient-5" x1="63.03" y1="111.25" x2="63.03" y2="95.88" gradientUnits="userSpaceOnUse"><stop offset="0" stop-color="#8cdd79"/><stop offset="1" stop-color="#d4e6b6"/></linearGradient><linearGradient id="linear-gradient-6" x1="67.7" y1="91.29" x2="67.7" y2="74" gradientUnits="userSpaceOnUse"><stop offset="0" stop-color="#fbcc88"/><stop offset="1" stop-color="#ffe5c3"/></linearGradient><linearGradient id="linear-gradient-7" x1="96.99" y1="61" x2="96.99" y2="1" xlink:href="#linear-gradient-4"/></defs><title>No Junk Food</title><g id="No_Junk_Food" data-name="No Junk Food"><path class="cls-1" d="M104.15,29.49a41.8,41.8,0,0,1,13,10.29l5,7.46A41.69,41.69,0,0,1,127,66.65,7.34,7.34,0,0,1,119.64,74H8.34A7.35,7.35,0,0,1,1,66.65,41.65,41.65,0,0,1,42.64,25C89,25,89,24.54,96,26.37"/><path class="cls-2" d="M127,66.65A7.34,7.34,0,0,1,119.64,74H8.34A7.35,7.35,0,0,1,1,66.65c0-1.25.05-2.48.16-3.7a7.34,7.34,0,0,0,7,5h111.3a7.31,7.31,0,0,0,7.27-6.3A42.46,42.46,0,0,1,127,66.65Z"/><path class="cls-3" d="M119,100h4.32a3.69,3.69,0,0,1,3.68,3.68v2.43A20.88,20.88,0,0,1,106.11,127H21.88A20.89,20.89,0,0,1,1,106.11v-2.43A3.7,3.7,0,0,1,4.68,100H7"/><path class="cls-2" d="M127,106.11A20.89,20.89,0,0,1,106.1,127H21.88A20.89,20.89,0,0,1,1,106.11c0-2.53-.05-2.84.16-3.47A20.87,20.87,0,0,0,21.88,121H106.1a20.87,20.87,0,0,0,20.73-18.36C127.07,103.35,127,103.92,127,106.11Z"/><path class="cls-4" d="M72,89h-62A5,5,0,0,1,5,84.06V78.94A5,5,0,0,1,9.94,74H119.05A4.94,4.94,0,0,1,124,78.94v5.12A4.94,4.94,0,0,1,119.05,89H79"/><path class="cls-5" d="M124,80.06v4A4.94,4.94,0,0,1,119.05,89H9.93A4.94,4.94,0,0,1,5,84.06v-4A4.94,4.94,0,0,0,9.93,85H119.05A4.94,4.94,0,0,0,124,80.06Z"/><path class="cls-6" d="M78,89H119.5a3.5,3.5,0,0,1,0,7H7.49a3.5,3.5,0,1,1,0-7H71"/><path class="cls-7" d="M119.49,96H7.49a3.5,3.5,0,0,1-3.15-5,3.48,3.48,0,0,0,3.15,2c114.44,0,113.84,1,115.15-2A3.49,3.49,0,0,1,119.49,96Z"/><path class="cls-8" d="M10.88,95.88s-4.94,2.47-3.71,7.41,6.18,8.65,13.59,4.95,9.88-7.42,17.29-2.48,13.59,6.18,21,0,12.36-4.94,21,0,12.36,7.42,17.3,3.71,9.88-7.41,16.06-3.71,8.19-9.88,1.62-9.88Z"/><path class="cls-9" d="M113.4,105.76c-6.17-3.7-11.12,0-16.06,3.71s-8.64,1.24-17.29-3.71-13.59-6.17-21,0-13.59,4.95-21,0-9.88-1.23-17.3,2.48C11,113.12,5.57,104.66,7.3,99.84c1.39,4.72,6.26,8.11,13.45,4.51,7.42-3.7,9.89-7.41,17.3-2.47s13.59,6.18,21,0,12.35-4.94,21,0,12.35,7.41,17.29,3.71,9.89-7.41,16.06-3.71c2.83,1.7,4.78-.23,5.44-2.82C119.87,102.83,117.59,108.28,113.4,105.76Z"/><polygon class="cls-10" points="76.35 91.29 42.99 74 92.41 74 76.35 91.29"/><path class="cls-11" d="M65,36a1,1,0,0,1-2,0A1,1,0,0,1,65,36Z"/><path class="cls-11" d="M65,64a1,1,0,0,1-2,0A1,1,0,0,1,65,64Z"/><path class="cls-11" d="M82,36a1,1,0,0,1-2,0A1,1,0,0,1,82,36Z"/><path class="cls-11" d="M82,64a1,1,0,0,1-2,0A1,1,0,0,1,82,64Z"/><path class="cls-11" d="M100,64a1,1,0,0,1-2,0A1,1,0,0,1,100,64Z"/><path class="cls-11" d="M56,50a1,1,0,0,1-2,0A1,1,0,0,1,56,50Z"/><path class="cls-11" d="M48,36a1,1,0,0,1-2,0A1,1,0,0,1,48,36Z"/><path class="cls-11" d="M48,64a1,1,0,0,1-2,0A1,1,0,0,1,48,64Z"/><path class="cls-11" d="M39,50a1,1,0,0,1-2,0A1,1,0,0,1,39,50Z"/><path class="cls-11" d="M30,36a1,1,0,0,1-2,0A1,1,0,0,1,30,36Z"/><path class="cls-11" d="M30,64a1,1,0,0,1-2,0A1,1,0,0,1,30,64Z"/><path class="cls-11" d="M22,50a1,1,0,0,1-2,0A1,1,0,0,1,22,50Z"/><path class="cls-12" d="M97,1a30,30,0,1,0,30,30A30,30,0,0,0,97,1ZM75,31c0-17.89,20.13-28,34.48-18.13L78.86,43.48A21.91,21.91,0,0,1,75,31ZM97,53a21.91,21.91,0,0,1-12.48-3.87l30.61-30.61C125,32.83,114.93,53,97,53Z"/><path class="cls-7" d="M127,29.54a30,30,0,0,1-59.92,0C66,46.13,79.54,61,97,61S128,46.17,127,29.54Z"/><path class="cls-13" d="M74.91,24.62a23,23,0,0,0,3.14,19.43,1,1,0,0,0,.73.43h.09a1,1,0,0,0,.71-.29l30.61-30.61a1,1,0,0,0,.29-.8,1,1,0,0,0-.43-.73A23,23,0,0,0,74.91,24.61ZM79,41.9A20.93,20.93,0,0,1,76,31a20.63,20.63,0,0,1,.63-5h8.72a41,41,0,0,1,8.64.94ZM97,10a20.93,20.93,0,0,1,10.9,3L95.66,25.27A43.06,43.06,0,0,0,85.35,24H77.23A21,21,0,0,1,97,10Z"/><path class="cls-13" d="M128,66.65a42.66,42.66,0,0,0-4.65-19.35A31,31,0,1,0,66.81,24H42.65A42.64,42.64,0,0,0,0,66.65a8.35,8.35,0,0,0,5.87,8A5.93,5.93,0,0,0,4,78.94v5.12a5.91,5.91,0,0,0,1.82,4.27A4.5,4.5,0,0,0,7.5,97h.38a8,8,0,0,0-1.3,2H4.68A4.69,4.69,0,0,0,0,103.68v2.43A21.92,21.92,0,0,0,21.89,128h84.22A21.92,21.92,0,0,0,128,106.11v-2.43A4.69,4.69,0,0,0,123.32,99h-3.47c-.06-.24-.11-.49-.19-.72A5.7,5.7,0,0,0,119,97h.49a4.51,4.51,0,0,0,4.5-4.5A4.46,4.46,0,0,0,122.32,89a5.94,5.94,0,0,0,2.68-5V78.94a5.93,5.93,0,0,0-2.15-4.57A8.34,8.34,0,0,0,128,66.65ZM97,2A29,29,0,1,1,68,31,29,29,0,0,1,97,2ZM42.76,75,67.83,88H9.94A4,4,0,0,1,6,84.06V78.94A4,4,0,0,1,9.94,75ZM78.05,88h0a1,1,0,0,0-1,1s0,.07,0,.1l-.88,1-3.53-1.83a.87.87,0,0,0-.33-.17L47.1,75h43Zm48,15.68v2.43A19.91,19.91,0,0,1,106.11,126H21.89A19.91,19.91,0,0,1,2,106.11v-2.43A2.68,2.68,0,0,1,4.68,101H6a7,7,0,0,0,.18,2.54,9.37,9.37,0,0,0,5.06,6.39c2,.91,5.31,1.51,9.94-.8,1.5-.75,2.81-1.5,4-2.17,4.6-2.65,6.91-4,12.33-.36,6.39,4.25,13.49,7.19,22.2-.07,6.8-5.66,11.11-4.9,19.86.1l1.26.73c5.11,2.92,8.58,4.91,11.79,4.91a8.7,8.7,0,0,0,5.34-2c4.81-3.6,9.35-7,15-3.65a4.06,4.06,0,0,0,5-.1,7.37,7.37,0,0,0,2.2-5.52h3.24A2.68,2.68,0,0,1,126,103.68ZM117.77,99a4.53,4.53,0,0,1,.24,1s0,0,0,.06a1,1,0,0,0,0,.23c.2,1.82-.36,3.85-1.44,4.74a2.16,2.16,0,0,1-2.68-.06c-6.76-4.06-12.29.1-17.18,3.76-4.16,3.12-7.32,1.32-14.93-3l-1.27-.72c-9-5.16-14.37-6.37-22.13.1-7.27,6-13.18,4.35-19.81-.07-6.45-4.3-9.63-2.47-14.44.3-1.13.65-2.41,1.39-3.85,2.11-3.1,1.55-5.94,1.82-8.21.78a7.4,7.4,0,0,1-4-5.07c-.85-3.39,1.78-5.41,2.8-6h105A2.82,2.82,0,0,1,117.77,99Zm1.73-9a2.5,2.5,0,0,1,0,5h-3.41a5.2,5.2,0,0,0-1-.12,1,1,0,0,0-.45.12H11.32a1,1,0,0,0-.88,0H7.5a2.5,2.5,0,0,1,0-5H71.69l4.2,2.18a1,1,0,0,0,.46.11,1,1,0,0,0,.74-.32l1.83-2H119.5Zm3.5-5.94A4,4,0,0,1,119.06,88H80.78L92.85,75h26.21A4,4,0,0,1,123,78.94ZM119.65,73H8.35A6.36,6.36,0,0,1,2,66.65,40.66,40.66,0,0,1,42.65,26H66.41A30.58,30.58,0,0,0,66,31a31,31,0,0,0,56.06,18.22A40.7,40.7,0,0,1,126,66.65,6.35,6.35,0,0,1,119.65,73Z"/><circle class="cls-13" cx="64" cy="36" r="1"/><circle class="cls-13" cx="64" cy="64" r="1"/><circle class="cls-13" cx="81" cy="36" r="1"/><circle class="cls-13" cx="81" cy="64" r="1"/><circle class="cls-13" cx="99" cy="64" r="1"/><circle class="cls-13" cx="55" cy="50" r="1"/><circle class="cls-13" cx="47" cy="36" r="1"/><circle class="cls-13" cx="47" cy="64" r="1"/><circle class="cls-13" cx="38" cy="50" r="1"/><circle class="cls-13" cx="29" cy="36" r="1"/><circle class="cls-13" cx="29" cy="64" r="1"/><circle class="cls-13" cx="21" cy="50" r="1"/><path class="cls-13" d="M83.52,49.22A1,1,0,0,0,84,50a23,23,0,0,0,34.11-9.71v0A23,23,0,0,0,116,18a1,1,0,0,0-.73-.43,1,1,0,0,0-.8.29L83.81,48.42A1,1,0,0,0,83.52,49.22ZM115,20.1a20.9,20.9,0,0,1,1.86,17.78,42.34,42.34,0,0,0-11-8.63ZM104.34,30.72A40.38,40.38,0,0,1,116,39.94,21,21,0,0,1,86.1,49Z"/></g></svg>