<svg xmlns="http://www.w3.org/2000/svg" xmlns:xlink="http://www.w3.org/1999/xlink" viewBox="0 0 128 128"><defs><style>.cls-1{fill:url(#linear-gradient);}.cls-2{fill:#5b8dc9;}.cls-3{fill:url(#linear-gradient-2);}.cls-4{fill:#8288a1;}.cls-5{fill:#c6ccda;}.cls-6{fill:url(#linear-gradient-4);}.cls-7{fill:#dd4e6a;}.cls-8{fill:url(#linear-gradient-5);}.cls-9{fill:url(#linear-gradient-6);}.cls-10{fill:#47566a;}</style><linearGradient id="linear-gradient" x1="40.99" y1="113" x2="40.99" y2="15" gradientUnits="userSpaceOnUse"><stop offset="0" stop-color="#7aa8d7"/><stop offset="1" stop-color="#96c8ea"/></linearGradient><linearGradient id="linear-gradient-2" x1="39.06" y1="123" x2="39.06" y2="113" gradientUnits="userSpaceOnUse"><stop offset="0" stop-color="#949aaf"/><stop offset="1" stop-color="#c6ccda"/></linearGradient><linearGradient id="linear-gradient-4" x1="94.99" y1="127" x2="94.99" y2="67" gradientUnits="userSpaceOnUse"><stop offset="0" stop-color="#da5466"/><stop offset="1" stop-color="#e87092"/></linearGradient><linearGradient id="linear-gradient-5" x1="40.99" y1="15" x2="40.99" y2="5" xlink:href="#linear-gradient-2"/><linearGradient id="linear-gradient-6" x1="37.59" y1="113" x2="37.59" y2="15" gradientUnits="userSpaceOnUse"><stop offset="0" stop-color="#d4d8e1"/><stop offset="1" stop-color="#f3f4f5"/></linearGradient></defs><title>No Soda</title><g id="No_Soda" data-name="No Soda"><path class="cls-1" d="M3,113V15H79v98Z"/><path class="cls-2" d="M3,113v-4H79v4Z"/><path class="cls-3" d="M75.12,119.46,73,123H9L3,113H69.63Z"/><path class="cls-3" d="M75.12,119.46,73,123H9L3,113H69.63Z"/><path class="cls-4" d="M75.12,119.46,73,123H9l-2.4-4C79.56,119,74.53,118.76,75.12,119.46Z"/><path class="cls-5" d="M9,123H73a2,2,0,0,1,0,4H9A2,2,0,0,1,9,123Z"/><path class="cls-6" d="M95,67a30,30,0,1,0,30,30A30,30,0,0,0,95,67ZM73,97c0-17.89,20.12-28,34.48-18.13L76.86,109.48A21.91,21.91,0,0,1,73,97Zm22,22a21.91,21.91,0,0,1-12.48-3.87l30.61-30.61C123,98.83,112.92,119,95,119Z"/><path class="cls-7" d="M125,95.54a30,30,0,0,1-59.92,0C64,112.13,77.54,127,95,127S126,112.17,125,95.54Z"/><polygon class="cls-8" points="2.99 15 78.99 15 72.99 5 8.99 5 2.99 15"/><polygon class="cls-4" points="78.99 15 2.99 15 4.79 12 77.19 12 78.99 15"/><path class="cls-5" d="M73,5H9A2,2,0,0,1,9,1H73A2,2,0,0,1,73,5Z"/><path class="cls-9" d="M55.83,15S28.5,35.52,45.41,67c15.58,29,2,46,2,46H40.17S54,96,34.25,71C8.79,38.75,23.67,15.28,23.67,15.28Z"/><path class="cls-10" d="M79.71,108.06l28.48-28.48a1,1,0,0,0,.29-.8,1,1,0,0,0-.43-.73,23,23,0,0,0-29.69,3.1.49.49,0,0,0-.12.13,23,23,0,0,0-2.19,28.77,1,1,0,0,0,.73.43h.09a1,1,0,0,0,.71-.29l2.13-2.13ZM95,76a20.93,20.93,0,0,1,10.9,3L80,104.94V82.33A20.94,20.94,0,0,1,95,76ZM77,107.9a20.95,20.95,0,0,1,1-23.18v22.22Z"/><path class="cls-10" d="M95,66a30.81,30.81,0,0,0-15,3.88V15h0a1,1,0,0,0-.07-.35l0-.08,0-.08L74.51,5.58A3,3,0,0,0,73,0H9A3,3,0,0,0,7.49,5.58L2.14,14.49l0,.08,0,.08A1,1,0,0,0,2,15H2v98H2a1,1,0,0,0,.07.35.3.3,0,0,0,0,.08l0,.08,5.35,8.91A3,3,0,0,0,9,128H73a3,3,0,0,0,1.51-5.58l.87-1.44A31,31,0,1,0,95,66ZM64,97a30.81,30.81,0,0,0,3.88,15H49.32c3-5,10.15-21-3-45.47-15.63-29.08,7-48.27,9.87-50.53H78V71.1A31,31,0,0,0,64,97ZM4,16H22.16c-2.63,5.36-11,27.37,11.32,55.62C51.12,94,41.54,109.41,39.67,112H4ZM35.05,70.38C11.48,40.54,23.18,18.17,24.42,16H53.16C47,21.75,30.26,40.9,44.54,67.47,58.37,93.21,48.69,109.4,46.93,112H42C44.91,107.07,51.59,91.33,35.05,70.38ZM9,2H73a1,1,0,0,1,0,2H9A1,1,0,0,1,9,2Zm.57,4H72.43l4.8,8H4.77ZM73,126H9a1,1,0,0,1,0-2H73a1,1,0,0,1,0,2Zm-.57-4H9.57l-4.8-8H69.1a31,31,0,0,0,4.76,5.64ZM95,126a29,29,0,1,1,29-29A29,29,0,0,1,95,126Z"/><path class="cls-10" d="M114,84a1,1,0,0,0-.73-.43,1,1,0,0,0-.8.29L81.81,114.42a1,1,0,0,0-.29.8A1,1,0,0,0,82,116a23,23,0,0,0,32-32ZM95,118a20.93,20.93,0,0,1-10.9-3L113,86.1A21,21,0,0,1,95,118Z"/></g></svg>