<svg xmlns="http://www.w3.org/2000/svg" xmlns:xlink="http://www.w3.org/1999/xlink" viewBox="0 0 128 128"><defs><style>.cls-1{fill:url(#linear-gradient);}.cls-2{fill:url(#linear-gradient-2);}.cls-3{fill:#5b8dc9;}.cls-4{fill:url(#linear-gradient-3);}.cls-5{fill:#f6b756;}.cls-6{fill:url(#linear-gradient-4);}.cls-7{fill:url(#linear-gradient-5);}.cls-8{fill:#7ece67;}.cls-9{fill:url(#linear-gradient-6);}.cls-10{fill:#4da67f;}.cls-11{fill:#dd4e6a;}.cls-12{fill:#47566a;}</style><linearGradient id="linear-gradient" x1="64" y1="98" x2="64" y2="2" gradientUnits="userSpaceOnUse"><stop offset="0" stop-color="#da5466"/><stop offset="1" stop-color="#e87092"/></linearGradient><linearGradient id="linear-gradient-2" x1="64" y1="98" x2="64" y2="74" gradientUnits="userSpaceOnUse"><stop offset="0" stop-color="#7aa8d7"/><stop offset="1" stop-color="#96c8ea"/></linearGradient><linearGradient id="linear-gradient-3" x1="64" y1="74" x2="64" y2="50" gradientUnits="userSpaceOnUse"><stop offset="0" stop-color="#fbcc88"/><stop offset="1" stop-color="#ffe5c3"/></linearGradient><linearGradient id="linear-gradient-4" x1="64" y1="50" x2="64" y2="26" gradientUnits="userSpaceOnUse"><stop offset="0" stop-color="#6ab891"/><stop offset="1" stop-color="#85cba9"/></linearGradient><linearGradient id="linear-gradient-5" x1="64" y1="127" x2="64" y2="75" gradientUnits="userSpaceOnUse"><stop offset="0" stop-color="#8cdd79"/><stop offset="1" stop-color="#d4e6b6"/></linearGradient><linearGradient id="linear-gradient-6" x1="74" y1="77" x2="74" y2="63" xlink:href="#linear-gradient-4"/></defs><title>Nutritions</title><g id="Nutritions"><path class="cls-1" d="M127,98H1L64,2Z"/><path class="cls-2" d="M127,98,111.25,74H16.75L1,98Z"/><polygon class="cls-3" points="127 98 1 98 3.63 94 124.38 94 127 98"/><path class="cls-4" d="M111.25,74H16.75c3.42-5.2.42-.62,15.75-24h63C110.8,73.31,107.76,68.67,111.25,74Z"/><polygon class="cls-5" points="111.25 74 16.75 74 19.38 70 108.63 70 111.25 74"/><path class="cls-6" d="M95.5,50h-63c3.42-5.2.42-.62,15.75-24h31.5C95.05,49.31,92,44.67,95.5,50Z"/><path class="cls-7" d="M77.19,75C88.29,74.6,93,84.86,93,96c0,13-12,31-21,31-6,0-5-1-8-1s-2,1-8,1c-9,0-21-18-21-31s6-21,15-21c7,0,11,2,14,2"/><path class="cls-8" d="M72,127c-6,0-5-1-8-1s-2,1-8,1c-8.46,0-22.27-18-20.89-33.87C36.28,105.88,47.48,122,56,122c6,0,5-1,8-1s2,1,8,1c8.52,0,19.72-16.12,20.89-28.87C94.26,108.92,80.57,127,72,127Z"/><path class="cls-9" d="M64,77h6A14,14,0,0,0,84,63H78A14,14,0,0,0,64,77Z"/><path class="cls-10" d="M84,63A14,14,0,0,1,70,77H64a14.14,14.14,0,0,1,.32-3H70A14,14,0,0,0,83.68,63Z"/><polygon class="cls-10" points="95.5 50 32.5 50 35.13 46 92.88 46 95.5 50"/><polygon class="cls-11" points="79.75 26 48.25 26 50.88 22 77.13 22 79.75 26"/><path class="cls-12" d="M78,80a1,1,0,0,0,0,2c5.9,0,8,7.23,8,14a1,1,0,0,0,2,0C88,88.26,85.37,80,78,80Z"/><path class="cls-12" d="M127.84,97.45l-15.75-24-15.75-24-15.75-24-15.75-24a1.05,1.05,0,0,0-1.68,0l-15.75,24-15.75,24-15.75,24L.16,97.45a1,1,0,0,0,0,1A1,1,0,0,0,1,99H34.19c1.59,13.26,13,29,21.81,29a17,17,0,0,0,5.84-.67,7.23,7.23,0,0,1,4.32,0A17,17,0,0,0,72,128c8.78,0,20.22-15.74,21.81-29H127a1,1,0,0,0,.88-.53A1,1,0,0,0,127.84,97.45ZM60.07,75.33,58.6,75H63v.92A27.06,27.06,0,0,1,60.07,75.33ZM78,64h5A13,13,0,0,1,70,76H65A13,13,0,0,1,78,64Zm7-1a1,1,0,0,0-1-1H78a15,15,0,0,0-13,7.55V69a9,9,0,0,0-9-9,1,1,0,0,0,0,2,7,7,0,0,1,7,7v4H18.6L33,51H95L109.4,73H81.15A15,15,0,0,0,85,63Zm8.65-14H34.35L48.79,27H79.21ZM64,3.82,77.9,25H50.1ZM2.85,97,17.29,75H44.66C38,77.62,34,85.28,34,96c0,.33,0,.67,0,1ZM72,126a15.27,15.27,0,0,1-5.25-.58,9.21,9.21,0,0,0-5.5,0A15.27,15.27,0,0,1,56,126c-8,0-18.8-15.62-19.9-28h0c-.06-.68-.1-1.34-.1-2,0-12.15,5.5-20,14-20a39.53,39.53,0,0,1,9.62,1.28A20,20,0,0,0,64,78h6a14.88,14.88,0,0,0,7.44-2H78c8.5,0,14,7.85,14,20,0,.65,0,1.31-.1,2h0C90.8,110.38,80,126,72,126ZM94,97c0-.33,0-.67,0-1,0-10.72-4-18.38-10.66-21h27.37l14.44,22Z"/></g></svg>