<svg xmlns="http://www.w3.org/2000/svg" xmlns:xlink="http://www.w3.org/1999/xlink" viewBox="0 0 128 128"><defs><style>.cls-1{fill:url(#linear-gradient);}.cls-2{fill:url(#linear-gradient-2);}.cls-3{fill:#f6b756;}.cls-4{fill:url(#linear-gradient-3);}.cls-5{fill:#4da67f;}.cls-6{fill:url(#linear-gradient-4);}.cls-7{fill:#7ece67;}.cls-8{fill:url(#linear-gradient-5);}.cls-9{fill:url(#linear-gradient-6);}.cls-10{fill:#47566a;}</style><linearGradient id="linear-gradient" x1="51" y1="127.01" x2="51" y2="0.99" gradientUnits="userSpaceOnUse"><stop offset="0" stop-color="#9dd5df"/><stop offset="1" stop-color="#c3e1f5"/></linearGradient><linearGradient id="linear-gradient-2" x1="48" y1="123.04" x2="48" y2="70.22" gradientUnits="userSpaceOnUse"><stop offset="0" stop-color="#fbcc88"/><stop offset="1" stop-color="#ffe5c3"/></linearGradient><linearGradient id="linear-gradient-3" x1="106.06" y1="109.99" x2="106.06" y2="89.99" gradientUnits="userSpaceOnUse"><stop offset="0" stop-color="#6ab891"/><stop offset="1" stop-color="#85cba9"/></linearGradient><linearGradient id="linear-gradient-4" x1="87" y1="113.99" x2="87" y2="95.99" gradientUnits="userSpaceOnUse"><stop offset="0" stop-color="#8cdd79"/><stop offset="1" stop-color="#d4e6b6"/></linearGradient><linearGradient id="linear-gradient-5" x1="93.99" y1="126.99" x2="93.99" y2="108.98" xlink:href="#linear-gradient-4"/><linearGradient id="linear-gradient-6" x1="78" y1="126.99" x2="78" y2="108.99" xlink:href="#linear-gradient-4"/></defs><title>Olive Oil</title><g id="Olive_Oil" data-name="Olive Oil"><path class="cls-1" d="M77.21,68.69A18,18,0,1,0,62,37.6V2.92A1.92,1.92,0,0,0,60.07,1H29.93A1.93,1.93,0,0,0,28.06,3.4c.26,1,.29.82,7.94,5.59V56.93a38,38,0,0,0-16.74,60.91c4.59,5.35,11,9,11.66,9.1.2.1-1.68,0,34.06,0A38,38,0,0,0,77.21,68.69ZM63,51A11,11,0,1,1,74,62,11,11,0,0,1,63,51Z"/><path class="cls-2" d="M74.72,72S64,76,48,72s-26.72,0-26.72,0a33.9,33.9,0,0,0-7,25.75h0a33.72,33.72,0,0,0,16.36,24.51c1.79,1-2.12.73,33.32.73A34,34,0,0,0,74.72,72Z"/><path class="cls-3" d="M65.31,122.26c-1.8,1,2.12.73-33.32.73A33.79,33.79,0,0,1,14,93.84,33.76,33.76,0,0,0,31.66,119c35.34,0,31.43.59,34.63-1.55a28.52,28.52,0,0,0,2.53-1.81c9.1-7.19,13.48-18.6,12.83-27.45A33.82,33.82,0,0,1,65.31,122.26Z"/><path class="cls-4" d="M118,90v2a18,18,0,0,1-18,18H98.11a8.7,8.7,0,0,0-3.08-.94,9,9,0,0,0-.91-9.55A18,18,0,0,1,110,90Z"/><path class="cls-5" d="M118,90v2a18,18,0,0,1-18,18H98.11a8.7,8.7,0,0,0-3.08-.94,8.94,8.94,0,0,0,.89-2.85,8.18,8.18,0,0,1,2.19.79H100a18,18,0,0,0,18-17Z"/><path class="cls-6" d="M87,114A9,9,0,1,1,94.12,99.5,9,9,0,0,1,87,114Z"/><path class="cls-7" d="M87,114a9,9,0,0,1-8.78-11c2.11,9.3,15.45,9.31,17.56,0A9,9,0,0,1,87,114Z"/><path class="cls-8" d="M94,127a9,9,0,1,1,4.11-17C106.49,114.3,103.4,127,94,127Z"/><path class="cls-7" d="M94,127a9,9,0,0,1-8.78-11c2.11,9.3,15.45,9.31,17.56,0A9,9,0,0,1,94,127Z"/><circle class="cls-9" cx="78" cy="117.99" r="9"/><path class="cls-7" d="M78,127a9,9,0,0,1-8.78-11c2.11,9.3,15.45,9.31,17.56,0A9,9,0,0,1,78,127Z"/><path class="cls-10" d="M74,63A12,12,0,1,0,62,51,12,12,0,0,0,74,63Zm0-22A10,10,0,1,1,64,51,10,10,0,0,1,74,41Z"/><path class="cls-10" d="M118,89h-8a19,19,0,0,0-16,8.83A9.94,9.94,0,0,0,87,95h-.06c0-.65.06-1.31.06-2a39,39,0,0,0-8-23.67A18.9,18.9,0,0,0,92.92,49.18,19.21,19.21,0,0,0,75.74,32.07,18.87,18.87,0,0,0,63,35.53V2.93A2.93,2.93,0,0,0,60.07,0H29.93a2.93,2.93,0,0,0-1.55,5.42L35,9.55V56.23a39,39,0,0,0-4.43,71.66A1,1,0,0,0,31,128H65a1,1,0,0,0,.45-.11,38.68,38.68,0,0,0,5.2-3.15A10,10,0,0,0,86,124a10,10,0,1,0,15.08-13A19,19,0,0,0,119,92V90A1,1,0,0,0,118,89ZM95,105a8,8,0,0,1-.6,3l-.4,0a10,10,0,0,0-8,4,10,10,0,0,0-6.34-3.88A7.91,7.91,0,0,1,79,105a8,8,0,0,1,16,0ZM68,118a9.23,9.23,0,0,0,.08,1.18A34.5,34.5,0,0,1,63.76,122H32.24A32.94,32.94,0,0,1,15,93a32.6,32.6,0,0,1,6.88-20.15c1.7-.55,11.73-3.42,25.88.12,14,3.5,23.92,1,26.6.2A32.57,32.57,0,0,1,81,93a33,33,0,0,1-.28,4.23A9.93,9.93,0,0,0,77.48,108,10,10,0,0,0,68,118Zm-3.26,8H31.26a37,37,0,0,1,5.06-68.11,1,1,0,0,0,.68-1V9a1,1,0,0,0-.47-.85L29.44,3.72A.91.91,0,0,1,29,2.93.92.92,0,0,1,29.93,2H60.07a.92.92,0,0,1,.93.93V37.61a1,1,0,0,0,1.67.74,16.89,16.89,0,0,1,12.89-4.28A17.17,17.17,0,0,1,90.92,49.36,16.91,16.91,0,0,1,77,67.72a1,1,0,0,0-.76.64,1,1,0,0,0,.17,1A37,37,0,0,1,85,93c0,.77,0,1.5-.08,2.22a10.27,10.27,0,0,0-2,.68C83,94.94,83,94,83,93a34.53,34.53,0,0,0-7.5-21.62,1,1,0,0,0-1.13-.32c-.1,0-10.65,3.84-26.13,0-16.11-4-26.86-.13-27.31,0a1.06,1.06,0,0,0-.43.32A34.53,34.53,0,0,0,13,93a34.93,34.93,0,0,0,18.52,30.88A1,1,0,0,0,32,124H64a1,1,0,0,0,.47-.12,36.23,36.23,0,0,0,4.1-2.56,9.78,9.78,0,0,0,.86,1.82A36.81,36.81,0,0,1,64.74,126ZM78,126a8,8,0,1,1,8-8A8,8,0,0,1,78,126Zm16,0a8,8,0,0,1-6.87-3.94,9.91,9.91,0,0,0,0-8.12A8,8,0,1,1,94,126Zm23-34a17,17,0,0,1-17,17H98.33a10.24,10.24,0,0,0-1.9-.69,9.94,9.94,0,0,0-1.12-8.86A17,17,0,0,1,110,91h7Z"/></g></svg>