<svg xmlns="http://www.w3.org/2000/svg" xmlns:xlink="http://www.w3.org/1999/xlink" viewBox="0 0 128 128"><defs><style>.cls-1{fill:url(#linear-gradient);}.cls-2{fill:#c7cdd8;}.cls-3{fill:url(#linear-gradient-2);}.cls-4{fill:url(#linear-gradient-3);}.cls-5{fill:#7ece67;}.cls-6{fill:url(#linear-gradient-4);}.cls-7{fill:#47566a;}</style><linearGradient id="linear-gradient" x1="64" y1="127" x2="64" y2="116" gradientUnits="userSpaceOnUse"><stop offset="0" stop-color="#d4d8e1"/><stop offset="1" stop-color="#f3f4f5"/></linearGradient><linearGradient id="linear-gradient-2" y1="117" y2="77" xlink:href="#linear-gradient"/><linearGradient id="linear-gradient-3" x1="87.3" y1="59.26" x2="87.3" y2="1" gradientUnits="userSpaceOnUse"><stop offset="0" stop-color="#8cdd79"/><stop offset="1" stop-color="#d4e6b6"/></linearGradient><linearGradient id="linear-gradient-4" x1="39.98" y1="54.02" x2="39.98" y2="17.45" xlink:href="#linear-gradient-3"/></defs><title>Organic Food</title><g id="Organic_Food" data-name="Organic Food"><polyline class="cls-1" points="86 116 86 127 42 127 42 116"/><polyline class="cls-2" points="86 123 86 127 42 127 42 123"/><path class="cls-3" d="M13,77H115a0,0,0,0,1,0,0v3a37,37,0,0,1-37,37H50A37,37,0,0,1,13,80V77A0,0,0,0,1,13,77Z"/><path class="cls-2" d="M114.47,86.22A37,37,0,0,1,78,117H50A37,37,0,0,1,13.53,86.22,37.39,37.39,0,0,0,49.38,113H78.62A37.39,37.39,0,0,0,114.47,86.22Z"/><path class="cls-4" d="M96.91,1c7.54,6.77,13,19,7.54,34.55-8.37,23.76-33,13.55-36.39,23.71,0-13.55-2-24.39,9-34.55C86.24,16.17,92.1,13.19,96.91,1Z"/><path class="cls-5" d="M104.45,35.55c-8.37,23.76-33,13.55-36.39,23.71,0-4.38-.21-8.47-.13-12.35,0,2.67.13,5.45.13,8.35,3.43-10.16,28,.05,36.39-23.71a38.07,38.07,0,0,0,2.17-10.32A36.4,36.4,0,0,1,104.45,35.55Z"/><path class="cls-6" d="M21.32,18.89c11.59-3,22.5-1.33,28.42,4.57,11.89,11.85,8.89,24,7.55,30.56-14.84-.34-24-5.07-26-16.14C29.65,29.14,29.22,25.08,21.32,18.89Z"/><path class="cls-5" d="M57.29,54c-14.84-.34-24-5.07-26-16.14-1.62-8.74-2.05-12.8-9.95-19a5.71,5.71,0,0,1,6.28,2.56c2.13,3.43,2.67,7,3.67,12.43C33.33,45,42.45,49.68,57.29,50a57.07,57.07,0,0,0,1.28-8.24A44.2,44.2,0,0,1,57.29,54Z"/><path class="cls-7" d="M115,76H65.4a62.77,62.77,0,0,1,3.36-16,1,1,0,0,0,.25-.38c1.17-3.46,5.48-4.23,10.93-5.2,8.53-1.52,20.21-3.59,25.46-18.5C110.19,22.27,107.27,9,97.57.26A1,1,0,0,0,96.68,0a1,1,0,0,0-.7.6c-3.72,9.44-8.15,13.28-14.29,18.59-1.69,1.46-3.43,3-5.36,4.76C66.54,33,66.75,42.66,67,53.8c0,1.62.06,3.28.07,5a60.44,60.44,0,0,0-3.2,13,74.1,74.1,0,0,0-5.52-17.88l.07-.33c1.37-6.63,3.92-19-8-30.8-6.08-6.06-17.33-7.91-29.37-4.82a1,1,0,0,0-.36,1.75C28,25.36,28.62,29,30.08,36.93l.21,1.13C32.31,49,41,54.49,56.65,55a72.67,72.67,0,0,1,5.81,21H13a1,1,0,0,0-1,1v3a38.08,38.08,0,0,0,29,36.93V127a1,1,0,0,0,1,1H86a1,1,0,0,0,1-1V116.91A38.08,38.08,0,0,0,116,80V77A1,1,0,0,0,115,76ZM77.69,25.44c1.9-1.76,3.63-3.26,5.31-4.71,6-5.24,10.5-9.09,14.28-18,4.07,4.11,12.34,15.14,6.23,32.48C98.65,49,88.08,50.9,79.59,52.41c-3.25.58-6.26,1.12-8.55,2.26,3.66-7.23,8.46-11.94,13.14-16.52C90.05,32.42,95.59,27,97.5,17.46a1,1,0,0,0-2-.4C93.75,26,88.67,31,82.78,36.72,78.09,41.31,72.87,46.43,69,54.29c0-.18,0-.36,0-.53C68.75,42.66,68.56,33.89,77.69,25.44ZM32.26,37.7l-.21-1.13c-1.36-7.38-2.15-11.67-8.53-17.16,10.6-2.25,20.25-.48,25.51,4.76,9.95,9.9,9.14,19.91,7.87,26.71-7.11-14-16.27-21.22-16.68-21.54A1,1,0,0,0,39,30.92,67.91,67.91,0,0,1,55.7,53C41.54,52.3,34.06,47.44,32.26,37.7ZM85,126H43v-8.66a37.8,37.8,0,0,0,7,.66H78a37.8,37.8,0,0,0,7-.66Zm29-46A36.08,36.08,0,0,1,86.21,115a1.55,1.55,0,0,0-.21,0,1,1,0,0,0-.62.23A36.07,36.07,0,0,1,78,116H50a36.07,36.07,0,0,1-7.4-.77A1,1,0,0,0,42,115a1.55,1.55,0,0,0-.21,0A36.08,36.08,0,0,1,14,80V78H114Z"/></g></svg>