<svg xmlns="http://www.w3.org/2000/svg" xmlns:xlink="http://www.w3.org/1999/xlink" viewBox="0 0 128 128"><defs><style>.cls-1{fill:url(#linear-gradient);}.cls-2{fill:#cba07a;}.cls-3{fill:url(#linear-gradient-2);}.cls-4{fill:#dd4e6a;}.cls-5{fill:#47566a;}</style><linearGradient id="linear-gradient" x1="57.99" y1="127" x2="57.99" y2="1" gradientUnits="userSpaceOnUse"><stop offset="0" stop-color="#d1a788"/><stop offset="1" stop-color="#f2d3b8"/></linearGradient><linearGradient id="linear-gradient-2" x1="96.99" y1="127" x2="96.99" y2="67" gradientUnits="userSpaceOnUse"><stop offset="0" stop-color="#da5466"/><stop offset="1" stop-color="#e87092"/></linearGradient></defs><title>Peanut Free</title><g id="Peanut_Free" data-name="Peanut Free"><path class="cls-1" d="M114.93,34.27c-.7,20.14-11.71,27.1-21.6,33L67.06,99c-5.73,13.54-9.67,22.76-24.56,26.83C21.92,131.44,1.22,116.5,1,95.16,1,64.32,16.92,67.75,32.25,52.42,47.37,37.3,54,22.54,62.5,15.12,78.63,1,94.76,5,103.84,1,103.84,1,115.94,5,114.93,34.27Z"/><path class="cls-2" d="M114.93,34.27c-.7,20.14-11.71,27.1-21.6,33L67.06,99c-5.73,13.54-9.67,22.76-24.56,26.83C21.92,131.44,1.22,116.5,1,95.16c0-1.34,0-2.53.09-4,1.4,20.36,21.58,34.12,41.42,28.69,15-4.11,19-13.63,24.56-26.83L93.33,61.23c9.89-5.86,20.9-12.82,21.6-33A50,50,0,0,1,114.93,34.27Z"/><path class="cls-3" d="M97,67a30,30,0,1,0,30,30A30,30,0,0,0,97,67ZM75,97c0-17.89,20.12-28,34.48-18.13L78.86,109.48A21.91,21.91,0,0,1,75,97Zm22,22a21.91,21.91,0,0,1-12.48-3.87l30.61-30.61C125,98.83,114.92,119,97,119Z"/><path class="cls-4" d="M127,95.54a30,30,0,0,1-59.92,0C66,112.13,79.54,127,97,127S128,112.17,127,95.54Z"/><path class="cls-5" d="M97.3,66c8.71-5.42,18-13.07,18.64-31.71C117,4.61,104.69.22,104.16.05a1,1,0,0,0-.72,0c-2.85,1.26-6.5,1.7-10.72,2.21C83.89,3.37,72.9,4.69,61.85,14.37c-4,3.5-7.59,8.57-11.73,14.43-4.91,7-10.48,14.83-18.57,22.91a70,70,0,0,1-13.33,10C8.44,67.83,0,73.1,0,94.77v.4a32.8,32.8,0,0,0,12.38,25.35A34.24,34.24,0,0,0,33.75,128a33.85,33.85,0,0,0,9-1.21c5.74-1.56,10.24-4,13.39-7.1,5.44-5.44,8-11,10.39-16.86A31,31,0,1,0,97.3,66Zm-32.12,34.9c-2.64,6.35-4.92,11.84-10.44,17.34-2.9,2.9-7.1,5.12-12.49,6.6A32.31,32.31,0,0,1,13.63,119,30.81,30.81,0,0,1,2,95.16v-.39C2,74.21,9.62,69.45,19.28,63.42c2.6-1.63,5.42-3.39,8.29-5.59a10.76,10.76,0,0,0,6.06,6.1A1,1,0,0,0,34,64a1,1,0,0,0,.37-1.93,8.8,8.8,0,0,1-5.15-5.55c1.25-1,2.5-2.15,3.75-3.39C41.17,44.92,46.79,37,51.75,30c4.07-5.77,7.59-10.74,11.42-14.09C73.75,6.61,84.4,5.32,93,4.29c4.19-.51,7.84-1,10.88-2.2,1.84.92,11,6.8,10.1,32.15-.69,19.91-11.87,26.65-20.94,32A31,31,0,0,0,66,97c0,.61,0,1.21.06,1.81ZM97,126a29,29,0,1,1,29-29A29,29,0,0,1,97,126Z"/><path class="cls-5" d="M110.48,78.78a1,1,0,0,0-.43-.73,23,23,0,0,0-32,32,1,1,0,0,0,.73.43h.09a1,1,0,0,0,.71-.29l30.61-30.61A1,1,0,0,0,110.48,78.78ZM79,107.9A21,21,0,0,1,107.9,79Z"/><path class="cls-5" d="M116,84a1,1,0,0,0-.73-.43,1,1,0,0,0-.8.29L83.81,114.42A1,1,0,0,0,84,116a23,23,0,0,0,32-32ZM97,118a20.93,20.93,0,0,1-10.9-3L115,86.1A21,21,0,0,1,97,118Z"/><path class="cls-5" d="M29.46,73.89c4.54-2.38,8.24-4.13,11.21-5.53,10.9-5.14,13.83-6.52,20.24-21A142.59,142.59,0,0,1,69,31.61c3.12-.43,10.46-.75,13.3,2.1a1,1,0,0,0,1.42,0,1,1,0,0,0,0-1.42c-3.2-3.2-9.93-3.12-13.37-2.83C76,20.67,83.24,13.26,92.14,12a1,1,0,1,0-.28-2C78.18,12,68.5,27,61.93,40.48A14.36,14.36,0,0,0,52,37a1,1,0,0,0,0,2c5.51,0,8.29,2.59,9,3.38-.67,1.44-1.32,2.85-1.92,4.21-6.12,13.76-8.38,14.83-19.27,20-3,1.41-6.71,3.17-11.28,5.56A27.72,27.72,0,0,0,16.15,85.18C12,84.66,10,78.74,10,78.68a1,1,0,1,0-1.9.64c.1.3,2.33,6.68,7.27,7.74-4,10-3.24,21.41-2.39,27.41,0,.28.06.47.07.56a1,1,0,0,0,2,0c0-.09,0-.37-.09-.81C13.62,105,12.46,82.79,29.46,73.89Z"/><path class="cls-5" d="M76.59,60.84c3.14,3.15,4.18,4.23,4.51,4.6a1,1,0,0,0,.25.32,1.14,1.14,0,0,0,.73.26,1,1,0,0,0,.72-.3c.37-.39.55-.59-.16-1.48h0l0,0c-.63-.77-1.92-2.08-4.3-4.47A63.83,63.83,0,0,0,97,40.14a24.26,24.26,0,0,0,8.87,2.06A12,12,0,0,0,108.2,42a1,1,0,1,0-.4-2c-3.49.7-7.85-.83-9.76-1.62A55.47,55.47,0,0,0,104,23.22c2-9.16.08-12.43-.15-12.77a1,1,0,0,0-1.36-.28,1,1,0,0,0-.31,1.37s1.71,2.94-.14,11.24a53.42,53.42,0,0,1-6.28,15.61s0,0,0,0h0A62.91,62.91,0,0,1,83.74,53c-2.08-5.08-14-9.47-15.4-10a1,1,0,1,0-.68,1.88C72.87,46.8,81.37,51,82,54.2a2.34,2.34,0,0,0,.09.24,45.58,45.58,0,0,1-12.47,7.63c-9,3.45-9.31,3.76-12.35,11.06-1.1,2.66-2.68,6.46-5.37,11.87C42,84.94,40.06,75.23,40,74.82a1,1,0,0,0-2,.36c0,.11,2.14,11.1,12.9,11.79l-.81,1.57A65.8,65.8,0,0,1,37.37,106c-9-.29-12.28-9.93-12.42-10.35a1,1,0,1,0-1.9.62c0,.11,3.34,10,12.32,11.54-6,5.08-10.5,6.16-10.58,6.17a1,1,0,0,0,.21,2l.21,0c.54-.12,12.25-2.83,23.48-20.91C53.57,97,60.68,97,61,97a1,1,0,0,0,0-2c-.07,0-6.73,0-11.26-1.67q1.08-1.83,2.15-3.87C55.76,82,57.8,77.14,59.14,73.9c2.79-6.73,2.79-6.73,11.22-10A39.12,39.12,0,0,0,76.59,60.84Z"/></g></svg>