<svg xmlns="http://www.w3.org/2000/svg" xmlns:xlink="http://www.w3.org/1999/xlink" viewBox="0 0 128 128"><defs><style>.cls-1{fill:url(#linear-gradient);}.cls-2{fill:#5b8dc9;}.cls-3{fill:url(#linear-gradient-2);}.cls-4{fill:url(#linear-gradient-3);}.cls-5{fill:#77cacb;}.cls-6{fill:url(#linear-gradient-4);}.cls-7{fill:url(#linear-gradient-5);}.cls-8{fill:url(#linear-gradient-6);}.cls-9{fill:url(#linear-gradient-7);}.cls-10{fill:#47566a;}</style><linearGradient id="linear-gradient" x1="33.47" y1="127.02" x2="33.47" y2="101.79" gradientUnits="userSpaceOnUse"><stop offset="0" stop-color="#7aa8d7"/><stop offset="1" stop-color="#96c8ea"/></linearGradient><linearGradient id="linear-gradient-2" x1="94.53" y1="26.23" x2="94.53" y2="1" xlink:href="#linear-gradient"/><linearGradient id="linear-gradient-3" x1="43.77" y1="113.57" x2="43.77" y2="81.63" gradientUnits="userSpaceOnUse"><stop offset="0" stop-color="#9dd5df"/><stop offset="1" stop-color="#c3e1f5"/></linearGradient><linearGradient id="linear-gradient-4" x1="53.89" y1="93.42" x2="53.89" y2="68.11" xlink:href="#linear-gradient"/><linearGradient id="linear-gradient-5" x1="64.02" y1="79.97" x2="64.02" y2="48.04" xlink:href="#linear-gradient-3"/><linearGradient id="linear-gradient-6" x1="74.14" y1="59.8" x2="74.14" y2="34.59" xlink:href="#linear-gradient"/><linearGradient id="linear-gradient-7" x1="84.27" y1="46.37" x2="84.27" y2="14.47" xlink:href="#linear-gradient-3"/></defs><title>Protein</title><g id="Protein"><path class="cls-1" d="M66.07,112.17c-.15.49.38-.46-7.69,12.92-5.2,9-51.88-16.75-57.51-8L8.92,103.7C14.2,94.94,59.12,119.53,66.07,112.17Z"/><path class="cls-2" d="M66.07,112.17c-.15.49.38-.46-7.69,12.92-5.2,9-51.88-16.75-57.51-8l2.8-4.65C15,110.14,51.74,129.2,58,122.61c.33-.33-.1.33,5.66-9.23A4.51,4.51,0,0,0,66.07,112.17Z"/><path class="cls-3" d="M127.13,11.38c-.15.5.38-.46-7.69,12.92-5.2,9-51.88-16.75-57.51-8L70,2.91C75.26-5.85,120.18,18.74,127.13,11.38Z"/><path class="cls-2" d="M127.13,11.38c-.15.49.38-.46-7.69,12.92-5.2,9-51.88-16.75-57.51-8l2.8-4.65C76.1,9.35,112.8,28.41,119,21.82c.34-.34-.1.34,5.66-9.23A4.51,4.51,0,0,0,127.13,11.38Z"/><path class="cls-4" d="M66.07,112.17c-2.53,2.68-10.08,1.13-18.93-1.51-11.46-10.15-27.56-21.8-25.68-27.61,0,0,0,0,0,0,2.53-2.7,10.1-1.14,19,1.5C51.91,94.71,68,106.36,66.07,112.17Z"/><path class="cls-5" d="M66.07,112.17c-2.53,2.68-10.08,1.13-18.93-1.51-11.46-10.15-27.56-21.8-25.68-27.61l.22-.2c2.38,6.29,15.63,16.1,25.46,24.81,8.63,2.57,16,4.11,18.73,1.69A4.18,4.18,0,0,1,66.07,112.17Z"/><path class="cls-6" d="M86.32,78.57c-.14.48-7.63,12.82-7.69,12.92C73.52,100.32,28.4,75.64,21.47,83c.17-.54,7.72-13.07,8.12-13.47,2.54-5.08,27.66,4.46,37.8,7.49C76.24,79.7,83.79,81.25,86.32,78.57Z"/><path class="cls-2" d="M86.32,78.57c-.14.48-7.63,12.82-7.69,12.92C73.52,100.32,28.4,75.64,21.47,83c.15-.48.14-.43,2.45-4.21,11.56-2.36,50,17.73,54.71,9.66l5.24-8.71A4.51,4.51,0,0,0,86.32,78.57Z"/><path class="cls-7" d="M86.32,78.57c-2.53,2.68-10.08,1.13-18.93-1.51C55.92,66.91,39.83,55.27,41.71,49.45a0,0,0,0,1,0,0c2.53-2.69,10.1-1.13,19,1.51C72.16,61.11,88.26,72.77,86.32,78.57Z"/><path class="cls-5" d="M86.32,78.57c-2.53,2.68-10.08,1.13-18.93-1.51C55.92,66.91,39.83,55.27,41.71,49.45a2.93,2.93,0,0,1,.22-.2c2.36,6.29,15.61,16.1,25.46,24.81,8.62,2.57,16,4.11,18.72,1.7A4.1,4.1,0,0,1,86.32,78.57Z"/><path class="cls-8" d="M106.57,45c-.14.46.37-.44-7.69,12.92-5.51,8.73-50.21-15.85-57.16-8.46.33-1,8.12-13.38,8.12-13.48C56.76,28.85,99.76,52.17,106.57,45Z"/><path class="cls-2" d="M106.57,45c-.14.46.37-.44-7.69,12.92-5.51,8.73-50.21-15.85-57.16-8.46.16-.47,0-.25,2.45-4.21,11.6-2.34,49.67,17.66,54.71,9.67l5.25-8.72A4.51,4.51,0,0,0,106.57,45Z"/><path class="cls-9" d="M106.57,45c-2.53,2.67-10.08,1.13-18.93-1.51C76.17,33.32,60.08,21.67,62,15.86c3.29-3.29,14.3.1,19,1.49C92.41,27.51,108.51,39.17,106.57,45Z"/><path class="cls-5" d="M106.57,45c-2.53,2.67-10.08,1.13-18.93-1.51C76.17,33.32,60.08,21.67,62,15.86a1.37,1.37,0,0,1,.22-.2C64.55,22,77.8,31.76,87.64,40.47c8.62,2.57,16,4.1,18.72,1.7A4.1,4.1,0,0,1,106.57,45Z"/><path class="cls-10" d="M127.69,10.66a1,1,0,0,0-1.42,0c-2.63,2.77-13.73-.54-17.92-1.79C105.33,8,102.1,7,99,6c-13-4.22-25.29-8.2-29.3-4.38l0,0a.5.5,0,0,0-.08.07l-.06.05A4.31,4.31,0,0,0,69,2.4L61.56,14.72a3.62,3.62,0,0,0-.33.72l-.06.16c-1.62,5.26,7.73,13.14,18.57,22.27l3.82,3.23-4.84-1.56c-13-4.21-25.25-8.18-29.27-4.39l0,0-.11.09-.05.06a3.83,3.83,0,0,0-.52.68L41.32,48.32A3.16,3.16,0,0,0,41,49a.32.32,0,0,0,0,.09s0,0,0,0a0,0,0,0,1,0,0c-1.62,5.26,7.74,13.14,18.57,22.26l3.83,3.24c-1.62-.51-3.25-1-4.85-1.56-13-4.21-25.25-8.18-29.27-4.39l0,0s-.08,0-.11.09l0,0a3.83,3.83,0,0,0-.52.68L21.07,81.91a3.94,3.94,0,0,0-.34.72.49.49,0,0,0,0,.11,0,0,0,0,1,0,0v0c-1.62,5.26,7.74,13.14,18.57,22.26,1.27,1.07,2.56,2.15,3.83,3.24l-4.89-1.57c-14.39-4.67-26.83-8.7-29.94-3.54L.14,116.63a1,1,0,0,0,1.72,1c2.29-3.8,15.74.56,27.62,4.41,9.31,3,18.26,5.91,24.05,5.91,2.37,0,4.22-.49,5.33-1.66a3.65,3.65,0,0,0,.56-.72l7.42-12.32a3.86,3.86,0,0,0,.35-.75h0s0,0,0,0c1.76-5.27-7.65-13.2-18.55-22.37l-3.79-3.21,4.87,1.56c9.31,3,18.26,5.92,24,5.92,2.38,0,4.22-.49,5.34-1.67a3.89,3.89,0,0,0,.56-.71l7.42-12.32a3.94,3.94,0,0,0,.35-.76h0v0C89.21,73.62,79.8,65.7,68.9,56.52l-3.8-3.21L70,54.88c9.31,3,18.26,5.91,24,5.91,2.38,0,4.22-.49,5.34-1.66a3.65,3.65,0,0,0,.56-.72l7.42-12.32a3.68,3.68,0,0,0,.35-.76h0v0c1.76-5.27-7.65-13.2-18.55-22.37-1.26-1.06-2.54-2.14-3.8-3.22l4.88,1.57c9.31,3,18.25,5.92,24,5.92,2.38,0,4.22-.49,5.33-1.67a3.51,3.51,0,0,0,.56-.71l7.43-12.32a1,1,0,0,0,.13-.42h0A1,1,0,0,0,127.69,10.66Zm-70,113.91a2.86,2.86,0,0,1-.28.35c-3,3.14-15.92-1.06-27.34-4.76-11-3.56-20.85-6.75-26.28-5.75L10,104.22c2.29-3.8,15.74.56,27.61,4.41,3.15,1,6.41,2.08,9.47,3,8.24,2.46,13.53,3.35,16.81,2.76Zm7.65-13c-2.83,2.48-13.3-.58-17.54-1.85-2.32-2-4.84-4.17-7.29-6.23-8.84-7.45-18.83-15.87-18-19.94,2.82-2.49,13.32.58,17.57,1.85,2.3,2,4.82,4.16,7.26,6.21C56.2,99.09,66.18,107.5,65.36,111.61ZM78,91a1.68,1.68,0,0,1-.27.34c-3,3.14-15.92-1-27.34-4.75-3.14-1-6.4-2.07-9.45-3-8.25-2.47-13.55-3.36-16.83-2.77L30.2,70.63a2,2,0,0,1,.28-.36l.05,0c3.08-3,16,1.14,27.32,4.82,3.14,1,6.39,2.07,9.43,3,8.24,2.46,13.54,3.36,16.82,2.77Zm7.66-13c-2.83,2.48-13.3-.59-17.54-1.85-2.32-2-4.84-4.18-7.29-6.24C51.94,62.49,42,54.07,42.79,50c2.82-2.49,13.31.59,17.56,1.85,2.31,2,4.83,4.16,7.26,6.21C76.45,65.49,86.43,73.9,85.61,78ZM98.2,57.38a2.06,2.06,0,0,1-.27.35C95,60.87,82,56.67,70.59,53c-3.13-1-6.38-2.07-9.42-3h0c-8.24-2.46-13.54-3.36-16.82-2.77L50.45,37a1.93,1.93,0,0,1,.28-.36l.05-.05c3.08-3,16,1.14,27.33,4.83,3.13,1,6.38,2.07,9.42,3,8.24,2.45,13.54,3.35,16.81,2.76Zm7.66-13c-2.83,2.48-13.3-.58-17.55-1.85-2.31-2-4.84-4.17-7.29-6.23C72.19,28.89,62.2,20.48,63,16.4c2.81-2.49,13.31.58,17.56,1.85,2.31,2,4.83,4.15,7.26,6.21C96.7,31.9,106.68,40.3,105.86,44.42Zm12.59-20.64a1.48,1.48,0,0,1-.28.35c-3,3.14-15.91-1.05-27.33-4.75-3.15-1-6.4-2.07-9.46-3C73.14,13.93,67.84,13,64.56,13.63L70.7,3.43A2.33,2.33,0,0,1,71,3.07l0,0c3.09-3,16,1.15,27.33,4.83,3.13,1,6.38,2.07,9.42,3,8.24,2.46,13.53,3.36,16.81,2.76Z"/></g></svg>