<svg xmlns="http://www.w3.org/2000/svg" xmlns:xlink="http://www.w3.org/1999/xlink" viewBox="0 0 128 128"><defs><style>.cls-1{fill:url(#linear-gradient);}.cls-2{fill:#7ece67;}.cls-3{fill:url(#linear-gradient-2);}.cls-4{fill:#4da67f;}.cls-5{fill:url(#linear-gradient-3);}.cls-6{fill:#8288a1;}.cls-7{fill:url(#linear-gradient-4);}.cls-8{fill:#77cacb;}.cls-9{fill:url(#linear-gradient-5);}.cls-10{fill:#8a6762;}.cls-11{fill:#47566a;}</style><linearGradient id="linear-gradient" x1="79.02" y1="111" x2="79.02" y2="24.31" gradientUnits="userSpaceOnUse"><stop offset="0" stop-color="#8cdd79"/><stop offset="1" stop-color="#d4e6b6"/></linearGradient><linearGradient id="linear-gradient-2" x1="95.5" y1="28" x2="95.5" y2="5" gradientUnits="userSpaceOnUse"><stop offset="0" stop-color="#6ab891"/><stop offset="1" stop-color="#85cba9"/></linearGradient><linearGradient id="linear-gradient-3" x1="52" y1="104" x2="52" y2="48" gradientUnits="userSpaceOnUse"><stop offset="0" stop-color="#949aaf"/><stop offset="1" stop-color="#c6ccda"/></linearGradient><linearGradient id="linear-gradient-4" x1="52" y1="98" x2="52" y2="54" gradientUnits="userSpaceOnUse"><stop offset="0" stop-color="#9dd5df"/><stop offset="1" stop-color="#c3e1f5"/></linearGradient><linearGradient id="linear-gradient-5" x1="16.25" y1="127" x2="16.25" y2="96.5" gradientUnits="userSpaceOnUse"><stop offset="0" stop-color="#9b756d"/><stop offset="1" stop-color="#bc9388"/></linearGradient></defs><title>Reseach</title><g id="Reseach"><path class="cls-1" d="M127,57.51c.76,22.7-19.61,53.49-34.7,53.49-9.84,0-8.37-1.67-13.25-1.67S75.59,111,65.79,111C50.44,111,31,80.35,31,59.33c0-17.58,7.19-35,24.82-35C66.93,24.33,74.87,28,79,28c5.17-.26,12.26-3.65,22.59-3.65,16.9-.89,24.92,15.89,25.38,33.11Z"/><path class="cls-2" d="M92.27,111c-9.84,0-8.37-1.67-13.25-1.67S75.59,111,65.79,111c-14.56,0-36.33-30.57-34.68-55.38C32.37,76.5,51.1,105,65.76,105c9.81,0,8.38-1.67,13.26-1.67S82.32,105,92.24,105c15.79,0,33.53-30.16,34.68-49.38C128.55,80,107.11,111,92.27,111Z"/><path class="cls-3" d="M79,28H89A23,23,0,0,0,112,5H102A23,23,0,0,0,79,28Z"/><path class="cls-4" d="M112,5A23,23,0,0,1,89,28H79a22.79,22.79,0,0,1,.2-3H89A23,23,0,0,0,111.8,5Z"/><circle class="cls-5" cx="52" cy="76" r="28"/><path class="cls-6" d="M52,104A28,28,0,0,1,24,74.5,28,28,0,0,0,80,74.5,28,28,0,0,1,52,104Z"/><path class="cls-2" d="M55.16,106.82a35.88,35.88,0,0,1-3.4-2.83H52A28,28,0,0,0,80,77.5,28,28,0,0,1,55.16,106.82Z"/><circle class="cls-7" cx="52" cy="76" r="22"/><path class="cls-8" d="M73.91,78a22,22,0,0,0-43.82,0,22,22,0,1,1,43.82,0Z"/><rect class="cls-6" x="27.11" y="95.02" width="6.08" height="5.66" transform="translate(-60.36 49.98) rotate(-45)"/><path class="cls-9" d="M6,127a5,5,0,0,1-3.5-8.45l22.05-22,7,7-22,22A4.92,4.92,0,0,1,6,127Z"/><path class="cls-10" d="M31.5,103.5l-22,22a5,5,0,0,1-8.22-5,5,5,0,0,0,8.22,2L30,102Z"/><path class="cls-11" d="M104.35,23.43A24,24,0,0,0,113,5a1,1,0,0,0-1-1H102A24,24,0,0,0,80,18.42V14.33A14.3,14.3,0,0,0,65.76,0a1,1,0,0,0,0,2A12.3,12.3,0,0,1,78,14.33V26.9a45.42,45.42,0,0,1-5.42-1.14,64,64,0,0,0-16.75-2.43c-15,0-25.13,13.24-25.79,33.76A28.92,28.92,0,0,0,29,93.61l-3,3-.79-.8a1,1,0,0,0-1.42,0l-22,22a6,6,0,0,0,8.42,8.42l22.05-22.05a1,1,0,0,0,0-1.42l-.8-.79,3-3a28.82,28.82,0,0,0,17,6c5,4.59,10,7,14.4,7,6,0,7.92-.61,9.48-1.09a12.48,12.48,0,0,1,7.52,0c1.57.48,3.51,1.09,9.48,1.09C107.61,112,128,82,128,59.33,128,38.49,118.79,24.69,104.35,23.43ZM102,6h9A22,22,0,0,1,89,27H81.62c3.67-3.83,13.32-13,21.55-13a1,1,0,0,0,0-2c-9.09,0-19.19,9.6-23,13.62A22,22,0,0,1,102,6ZM52,49a27,27,0,0,1,0,54h-.29A27,27,0,0,1,52,49ZM8.74,124.84A3.9,3.9,0,0,1,6,126a4,4,0,0,1-3.95-4,3.9,3.9,0,0,1,1.16-2.79L24.5,97.91l.79.8,4,4,.8.79ZM30,100.59,27.41,98l2.85-2.84a28.56,28.56,0,0,0,2.58,2.58ZM92.24,110c-5.66,0-7.45-.56-8.88-1a14.49,14.49,0,0,0-8.71,0c-1.44.44-3.22,1-8.89,1-3.45,0-7.37-1.76-11.45-5.1a29,29,0,1,0-22.15-50c1.23-18.3,10.15-29.55,23.67-29.55A62,62,0,0,1,72.09,27.7,34.51,34.51,0,0,0,78.91,29H89a23.9,23.9,0,0,0,12.72-3.66h.41c14.52,0,23.87,13.33,23.87,34C126,80.64,106.44,110,92.24,110Z"/><path class="cls-11" d="M102.17,33.33a1,1,0,0,0,0,2c10.25,0,13.9,12.4,13.9,24a1,1,0,0,0,2,0C118.07,46.76,113.89,33.33,102.17,33.33Z"/><path class="cls-11" d="M52,99A23,23,0,1,0,29,76,23,23,0,0,0,52,99Zm0-44A21,21,0,1,1,31,76,21,21,0,0,1,52,55Z"/></g></svg>