<svg xmlns="http://www.w3.org/2000/svg" xmlns:xlink="http://www.w3.org/1999/xlink" viewBox="0 0 128 128"><defs><style>.cls-1{fill:url(#linear-gradient);}.cls-2{fill:#77cacb;}.cls-3{fill:url(#linear-gradient-2);}.cls-4{fill:#c7cdd8;}.cls-5{fill:url(#linear-gradient-3);}.cls-6{fill:#8288a1;}.cls-7{fill:url(#linear-gradient-4);}.cls-8{fill:#454b60;}.cls-9{fill:url(#linear-gradient-5);}.cls-10{fill:#dd4e6a;}.cls-11{fill:#47566a;}</style><linearGradient id="linear-gradient" x1="67.7" y1="98.58" x2="67.7" y2="1" gradientUnits="userSpaceOnUse"><stop offset="0" stop-color="#9dd5df"/><stop offset="1" stop-color="#c3e1f5"/></linearGradient><linearGradient id="linear-gradient-2" x1="62.29" y1="93.64" x2="62.29" y2="57" gradientUnits="userSpaceOnUse"><stop offset="0" stop-color="#d4d8e1"/><stop offset="1" stop-color="#f3f4f5"/></linearGradient><linearGradient id="linear-gradient-3" x1="30.92" y1="105.66" x2="30.92" y2="67.48" gradientTransform="translate(114 125.91) rotate(135)" gradientUnits="userSpaceOnUse"><stop offset="0" stop-color="#949aaf"/><stop offset="1" stop-color="#c6ccda"/></linearGradient><linearGradient id="linear-gradient-4" x1="23.63" y1="113.17" x2="23.63" y2="74.55" gradientTransform="translate(103.4 151.52) rotate(135)" xlink:href="#linear-gradient-3"/><linearGradient id="linear-gradient-5" x1="97.49" y1="127" x2="97.49" y2="67" gradientUnits="userSpaceOnUse"><stop offset="0" stop-color="#da5466"/><stop offset="1" stop-color="#e87092"/></linearGradient></defs><title>Salt Free</title><g id="Salt_Free" data-name="Salt Free"><path class="cls-1" d="M62.7,96.71a8,8,0,0,1-10.8-.48l-1.18-1.18-2.83,2.83L19.61,69.6l2.83-2.83-1.18-1.18a8,8,0,0,1-.48-10.8C66.37.43,63.75,3.54,64,3.24a7.67,7.67,0,0,1,10.84,0l39.37,39.37a7.66,7.66,0,0,1-.5,11.29Z"/><path class="cls-2" d="M114.25,53.45c-.36.36-31.95,26.82-51.55,43.26a8,8,0,0,1-10.8-.48l-1.18-1.18-2.83,2.83-2-2,4.83-4.83,1.18,1.18a8,8,0,0,0,10.8.48c22.66-19,15.24-12.77,51.05-42.81A7.47,7.47,0,0,0,116.22,46,7.63,7.63,0,0,1,114.25,53.45Z"/><path class="cls-3" d="M100.72,57h-74l-1.37,1.64a2,2,0,0,0,.12,2.7l5.42,5.43-7.07,7.07,19.8,19.8,7.07-7.07c5.7,5.68,5.74,6,6.84,6S55.81,94.65,100.72,57Z"/><path class="cls-4" d="M100.72,57c-45,37.75-42.08,35.58-43.16,35.58s-1-.14-6.84-6l-7.07,7.07-2.5-2.5,9.57-9.57L56.15,87a2,2,0,0,0,2.7.12L94.76,57Z"/><path class="cls-2" d="M110,49.21c-.1.1.44-.36-9.28,7.79h-74C70.93,4.31,68.3,7,69.46,7S68,4.8,110,46.85A1.67,1.67,0,0,1,110,49.21Z"/><rect class="cls-5" x="7.92" y="82.57" width="46" height="8" transform="translate(-8.42 169.65) rotate(-135)"/><path class="cls-6" d="M50,100l-5.65,5.66L11.83,73.13l2.5-2.5L41.21,97.5a4.44,4.44,0,0,0,6.3,0Z"/><path class="cls-7" d="M15.32,86.17h10a16,16,0,0,1,16,16v6a0,0,0,0,1,0,0h-42a0,0,0,0,1,0,0v-6A16,16,0,0,1,15.32,86.17Z" transform="translate(-34.03 180.25) rotate(-135)"/><path class="cls-6" d="M42.94,104.25l-4.24,4.24a16,16,0,0,1-22.63,0c-7-7-10.17-9.27-11.4-15,1.41,2.31,2.58,3.21,9.4,10a16,16,0,0,0,22.63,0l2.74-2.74Z"/><circle class="cls-8" cx="16.78" cy="100.71" r="2"/><circle class="cls-8" cx="12.54" cy="89.4" r="2"/><circle class="cls-8" cx="28.1" cy="104.95" r="2"/><path class="cls-9" d="M97.49,67a30,30,0,1,0,30,30A30,30,0,0,0,97.49,67Zm-22,30c0-17.89,20.12-28,34.48-18.13L79.36,109.48A21.91,21.91,0,0,1,75.49,97Zm22,22A21.91,21.91,0,0,1,85,115.13l30.61-30.61C125.49,98.83,115.42,119,97.49,119Z"/><path class="cls-10" d="M127.45,95.54a30,30,0,0,1-59.92,0C66.5,112.13,80,127,97.49,127S128.49,112.17,127.45,95.54Z"/><path class="cls-11" d="M100.2,66.16l13.7-11.49q.28-.24.57-.51a8.68,8.68,0,0,0,0-12.26L75.1,2.53a8.69,8.69,0,0,0-12.26,0q-.27.29-.51.57L19.52,54.15a9,9,0,0,0,.54,12.15l.48.47-1.42,1.42L17.7,66.77a1,1,0,0,0-1.41,0l-5.66,5.66a1,1,0,0,0,0,1.41l.71.71L7.81,78.08a17,17,0,0,0,0,24l7.07,7.07a17,17,0,0,0,24,0l3.53-3.53.71.71a1,1,0,0,0,.71.29,1,1,0,0,0,.7-.29l5.66-5.66a1,1,0,0,0,0-1.41l-1.42-1.42,1.42-1.42.47.48a9,9,0,0,0,12.15.54l3.24-2.72C66,95.5,66,96.25,66,97a31,31,0,1,0,34.2-30.84ZM22.66,67.48a1,1,0,0,0,0-1.42l-1.18-1.18a7,7,0,0,1-.42-9.45l42.81-51A4,4,0,0,1,64.26,4a6.66,6.66,0,0,1,9.42,0l39.37,39.37a6.66,6.66,0,0,1,0,9.42,4,4,0,0,1-.43.39L97.27,66H97a30.68,30.68,0,0,0-6.88.78l10.75-9L110,50.11a2.19,2.19,0,0,0,.22-.2A2.65,2.65,0,0,0,111,48a2.69,2.69,0,0,0-.78-1.89L70.86,6.78a2.72,2.72,0,0,0-3.78,0L66.92,7,25.49,56.36h0L24.12,58a3,3,0,0,0,.18,4L29,66.77l-5.66,5.65L20.54,69.6ZM70.92,80.27,57.71,91.35a1,1,0,0,1-1.34-.07l-5.43-5.42a1,1,0,0,0-1.42,0l-6.36,6.37L24.77,73.84l6.37-6.36a1,1,0,0,0,0-1.42l-5.42-5.43a1,1,0,0,1-.06-1.35L26.73,58H97.48L85.1,68.38A31.15,31.15,0,0,0,70.92,80.27ZM99.87,56H28.4l40-47.7.1-.1a.65.65,0,0,1,.94,0L108.8,47.56a.65.65,0,0,1,0,.94l0,0ZM37.5,107.78a15,15,0,0,1-21.21,0l-7.07-7.07a15,15,0,0,1,0-21.21L12.75,76,41,104.25Zm6.37-3.53-.71-.71-29.7-29.7-.71-.71L17,68.89l1.41,1.41h0l4.24,4.24,19.8,19.8,4.24,4.24h0L48.11,100Zm17.7-8.31a7,7,0,0,1-9.45-.42l-1.18-1.18a1,1,0,0,0-1.42,0L47.4,96.46l-2.82-2.82L50.23,88,55,92.7a3,3,0,0,0,2.12.88,3,3,0,0,0,1.93-.7L68.43,85a31.23,31.23,0,0,0-2,6.89ZM97,126A29,29,0,0,1,68.35,92.49v0A29,29,0,0,1,97,68h.55A29,29,0,0,1,97,126Z"/><path class="cls-11" d="M110.48,78.78a1,1,0,0,0-.43-.73,23,23,0,0,0-32,32,1,1,0,0,0,.73.43h.09a1,1,0,0,0,.71-.29l30.61-30.61A1,1,0,0,0,110.48,78.78ZM79,107.9A21,21,0,0,1,107.9,79Z"/><path class="cls-11" d="M116,84a1,1,0,0,0-.73-.43,1,1,0,0,0-.8.29L83.81,114.42A1,1,0,0,0,84,116a23,23,0,0,0,32-32ZM97,118a20.93,20.93,0,0,1-10.9-3L115,86.1A21,21,0,0,1,97,118Z"/><path class="cls-11" d="M14.17,98.59h0a3,3,0,1,0,4.24,0,3.07,3.07,0,0,0-4.24,0ZM15.58,100h0A1,1,0,0,1,17,101.42a1,1,0,0,1-1.42,0,1,1,0,0,1,0-1.42Z"/><path class="cls-11" d="M9.93,87.27a3,3,0,1,0,4.24,0A3.08,3.08,0,0,0,9.93,87.27Zm2.82,2.83a1,1,0,0,1-1.41,0,1,1,0,0,1,0-1.41,1,1,0,0,1,.71-.29,1,1,0,0,1,.7.29A1,1,0,0,1,12.75,90.1Z"/><path class="cls-11" d="M27.6,108a3,3,0,1,0-2.12-.88A3,3,0,0,0,27.6,108Zm-.7-3.7a1,1,0,0,1,1.41,0,1,1,0,1,1-1.71.7A1,1,0,0,1,26.9,104.25Z"/><circle class="cls-11" cx="11" cy="126" r="1"/><circle class="cls-11" cx="1" cy="118" r="1"/><circle class="cls-11" cx="28" cy="119" r="1"/><circle class="cls-11" cx="12" cy="115" r="1"/><circle class="cls-11" cx="2" cy="106" r="1"/></g></svg>