<svg xmlns="http://www.w3.org/2000/svg" xmlns:xlink="http://www.w3.org/1999/xlink" viewBox="0 0 128 128"><defs><style>.cls-1{fill:url(#linear-gradient);}.cls-2{fill:#c7cdd8;}.cls-3{fill:url(#linear-gradient-2);}.cls-4{fill:#5b8dc9;}.cls-5{fill:url(#linear-gradient-3);}.cls-6{fill:url(#linear-gradient-4);}.cls-7{fill:url(#linear-gradient-5);}.cls-8{fill:url(#linear-gradient-6);}.cls-9{fill:#8288a1;}.cls-10{fill:url(#linear-gradient-7);}.cls-11{fill:url(#linear-gradient-8);}.cls-12{fill:url(#linear-gradient-9);}.cls-13{fill:url(#linear-gradient-10);}.cls-14{fill:url(#linear-gradient-11);}.cls-15{fill:url(#linear-gradient-12);}.cls-16{fill:url(#linear-gradient-13);}.cls-17{fill:url(#linear-gradient-14);}.cls-18{fill:#7ece67;}.cls-19{fill:url(#linear-gradient-15);}.cls-20{fill:#4da67f;}.cls-21{fill:#47566a;}</style><linearGradient id="linear-gradient" x1="52" y1="98" x2="52" y2="20" gradientUnits="userSpaceOnUse"><stop offset="0" stop-color="#d4d8e1"/><stop offset="1" stop-color="#f3f4f5"/></linearGradient><linearGradient id="linear-gradient-2" x1="52" y1="20" x2="52" y2="6" gradientUnits="userSpaceOnUse"><stop offset="0" stop-color="#7aa8d7"/><stop offset="1" stop-color="#96c8ea"/></linearGradient><linearGradient id="linear-gradient-3" x1="19" y1="46" x2="19" y2="34" gradientUnits="userSpaceOnUse"><stop offset="0" stop-color="#949aaf"/><stop offset="1" stop-color="#c6ccda"/></linearGradient><linearGradient id="linear-gradient-4" x1="41" x2="41" xlink:href="#linear-gradient-3"/><linearGradient id="linear-gradient-5" x1="63" x2="63" xlink:href="#linear-gradient-3"/><linearGradient id="linear-gradient-6" x1="85" x2="85" xlink:href="#linear-gradient-3"/><linearGradient id="linear-gradient-7" y1="65" y2="53" xlink:href="#linear-gradient-3"/><linearGradient id="linear-gradient-8" x1="41" y1="65" x2="41" y2="53" xlink:href="#linear-gradient-3"/><linearGradient id="linear-gradient-9" x1="63" y1="65" x2="63" y2="53" xlink:href="#linear-gradient-3"/><linearGradient id="linear-gradient-10" x1="85" y1="65" x2="85" y2="53" xlink:href="#linear-gradient-3"/><linearGradient id="linear-gradient-11" y1="84" y2="72" xlink:href="#linear-gradient-3"/><linearGradient id="linear-gradient-12" x1="41" y1="84" x2="41" y2="72" xlink:href="#linear-gradient-3"/><linearGradient id="linear-gradient-13" x1="63" y1="84" x2="63" y2="72" xlink:href="#linear-gradient-3"/><linearGradient id="linear-gradient-14" x1="98" y1="127" x2="98" y2="75" gradientUnits="userSpaceOnUse"><stop offset="0" stop-color="#8cdd79"/><stop offset="1" stop-color="#d4e6b6"/></linearGradient><linearGradient id="linear-gradient-15" x1="108" y1="77" x2="108" y2="63" gradientUnits="userSpaceOnUse"><stop offset="0" stop-color="#6ab891"/><stop offset="1" stop-color="#85cba9"/></linearGradient></defs><title>Schedule</title><g id="Schedule"><path class="cls-1" d="M103,98H1V20H103Z"/><path class="cls-2" d="M103,98H1V94H103Z"/><rect class="cls-3" x="1" y="6" width="102" height="14"/><rect class="cls-4" x="1" y="16" width="102" height="4"/><rect class="cls-5" x="13" y="34" width="12" height="12"/><rect class="cls-6" x="35" y="34" width="12" height="12"/><rect class="cls-7" x="57" y="34" width="12" height="12"/><rect class="cls-8" x="79" y="34" width="12" height="12"/><rect class="cls-9" x="13" y="42" width="12" height="4"/><rect class="cls-9" x="35" y="42" width="12" height="4"/><rect class="cls-9" x="57" y="42" width="12" height="4"/><rect class="cls-9" x="79" y="42" width="12" height="4"/><rect class="cls-10" x="13" y="53" width="12" height="12"/><rect class="cls-11" x="35" y="53" width="12" height="12"/><rect class="cls-12" x="57" y="53" width="12" height="12"/><rect class="cls-13" x="79" y="53" width="12" height="12"/><rect class="cls-14" x="13" y="72" width="12" height="12"/><rect class="cls-15" x="35" y="72" width="12" height="12"/><rect class="cls-16" x="57" y="72" width="12" height="12"/><path class="cls-17" d="M111.19,75C122.29,74.6,127,84.86,127,96c0,13-12,31-21,31-6,0-5-1-8-1s-2,1-8,1c-9,0-21-18-21-31s6-21,15-21c7,0,11,2,14,2"/><path class="cls-18" d="M106,127c-6,0-5-1-8-1s-2,1-8,1c-8.46,0-22.27-18-20.89-33.87C70.28,105.88,81.48,122,90,122c6,0,5-1,8-1s2,1,8,1c8.52,0,19.72-16.12,20.89-28.87C128.26,108.92,114.57,127,106,127Z"/><path class="cls-19" d="M98,77h6a14,14,0,0,0,14-14h-6A14,14,0,0,0,98,77Z"/><path class="cls-20" d="M118,63a14,14,0,0,1-14,14H98a14.14,14.14,0,0,1,.32-3H104a14,14,0,0,0,13.68-11Z"/><rect class="cls-9" x="13" y="61" width="12" height="4"/><rect class="cls-9" x="35" y="61" width="12" height="4"/><rect class="cls-9" x="57" y="61" width="12" height="4"/><rect class="cls-9" x="13" y="80" width="12" height="4"/><rect class="cls-9" x="35" y="80" width="12" height="4"/><rect class="cls-9" x="57" y="80" width="12" height="4"/><rect class="cls-9" x="79" y="61" width="12" height="4"/><path class="cls-21" d="M114,74.14A15,15,0,0,0,119,63a1,1,0,0,0-1-1h-6a14.9,14.9,0,0,0-8,2.33V6a1,1,0,0,0-1-1H91V1a1,1,0,0,0-2,0V5H85V1a1,1,0,0,0-2,0V5H79V1a1,1,0,0,0-2,0V5H27V1a1,1,0,0,0-2,0V5H21V1a1,1,0,0,0-2,0V5H15V1a1,1,0,0,0-2,0V5H1A1,1,0,0,0,0,6V98a1,1,0,0,0,1,1H68.19c1.59,13.26,13,29,21.81,29a17,17,0,0,0,5.84-.67,7.23,7.23,0,0,1,4.32,0A17,17,0,0,0,106,128c9.46,0,22-18.24,22-32C128,83.58,122.57,75.26,114,74.14ZM117,64a13,13,0,0,1-13,12H99a13,13,0,0,1,13-12ZM2,7H13v4a1,1,0,0,0,2,0V7h4v4a1,1,0,0,0,2,0V7h4v4a1,1,0,0,0,2,0V7H77v4a1,1,0,0,0,2,0V7h4v4a1,1,0,0,0,2,0V7h4v4a1,1,0,0,0,2,0V7h11V19H2ZM2,97V21H102V65.85a15.32,15.32,0,0,0-3,3.7V69a9,9,0,0,0-7-8.77V53a1,1,0,0,0-1-1H79a1,1,0,0,0-1,1V65a1,1,0,0,0,1,1H91a1,1,0,0,0,1-1V62.29A7,7,0,0,1,97,69v6.92a27.06,27.06,0,0,1-2.93-.59A41.4,41.4,0,0,0,84,74c-9.72,0-16,8.64-16,22,0,.33,0,.67,0,1ZM90,62v2H80V54H90v6a1,1,0,0,0,0,2Zm16,64a15.27,15.27,0,0,1-5.25-.58,9.21,9.21,0,0,0-5.5,0A15.27,15.27,0,0,1,90,126c-8,0-18.8-15.62-19.9-28h0c-.06-.67-.1-1.34-.1-2,0-12.15,5.5-20,14-20a39.53,39.53,0,0,1,9.62,1.28A20,20,0,0,0,98,78h6a14.88,14.88,0,0,0,7.44-2H112c8.5,0,14,7.85,14,20C126,108.62,114.41,126,106,126Z"/><path class="cls-21" d="M112,80a1,1,0,0,0,0,2c5.9,0,8,7.23,8,14a1,1,0,0,0,2,0C122,88.26,119.37,80,112,80Z"/><path class="cls-21" d="M25,33H13a1,1,0,0,0-1,1V46a1,1,0,0,0,1,1H25a1,1,0,0,0,1-1V34A1,1,0,0,0,25,33ZM24,45H14V35H24Z"/><path class="cls-21" d="M47,33H35a1,1,0,0,0-1,1V46a1,1,0,0,0,1,1H47a1,1,0,0,0,1-1V34A1,1,0,0,0,47,33ZM46,45H36V35H46Z"/><path class="cls-21" d="M57,47H69a1,1,0,0,0,1-1V34a1,1,0,0,0-1-1H57a1,1,0,0,0-1,1V46A1,1,0,0,0,57,47Zm1-12H68V45H58Z"/><path class="cls-21" d="M79,47H91a1,1,0,0,0,1-1V34a1,1,0,0,0-1-1H79a1,1,0,0,0-1,1V46A1,1,0,0,0,79,47Zm1-12H90V45H80Z"/><path class="cls-21" d="M25,52H13a1,1,0,0,0-1,1V65a1,1,0,0,0,1,1H25a1,1,0,0,0,1-1V53A1,1,0,0,0,25,52ZM24,64H14V54H24Z"/><path class="cls-21" d="M47,52H35a1,1,0,0,0-1,1V65a1,1,0,0,0,1,1H47a1,1,0,0,0,1-1V53A1,1,0,0,0,47,52ZM46,64H36V54H46Z"/><path class="cls-21" d="M57,66H69a1,1,0,0,0,1-1V53a1,1,0,0,0-1-1H57a1,1,0,0,0-1,1V65A1,1,0,0,0,57,66Zm1-12H68V64H58Z"/><path class="cls-21" d="M25,71H13a1,1,0,0,0-1,1V84a1,1,0,0,0,1,1H25a1,1,0,0,0,1-1V72A1,1,0,0,0,25,71ZM24,83H14V73H24Z"/><path class="cls-21" d="M47,71H35a1,1,0,0,0-1,1V84a1,1,0,0,0,1,1H47a1,1,0,0,0,1-1V72A1,1,0,0,0,47,71ZM46,83H36V73H46Z"/><path class="cls-21" d="M70,84V72a1,1,0,0,0-1-1H57a1,1,0,0,0-1,1V84a1,1,0,0,0,1,1H69A1,1,0,0,0,70,84Zm-2-1H58V73H68Z"/></g></svg>