<svg xmlns="http://www.w3.org/2000/svg" xmlns:xlink="http://www.w3.org/1999/xlink" viewBox="0 0 128 128"><defs><style>.cls-1{fill:url(#linear-gradient);}.cls-2{fill:#4da67f;}.cls-3{fill:url(#linear-gradient-2);}.cls-4{fill:url(#linear-gradient-3);}.cls-5{fill:url(#linear-gradient-4);}.cls-6{fill:url(#linear-gradient-5);}.cls-7{fill:#7ece67;}.cls-8{fill:url(#linear-gradient-9);}.cls-9{fill:#dd4e6a;}.cls-10{fill:#47566a;}</style><linearGradient id="linear-gradient" x1="58.81" y1="111.73" x2="58.81" y2="1" gradientUnits="userSpaceOnUse"><stop offset="0" stop-color="#6ab891"/><stop offset="1" stop-color="#85cba9"/></linearGradient><linearGradient id="linear-gradient-2" x1="72.39" y1="126.78" x2="72.39" y2="1.25" xlink:href="#linear-gradient"/><linearGradient id="linear-gradient-3" x1="98.84" y1="47.01" x2="98.84" y2="15.83" gradientUnits="userSpaceOnUse"><stop offset="0" stop-color="#8cdd79"/><stop offset="1" stop-color="#d4e6b6"/></linearGradient><linearGradient id="linear-gradient-4" x1="71.86" y1="80.71" x2="71.86" y2="49.53" xlink:href="#linear-gradient-3"/><linearGradient id="linear-gradient-5" x1="44.89" y1="114.41" x2="44.89" y2="83.23" xlink:href="#linear-gradient-3"/><linearGradient id="linear-gradient-9" x1="96.94" y1="127" x2="96.94" y2="67" gradientUnits="userSpaceOnUse"><stop offset="0" stop-color="#da5466"/><stop offset="1" stop-color="#e87092"/></linearGradient></defs><title>Soy Free</title><g id="Soy_Free" data-name="Soy Free"><path class="cls-1" d="M116.58,1.51,19.06,111.73C-8.51,107.07-2,67.24,22.33,60.79A23.41,23.41,0,0,0,38,47,25.08,25.08,0,0,1,54.34,32.39,24.31,24.31,0,0,0,70.42,18.48,26.5,26.5,0,0,1,77.6,8.72C95.92-7.41,109.39,7.79,116.58,1.51Z"/><path class="cls-2" d="M116.58,1.51,19.06,111.73a24,24,0,0,1-4.48-1.2C11.3,96,19,78.68,32.57,72.38A19.45,19.45,0,0,0,43.37,58.9a29,29,0,0,1,15.73-20A20.47,20.47,0,0,0,70.36,25.15C72.56,15,81.66,4.61,92.17,1.32,103.15-.45,111.45,6,116.58,1.51Z"/><path class="cls-3" d="M75.24,93.37c6-6.44,10.41-5.17,16.29-12.51C95,76.57,95.3,74.1,97.51,67a23.38,23.38,0,0,1,12-12.78,24.91,24.91,0,0,0,9-7.07c8.69-10.85,14.24-33.14-1.7-45.91C111.18,8.74,95-4,79.63,15.14A26.41,26.41,0,0,0,74.27,26,24.36,24.36,0,0,1,60.84,42.5,25.07,25.07,0,0,0,47.28,59.74,23.4,23.4,0,0,1,34.25,76c-16.48,7.63-22.94,34.34-8.06,46.24,13.17,10.55,36.6,1.51,42.48-15.2Z"/><path class="cls-2" d="M109.48,54.23A23.38,23.38,0,0,0,97.51,67c-2.08,6.66-2.51,9.51-6,13.85-5.88,7.34-10.25,6-16.29,12.51l-6.57,13.68c-5.88,16.71-29.32,25.74-42.48,15.2-6.42-5.13-9-13.25-8.21-21.49a22.63,22.63,0,0,0,8.21,15.76c13.17,10.55,36.6,1.51,42.48-15.2l6.57-13.68c6-6.44,10.41-5.17,16.29-12.51,3.43-4.29,3.77-6.76,6-13.85a23.38,23.38,0,0,1,12-12.78c10.74-5,16.47-17.8,17.34-28.39C127.9,32.25,121.78,48.53,109.48,54.23Z"/><circle class="cls-4" cx="98.84" cy="31.42" r="15.59"/><path class="cls-5" d="M87,68.68A15.58,15.58,0,0,0,59.7,55.38c-8.19,10.23-.79,25.25,12.06,25.33"/><circle class="cls-6" cx="44.89" cy="98.82" r="15.59"/><circle class="cls-4" cx="98.84" cy="31.42" r="15.59"/><path class="cls-5" d="M87,68.68A15.58,15.58,0,0,0,59.7,55.38c-8.19,10.23-.79,25.25,12.06,25.33"/><circle class="cls-6" cx="44.89" cy="98.82" r="15.59"/><path class="cls-7" d="M111,41.16C101.2,53.41,81.37,45,83.38,29.41c1.72,13.51,19,18.5,27.63,7.75a15.48,15.48,0,0,0,3.29-7.73A15.55,15.55,0,0,1,111,41.16Z"/><path class="cls-7" d="M57.06,108.56c-9.81,12.25-29.64,3.87-27.63-11.75,1.72,13.51,19,18.5,27.63,7.75a15.55,15.55,0,0,0,3.29-7.73A15.55,15.55,0,0,1,57.06,108.56Z"/><path class="cls-7" d="M84,74.86C74.23,87.11,54.4,78.73,56.41,63.11c1.72,13.51,19,18.5,27.63,7.75a15.55,15.55,0,0,0,3.29-7.73A15.55,15.55,0,0,1,84,74.86Z"/><path class="cls-8" d="M96.94,67a30,30,0,1,0,30,30A30,30,0,0,0,96.94,67Zm-22,30c0-17.89,20.12-28,34.48-18.13L78.81,109.48A21.91,21.91,0,0,1,74.94,97Zm22,22a21.91,21.91,0,0,1-12.48-3.87l30.61-30.61C124.94,98.83,114.87,119,96.94,119Z"/><path class="cls-9" d="M126.9,95.54a30,30,0,0,1-59.92,0c-1,16.59,12.51,31.46,30,31.46S127.94,112.17,126.9,95.54Z"/><path class="cls-10" d="M88.54,44.37a16.59,16.59,0,1,0-6.12-11.12A16.46,16.46,0,0,0,88.54,44.37Zm-1-22.06a14.53,14.53,0,0,1,9.78-5.39,15.16,15.16,0,0,1,1.64-.09,14.6,14.6,0,1,1-11.42,5.48Z"/><path class="cls-10" d="M55.32,85.87a16.58,16.58,0,1,0,2.58,23.32A16.46,16.46,0,0,0,55.32,85.87Zm1,22.07a14.59,14.59,0,1,1-13-23.62A14.84,14.84,0,0,1,45,84.23a14.59,14.59,0,0,1,11.36,23.71Z"/><path class="cls-10" d="M99.08,66.08A22.51,22.51,0,0,1,110,55.14a25.76,25.76,0,0,0,9.38-7.35c9-11.26,14.66-34.09-1.86-47.32a1,1,0,0,0-1.42.18L116,.78h0c-2.39,2.06-5.8,1.36-10.1.47C98.6-.25,88.67-2.3,77,8A27.35,27.35,0,0,0,69.56,18.1,23.48,23.48,0,0,1,54.12,31.43a26.12,26.12,0,0,0-17,15.21,22.48,22.48,0,0,1-15,13.18,25.83,25.83,0,0,0-10.51,5.61A34.6,34.6,0,0,0,.41,85.18c-1.32,7.79.55,15,5.27,20.4a22.19,22.19,0,0,0,12.68,7,22,22,0,0,0,21.49,15.19,29.73,29.73,0,0,0,6.57-.76,33.77,33.77,0,0,0,18.52-11.29,29.46,29.46,0,0,0,3.78-6,31,31,0,1,0,30.36-43.6ZM7.18,104.26c-4.31-4.9-6-11.56-4.8-18.75A32.44,32.44,0,0,1,13,66.94a23.71,23.71,0,0,1,9.69-5.19A24.47,24.47,0,0,0,39,47.4a24.12,24.12,0,0,1,15.69-14A25.48,25.48,0,0,0,71.41,18.86a25.3,25.3,0,0,1,6.91-9.39c10-8.81,18.39-8,25.28-6.64-7.09-.07-16,.9-24.69,11.69a27.3,27.3,0,0,0-5.56,11.27A23.47,23.47,0,0,1,60.46,41.6a26.08,26.08,0,0,0-14.1,17.93A22.45,22.45,0,0,1,33.89,75.1a25.79,25.79,0,0,0-9.37,7.36c-6.47,8.08-9,18.86-6.81,28A19.94,19.94,0,0,1,7.18,104.26Zm56.2,10.22A31.7,31.7,0,0,1,46,125.07c-7.36,1.65-14.14.37-19.11-3.6a20.53,20.53,0,0,1-6.8-10,.5.5,0,0,0-.05-.13c-2.73-8.76-.36-19.57,6.06-27.59a23.87,23.87,0,0,1,8.65-6.79A24.48,24.48,0,0,0,48.32,60a24.11,24.11,0,0,1,13-16.55,25.51,25.51,0,0,0,14-17.19,25.3,25.3,0,0,1,5.16-10.44C89.56,4.41,98.74,4.68,106.1,4.89c4.4.13,8.22.24,10.84-2.27,14.58,12.46,9.22,33.45.84,43.92a23.84,23.84,0,0,1-8.66,6.78A24.58,24.58,0,0,0,96.92,66a30.94,30.94,0,0,0-8.55,1.23A16.58,16.58,0,1,0,61.56,78.07a16.29,16.29,0,0,0,8.55,3.53A30.88,30.88,0,0,0,67.67,107,26.87,26.87,0,0,1,63.38,114.48ZM71.3,79.69a14.45,14.45,0,0,1-8.49-3.18,14.59,14.59,0,1,1,23.42-8.58A31.18,31.18,0,0,0,71.3,79.69ZM97,126a29,29,0,1,1,29-29A29,29,0,0,1,97,126Z"/><path class="cls-10" d="M110.48,78.78a1,1,0,0,0-.43-.73,23,23,0,0,0-32,32,1,1,0,0,0,.73.43h.09a1,1,0,0,0,.71-.29l30.61-30.61A1,1,0,0,0,110.48,78.78ZM93.34,76.34a23.58,23.58,0,0,1-2.53,3.89,23.87,23.87,0,0,1-8.29,6.62,26.46,26.46,0,0,0-5.42,3.5A21,21,0,0,1,93.34,76.34ZM79,107.9a20.55,20.55,0,0,1-2.77-14.08,24.78,24.78,0,0,1,7.11-5.17,25.66,25.66,0,0,0,9-7.17,26.42,26.42,0,0,0,3.33-5.41c.43,0,.86-.07,1.3-.07a20.93,20.93,0,0,1,10.9,3Z"/><path class="cls-10" d="M115.22,83.52a1,1,0,0,0-.8.29L83.81,114.42a1,1,0,0,0-.29.8A1,1,0,0,0,84,116a23,23,0,0,0,32-32A1,1,0,0,0,115.22,83.52ZM97,118a20.93,20.93,0,0,1-10.9-3L115,86.1A21,21,0,0,1,97,118Z"/></g></svg>