<svg xmlns="http://www.w3.org/2000/svg" xmlns:xlink="http://www.w3.org/1999/xlink" viewBox="0 0 128 128"><defs><style>.cls-1{fill:url(#linear-gradient);}.cls-2{fill:url(#linear-gradient-2);}.cls-3{fill:url(#linear-gradient-3);}.cls-4{fill:url(#linear-gradient-4);}.cls-5{fill:url(#linear-gradient-5);}.cls-6{fill:url(#linear-gradient-6);}.cls-7{fill:url(#linear-gradient-7);}.cls-8{fill:url(#linear-gradient-8);}.cls-9{fill:url(#linear-gradient-9);}.cls-10{fill:url(#linear-gradient-10);}.cls-11{fill:#dd4e6a;}.cls-12{fill:#47566a;}</style><linearGradient id="linear-gradient" x1="23.89" y1="57.58" x2="23.89" y2="11.77" gradientTransform="translate(-8.74 8.07) rotate(-16.24)" gradientUnits="userSpaceOnUse"><stop offset="0" stop-color="#d4d8e1"/><stop offset="1" stop-color="#f3f4f5"/></linearGradient><linearGradient id="linear-gradient-2" x1="51.44" y1="57.58" x2="51.44" y2="11.33" gradientTransform="matrix(1, 0, 0, 1, 0, 0)" xlink:href="#linear-gradient"/><linearGradient id="linear-gradient-3" x1="38.87" y1="22.11" x2="38.87" y2="1" gradientTransform="matrix(1, 0, 0, 1, 0, 0)" xlink:href="#linear-gradient"/><linearGradient id="linear-gradient-4" x1="93.84" y1="68.46" x2="93.84" y2="33.24" gradientTransform="matrix(1, 0, 0, 1, 0, 0)" xlink:href="#linear-gradient"/><linearGradient id="linear-gradient-5" x1="93.64" y1="42.27" x2="93.64" y2="16.07" gradientTransform="matrix(1, 0, 0, 1, 0, 0)" xlink:href="#linear-gradient"/><linearGradient id="linear-gradient-6" x1="73.62" y1="64.25" x2="73.62" y2="16.07" gradientTransform="matrix(1, 0, 0, 1, 0, 0)" xlink:href="#linear-gradient"/><linearGradient id="linear-gradient-7" x1="44.38" y1="113" x2="44.38" y2="75.53" gradientTransform="translate(144.96 67.11) rotate(100.1)" xlink:href="#linear-gradient"/><linearGradient id="linear-gradient-8" x1="33.51" y1="81.2" x2="33.51" y2="64.33" gradientTransform="matrix(1, 0, 0, 1, 0, 0)" xlink:href="#linear-gradient"/><linearGradient id="linear-gradient-9" x1="20.45" y1="113" x2="20.45" y2="70" gradientTransform="matrix(1, 0, 0, 1, 0, 0)" xlink:href="#linear-gradient"/><linearGradient id="linear-gradient-10" x1="96.99" y1="127" x2="96.99" y2="67" gradientUnits="userSpaceOnUse"><stop offset="0" stop-color="#da5466"/><stop offset="1" stop-color="#e87092"/></linearGradient></defs><title>Sugar Free</title><g id="Sugar_Free" data-name="Sugar Free"><rect class="cls-1" x="5.42" y="16.2" width="36.95" height="36.95" transform="translate(10.65 -5.3) rotate(16.24)"/><polygon class="cls-2" points="56.09 46.8 36.46 57.58 46.8 22.11 66.42 11.33 56.09 46.8"/><polygon class="cls-3" points="46.8 22.11 11.32 11.77 30.95 1 66.42 11.33 46.8 22.11"/><polyline class="cls-4" points="106.23 68.46 113.86 42.27 82.84 33.24 73.81 64.25 87.99 68.38"/><polygon class="cls-5" points="104.44 25.11 113.86 42.27 82.85 33.24 73.43 16.07 104.44 25.11"/><polygon class="cls-6" points="82.85 33.24 73.81 64.25 64.39 47.09 73.43 16.07 82.85 33.24"/><rect class="cls-7" x="28.22" y="78.11" width="32.3" height="32.3" transform="translate(-40.65 154.49) rotate(-100.1)"/><polygon class="cls-8" points="41.39 64.33 57.45 75.53 25.64 81.2 9.59 70 41.39 64.33"/><polygon class="cls-9" points="25.64 81.2 31.31 113 15.25 101.8 9.59 70 25.64 81.2"/><path class="cls-10" d="M97,67a30,30,0,1,0,30,30A30,30,0,0,0,97,67ZM75,97c0-17.89,20.12-28,34.48-18.13L78.86,109.48A21.91,21.91,0,0,1,75,97Zm22,22a21.91,21.91,0,0,1-12.48-3.87l30.61-30.61C125,98.83,114.92,119,97,119Z"/><path class="cls-11" d="M127,95.54a30,30,0,0,1-59.92,0C66,112.13,79.54,127,97,127S128,112.17,127,95.54Z"/><path class="cls-12" d="M36.47,58.58a1.07,1.07,0,0,0,.25,0,.94.94,0,0,0,.23-.1L56.58,47.68a1,1,0,0,0,.48-.6L67.39,11.61a.06.06,0,0,0,0,0c0-.05,0-.1,0-.15a.75.75,0,0,0,0-.15s0,0,0,0l0-.09a.83.83,0,0,0,0-.15,1.39,1.39,0,0,0-.06-.13.75.75,0,0,0-.07-.12l-.11-.11-.06-.07,0,0-.13-.08-.14-.06,0,0L31.24,0a1.05,1.05,0,0,0-.76.08L10.85,10.9h0a1,1,0,0,0-.26.21.56.56,0,0,0-.05.08.8.8,0,0,0-.13.24l0,.05L0,47a1.06,1.06,0,0,0,.08.76,1.06,1.06,0,0,0,.6.48L36.19,58.54A1.35,1.35,0,0,0,36.47,58.58ZM55.26,46.13,38.11,55.54l3.31-11.36,6.23-21.4L64.8,13.37ZM31.08,2.08l32.75,9.54-3.48,1.91L46.68,21,13.93,11.49ZM12,13l33.55,9.78-5.84,20L35.79,56.34,2.24,46.56Z"/><path class="cls-12" d="M58.41,75.3a1.06,1.06,0,0,0-.09-.25.56.56,0,0,0,0-.08,1.2,1.2,0,0,0-.24-.26L42,63.51a1,1,0,0,0-.75-.16L9.42,69l-.05,0-.14,0-.13.06,0,0a.46.46,0,0,1-.07.07l-.11.09a.94.94,0,0,0-.09.12l-.08.12s0,.1,0,.15a.19.19,0,0,0,0,.08s0,0,0,0a1.13,1.13,0,0,0,0,.3v0L14.27,102a1,1,0,0,0,.42.65l16,11.2.15.07.11,0a.81.81,0,0,0,.31.06h0l.17,0,31.8-5.66a1,1,0,0,0,.81-1.16l-5.66-31.8ZM54.9,75l-29,5.17L12.15,70.56l29-5.17ZM16.17,101.22,11,72.2l13.74,9.58,5.17,29Zm16,10.62L26.81,82l6.62-1.18,23.21-4.14L62,106.53Z"/><path class="cls-12" d="M107.47,67.82l7.36-25.27s0,0,0-.07a2.11,2.11,0,0,0,0-.25.41.41,0,0,0,0-.11.71.71,0,0,0-.1-.31v0h0l-9.41-17.16a1,1,0,0,0-.6-.48l-31-9h0a.5.5,0,0,0-.17,0h-.18l-.1,0-.14,0L73,15.2l-.13.08-.1.1-.08.07s0,0,0,0a.75.75,0,0,0-.07.12l-.07.14a.05.05,0,0,1,0,0l-9,31a1.05,1.05,0,0,0,.08.76l9.42,17.16h0a1.12,1.12,0,0,0,.22.26l.07.06a1.14,1.14,0,0,0,.29.15h0L84.82,68.5a31,31,0,1,0,22.65-.68Zm4.36-27.19-28.3-8.24-2.75-5-5.31-9.67L103.77,26Zm-38.11-22,6.36,11.58,1.7,3.1-8.24,28.3L65.48,47Zm1.34,44.9,8.47-29.09L112.63,43l-7.07,24.26A30.89,30.89,0,0,0,88,67.34ZM97,126a29,29,0,1,1,29-29A29,29,0,0,1,97,126Z"/><path class="cls-12" d="M110.48,78.78a1,1,0,0,0-.43-.73,23,23,0,0,0-32,32,1,1,0,0,0,.73.43h.09a1,1,0,0,0,.71-.29l30.61-30.61A1,1,0,0,0,110.48,78.78ZM79,107.9A21,21,0,0,1,107.9,79Z"/><path class="cls-12" d="M116,84a1,1,0,0,0-.73-.43,1,1,0,0,0-.8.29L83.81,114.42A1,1,0,0,0,84,116a23,23,0,0,0,32-32ZM97,118a20.93,20.93,0,0,1-10.9-3L115,86.1A21,21,0,0,1,97,118Z"/></g></svg>