<svg xmlns="http://www.w3.org/2000/svg" xmlns:xlink="http://www.w3.org/1999/xlink" viewBox="0 0 128 128"><defs><style>.cls-1{fill:url(#linear-gradient);}.cls-2{fill:#8288a1;}.cls-3{fill:url(#linear-gradient-2);}.cls-4{fill:#f6b756;}.cls-5{fill:#fff2e3;}.cls-6{fill:#47566a;}</style><linearGradient id="linear-gradient" x1="64" y1="127" x2="64" y2="1" gradientUnits="userSpaceOnUse"><stop offset="0" stop-color="#949aaf"/><stop offset="1" stop-color="#c6ccda"/></linearGradient><linearGradient id="linear-gradient-2" x1="64" y1="95" x2="64" y2="33" gradientUnits="userSpaceOnUse"><stop offset="0" stop-color="#fbcc88"/><stop offset="1" stop-color="#ffe5c3"/></linearGradient></defs><title>Trans Fat</title><g id="Trans_Fat" data-name="Trans Fat"><path class="cls-1" d="M118.56,32.5a12,12,0,0,0-16.39-4.4A17.44,17.44,0,0,1,76,13a12,12,0,0,0-24,0A17.45,17.45,0,0,1,25.83,28.1a12,12,0,0,0-12,20.79,17.44,17.44,0,0,1,0,30.21,12,12,0,0,0,12,20.79A17.45,17.45,0,0,1,52,115a12,12,0,0,0,24,0,17.45,17.45,0,0,1,26.17-15.11,12,12,0,0,0,12-20.79,17.44,17.44,0,0,1,0-30.21A12,12,0,0,0,118.56,32.5Z"/><path class="cls-2" d="M108.16,101.5c-5.91,0-7.17-4-14.68-4A17.47,17.47,0,0,0,76,115a12,12,0,1,1-24,0A17.47,17.47,0,0,0,34.52,97.53c-7.25,0-9,4-14.68,4-12.23,0-16.62-16.27-6-22.39a17.18,17.18,0,0,0,8.53-12.6,42,42,0,0,0,83.28,0,17.18,17.18,0,0,0,8.53,12.6C124.77,85.22,120.4,101.5,108.16,101.5Z"/><path class="cls-3" d="M84,74.94a20,20,0,1,1-40,0C44,58.53,64,33,64,33S84,58.53,84,74.94Z"/><path class="cls-4" d="M64,95A20,20,0,0,1,44.1,73a20,20,0,0,0,39.8,0A20,20,0,0,1,64,95Z"/><path class="cls-5" d="M64,90a1,1,0,0,1,0-2A13,13,0,0,0,77,74.94a1,1,0,0,1,2,0A15.05,15.05,0,0,1,64,90Z"/><path class="cls-6" d="M114.67,78.24a16.43,16.43,0,0,1,0-28.48,13,13,0,1,0-13-22.52A16.45,16.45,0,0,1,77,13a13,13,0,0,0-26,0A16.45,16.45,0,0,1,26.33,27.24a13,13,0,1,0-13,22.52,16.43,16.43,0,0,1,0,28.48,13,13,0,1,0,13,22.52A16.45,16.45,0,0,1,51,115a13,13,0,0,0,26,0,16.45,16.45,0,0,1,24.67-14.24,13,13,0,1,0,13-22.52Zm3,16.76a11,11,0,0,1-15,4A18.45,18.45,0,0,0,75,115a11,11,0,0,1-22,0A18.41,18.41,0,0,0,25.33,99,11,11,0,0,1,14.33,80a18.43,18.43,0,0,0,0-31.94A11,11,0,0,1,25.33,29,18.45,18.45,0,0,0,53,13a11,11,0,0,1,22,0,18.45,18.45,0,0,0,27.67,16,11,11,0,0,1,11,19.06,18.43,18.43,0,0,0,0,31.94,11,11,0,0,1,4,15Z"/><path class="cls-6" d="M63.21,32.38C62.39,33.44,43,58.37,43,74.94a21,21,0,1,0,42,0c0-16.57-19.39-41.5-20.21-42.56A1,1,0,0,0,63.21,32.38ZM64,94A19,19,0,0,1,45,74.94c0-14,15.32-35.36,19-40.29,3.68,4.93,19,26.25,19,40.29A19,19,0,0,1,64,94Z"/><path class="cls-6" d="M63,89a1,1,0,0,0,1,1A15.05,15.05,0,0,0,79,74.94a1,1,0,0,0-2,0A13,13,0,0,1,64,88,1,1,0,0,0,63,89Z"/></g></svg>