<svg xmlns="http://www.w3.org/2000/svg" xmlns:xlink="http://www.w3.org/1999/xlink" viewBox="0 0 128 128"><defs><style>.cls-1{fill:#f6b756;}.cls-2{fill:url(#linear-gradient);}.cls-3{fill:url(#linear-gradient-2);}.cls-4{fill:#c7cdd8;}.cls-5{fill:url(#linear-gradient-3);}.cls-6{fill:url(#linear-gradient-4);}.cls-7{fill:#7ece67;}.cls-8{fill:url(#linear-gradient-5);}.cls-9{fill:#4da67f;}.cls-10{fill:#47566a;}</style><linearGradient id="linear-gradient" x1="63.98" y1="117" x2="63.98" y2="11" gradientUnits="userSpaceOnUse"><stop offset="0" stop-color="#fbcc88"/><stop offset="1" stop-color="#ffe5c3"/></linearGradient><linearGradient id="linear-gradient-2" x1="64" y1="109" x2="64" y2="19" gradientUnits="userSpaceOnUse"><stop offset="0" stop-color="#d4d8e1"/><stop offset="1" stop-color="#f3f4f5"/></linearGradient><linearGradient id="linear-gradient-3" x1="98.39" y1="81.01" x2="98.39" y2="1" gradientUnits="userSpaceOnUse"><stop offset="0" stop-color="#8cdd79"/><stop offset="1" stop-color="#d4e6b6"/></linearGradient><linearGradient id="linear-gradient-4" x1="28.54" y1="79.18" x2="28.54" y2="25.28" xlink:href="#linear-gradient-3"/><linearGradient id="linear-gradient-5" x1="71.43" y1="127" x2="71.43" y2="23" gradientUnits="userSpaceOnUse"><stop offset="0" stop-color="#6ab891"/><stop offset="1" stop-color="#85cba9"/></linearGradient></defs><title>Vegan</title><g id="Vegan"><path class="cls-1" d="M116.56,70.86a32.83,32.83,0,0,1-10,7.93,45,45,0,0,0-11.4-47.3c2.06-1.84,4-3.64,5.78-5.55A53,53,0,0,1,116.56,70.86Z"/><path class="cls-2" d="M117,64A53,53,0,1,1,64,11,53,53,0,0,1,117,64Z"/><path class="cls-1" d="M64,117C33.32,117,9.71,91.16,11,62A53,53,0,0,0,117,62C118.28,91.16,94.68,117,64,117Z"/><path class="cls-3" d="M109,64A45,45,0,1,1,64,19,45,45,0,0,1,109,64Z"/><path class="cls-1" d="M19.65,71.63c-4.7-7.08-3.91-13.81-6.59-22.31a52.8,52.8,0,0,1,9.06-17.8,42.25,42.25,0,0,1,9,1.77A44.93,44.93,0,0,0,19.65,71.63Z"/><path class="cls-1" d="M69.11,108.71c-.5,2.58-.91,5.29-1.24,8.15a53.82,53.82,0,0,1-7.93,0c-.36-2.79-.8-5.52-1.33-8.17A45,45,0,0,0,69.11,108.71Z"/><path class="cls-4" d="M106.51,78.79C95.84,84.29,83.65,84,76.25,87a81.83,81.83,0,0,0-7.14,21.7,45,45,0,0,1-10.5,0,135,135,0,0,0-6.87-23.5c-15.41-.71-26.36-4.86-32.09-13.55A44.89,44.89,0,0,1,31.11,33.29,28.74,28.74,0,0,1,43,40.16C58.1,55.25,56.88,70.64,55,80.82c-.2.19,5,8.78,8.68,23.5A81.09,81.09,0,0,1,69.91,86c-.35-16.8-1-30.77,13.29-44,4.46-4.13,8.39-7.38,11.91-10.51A45,45,0,0,1,106.51,78.79Z"/><path class="cls-4" d="M64,19a45,45,0,0,1,44.9,48,45,45,0,0,0-89.8,0A45,45,0,0,1,64,19Z"/><path class="cls-5" d="M76.24,81c12.24-5,37.56-.88,47.48-29,8.1-23,0-41-11.14-51C105.49,19,96.83,23.39,83.2,36,68.94,49.21,69.56,63.19,69.91,80Z"/><path class="cls-6" d="M55,74.82c1.88-10.18,3.1-25.57-12-40.66C34.21,25.45,18.11,23,1,27.41c11.65,9.13,12.29,15.14,14.69,28,2.92,15.74,15.54,22.79,36.06,23.73Z"/><path class="cls-7" d="M123.72,52C113.8,80.13,88.48,76,76.24,81l-6.33-1c-.2-9.79-.23-16.1,0-6l6.33,1c12.24-5,37.56-.88,47.48-29a55.53,55.53,0,0,0,3.18-15.23A53.25,53.25,0,0,1,123.72,52Z"/><path class="cls-7" d="M55,74.82l-3.25,4.36c-20.52-.94-33.14-8-36.06-23.73-2.4-12.9-3-18.91-14.69-28a8.41,8.41,0,0,1,9.26,3.69c3.14,5.06,4,10.39,5.43,18.35,2.92,15.74,15.54,22.79,36.06,23.73L55,68.82a62,62,0,0,0,1-7.65A54,54,0,0,1,55,74.82Z"/><path class="cls-8" d="M113,23c-2.91,14.55-9.31,25.3-18.15,33.93C77,74.36,67,92,67,127H61q0-3.56-.2-7C58.2,73.77,30.72,42.62,29.86,41.65c1.42,1.12,25,21,33.82,56.67C68.76,75.05,80,63.61,91,54,99.93,46.18,105,40,113,23Z"/><path class="cls-9" d="M67.16,120q-.16,3.38-.16,7H61q0-3.56-.2-7Z"/><path class="cls-10" d="M113.25.26a1,1,0,0,0-1.6.37,55,55,0,0,1-14,21.15A54,54,0,0,0,26.5,25.14,60.33,60.33,0,0,0,.75,26.44,1,1,0,0,0,.38,28.2C8.66,34.69,11.19,39.38,12.9,46.52a54,54,0,0,0,46.75,71.29c.23,3,.35,6.07.35,9.19a1,1,0,0,0,1,1h6a1,1,0,0,0,1-1c0-3.22.1-6.27.28-9.19A54.1,54.1,0,0,0,118,64.74a42,42,0,0,0,6.67-12.41C135.05,22.84,118.55,5,113.25.26ZM64,12A52,52,0,0,1,96.18,23.17c-1.45,1.33-3,2.67-4.57,4.06A45.44,45.44,0,0,0,64,18a46.08,46.08,0,0,0-28.51,9.91,37.39,37.39,0,0,0-6.6-2.25A51.67,51.67,0,0,1,64,12Zm4.89,66.92v.81a79.09,79.09,0,0,0-5.27,14.52A115,115,0,0,0,56,74.71c2.08-11.48,2.46-26.47-12.38-41.26a27.16,27.16,0,0,0-6.2-4.54A44.1,44.1,0,0,1,64,20a43.47,43.47,0,0,1,26.07,8.57c-2.38,2.05-4.84,4.19-7.55,6.7C68.24,48.5,68.54,62.59,68.89,78.92Zm-65.68-51c16.17-3.66,31-1.05,39,7C55.32,47.9,56,61.12,54.5,71.71c-10.69-20-23.86-30.73-24-30.87A1,1,0,0,0,29.1,42.3c.19.21,12.1,13.65,21.07,35.77-19.9-1.27-30.89-8.73-33.5-22.8l-.31-1.69C14.26,42.17,13.15,36.17,3.21,27.91Zm55.24,79.73A43.88,43.88,0,0,1,20.2,68.08C26.11,75.38,36.3,79.35,51,80.14A134.17,134.17,0,0,1,58.45,107.64ZM12,64a52.12,52.12,0,0,1,1.76-13.44c.21,1.07.41,2.19.63,3.38l.32,1.69A28.9,28.9,0,0,0,18,64.9a45.9,45.9,0,0,0,40.75,44.79q.42,3,.7,6.1A52.07,52.07,0,0,1,12,64Zm50,62a125.91,125.91,0,0,0-1.35-17.27,1.09,1.09,0,0,0,0-.26,136,136,0,0,0-7.88-29.34,1,1,0,0,0-.24-.62A148.72,148.72,0,0,0,39,52.35,114.5,114.5,0,0,1,62.71,98.56a1,1,0,0,0,1,.76,1,1,0,0,0,1-.78A80,80,0,0,1,70.8,80.42l0-.09c5.64-11.55,13.26-19,20.81-25.58,7.09-6.21,11.91-11.53,17.74-22.32A61.23,61.23,0,0,1,94.16,56.22c-6.81,6.65-13.53,14-18.71,24.2a1.2,1.2,0,0,0-.16.32C69.82,91.67,66.12,105.87,66,126ZM77,81.78a60.35,60.35,0,0,1,10.41-2.45c6.19-1.1,13.1-2.33,19.47-5.58a44,44,0,0,1-37.62,33.92A84.16,84.16,0,0,1,77,81.78Zm-8.62,34c.16-2.09.36-4.12.6-6.07a46,46,0,0,0,40.2-37.26,32.76,32.76,0,0,0,6.69-5.34A52.09,52.09,0,0,1,68.41,115.79ZM87.09,77.36a84.93,84.93,0,0,0-8.72,1.86c4.89-8.91,11-15.53,17.18-21.57A64.24,64.24,0,0,0,114,23.2a1,1,0,0,0-.67-1.15,1,1,0,0,0-1.21.52c-8,17-13,23-21.76,30.68-7,6.08-14,12.85-19.51,22.77-.28-15.16.22-27.41,13-39.29,2.81-2.6,5.37-4.81,7.85-7s4.66-4,6.76-6h0A56.21,56.21,0,0,0,113,2.73c5.87,5.71,19.18,22.36,9.82,48.94C115.5,72.31,99.75,75.11,87.09,77.36Z"/></g></svg>