<svg xmlns="http://www.w3.org/2000/svg" xmlns:xlink="http://www.w3.org/1999/xlink" viewBox="0 0 128 128"><defs><style>.cls-1{fill:url(#linear-gradient);}.cls-2{fill:#7ece67;}.cls-3{fill:url(#linear-gradient-2);}.cls-4{fill:#4da67f;}.cls-5{fill:url(#linear-gradient-3);}.cls-6{fill:url(#linear-gradient-4);}.cls-7{fill:#e87092;}.cls-8{fill:#e8677d;}.cls-9{fill:#dd4e6a;}.cls-10{fill:url(#linear-gradient-5);}.cls-11{fill:url(#linear-gradient-6);}.cls-12{fill:#c7cdd8;}.cls-13{fill:url(#linear-gradient-7);}.cls-14{fill:url(#linear-gradient-8);}.cls-15{fill:url(#linear-gradient-9);}.cls-16{fill:#47566a;}</style><linearGradient id="linear-gradient" x1="49.97" y1="44.87" x2="49.97" y2="15.87" gradientUnits="userSpaceOnUse"><stop offset="0" stop-color="#8cdd79"/><stop offset="1" stop-color="#d4e6b6"/></linearGradient><linearGradient id="linear-gradient-2" x1="84.87" y1="54.85" x2="84.87" y2="3.82" gradientUnits="userSpaceOnUse"><stop offset="0" stop-color="#6ab891"/><stop offset="1" stop-color="#85cba9"/></linearGradient><linearGradient id="linear-gradient-3" x1="101.42" y1="61.84" x2="101.42" y2="25.22" xlink:href="#linear-gradient-2"/><linearGradient id="linear-gradient-4" x1="21.45" y1="61.89" x2="21.45" y2="38.81" gradientUnits="userSpaceOnUse"><stop offset="0" stop-color="#da5466"/><stop offset="1" stop-color="#e87092"/></linearGradient><linearGradient id="linear-gradient-5" x1="40.47" y1="61.87" x2="40.47" y2="38.83" xlink:href="#linear-gradient-4"/><linearGradient id="linear-gradient-6" x1="64.04" y1="123.87" x2="64.04" y2="110.74" gradientUnits="userSpaceOnUse"><stop offset="0" stop-color="#d4d8e1"/><stop offset="1" stop-color="#f3f4f5"/></linearGradient><linearGradient id="linear-gradient-7" x1="64" y1="111.86" x2="64" y2="61.81" xlink:href="#linear-gradient-6"/><linearGradient id="linear-gradient-8" x1="59.45" y1="61.86" x2="59.45" y2="38.79" xlink:href="#linear-gradient-4"/><linearGradient id="linear-gradient-9" x1="92.73" y1="61.85" x2="92.73" y2="43.2" xlink:href="#linear-gradient"/></defs><title>Vegetable</title><g id="Vegetable"><path class="cls-1" d="M75,44.84l-50,0V39.14c-.42-3.79,3.41-7.72,7.52-7.24-3.38-9.41,8.78-16.33,15.22-9a6,6,0,0,1,9.75-1,9,9,0,0,1,17.22.74Z"/><path class="cls-2" d="M89.51,43.83,26,43.87a9,9,0,0,1,12.27-9.32,4,4,0,0,1,7.21-1.39,7,7,0,0,1,7.46-.09,9,9,0,1,1,17.82,2.4A6,6,0,0,1,79,40.84,8.94,8.94,0,0,1,89.51,43.83Z"/><path class="cls-2" d="M75,44.84H61.28l.16-5.8c2-8.4,6.23-14.87,12-19.23a8.86,8.86,0,0,1,1.26,2.82Z"/><path class="cls-3" d="M105.69,28c-.06,1,.54-5.89-2.7,26.82l-39,0,.44-15.4c2-8.56,6.94-15.55,14.54-19.61,15-8,19-16,19-16S106.58,14.07,105.69,28Z"/><path class="cls-4" d="M105.69,28c-.06,1,.54-5.89-2.7,26.82l-29.43,0-.34-5.58c2.18-10.66,13-20.45,28.41-21C103.06,28.2,104.41,28.12,105.69,28Z"/><path class="cls-5" d="M118.7,55.24c-1.4,1.64-1.88,2-6.7,6.58l-35,0-.76-12.36c1.84-8.87,11.7-17.73,25.5-18.23,17-.6,24.09-6,24.09-6S130,42,118.7,55.24Z"/><path class="cls-6" d="M38,61.87l-31.91,0C-.39,44.73,21.18,31,34,43.85a17.12,17.12,0,0,1,3.8,5.79Z"/><path class="cls-7" d="M23,59.75l0,2.13H10.47a13,13,0,0,1-1.06-9.29,3,3,0,0,1,5-1.42Z"/><path class="cls-8" d="M23,59.71v2.17H10.47a12.81,12.81,0,0,1-1.31-4h12Z"/><path class="cls-7" d="M34.48,52.28l-9.85,3.4-7.35-7.34a3,3,0,0,1,1.41-5A13,13,0,0,1,34.48,52.28Z"/><path class="cls-9" d="M23.18,61.88c0-2.28.1-2.07,0-2.17l-1.89-1.89a19.15,19.15,0,0,1,.19-5.46l3.33,3.32,9.85-3.4a13,13,0,0,0-9.07-9,20.78,20.78,0,0,1,3.15-3.14A17.1,17.1,0,0,1,38,49.64l.19,12.23Z"/><path class="cls-8" d="M34.66,52.28l-9.85,3.4-3.33-3.32a19.84,19.84,0,0,1,4.11-9A13,13,0,0,1,34.66,52.28Z"/><path class="cls-9" d="M10.47,61.88H6.09a16.93,16.93,0,0,1-1-4h4A12.81,12.81,0,0,0,10.47,61.88Z"/><path class="cls-10" d="M57,61.85l-31.91,0c-5.29-14,8.8-27.41,22.47-21.69a17.08,17.08,0,0,1,9.25,9.44Z"/><path class="cls-7" d="M42,59.73l0,2.13H29.47a13.06,13.06,0,0,1-1.06-9.3,3,3,0,0,1,5-1.41Z"/><path class="cls-8" d="M42,59.69v2.17H29.47a12.87,12.87,0,0,1-1.31-4h12Z"/><path class="cls-7" d="M53.48,52.27l-9.85,3.4-7.35-7.34a3,3,0,0,1,1.41-5A13,13,0,0,1,53.48,52.27Z"/><path class="cls-9" d="M29.47,61.87H25.09a16.85,16.85,0,0,1-1-4h4A12.87,12.87,0,0,0,29.47,61.87Z"/><polyline class="cls-11" points="91.03 110.74 91.04 123.83 37.04 123.87 37.03 110.78"/><polyline class="cls-12" points="91.04 118.83 91.04 123.83 37.04 123.87 37.04 118.87"/><path class="cls-13" d="M1,61.85H127a0,0,0,0,1,0,0v4a46,46,0,0,1-46,46H47a46,46,0,0,1-46-46v-4A0,0,0,0,1,1,61.85Z"/><path class="cls-12" d="M126.64,71.67A46,46,0,0,1,81,111.84l-34,0A46,46,0,0,1,1.38,71.75a46.38,46.38,0,0,0,45,35.11l35.28,0A46.4,46.4,0,0,0,126.64,71.67Z"/><path class="cls-9" d="M42,61.86c0-2.27.1-2.07,0-2.17L40.11,57.8a19.15,19.15,0,0,1,.19-5.46l3.33,3.33,9.85-3.4a13,13,0,0,0-9.07-9,20.78,20.78,0,0,1,3.15-3.14,17.08,17.08,0,0,1,9.25,9.44L57,61.85Z"/><path class="cls-8" d="M53.48,52.27l-9.85,3.4L40.3,52.34a19.76,19.76,0,0,1,4.11-9A13,13,0,0,1,53.48,52.27Z"/><path class="cls-4" d="M78.88,54.84H64c.48-16.68.19-15.11,1.26-18.3a20.06,20.06,0,0,1,13.35,12C78.88,49.22,78.79,48.15,78.88,54.84Z"/><path class="cls-14" d="M76,61.84l-31.91,0C37.61,44.71,59.18,31,72,43.82a17.31,17.31,0,0,1,3.8,5.79Z"/><path class="cls-7" d="M61,59.72l0,2.13H48.47a13.06,13.06,0,0,1-1.06-9.3,3,3,0,0,1,5-1.41Z"/><path class="cls-8" d="M61,59.68v2.17H48.47a12.87,12.87,0,0,1-1.31-4h12Z"/><path class="cls-7" d="M72.48,52.25l-9.85,3.41-7.35-7.35a3,3,0,0,1,1.41-5A13,13,0,0,1,72.48,52.25Z"/><path class="cls-9" d="M61,61.85c0-2.28.1-2.07,0-2.17l-2.47-2.47a12.43,12.43,0,0,1,1.95-3.7l2.15,2.15,9.85-3.41c-1-3.51-2.26-3.49-.78-3.24a6.9,6.9,0,0,1,2.75-2.1,17.07,17.07,0,0,1,1.36,2.7L76,61.84Z"/><path class="cls-8" d="M72.48,52.25l-9.85,3.41-2.15-2.15A12,12,0,0,1,71,48.93,12.64,12.64,0,0,1,72.48,52.25Z"/><path class="cls-8" d="M61,59.72l0,2.13H58a11.77,11.77,0,0,1,.53-4.64Z"/><path class="cls-4" d="M118.7,55.24c-1.4,1.64-1.88,2-6.7,6.58l-35,0-.76-12.36a16.74,16.74,0,0,1,1-3.12,6.91,6.91,0,0,1,3.85,1.19A9.89,9.89,0,0,1,84.32,47c1.93,0,1.55.42,1.86-.25,5.22-10.16,20.41-8,22.49,3.3a9,9,0,0,1,7.47,5.17A12.14,12.14,0,0,1,118.7,55.24Z"/><path class="cls-15" d="M124.52,61.81,61,61.85a9,9,0,0,1,12.27-9.33,4,4,0,0,1,7.21-1.38A7,7,0,0,1,88,51a9,9,0,1,1,17.82,2.41A6,6,0,0,1,114,58.81,8.93,8.93,0,0,1,124.52,61.81Z"/><path class="cls-2" d="M124.52,61.81,61,61.85a8.75,8.75,0,0,1,.48-4l52.38,0a5.58,5.58,0,0,1,.12,1A8.93,8.93,0,0,1,124.52,61.81Z"/><path class="cls-9" d="M48.47,61.86H44.09a16.93,16.93,0,0,1-1-4h4A12.87,12.87,0,0,0,48.47,61.86Z"/><polygon class="cls-9" points="61 57.85 61 59.68 59.17 57.85 61 57.85"/><path class="cls-16" d="M127,61h-2a10.09,10.09,0,0,0-3.12-2.54,9.91,9.91,0,0,0-3.62-1.05c13-13.65,8.63-32,8.58-32.24a1,1,0,0,0-.64-.7,1,1,0,0,0-.94.15c-.06,0-5.69,4.2-18.71,5.48C108.39,15,99.17,3.84,98.77,3.36A1,1,0,0,0,97.88,3a1,1,0,0,0-.77.54c0,.08-4.11,7.85-18.58,15.57a27.84,27.84,0,0,0-3.29,2.05,10,10,0,0,0-18.09-.8,7,7,0,0,0-9.53,1.15A10,10,0,0,0,31.21,31a8,8,0,0,0-7.16,7.09A18,18,0,0,0,4.71,61H1a1,1,0,0,0-1,1v4a47.08,47.08,0,0,0,36,45.69V124a1,1,0,0,0,1,1H91a1,1,0,0,0,1-1V111.69A47.08,47.08,0,0,0,128,66V62A1,1,0,0,0,127,61Zm-4.87,0H62a7.87,7.87,0,0,1,.87-3.6,8,8,0,0,1,10.08-3.79,1,1,0,0,0,1.35-.72,2.92,2.92,0,0,1,.25-.74,3,3,0,0,1,1.65-1.45h0l.06,0a3,3,0,0,1,3.4,1.19,1,1,0,0,0,1.37.29,6,6,0,0,1,6-.3,2,2,0,0,1,.32.18A1,1,0,0,0,89,51.34a8,8,0,1,1,15.84,2.15,1,1,0,0,0,1.36,1.07A5,5,0,0,1,113,59a1,1,0,0,0,.46.8,1,1,0,0,0,.91.09,7.83,7.83,0,0,1,6.59.31A7.66,7.66,0,0,1,122.13,61Zm-111,0a11.94,11.94,0,0,1-.72-8,2,2,0,0,1,1.44-1.46,1.92,1.92,0,0,1,1.92.51l9,9Zm12.15-8L18,47.75a1.9,1.9,0,0,1-.51-1.92A2,2,0,0,1,19,44.39a11.92,11.92,0,0,1,7.82.6A18.1,18.1,0,0,0,23.26,53Zm2.55,8a16,16,0,0,1,22.9-19,19.11,19.11,0,0,0-1.44,1.28l-.14.16a14,14,0,0,0-9.68-1,4,4,0,0,0-2.89,2.86,3.94,3.94,0,0,0,1,3.86L42,55.6a16.89,16.89,0,0,0,.17,3l-8-8a3.94,3.94,0,0,0-3.86-1,4,4,0,0,0-2.86,2.89A14,14,0,0,0,27.93,61Zm16.45-8L37,47.75a1.9,1.9,0,0,1-.51-1.92A2,2,0,0,1,38,44.39a11.92,11.92,0,0,1,7.82.6A18.1,18.1,0,0,0,42.26,53ZM30.11,61a11.94,11.94,0,0,1-.72-8,2,2,0,0,1,1.44-1.46,1.92,1.92,0,0,1,1.92.51l9,9Zm14.7,0a16,16,0,0,1,3.88-16.31A15.71,15.71,0,0,1,51,42.76l.06,0a16,16,0,0,1,20.23,2,16,16,0,0,1,3.21,4.62A5,5,0,0,0,73,50.84,13.88,13.88,0,0,0,69.9,46.1a14.07,14.07,0,0,0-13.45-3.65,4,4,0,0,0-2.89,2.86,3.94,3.94,0,0,0,1,3.86L61.36,56l-.3.53a10.78,10.78,0,0,0-.59,1.41l-7.3-7.31a4,4,0,0,0-3.86-1,4,4,0,0,0-2.86,2.89A14,14,0,0,0,46.93,61Zm17.75-6.69L56,47.75a1.9,1.9,0,0,1-.51-1.92A2,2,0,0,1,57,44.39a12,12,0,0,1,14,6.69A9.93,9.93,0,0,0,62.56,54.31ZM49.11,61a11.94,11.94,0,0,1-.72-8,2,2,0,0,1,1.44-1.46,1.92,1.92,0,0,1,1.92.51L60,60.25c0,.25,0,.5,0,.75Zm66.1-3.4a2.7,2.7,0,0,0-.39.08,7,7,0,0,0-7.95-5.38A10,10,0,0,0,104,45.43c4.22-1,8.48-2.2,12.28-5.29a1,1,0,0,0-1.26-1.56c-3.92,3.2-8.35,4.22-13,5.25-.19-.12-.37-.25-.57-.35A10,10,0,0,0,88,47.82a10.07,10.07,0,0,0-.74,1.91,8,8,0,0,0-6.49.28,5,5,0,0,0-3.18-1.48c2.29-7.69,11.19-15.64,24.22-16.1,1.32,0,2.56-.13,3.75-.23h.08c10.83-.89,17-3.72,19.53-5.16C125.89,31.64,127.16,46.68,115.21,57.6ZM79.47,20.88C91.15,14.65,96.28,8.44,98.08,5.78c2.24,3.18,8,12.74,6.4,24.5-.89.07-1.8.12-2.76.15-13.68.49-23.14,8.78-25.9,17A15,15,0,0,0,75,46c1.87-6.2,6.12-9.57,10.62-13.12,3.91-3.09,8-6.28,10.34-11.45a1,1,0,0,0-1.82-.84c-2.18,4.74-5.86,7.64-9.76,10.72-4.25,3.35-8.62,6.82-10.85,12.8-.25-.28-.49-.56-.75-.83a17.89,17.89,0,0,0-7.08-4.35C67,33.89,70.48,25.67,79.47,20.88ZM32,33l.41,0a1,1,0,0,0,1.06-1.33,8,8,0,0,1,13.54-8,1,1,0,0,0,1.62-.17,5,5,0,0,1,8.13-.86,1,1,0,0,0,.94.32,1,1,0,0,0,.75-.65,8,8,0,0,1,15.14.07,31.31,31.31,0,0,0-9.87,15.94A18.34,18.34,0,0,0,60,38a17.85,17.85,0,0,0-9.51,2.73,18,18,0,0,0-19,0A17.91,17.91,0,0,0,26,38.47,6,6,0,0,1,32,33ZM10.69,44.69a16,16,0,0,1,19-2.7,17.46,17.46,0,0,0-1.45,1.28l-.14.16a14,14,0,0,0-9.68-1,4,4,0,0,0-2.89,2.86,3.94,3.94,0,0,0,1,3.86L23,55.6a16.89,16.89,0,0,0,.17,3l-8-8a4,4,0,0,0-3.86-1,4,4,0,0,0-2.86,2.89A14,14,0,0,0,8.93,61H6.81A16,16,0,0,1,10.69,44.69ZM90,123H38V112.13a47.6,47.6,0,0,0,9,.87H81a47.6,47.6,0,0,0,9-.87Zm36-57a45.05,45.05,0,0,1-45,45H47A45.05,45.05,0,0,1,2,66V63H126Z"/></g></svg>