<svg xmlns="http://www.w3.org/2000/svg" xmlns:xlink="http://www.w3.org/1999/xlink" viewBox="0 0 128 128"><defs><style>.cls-1{fill:url(#linear-gradient);}.cls-2{fill:url(#linear-gradient-2);}.cls-3{fill:#c7cdd8;}.cls-4{fill:url(#linear-gradient-3);}.cls-5{fill:url(#linear-gradient-4);}.cls-6{fill:#7ece67;}.cls-7{fill:url(#linear-gradient-5);}.cls-8{fill:url(#linear-gradient-6);}.cls-9{fill:#8288a1;}.cls-10{fill:#47566a;}</style><linearGradient id="linear-gradient" x1="65.98" y1="107" x2="65.98" y2="21" gradientUnits="userSpaceOnUse"><stop offset="0" stop-color="#d4d8e1"/><stop offset="1" stop-color="#f3f4f5"/></linearGradient><linearGradient id="linear-gradient-2" x1="65.98" y1="88" x2="65.98" y2="40" xlink:href="#linear-gradient"/><linearGradient id="linear-gradient-3" x1="82.91" y1="76" x2="82.91" y2="33" gradientUnits="userSpaceOnUse"><stop offset="0" stop-color="#8cdd79"/><stop offset="1" stop-color="#d4e6b6"/></linearGradient><linearGradient id="linear-gradient-4" x1="48.54" y1="72.13" x2="48.54" y2="45.14" xlink:href="#linear-gradient-3"/><linearGradient id="linear-gradient-5" x1="120.48" y1="109" x2="120.48" y2="15" gradientUnits="userSpaceOnUse"><stop offset="0" stop-color="#949aaf"/><stop offset="1" stop-color="#c6ccda"/></linearGradient><linearGradient id="linear-gradient-6" x1="11.98" x2="11.98" xlink:href="#linear-gradient-5"/></defs><title>Vegetarian</title><g id="Vegetarian"><circle class="cls-1" cx="65.98" cy="64" r="43"/><circle class="cls-2" cx="65.98" cy="64" r="24"/><path class="cls-3" d="M89.89,66a24,24,0,0,0-47.82,0,24,24,0,1,1,47.82,0Z"/><path class="cls-3" d="M66,107A43,43,0,0,1,23,62a43,43,0,0,0,85.9,0A43,43,0,0,1,66,107Z"/><path class="cls-4" d="M89.89,33c5.48,5,9.47,14,5.48,25.5C89.29,76,71.43,68.5,68.94,76c0-10-1.48-18,6.49-25.5C82.14,44.19,86.4,42,89.89,33Z"/><path class="cls-5" d="M35,46.21c8.42-2.19,16.34-1,20.64,3.37,8.65,8.74,6.47,17.7,5.49,22.55-10.78-.25-17.4-3.74-18.9-11.91C41,53.77,40.72,50.77,35,46.21Z"/><path class="cls-6" d="M95.36,58.5C89.29,76,71.42,68.5,68.93,76c0-3.42-.17-6.6-.09-9.61,0,1.8.09,3.67.09,5.61,2.49-7.5,20.36,0,26.43-17.5a28.68,28.68,0,0,0,1.53-7A26.61,26.61,0,0,1,95.36,58.5Z"/><path class="cls-6" d="M61.11,72.13c-10.78-.25-17.41-3.74-18.9-11.91-1.18-6.45-1.5-9.45-7.23-14a4.71,4.71,0,0,1,5.57,2.89c2.51,6.45-.33,18.55,20.56,19A45.14,45.14,0,0,0,62,62.58,31.73,31.73,0,0,1,61.11,72.13Z"/><path class="cls-7" d="M114,38.26V61l5,3v41a4,4,0,0,0,8,0V15A27.32,27.32,0,0,0,114,38.26Z"/><path class="cls-8" d="M21.16,15A2,2,0,0,0,19,17V34.34A2.61,2.61,0,0,1,16.33,37,2.5,2.5,0,0,1,14,34.5V17.11A2.08,2.08,0,0,0,12.16,15,2,2,0,0,0,10,17V34.34A2.61,2.61,0,0,1,7.33,37,2.5,2.5,0,0,1,5,34.5V17.11A2.08,2.08,0,0,0,3.16,15,2,2,0,0,0,1,17V37a10,10,0,0,0,7,9.52V105a4,4,0,0,0,8,0V46.52A10,10,0,0,0,23,37V17.11A2.08,2.08,0,0,0,21.16,15Z"/><path class="cls-9" d="M127,101c0,3.71.34,5.31-1.17,6.83A4,4,0,0,1,119,105v-4a4,4,0,0,0,8,0Z"/><path class="cls-9" d="M16,101v4a4,4,0,0,1-8,0v-4a4,4,0,0,0,8,0Z"/><path class="cls-10" d="M90.58,32.26a1,1,0,0,0-.91-.23,1,1,0,0,0-.7.61A27.41,27.41,0,0,1,81.09,44.1a24.88,24.88,0,0,0-31.39,1,28.23,28.23,0,0,0-15,.16A1,1,0,0,0,34,46a1,1,0,0,0,.36,1c5.18,4.13,5.66,6.77,6.71,12.57l.15.84,0,.06A24.28,24.28,0,0,0,41,64,25.12,25.12,0,0,0,64.66,89,53.56,53.56,0,0,1,65,95a1,1,0,0,0,2,0c0-2.17.09-4.18.24-6.06a25,25,0,0,0,23.5-21.47,19.57,19.57,0,0,0,5.59-8.64C99.84,48.69,97.69,38.75,90.58,32.26ZM66,41a23,23,0,0,1,13.57,4.46l-.9.79c-1.23,1.08-2.5,2.2-3.91,3.52-7.19,6.77-7,13.92-6.86,22.21,0,1.16,0,2.36,0,3.59a44.1,44.1,0,0,0-2.08,8.06,55.53,55.53,0,0,0-3.71-11.57l.05-.22c1-4.94,2.87-14.13-5.86-23a14.24,14.24,0,0,0-4.47-3A23,23,0,0,1,66,41ZM37.17,46.73c7.4-1.47,14.09-.17,17.76,3.55C61.72,57.15,61.52,64.1,60.7,69A51.33,51.33,0,0,0,48.91,53.72a1,1,0,1,0-1.24,1.56A50,50,0,0,1,59.5,71.06c-9.82-.57-15-4.09-16.29-11l-.15-.83C42.09,53.86,41.52,50.68,37.17,46.73Zm5.88,18.64c2.85,4.87,8.6,7.41,17.39,7.73a53.71,53.71,0,0,1,4,13.84A23.12,23.12,0,0,1,43.05,65.37ZM67.43,86.92a46.32,46.32,0,0,1,2.28-10.28,1,1,0,0,0,.19-.32c.76-2.29,3.43-2.89,7.73-3.66,3.29-.6,7.22-1.32,10.77-3.48A23.06,23.06,0,0,1,67.43,86.92Zm27-28.75C91,68.22,83.37,69.59,77.27,70.69a29.66,29.66,0,0,0-5.55,1.36c2.62-5,6-8.31,9.14-11.45,4.29-4.26,8.34-8.29,9.74-15.41A1,1,0,0,0,89.81,44a1,1,0,0,0-1.17.79c-1.29,6.52-5,10.16-9.19,14.37-3.31,3.29-6.83,6.79-9.57,12-.16-7.78-.09-14,6.26-20,1.38-1.3,2.63-2.41,3.85-3.47,4.33-3.82,7.54-6.65,10.27-13C93.27,38,98.69,45.92,94.44,58.17Z"/><path class="cls-10" d="M127.49,14.13a1,1,0,0,0-1,0A28.47,28.47,0,0,0,113,38.26V61a1,1,0,0,0,.49.86L118,64.57V105a5,5,0,0,0,10,0V15A1,1,0,0,0,127.49,14.13ZM126,105a3,3,0,0,1-6,0V64a1,1,0,0,0-.49-.86L115,60.43V38.26a26.5,26.5,0,0,1,11-21.39Z"/><path class="cls-10" d="M24,17.11A3.07,3.07,0,0,0,21.26,14h0A3,3,0,0,0,18,17V34.34a1.77,1.77,0,0,1-.54,1.26,1.42,1.42,0,0,1-1.05.4,1.46,1.46,0,0,1-1-.44A1.48,1.48,0,0,1,15,34.5V17.11A3.07,3.07,0,0,0,12.26,14,3,3,0,0,0,9,17V34.34a1.77,1.77,0,0,1-.54,1.26,1.42,1.42,0,0,1-1.05.4,1.46,1.46,0,0,1-1-.44A1.48,1.48,0,0,1,6,34.5V17.11A3.07,3.07,0,0,0,3.26,14,3,3,0,0,0,0,17V37A10.91,10.91,0,0,0,7,47.23V105a5,5,0,0,0,10,0V47.23A10.91,10.91,0,0,0,24,37ZM22,37a8.92,8.92,0,0,1-6.3,8.56,1,1,0,0,0-.7,1V105a3,3,0,0,1-6,0V46.52a1,1,0,0,0-.7-1A8.92,8.92,0,0,1,2,37V17a1,1,0,0,1,.31-.71A.93.93,0,0,1,3,16h.09A1.09,1.09,0,0,1,4,17.11V34.5A3.48,3.48,0,0,0,5,37a3.52,3.52,0,0,0,2.27,1,3.37,3.37,0,0,0,2.54-.94A3.75,3.75,0,0,0,11,34.34V17a1,1,0,0,1,.31-.71.93.93,0,0,1,.78-.29A1.09,1.09,0,0,1,13,17.11V34.5A3.48,3.48,0,0,0,14,37a3.52,3.52,0,0,0,2.27,1,3.37,3.37,0,0,0,2.54-.94A3.75,3.75,0,0,0,20,34.34V17a1,1,0,0,1,1.09-1A1.09,1.09,0,0,1,22,17.11Z"/><path class="cls-10" d="M66,20a44,44,0,1,0,44,44A44.05,44.05,0,0,0,66,20Zm0,86a42,42,0,1,1,42-42A42,42,0,0,1,66,106Z"/></g></svg>