<svg xmlns="http://www.w3.org/2000/svg" xmlns:xlink="http://www.w3.org/1999/xlink" viewBox="0 0 128 128"><defs><style>.cls-1{fill:url(#linear-gradient);}.cls-2{fill:#f6b756;}.cls-3{fill:url(#linear-gradient-2);}.cls-4{fill:#c7cdd8;}.cls-5{fill:url(#linear-gradient-3);}.cls-6{fill:url(#linear-gradient-4);}.cls-7{fill:#ed9d56;}.cls-8{fill:url(#linear-gradient-5);}.cls-9{fill:url(#linear-gradient-6);}.cls-10{fill:url(#linear-gradient-7);}.cls-11{fill:#dd4e6a;}.cls-12{fill:url(#linear-gradient-8);}.cls-13{fill:url(#linear-gradient-9);}.cls-14{fill:#ffd39f;}.cls-15{fill:#47566a;}</style><linearGradient id="linear-gradient" x1="44" y1="127" x2="44" y2="25" gradientUnits="userSpaceOnUse"><stop offset="0" stop-color="#fbcc88"/><stop offset="1" stop-color="#ffe5c3"/></linearGradient><linearGradient id="linear-gradient-2" x1="44" y1="25" x2="44" y2="1" gradientUnits="userSpaceOnUse"><stop offset="0" stop-color="#d4d8e1"/><stop offset="1" stop-color="#f3f4f5"/></linearGradient><linearGradient id="linear-gradient-3" x1="38" y1="110" x2="38" y2="52" xlink:href="#linear-gradient-2"/><linearGradient id="linear-gradient-4" x1="38.01" y1="101" x2="38.01" y2="71" gradientUnits="userSpaceOnUse"><stop offset="0" stop-color="#f2a961"/><stop offset="1" stop-color="#fbcc88"/></linearGradient><linearGradient id="linear-gradient-5" x1="32" y1="71" x2="32" y2="63" gradientUnits="userSpaceOnUse"><stop offset="0" stop-color="#8cdd79"/><stop offset="1" stop-color="#d4e6b6"/></linearGradient><linearGradient id="linear-gradient-6" x1="112.99" y1="127" x2="112.99" y2="91" gradientUnits="userSpaceOnUse"><stop offset="0" stop-color="#da5466"/><stop offset="1" stop-color="#e87092"/></linearGradient><linearGradient id="linear-gradient-7" x1="113.3" y1="109" x2="113.3" y2="91" xlink:href="#linear-gradient"/><linearGradient id="linear-gradient-8" x1="98" y1="125.36" x2="98" y2="94.63" xlink:href="#linear-gradient"/><linearGradient id="linear-gradient-9" x1="102.5" y1="116.36" x2="102.5" y2="94.63" xlink:href="#linear-gradient-6"/></defs><title>Vitamin</title><g id="Vitamin"><path class="cls-1" d="M63,29V25H25v4L14.39,32.35A12,12,0,0,0,6,43.79V121a6,6,0,0,0,6,6H76a6,6,0,0,0,6-6V43.79a12,12,0,0,0-8.39-11.44Z"/><path class="cls-2" d="M82,115v6a6,6,0,0,1-6,6H12a6,6,0,0,1-6-6v-6a6,6,0,0,0,6,6H76A6,6,0,0,0,82,115Z"/><path class="cls-3" d="M23,1H65a4,4,0,0,1,4,4V25a0,0,0,0,1,0,0H19a0,0,0,0,1,0,0V5A4,4,0,0,1,23,1Z"/><rect class="cls-4" x="19" y="21" width="50" height="4"/><path class="cls-4" d="M43,19V7a1,1,0,0,1,2,0V19A1,1,0,0,1,43,19Z"/><path class="cls-4" d="M49,19V7a1,1,0,0,1,2,0V19A1,1,0,0,1,49,19Z"/><path class="cls-4" d="M55,19V7a1,1,0,0,1,2,0V19A1,1,0,0,1,55,19Z"/><path class="cls-4" d="M61,19V7a1,1,0,0,1,2,0V19A1,1,0,0,1,61,19Z"/><path class="cls-4" d="M25,19V7a1,1,0,0,1,2,0V19A1,1,0,0,1,25,19Z"/><path class="cls-4" d="M31,19V7a1,1,0,0,1,2,0V19A1,1,0,0,1,31,19Z"/><path class="cls-4" d="M37,19V7a1,1,0,0,1,2,0V19A1,1,0,0,1,37,19Z"/><rect class="cls-5" x="6" y="52" width="64" height="58"/><rect class="cls-4" x="6" y="104" width="64" height="6"/><path class="cls-6" d="M38,101c-24,0-18.49-30,0-30S62.13,101,38,101Z"/><path class="cls-7" d="M38,101c-11.6,0-17.45-7.08-15.73-16.51C23.66,91.62,30.17,95,38,95s14.34-3.38,15.73-10.51C55.44,93.92,49.6,101,38,101Z"/><path class="cls-8" d="M38,71H34a8,8,0,0,1-8-8h4A8,8,0,0,1,38,71Z"/><path class="cls-9" d="M122,100v18a9,9,0,0,1-18,0c0-1.68-.25,1.91,1.71-23.26C110.82,87.62,122,91.4,122,100Z"/><path class="cls-10" d="M122,100v9H104.6l1.11-14.26C110.79,87.67,122,91.3,122,100Z"/><path class="cls-11" d="M122,113.27V118a9,9,0,0,1-18,0,22.4,22.4,0,0,1,.14-3.12A9,9,0,0,0,122,113.27Z"/><path class="cls-12" d="M113.36,103.64a9,9,0,0,1-2.63,6.36L98,122.73A9,9,0,1,1,85.27,110C95.75,99.54,89.42,105.85,98,97.27A9,9,0,0,1,113.36,103.64Z"/><path class="cls-13" d="M113.36,103.64a9,9,0,0,1-2.63,6.36l-6.36,6.36c-.1,0,.16.17-12.73-12.72,0-.1-.1.09,6.36-6.37A9,9,0,0,1,113.36,103.64Z"/><path class="cls-2" d="M104.37,116.36,98,122.73a9,9,0,0,1-14-1.68,9,9,0,0,0,11-1.32l6.37-6.36C104.42,116.42,104.27,116.36,104.37,116.36Z"/><path class="cls-11" d="M110.73,110l-6.36,6.36c-.1,0,0,0-3-3l6.36-6.37a9,9,0,0,0,2.63-6.36c0-3.9-2.53-5.74-.42-4.07A9,9,0,0,1,110.73,110Z"/><rect class="cls-14" x="25" y="25" width="38" height="4"/><path class="cls-15" d="M44,20a1,1,0,0,0,1-1V7a1,1,0,0,0-2,0V19A1,1,0,0,0,44,20Z"/><path class="cls-15" d="M50,20a1,1,0,0,0,1-1V7a1,1,0,0,0-2,0V19A1,1,0,0,0,50,20Z"/><path class="cls-15" d="M56,20a1,1,0,0,0,1-1V7a1,1,0,0,0-2,0V19A1,1,0,0,0,56,20Z"/><path class="cls-15" d="M62,20a1,1,0,0,0,1-1V7a1,1,0,0,0-2,0V19A1,1,0,0,0,62,20Z"/><path class="cls-15" d="M26,20a1,1,0,0,0,1-1V7a1,1,0,0,0-2,0V19A1,1,0,0,0,26,20Z"/><path class="cls-15" d="M32,20a1,1,0,0,0,1-1V7a1,1,0,0,0-2,0V19A1,1,0,0,0,32,20Z"/><path class="cls-15" d="M38,20a1,1,0,0,0,1-1V7a1,1,0,0,0-2,0V19A1,1,0,0,0,38,20Z"/><path class="cls-15" d="M39,70.05V67a5,5,0,0,1,5-5,1,1,0,0,0,0-2,7,7,0,0,0-6.85,5.56A9,9,0,0,0,30,62H26a1,1,0,0,0-1,1,9,9,0,0,0,6.12,8.52A17.59,17.59,0,0,0,21,87.55C21,96.46,27.51,102,38,102s17-5.54,17-14.45A17.33,17.33,0,0,0,39,70.05ZM27.07,64H30a7,7,0,0,1,6.93,6H34A7,7,0,0,1,27.07,64ZM38,100c-9.39,0-15-4.65-15-12.45C23,79,29.73,72,38,72s15,7,15,15.55C53,95.35,47.39,100,38,100Z"/><path class="cls-15" d="M120.07,92.94A9.87,9.87,0,0,0,113,90a10,10,0,0,0-7.72,3.68,10,10,0,0,0-8,2.88l-6.36,6.37h0l-6.36,6.36a10.16,10.16,0,0,0-1.57,2V43.79A12.94,12.94,0,0,0,73.91,31.4L64,28.27V26h5a1,1,0,0,0,1-1V5a5,5,0,0,0-5-5H23a5,5,0,0,0-5,5V25a1,1,0,0,0,1,1h5v2.27L14.09,31.4A12.94,12.94,0,0,0,5,43.79V121a7,7,0,0,0,7,7H76a7,7,0,0,0,7-6.65,9.88,9.88,0,0,0,1.59,2.09,10,10,0,0,0,14.14,0l4.35-4.36A10,10,0,0,0,123,118V100A9.86,9.86,0,0,0,120.07,92.94ZM113,92a8,8,0,0,1,8,8v8h-7.65a10,10,0,0,0-5.8-13.83A8,8,0,0,1,113,92ZM98.71,98A8,8,0,0,1,110,109.29L104.36,115,93.05,103.64ZM20,5a3,3,0,0,1,3-3H65a3,3,0,0,1,3,3V24H20ZM7,53H69v56H7Zm74,68a5,5,0,0,1-5,5H12a5,5,0,0,1-5-5V111H70a1,1,0,0,0,1-1V52a1,1,0,0,0-1-1H7V43.79a11,11,0,0,1,7.69-10.48L25.3,30A1,1,0,0,0,26,29V26H62v3a1,1,0,0,0,.7.95l10.61,3.36A11,11,0,0,1,81,43.79Zm16.29,1A8,8,0,0,1,86,110.71l5.66-5.66L103,116.36ZM113,126a8,8,0,0,1-8-8v-.86l.07-.07h0l6.36-6.36c.23-.23.44-.47.64-.71H121v8A8,8,0,0,1,113,126Z"/></g></svg>